<?xml version="1.0" encoding="UTF-8" standalone="no"?>
<!-- Created with Inkscape (http://www.inkscape.org/) -->

<svg
   xmlns:dc="http://purl.org/dc/elements/1.1/"
   xmlns:cc="http://creativecommons.org/ns#"
   xmlns:rdf="http://www.w3.org/1999/02/22-rdf-syntax-ns#"
   xmlns:svg="http://www.w3.org/2000/svg"
   xmlns="http://www.w3.org/2000/svg"
   xmlns:sodipodi="http://sodipodi.sourceforge.net/DTD/sodipodi-0.dtd"
   xmlns:inkscape="http://www.inkscape.org/namespaces/inkscape"
   width="486.62411"
   height="469.84396"
   id="svg4877"
   version="1.1"
   inkscape:version="0.91 r13725"
   viewBox="0 0 486.62411 469.84396"
   sodipodi:docname="clausius_inequality.svg"
   inkscape:export-filename="/home/sandeep/Desktop/figures/secondlaw/clausius-inequality.png"
   inkscape:export-xdpi="90"
   inkscape:export-ydpi="90">
  <sodipodi:namedview
     id="base"
     pagecolor="#ffffff"
     bordercolor="#666666"
     borderopacity="1.0"
     inkscape:pageopacity="0.0"
     inkscape:pageshadow="2"
     inkscape:zoom="0.77472527"
     inkscape:cx="351.98879"
     inkscape:cy="239.90215"
     inkscape:current-layer="layer1"
     inkscape:document-units="px"
     showgrid="true"
     inkscape:window-width="1317"
     inkscape:window-height="744"
     inkscape:window-x="49"
     inkscape:window-y="24"
     inkscape:window-maximized="1"
     inkscape:snap-nodes="true"
     inkscape:object-nodes="true"
     inkscape:snap-intersection-paths="true"
     inkscape:snap-grids="false"
     inkscape:object-paths="false"
     inkscape:snap-smooth-nodes="true"
     inkscape:snap-midpoints="true"
     showguides="false"
     fit-margin-top="0"
     fit-margin-left="0"
     fit-margin-right="0"
     fit-margin-bottom="0">
    <inkscape:grid
       type="xygrid"
       id="grid8352"
       originx="-77.446807"
       originy="3.8723297" />
  </sodipodi:namedview>
  <defs
     id="defs4879">
    <marker
       inkscape:stockid="Arrow2Mend"
       orient="auto"
       refY="0"
       refX="0"
       id="marker5569"
       style="overflow:visible"
       inkscape:isstock="true">
      <path
         id="path5571"
         style="fill:#000000;fill-opacity:1;fill-rule:evenodd;stroke:#000000;stroke-width:0.625;stroke-linejoin:round;stroke-opacity:1"
         d="M 8.7185878,4.0337352 -2.2072895,0.01601326 8.7185884,-4.0017078 c -1.7454984,2.3720609 -1.7354408,5.6174519 -6e-7,8.035443 z"
         transform="scale(-0.6,-0.6)"
         inkscape:connector-curvature="0" />
    </marker>
    <marker
       inkscape:stockid="Arrow1Mend"
       orient="auto"
       refY="0"
       refX="0"
       id="marker5566"
       style="overflow:visible"
       inkscape:isstock="true">
      <path
         id="path5314"
         d="M 0,0 5,-5 -12.5,0 5,5 0,0 Z"
         style="fill:#000000;fill-opacity:1;fill-rule:evenodd;stroke:#000000;stroke-width:1pt;stroke-opacity:1"
         transform="matrix(-0.4,0,0,-0.4,-4,0)"
         inkscape:connector-curvature="0" />
    </marker>
    <marker
       inkscape:stockid="Arrow2Send"
       orient="auto"
       refY="0"
       refX="0"
       id="Arrow2Send"
       style="overflow:visible"
       inkscape:isstock="true">
      <path
         id="path5338"
         style="fill:#000000;fill-opacity:1;fill-rule:evenodd;stroke:#000000;stroke-width:0.625;stroke-linejoin:round;stroke-opacity:1"
         d="M 8.7185878,4.0337352 -2.2072895,0.01601326 8.7185884,-4.0017078 c -1.7454984,2.3720609 -1.7354408,5.6174519 -6e-7,8.035443 z"
         transform="matrix(-0.3,0,0,-0.3,0.69,0)"
         inkscape:connector-curvature="0" />
    </marker>
    <marker
       inkscape:stockid="Arrow2Mend"
       orient="auto"
       refY="0"
       refX="0"
       id="marker5561"
       style="overflow:visible"
       inkscape:isstock="true">
      <path
         id="path5332"
         style="fill:#000000;fill-opacity:1;fill-rule:evenodd;stroke:#000000;stroke-width:0.625;stroke-linejoin:round;stroke-opacity:1"
         d="M 8.7185878,4.0337352 -2.2072895,0.01601326 8.7185884,-4.0017078 c -1.7454984,2.3720609 -1.7354408,5.6174519 -6e-7,8.035443 z"
         transform="scale(-0.6,-0.6)"
         inkscape:connector-curvature="0" />
    </marker>
    <marker
       inkscape:isstock="true"
       style="overflow:visible"
       id="marker4208"
       refX="0"
       refY="0"
       orient="auto"
       inkscape:stockid="Arrow1Mend">
      <path
         transform="matrix(-0.4,0,0,-0.4,-4,0)"
         style="fill:#000000;fill-opacity:1;fill-rule:evenodd;stroke:#000000;stroke-width:1pt;stroke-opacity:1"
         d="M 0,0 5,-5 -12.5,0 5,5 0,0 Z"
         id="path4210"
         inkscape:connector-curvature="0" />
    </marker>
    <marker
       inkscape:isstock="true"
       style="overflow:visible"
       id="marker4186"
       refX="0"
       refY="0"
       orient="auto"
       inkscape:stockid="Arrow2Mend">
      <path
         transform="scale(-0.6,-0.6)"
         d="M 8.7185878,4.0337352 -2.2072895,0.01601326 8.7185884,-4.0017078 c -1.7454984,2.3720609 -1.7354408,5.6174519 -6e-7,8.035443 z"
         style="fill:#000000;fill-opacity:1;fill-rule:evenodd;stroke:#000000;stroke-width:0.625;stroke-linejoin:round;stroke-opacity:1"
         id="path4188"
         inkscape:connector-curvature="0" />
    </marker>
    <marker
       inkscape:isstock="true"
       style="overflow:visible"
       id="marker9631"
       refX="0"
       refY="0"
       orient="auto"
       inkscape:stockid="Arrow2Mend">
      <path
         transform="scale(-0.6,-0.6)"
         d="M 8.7185878,4.0337352 -2.2072895,0.01601326 8.7185884,-4.0017078 c -1.7454984,2.3720609 -1.7354408,5.6174519 -6e-7,8.035443 z"
         style="fill:#ff0000;fill-opacity:0.2745098;fill-rule:evenodd;stroke:none;stroke-width:0.625;stroke-linejoin:round;stroke-opacity:1"
         id="path9633"
         inkscape:connector-curvature="0" />
    </marker>
    <marker
       inkscape:isstock="true"
       style="overflow:visible"
       id="marker9541"
       refX="0"
       refY="0"
       orient="auto"
       inkscape:stockid="Arrow2Mend">
      <path
         transform="scale(-0.6,-0.6)"
         d="M 8.7185878,4.0337352 -2.2072895,0.01601326 8.7185884,-4.0017078 c -1.7454984,2.3720609 -1.7354408,5.6174519 -6e-7,8.035443 z"
         style="fill:none;fill-opacity:1;fill-rule:evenodd;stroke:none;stroke-width:0.625;stroke-linejoin:round;stroke-opacity:1"
         id="path9543"
         inkscape:connector-curvature="0" />
    </marker>
    <marker
       inkscape:isstock="true"
       style="overflow:visible"
       id="marker9451"
       refX="0"
       refY="0"
       orient="auto"
       inkscape:stockid="Arrow2Mend">
      <path
         transform="scale(-0.6,-0.6)"
         d="M 8.7185878,4.0337352 -2.2072895,0.01601326 8.7185884,-4.0017078 c -1.7454984,2.3720609 -1.7354408,5.6174519 -6e-7,8.035443 z"
         style="fill:#000000;fill-opacity:1;fill-rule:evenodd;stroke:#000000;stroke-width:0.625;stroke-linejoin:round;stroke-opacity:1"
         id="path9453"
         inkscape:connector-curvature="0" />
    </marker>
    <marker
       inkscape:isstock="true"
       style="overflow:visible"
       id="marker9399"
       refX="0"
       refY="0"
       orient="auto"
       inkscape:stockid="Arrow2Mend">
      <path
         transform="scale(-0.6,-0.6)"
         d="M 8.7185878,4.0337352 -2.2072895,0.01601326 8.7185884,-4.0017078 c -1.7454984,2.3720609 -1.7354408,5.6174519 -6e-7,8.035443 z"
         style="fill:#000000;fill-opacity:1;fill-rule:evenodd;stroke:#000000;stroke-width:0.625;stroke-linejoin:round;stroke-opacity:1"
         id="path9401"
         inkscape:connector-curvature="0" />
    </marker>
    <marker
       inkscape:stockid="Arrow1Mend"
       orient="auto"
       refY="0"
       refX="0"
       id="marker8914"
       style="overflow:visible"
       inkscape:isstock="true"
       inkscape:collect="always">
      <path
         id="path8916"
         d="M 0,0 5,-5 -12.5,0 5,5 0,0 Z"
         style="fill:#000000;fill-opacity:1;fill-rule:evenodd;stroke:#000000;stroke-width:1pt;stroke-opacity:1"
         transform="matrix(-0.4,0,0,-0.4,-4,0)"
         inkscape:connector-curvature="0" />
    </marker>
    <marker
       inkscape:stockid="Arrow1Send"
       orient="auto"
       refY="0"
       refX="0"
       id="Arrow1Send"
       style="overflow:visible"
       inkscape:isstock="true">
      <path
         id="path8409"
         d="M 0,0 5,-5 -12.5,0 5,5 0,0 Z"
         style="fill:#000000;fill-opacity:1;fill-rule:evenodd;stroke:#000000;stroke-width:1pt;stroke-opacity:1"
         transform="matrix(-0.2,0,0,-0.2,-1.2,0)"
         inkscape:connector-curvature="0" />
    </marker>
    <marker
       inkscape:stockid="Arrow2Mend"
       orient="auto"
       refY="0"
       refX="0"
       id="marker8812"
       style="overflow:visible"
       inkscape:isstock="true">
      <path
         id="path8814"
         style="fill:#000000;fill-opacity:1;fill-rule:evenodd;stroke:#000000;stroke-width:0.625;stroke-linejoin:round;stroke-opacity:1"
         d="M 8.7185878,4.0337352 -2.2072895,0.01601326 8.7185884,-4.0017078 c -1.7454984,2.3720609 -1.7354408,5.6174519 -6e-7,8.035443 z"
         transform="scale(-0.6,-0.6)"
         inkscape:connector-curvature="0" />
    </marker>
    <marker
       inkscape:stockid="Arrow2Mend"
       orient="auto"
       refY="0"
       refX="0"
       id="Arrow2Mend"
       style="overflow:visible"
       inkscape:isstock="true">
      <path
         id="path8421"
         style="fill:#000000;fill-opacity:1;fill-rule:evenodd;stroke:#000000;stroke-width:0.625;stroke-linejoin:round;stroke-opacity:1"
         d="M 8.7185878,4.0337352 -2.2072895,0.01601326 8.7185884,-4.0017078 c -1.7454984,2.3720609 -1.7354408,5.6174519 -6e-7,8.035443 z"
         transform="scale(-0.6,-0.6)"
         inkscape:connector-curvature="0" />
    </marker>
    <marker
       inkscape:stockid="Arrow1Mend"
       orient="auto"
       refY="0"
       refX="0"
       id="Arrow1Mend"
       style="overflow:visible"
       inkscape:isstock="true">
      <path
         id="path8403"
         d="M 0,0 5,-5 -12.5,0 5,5 0,0 Z"
         style="fill-rule:evenodd;stroke:#000000;stroke-width:1pt"
         transform="matrix(-0.4,0,0,-0.4,-4,0)"
         inkscape:connector-curvature="0" />
    </marker>
    <marker
       inkscape:stockid="Arrow2Mend"
       orient="auto"
       refY="0"
       refX="0"
       id="Arrow2Mend-5"
       style="overflow:visible"
       inkscape:isstock="true">
      <path
         inkscape:connector-curvature="0"
         id="path8421-3"
         style="fill:#000000;fill-opacity:1;fill-rule:evenodd;stroke:#000000;stroke-width:0.625;stroke-linejoin:round;stroke-opacity:1"
         d="M 8.7185878,4.0337352 -2.2072895,0.01601326 8.7185884,-4.0017078 c -1.7454984,2.3720609 -1.7354408,5.6174519 -6e-7,8.035443 z"
         transform="scale(-0.6,-0.6)" />
    </marker>
    <marker
       inkscape:stockid="Arrow2Mend"
       orient="auto"
       refY="0"
       refX="0"
       id="marker8772-6"
       style="overflow:visible"
       inkscape:isstock="true">
      <path
         inkscape:connector-curvature="0"
         id="path8774-2"
         style="fill:#000000;fill-opacity:1;fill-rule:evenodd;stroke:#000000;stroke-width:0.625;stroke-linejoin:round;stroke-opacity:1"
         d="M 8.7185878,4.0337352 -2.2072895,0.01601326 8.7185884,-4.0017078 c -1.7454984,2.3720609 -1.7354408,5.6174519 -6e-7,8.035443 z"
         transform="scale(-0.6,-0.6)" />
    </marker>
    <marker
       inkscape:stockid="Arrow2Mend"
       orient="auto"
       refY="0"
       refX="0"
       id="marker8772-1"
       style="overflow:visible"
       inkscape:isstock="true">
      <path
         inkscape:connector-curvature="0"
         id="path8774-27"
         style="fill:#000000;fill-opacity:1;fill-rule:evenodd;stroke:#000000;stroke-width:0.625;stroke-linejoin:round;stroke-opacity:1"
         d="M 8.7185878,4.0337352 -2.2072895,0.01601326 8.7185884,-4.0017078 c -1.7454984,2.3720609 -1.7354408,5.6174519 -6e-7,8.035443 z"
         transform="scale(-0.6,-0.6)" />
    </marker>
  </defs>
  <metadata
     id="metadata4882">
    <rdf:RDF>
      <cc:Work
         rdf:about="">
        <dc:format>image/svg+xml</dc:format>
        <dc:type
           rdf:resource="http://purl.org/dc/dcmitype/StillImage" />
        <dc:title></dc:title>
      </cc:Work>
    </rdf:RDF>
  </metadata>
  <g
     id="layer1"
     inkscape:label="Layer 1"
     inkscape:groupmode="layer"
     transform="translate(-77.446808,-14.028366)">
    <rect
       style="color:#000000;clip-rule:nonzero;display:inline;overflow:visible;visibility:visible;opacity:1;isolation:auto;mix-blend-mode:normal;color-interpolation:sRGB;color-interpolation-filters:linearRGB;solid-color:#000000;solid-opacity:1;fill:#ff0000;fill-opacity:0.2745098;fill-rule:nonzero;stroke:#ff0000;stroke-width:1.14748466;stroke-linecap:butt;stroke-linejoin:miter;stroke-miterlimit:4;stroke-dasharray:none;stroke-dashoffset:0;stroke-opacity:1;color-rendering:auto;image-rendering:auto;shape-rendering:auto;text-rendering:auto;enable-background:accumulate"
       id="rect6358"
       width="382.07092"
       height="52.921986"
       x="120.73758"
       y="56.624111" />
    <circle
       style="color:#000000;clip-rule:nonzero;display:inline;overflow:visible;visibility:visible;opacity:1;isolation:auto;mix-blend-mode:normal;color-interpolation:sRGB;color-interpolation-filters:linearRGB;solid-color:#000000;solid-opacity:1;fill:#ffff00;fill-opacity:0.2745098;fill-rule:nonzero;stroke:#000000;stroke-width:2.31214309;stroke-linecap:butt;stroke-linejoin:miter;stroke-miterlimit:4;stroke-dasharray:none;stroke-dashoffset:0;stroke-opacity:1;color-rendering:auto;image-rendering:auto;shape-rendering:auto;text-rendering:auto;enable-background:accumulate"
       id="path6365"
       cx="311.77304"
       cy="232.42554"
       r="58.085106" />
    <path
       style="color:#000000;clip-rule:nonzero;display:inline;overflow:visible;visibility:visible;opacity:1;isolation:auto;mix-blend-mode:normal;color-interpolation:sRGB;color-interpolation-filters:linearRGB;solid-color:#000000;solid-opacity:1;fill:none;fill-opacity:0.39215686;fill-rule:nonzero;stroke:#0000ff;stroke-width:5;stroke-linecap:butt;stroke-linejoin:miter;stroke-miterlimit:4;stroke-dasharray:none;stroke-dashoffset:0;stroke-opacity:1;color-rendering:auto;image-rendering:auto;shape-rendering:auto;text-rendering:auto;enable-background:accumulate"
       d="m 431.12056,434.56738 -223.30496,0 0,-76.15603 223.30496,0"
       id="rect6367"
       inkscape:connector-curvature="0"
       sodipodi:nodetypes="cccc" />
    <rect
       style="color:#000000;clip-rule:nonzero;display:inline;overflow:visible;visibility:visible;opacity:1;isolation:auto;mix-blend-mode:normal;color-interpolation:sRGB;color-interpolation-filters:linearRGB;solid-color:#000000;solid-opacity:1;fill:#999999;fill-opacity:0.39215686;fill-rule:nonzero;stroke:#808080;stroke-width:1;stroke-linecap:butt;stroke-linejoin:miter;stroke-miterlimit:4;stroke-dasharray:none;stroke-dashoffset:0;stroke-opacity:1;color-rendering:auto;image-rendering:auto;shape-rendering:auto;text-rendering:auto;enable-background:accumulate"
       id="rect8295"
       width="37.557877"
       height="69.503059"
       x="360.45596"
       y="361.49274" />
    <path
       style="color:#000000;clip-rule:nonzero;display:inline;overflow:visible;visibility:visible;opacity:1;isolation:auto;mix-blend-mode:normal;color-interpolation:sRGB;color-interpolation-filters:linearRGB;solid-color:#000000;solid-opacity:1;fill:#999999;fill-opacity:0.39215686;fill-rule:nonzero;stroke:#808080;stroke-width:1;stroke-linecap:butt;stroke-linejoin:round;stroke-miterlimit:4;stroke-dasharray:none;stroke-dashoffset:0;stroke-opacity:1;color-rendering:auto;image-rendering:auto;shape-rendering:auto;text-rendering:auto;enable-background:accumulate"
       d="m 398.50925,390.31161 36.96513,0 c -2.73139,3.40504 -1.08222,4.62424 0,5.81859 2.53969,1.93953 1.61015,3.87906 0,5.81859 l -36.96513,0 z"
       id="rect8297"
       inkscape:connector-curvature="0"
       sodipodi:nodetypes="cccccc" />
    <path
       style="color:#000000;clip-rule:nonzero;display:inline;overflow:visible;visibility:visible;opacity:1;isolation:auto;mix-blend-mode:normal;color-interpolation:sRGB;color-interpolation-filters:linearRGB;solid-color:#000000;solid-opacity:1;fill:none;fill-opacity:0.39215686;fill-rule:nonzero;stroke:#808080;stroke-width:1;stroke-linecap:butt;stroke-linejoin:miter;stroke-miterlimit:4;stroke-dasharray:none;stroke-dashoffset:0;stroke-opacity:1;color-rendering:auto;image-rendering:auto;shape-rendering:auto;text-rendering:auto;enable-background:accumulate"
       d="m 435.47438,390.31161 c 2.19915,1.12124 2.42388,2.97715 0,5.81859"
       id="path8314"
       inkscape:connector-curvature="0"
       sodipodi:nodetypes="cc" />
    <path
       style="color:#000000;clip-rule:nonzero;display:inline;overflow:visible;visibility:visible;opacity:1;isolation:auto;mix-blend-mode:normal;color-interpolation:sRGB;color-interpolation-filters:linearRGB;solid-color:#000000;solid-opacity:1;fill:#999999;fill-opacity:0.39215686;fill-rule:nonzero;stroke:#808080;stroke-width:0.08067376;stroke-linecap:butt;stroke-linejoin:round;stroke-miterlimit:4;stroke-dasharray:none;stroke-dashoffset:0;stroke-opacity:1;color-rendering:auto;image-rendering:auto;shape-rendering:auto;text-rendering:auto;enable-background:accumulate"
       d="m 435.14579,394.94924 c -0.46146,-0.5391 -0.58434,-0.85447 -0.58434,-1.49965 0,-0.50839 0.037,-0.64521 0.33801,-1.25045 0.18591,-0.37377 0.42819,-0.80087 0.5384,-0.94911 l 0.20038,-0.26953 0.37538,0.34602 c 0.20646,0.1903 0.42275,0.43865 0.48065,0.55188 0.17368,0.33963 0.22061,0.83785 0.11874,1.2607 -0.11093,0.4605 -0.63047,1.48467 -0.95323,1.87914 l -0.22234,0.27173 -0.29165,-0.34073 z"
       id="path8344"
       inkscape:connector-curvature="0" />
    <path
       style="color:#000000;clip-rule:nonzero;display:inline;overflow:visible;visibility:visible;opacity:1;isolation:auto;mix-blend-mode:normal;color-interpolation:sRGB;color-interpolation-filters:linearRGB;solid-color:#000000;solid-opacity:1;fill:#ff8080;fill-opacity:0.39215686;fill-rule:nonzero;stroke:#ff5555;stroke-width:1.0358516;stroke-linecap:butt;stroke-linejoin:round;stroke-miterlimit:4;stroke-dasharray:3.10755479, 1.0358516;stroke-dashoffset:0;stroke-opacity:1;color-rendering:auto;image-rendering:auto;shape-rendering:auto;text-rendering:auto;enable-background:accumulate"
       d="m 211.81641,430.75494 c 48.88664,0 97.77327,0 146.6599,0 0,-22.78093 0,-45.56189 0,-68.34283 -48.88663,0 -97.77326,0 -146.6599,0 0,22.78094 0,45.5619 0,68.34283 z"
       id="rect8346"
       inkscape:connector-curvature="0" />
    <path
       style="color:#000000;clip-rule:nonzero;display:inline;overflow:visible;visibility:visible;opacity:1;isolation:auto;mix-blend-mode:normal;color-interpolation:sRGB;color-interpolation-filters:linearRGB;solid-color:#000000;solid-opacity:1;fill:none;fill-opacity:0.2745098;fill-rule:nonzero;stroke:#000000;stroke-width:2.39907551;stroke-linecap:butt;stroke-linejoin:miter;stroke-miterlimit:4;stroke-dasharray:none;stroke-dashoffset:0;stroke-opacity:1;marker-end:url(#marker8812);color-rendering:auto;image-rendering:auto;shape-rendering:auto;text-rendering:auto;enable-background:accumulate"
       d="m 311.77304,109.5461 0,61.15291"
       id="path8356"
       inkscape:connector-curvature="0" />
    <path
       style="color:#000000;clip-rule:nonzero;display:inline;overflow:visible;visibility:visible;opacity:1;isolation:auto;mix-blend-mode:normal;color-interpolation:sRGB;color-interpolation-filters:linearRGB;solid-color:#000000;solid-opacity:1;fill:none;fill-opacity:0.2745098;fill-rule:nonzero;stroke:#000000;stroke-width:1.98658919;stroke-linecap:butt;stroke-linejoin:miter;stroke-miterlimit:4;stroke-dasharray:none;stroke-dashoffset:0;stroke-opacity:1;marker-end:url(#marker8914);color-rendering:auto;image-rendering:auto;shape-rendering:auto;text-rendering:auto;enable-background:accumulate"
       d="m 311.77304,289.99056 0,61.94498"
       id="path8358"
       inkscape:connector-curvature="0" />
    <path
       style="color:#000000;clip-rule:nonzero;display:inline;overflow:visible;visibility:visible;opacity:1;isolation:auto;mix-blend-mode:normal;color-interpolation:sRGB;color-interpolation-filters:linearRGB;solid-color:#000000;solid-opacity:1;fill:none;fill-opacity:0.2745098;fill-rule:nonzero;stroke:#000000;stroke-width:2.31200004;stroke-linecap:butt;stroke-linejoin:miter;stroke-miterlimit:4;stroke-dasharray:none;stroke-dashoffset:0;stroke-opacity:1;marker-end:url(#Arrow2Mend);color-rendering:auto;image-rendering:auto;shape-rendering:auto;text-rendering:auto;enable-background:accumulate"
       d="m 271.9205,210.20898 c 8.66828,-15.41327 25.98623,-25.3765 43.77149,-23.89062 14.6311,0.72027 27.56037,9.64714 35.31889,21.79257"
       id="circle8360"
       inkscape:connector-curvature="0"
       sodipodi:nodetypes="ccc" />
    <path
       style="color:#000000;clip-rule:nonzero;display:inline;overflow:visible;visibility:visible;opacity:1;isolation:auto;mix-blend-mode:normal;color-interpolation:sRGB;color-interpolation-filters:linearRGB;solid-color:#000000;solid-opacity:1;fill:none;fill-opacity:0.2745098;fill-rule:nonzero;stroke:#000000;stroke-width:2;stroke-linecap:butt;stroke-linejoin:miter;stroke-miterlimit:4;stroke-dasharray:none;stroke-dashoffset:0;stroke-opacity:1;marker-end:url(#marker5569);color-rendering:auto;image-rendering:auto;shape-rendering:auto;text-rendering:auto;enable-background:accumulate"
       d="m 369.85815,232.42554 170.66771,0"
       id="path8726"
       inkscape:connector-curvature="0" />
    <rect
       style="color:#000000;clip-rule:nonzero;display:inline;overflow:visible;visibility:visible;opacity:1;isolation:auto;mix-blend-mode:normal;color-interpolation:sRGB;color-interpolation-filters:linearRGB;solid-color:#000000;solid-opacity:1;fill:none;fill-opacity:0.2745098;fill-rule:nonzero;stroke:#000000;stroke-width:0.97959363;stroke-linecap:butt;stroke-linejoin:miter;stroke-miterlimit:4;stroke-dasharray:2.93878101, 0.97959367;stroke-dashoffset:0;stroke-opacity:1;color-rendering:auto;image-rendering:auto;shape-rendering:auto;text-rendering:auto;enable-background:accumulate"
       id="rect4182"
       width="324.9281"
       height="348.58789"
       x="156.98773"
       y="110.34864" />
    <path
       inkscape:connector-curvature="0"
       id="path4184"
       d="m 437.03155,396.42554 103.49431,0"
       style="color:#000000;clip-rule:nonzero;display:inline;overflow:visible;visibility:visible;opacity:1;isolation:auto;mix-blend-mode:normal;color-interpolation:sRGB;color-interpolation-filters:linearRGB;solid-color:#000000;solid-opacity:1;fill:none;fill-opacity:0.2745098;fill-rule:nonzero;stroke:#000000;stroke-width:2;stroke-linecap:butt;stroke-linejoin:miter;stroke-miterlimit:4;stroke-dasharray:none;stroke-dashoffset:0;stroke-opacity:1;marker-end:url(#marker4186);color-rendering:auto;image-rendering:auto;shape-rendering:auto;text-rendering:auto;enable-background:accumulate" />
    <g
       id="g4451"
       transform="matrix(0.64411417,0,0,0.64411417,69.01094,-39.21517)">
      <g
         word-spacing="normal"
         letter-spacing="normal"
         font-size-adjust="none"
         font-stretch="normal"
         font-weight="normal"
         font-variant="normal"
         font-style="normal"
         stroke-miterlimit="10.433"
         xml:space="preserve"
         transform="matrix(0.68571429,0,0,-0.68571429,-120,480)"
         id="g4453"
         style="font-style:normal;font-variant:normal;font-weight:normal;font-stretch:normal;letter-spacing:normal;word-spacing:normal;text-anchor:start;fill:none;fill-opacity:1;fill-rule:evenodd;stroke:#000000;stroke-linecap:butt;stroke-linejoin:miter;stroke-miterlimit:10.43299961;stroke-dasharray:none;stroke-dashoffset:0;stroke-opacity:1"><path
           id="path4455"
           d="m 489.18,439.72 -30.44,0 -0.95,-11.2 1.25,0 c 0.69,8.02 1.44,9.66 8.96,9.66 0.9,0 2.2,0 2.7,-0.1 1.04,-0.2 1.04,-0.75 1.04,-1.89 l 0,-26.26 c 0,-1.69 0,-2.39 -5.23,-2.39 l -1.99,0 0,-1.54 18.88,0 0,1.54 -1.99,0 c -5.23,0 -5.23,0.7 -5.23,2.39 l 0,26.26 c 0,0.99 0,1.69 0.89,1.89 0.55,0.1 1.89,0.1 2.84,0.1 7.52,0 8.27,-1.64 8.97,-9.66 l 1.24,0 z"
           inkscape:connector-curvature="0"
           style="fill:#000000;stroke-width:0" /><path
           id="path4457"
           d="m 497.48,409.79 0,-0.11 0,-0.1 -0.01,-0.19 -0.01,-0.18 -0.01,-0.17 -0.02,-0.15 -0.02,-0.14 -0.03,-0.14 -0.04,-0.12 -0.04,-0.11 -0.05,-0.11 -0.06,-0.09 -0.06,-0.09 -0.07,-0.08 -0.08,-0.07 -0.09,-0.06 -0.1,-0.06 -0.11,-0.05 -0.12,-0.04 -0.13,-0.04 -0.14,-0.03 -0.15,-0.03 -0.17,-0.02 -0.17,-0.02 -0.19,-0.01 -0.1,-0.01 -0.1,0 -0.11,-0.01 -0.11,0 -0.11,-0.01 -0.12,0 -0.12,0 -0.12,0 -0.13,0 -0.13,-0.01 -0.13,0 -0.14,0 -0.15,0 -0.14,0 -0.15,0 -0.16,0 0,-1.54 11.21,0 0,1.54 c -3.34,0 -3.88,0 -3.88,2.25 l 0,9.16 c 0,5.18 3.53,7.97 6.72,7.97 3.14,0 3.69,-2.69 3.69,-5.53 l 0,-11.6 c 0,-2.25 -0.55,-2.25 -3.89,-2.25 l 0,-1.54 11.21,0 0,1.54 c -2.59,0 -3.84,0 -3.88,1.5 l 0,9.51 c 0,4.29 0,5.83 -1.55,7.63 -0.7,0.84 -2.34,1.84 -5.23,1.84 -4.19,0 -6.38,-2.99 -7.22,-4.88 l 0,17.43 -7.18,-0.55 0,-1.54 c 3.49,0 3.89,-0.35 3.89,-2.79 z"
           inkscape:connector-curvature="0"
           style="fill:#000000;stroke-width:0" /><path
           id="path4459"
           d="m 524.53,417.51 0.05,1.04 c 0.3,7.43 4.48,8.67 6.18,8.67 5.13,0 5.63,-6.72 5.63,-8.67 l -11.81,0 -0.05,-1.04 13.9,0 c 1.09,0 1.24,0 1.24,1.04 0,4.93 -2.69,9.77 -8.91,9.77 -5.78,0 -10.36,-5.14 -10.36,-11.36 0,-6.67 5.22,-11.51 10.95,-11.51 6.08,0 8.32,5.53 8.32,6.48 0,0.5 -0.4,0.6 -0.65,0.6 -0.44,0 -0.54,-0.3 -0.64,-0.7 -1.75,-5.13 -6.23,-5.13 -6.73,-5.13 -2.49,0 -4.48,1.49 -5.63,3.34 -1.49,2.39 -1.49,5.67 -1.49,7.47 z"
           inkscape:connector-curvature="0"
           style="fill:#000000;stroke-width:0" /><path
           id="path4461"
           d="m 549.32,422.54 0,5.48 -6.92,-0.55 0,-1.54 c 3.48,0 3.88,-0.35 3.88,-2.79 l 0,-13.35 c 0,-2.25 -0.55,-2.25 -3.88,-2.25 l 0,-1.54 12,0 0,1.54 -1.05,0 c -3.68,0 -3.78,0.55 -3.78,2.35 l 0,7.66 c 0,4.94 2.09,9.37 5.88,9.37 0.34,0 0.45,0 0.54,-0.05 -0.15,-0.05 -1.14,-0.65 -1.14,-1.94 0,-1.39 1.05,-2.14 2.14,-2.14 0.9,0 2.14,0.59 2.14,2.19 0,1.59 -1.54,3.04 -3.68,3.04 -3.64,0 -5.43,-3.34 -6.13,-5.48 z"
           inkscape:connector-curvature="0"
           style="fill:#000000;stroke-width:0" /><path
           id="path4463"
           d="m 566.48,423.14 0,-13.35 c 0,-2.25 -0.55,-2.25 -3.89,-2.25 l 0,-1.54 11.21,0 0,1.54 c -3.33,0 -3.88,0 -3.88,2.25 l 0,9.16 c 0,5.18 3.53,7.97 6.72,7.97 3.14,0 3.69,-2.69 3.69,-5.53 l 0,-11.6 c 0,-2.25 -0.55,-2.25 -3.89,-2.25 l 0,-1.54 11.21,0 0,1.54 c -3.34,0 -3.88,0 -3.88,2.25 l 0,9.16 c 0,5.18 3.53,7.97 6.72,7.97 3.14,0 3.69,-2.69 3.69,-5.53 l 0,-11.6 c 0,-2.25 -0.55,-2.25 -3.89,-2.25 l 0,-1.54 11.21,0 0,1.54 c -2.59,0 -3.84,0 -3.89,1.5 l 0,9.51 c 0,4.29 0,5.83 -1.54,7.63 -0.7,0.84 -2.34,1.84 -5.23,1.84 -4.19,0 -6.38,-2.99 -7.23,-4.88 -0.69,4.33 -4.38,4.88 -6.62,4.88 -3.64,0 -5.98,-2.14 -7.37,-5.23 l 0,5.23 -7.03,-0.55 0,-1.54 c 3.49,0 3.89,-0.35 3.89,-2.79 z"
           inkscape:connector-curvature="0"
           style="fill:#000000;stroke-width:0" /><path
           id="path4465"
           d="m 618.59,409.79 0.02,-0.19 0.03,-0.19 0.03,-0.19 0.04,-0.18 0.05,-0.19 0.06,-0.18 0.06,-0.18 0.07,-0.18 0.07,-0.18 0.08,-0.18 0.09,-0.17 0.1,-0.16 0.1,-0.17 0.1,-0.15 0.12,-0.16 0.12,-0.14 0.12,-0.15 0.13,-0.13 0.14,-0.13 0.15,-0.12 0.15,-0.12 0.15,-0.1 0.17,-0.1 0.17,-0.09 0.17,-0.08 0.18,-0.07 0.19,-0.07 0.19,-0.05 0.2,-0.04 0.21,-0.03 0.21,-0.01 0.21,-0.01 c 1.05,0 4.09,0.7 4.09,4.73 l 0,2.79 -1.25,0 0,-2.79 c 0,-2.89 -1.24,-3.18 -1.79,-3.18 -1.64,0 -1.84,2.24 -1.84,2.48 l 0,9.97 c 0,2.09 0,4.03 -1.8,5.88 -1.94,1.94 -4.43,2.74 -6.82,2.74 -4.09,0 -7.53,-2.34 -7.53,-5.63 0,-1.5 1,-2.34 2.3,-2.34 1.39,0 2.29,0.99 2.29,2.29 0,0.59 -0.25,2.24 -2.54,2.29 1.35,1.74 3.78,2.29 5.38,2.29 2.44,0 5.28,-1.94 5.28,-6.38 l 0,-1.84 0,-1.04 0,-4.99 c 0,-4.73 -3.59,-6.42 -5.83,-6.42 -2.44,0 -4.48,1.74 -4.48,4.23 0,2.74 2.09,6.88 10.31,7.18 l 0,0 0,1.04 c -2.54,-0.15 -6.03,-0.3 -9.17,-1.79 -3.73,-1.69 -4.98,-4.28 -4.98,-6.48 0,-4.03 4.84,-5.28 7.97,-5.28 3.29,0 5.58,2 6.53,4.34 z"
           inkscape:connector-curvature="0"
           style="fill:#000000;stroke-width:0" /><path
           id="path4467"
           d="m 635.82,440.57 -7.17,-0.55 0,-1.54 c 3.48,0 3.88,-0.35 3.88,-2.79 l 0,-25.9 c 0,-2.25 -0.55,-2.25 -3.88,-2.25 l 0,-1.54 11.05,0 0,1.54 c -3.34,0 -3.88,0 -3.88,2.25 z"
           inkscape:connector-curvature="0"
           style="fill:#000000;stroke-width:0" /><path
           id="path4469"
           d="m 679.67,422.94 0.45,0.12 0.44,0.12 0.44,0.14 0.43,0.15 0.42,0.16 0.42,0.17 0.4,0.18 0.4,0.18 0.39,0.2 0.37,0.21 0.37,0.21 0.35,0.23 0.34,0.23 0.33,0.24 0.32,0.25 0.3,0.26 0.29,0.26 0.27,0.28 0.26,0.28 0.24,0.29 0.23,0.29 0.21,0.3 0.19,0.31 0.17,0.32 0.16,0.32 0.14,0.33 0.11,0.33 0.1,0.34 0.08,0.35 0.05,0.35 0.04,0.35 0.01,0.36 c 0,4.79 -5.68,8.97 -13,8.97 l -15.65,0 0,-1.54 1.2,0 c 3.83,0 3.94,-0.55 3.94,-2.34 l 0,-26.25 c 0,-1.8 -0.11,-2.35 -3.94,-2.35 l -1.2,0 0,-1.54 14.55,0 0,1.54 -1.2,0 c -3.83,0 -3.93,0.55 -3.93,2.35 l 0,12.6 0,1.1 0,12.89 c 0,1.15 0,1.75 1.09,1.9 0.5,0.1 1.95,0.1 2.94,0.1 4.49,0 10.06,-0.2 10.06,-7.43 0,-3.43 -1.19,-7.46 -8.56,-7.46 l -5.53,0 0,-1.1 5.73,0 c 0.79,0 2.89,0 4.63,-1.7 1.89,-1.79 1.89,-3.33 1.89,-6.67 0,-3.24 0,-5.23 2.04,-7.12 2.05,-1.8 4.79,-2.1 6.28,-2.1 3.89,0 4.74,4.09 4.74,5.48 0,0.3 0,0.85 -0.65,0.85 -0.55,0 -0.55,-0.45 -0.6,-0.8 -0.3,-3.53 -2.04,-4.43 -3.29,-4.43 -2.44,0 -2.84,2.54 -3.53,7.17 l -0.65,3.99 c -0.9,3.19 -3.34,4.83 -6.08,5.78 z"
           inkscape:connector-curvature="0"
           style="fill:#000000;stroke-width:0" /><path
           id="path4471"
           d="m 699.53,417.51 0.05,1.04 c 0.3,7.43 4.48,8.67 6.18,8.67 5.13,0 5.63,-6.72 5.63,-8.67 l -11.81,0 -0.05,-1.04 13.9,0 c 1.09,0 1.24,0 1.24,1.04 0,4.93 -2.69,9.77 -8.91,9.77 -5.78,0 -10.36,-5.14 -10.36,-11.36 0,-6.67 5.22,-11.51 10.95,-11.51 6.08,0 8.32,5.53 8.32,6.48 0,0.5 -0.4,0.6 -0.65,0.6 -0.44,0 -0.54,-0.3 -0.64,-0.7 -1.75,-5.13 -6.23,-5.13 -6.73,-5.13 -2.49,0 -4.48,1.49 -5.63,3.34 -1.49,2.39 -1.49,5.67 -1.49,7.47 z"
           inkscape:connector-curvature="0"
           style="fill:#000000;stroke-width:0" /><path
           id="path4473"
           d="m 727.36,415.66 0.11,-0.02 0.13,-0.02 0.14,-0.03 0.16,-0.03 0.17,-0.04 0.18,-0.05 0.18,-0.05 0.2,-0.05 0.21,-0.06 0.21,-0.07 0.21,-0.08 0.22,-0.09 0.22,-0.09 0.22,-0.1 0.22,-0.12 0.22,-0.12 0.22,-0.13 0.21,-0.14 0.2,-0.15 0.2,-0.16 0.19,-0.18 0.18,-0.19 0.17,-0.2 0.16,-0.21 0.14,-0.22 0.07,-0.12 0.06,-0.12 0.06,-0.13 0.05,-0.12 0.05,-0.13 0.05,-0.14 0.04,-0.14 0.03,-0.14 0.03,-0.15 0.03,-0.15 0.02,-0.15 0.01,-0.16 0.01,-0.16 0,-0.17 c 0,-2.54 -1.74,-4.53 -5.63,-4.53 -4.18,0 -5.98,2.84 -6.92,7.07 -0.15,0.65 -0.2,0.85 -0.7,0.85 -0.64,0 -0.64,-0.35 -0.64,-1.25 l 0,-6.57 c 0,-0.85 0,-1.2 0.54,-1.2 0.25,0 0.3,0.05 1.25,1 0.09,0.1 0.09,0.2 0.99,1.14 2.19,-2.09 4.44,-2.14 5.48,-2.14 5.73,0 8.02,3.34 8.02,6.93 0,2.64 -1.49,4.13 -2.09,4.73 -1.64,1.59 -3.59,1.99 -5.68,2.39 -2.79,0.55 -6.13,1.2 -6.13,4.09 0,1.74 1.3,3.78 5.58,3.78 5.48,0 5.73,-4.48 5.83,-6.03 0.05,-0.45 0.5,-0.45 0.6,-0.45 0.65,0 0.65,0.25 0.65,1.2 l 0,5.03 c 0,0.85 0,1.2 -0.55,1.2 -0.25,0 -0.35,0 -0.99,-0.6 -0.16,-0.2 -0.65,-0.65 -0.85,-0.8 -1.9,1.4 -3.94,1.4 -4.69,1.4 -6.08,0 -7.96,-3.34 -7.96,-6.13 0,-1.74 0.79,-3.14 2.13,-4.23 1.6,-1.3 2.99,-1.6 6.58,-2.3 z"
           inkscape:connector-curvature="0"
           style="fill:#000000;stroke-width:0" /><path
           id="path4475"
           d="m 741.53,417.51 0.05,1.04 c 0.3,7.43 4.48,8.67 6.18,8.67 5.13,0 5.63,-6.72 5.63,-8.67 l -11.81,0 -0.05,-1.04 13.9,0 c 1.09,0 1.24,0 1.24,1.04 0,4.93 -2.69,9.77 -8.91,9.77 -5.78,0 -10.36,-5.14 -10.36,-11.36 0,-6.67 5.22,-11.51 10.95,-11.51 6.08,0 8.32,5.53 8.32,6.48 0,0.5 -0.4,0.6 -0.65,0.6 -0.44,0 -0.54,-0.3 -0.64,-0.7 -1.75,-5.13 -6.23,-5.13 -6.73,-5.13 -2.49,0 -4.48,1.49 -5.63,3.34 -1.49,2.39 -1.49,5.67 -1.49,7.47 z"
           inkscape:connector-curvature="0"
           style="fill:#000000;stroke-width:0" /><path
           id="path4477"
           d="m 766.32,422.54 0,5.48 -6.92,-0.55 0,-1.54 c 3.48,0 3.88,-0.35 3.88,-2.79 l 0,-13.35 c 0,-2.25 -0.55,-2.25 -3.88,-2.25 l 0,-1.54 12,0 0,1.54 -1.05,0 c -3.68,0 -3.78,0.55 -3.78,2.35 l 0,7.66 c 0,4.94 2.09,9.37 5.88,9.37 0.34,0 0.45,0 0.54,-0.05 -0.15,-0.05 -1.14,-0.65 -1.14,-1.94 0,-1.39 1.05,-2.14 2.14,-2.14 0.9,0 2.14,0.59 2.14,2.19 0,1.59 -1.54,3.04 -3.68,3.04 -3.64,0 -5.43,-3.34 -6.13,-5.48 z"
           inkscape:connector-curvature="0"
           style="fill:#000000;stroke-width:0" /><path
           id="path4479"
           d="m 798.72,422.59 0.05,0.11 0.04,0.11 0.05,0.12 0.05,0.13 0.06,0.13 0.06,0.13 0.07,0.13 0.07,0.14 0.07,0.13 0.08,0.14 0.09,0.14 0.09,0.13 0.1,0.14 0.11,0.13 0.12,0.14 0.12,0.13 0.13,0.12 0.14,0.13 0.15,0.12 0.16,0.11 0.17,0.11 0.18,0.1 0.18,0.1 0.2,0.08 0.22,0.08 0.22,0.08 0.23,0.06 0.25,0.05 0.26,0.05 0.14,0.02 0.14,0.01 0.14,0.02 0.14,0.01 0.15,0 0.15,0.01 0,1.54 -8.07,0 0,-1.54 c 1.85,-0.05 2.39,-1.2 2.39,-2.14 0,-0.45 -0.09,-0.65 -0.29,-1.2 l -5.08,-12.7 -5.58,13.9 c -0.3,0.64 -0.3,0.74 -0.3,0.84 0,1.3 1.94,1.3 2.84,1.3 l 0,1.54 -10.26,0 0,-1.54 c 3.14,0 3.33,-0.31 3.98,-1.85 l 7.17,-17.68 c 0.3,-0.7 0.4,-0.95 1.05,-0.95 0.65,0 0.85,0.45 1.05,0.95 z"
           inkscape:connector-curvature="0"
           style="fill:#000000;stroke-width:0" /><path
           id="path4481"
           d="m 826.46,416.66 -0.01,0.59 -0.05,0.59 -0.07,0.58 -0.09,0.57 -0.13,0.56 -0.15,0.55 -0.17,0.54 -0.2,0.53 -0.22,0.52 -0.25,0.5 -0.26,0.49 -0.29,0.47 -0.31,0.46 -0.33,0.44 -0.35,0.42 -0.36,0.41 -0.39,0.39 -0.4,0.36 -0.41,0.35 -0.44,0.33 -0.44,0.3 -0.46,0.29 -0.48,0.26 -0.48,0.23 -0.5,0.21 -0.51,0.19 -0.52,0.16 -0.53,0.13 -0.54,0.1 -0.55,0.08 -0.56,0.04 -0.56,0.02 -0.05,-1.1 c 2.19,0 4.34,-1.1 5.63,-3.24 1.3,-2.14 1.3,-5.03 1.3,-6.92 0,-1.79 0,-4.49 -1.1,-6.68 -1.09,-2.24 -3.28,-3.68 -5.78,-3.68 l 0,0 c -2.14,0 -4.33,1.04 -5.68,3.34 -1.24,2.19 -1.24,5.23 -1.24,7.02 0,1.94 0,4.63 1.2,6.82 1.34,2.3 3.68,3.34 5.67,3.34 l 0.05,1.1 c -6.22,0 -11.05,-5.43 -11.05,-11.66 0,-6.43 5.17,-11.21 11,-11.21 6.03,0 11.06,4.88 11.06,11.21 z"
           inkscape:connector-curvature="0"
           style="fill:#000000;stroke-width:0" /><path
           id="path4483"
           d="m 836.82,428.02 -6.98,-0.55 0,-1.54 c 3.24,0 3.69,-0.31 3.69,-2.75 l 0,-13.39 c 0,-2.25 -0.55,-2.25 -3.88,-2.25 l 0,-1.54 10.65,0 0,1.54 c -3.28,0 -3.48,0.25 -3.48,2.19 z"
           inkscape:connector-curvature="0"
           style="fill:#000000;stroke-width:0" /><path
           id="path4485"
           d="m 837.02,436.68 -0.01,0.15 -0.01,0.15 -0.02,0.14 -0.02,0.13 -0.03,0.14 -0.04,0.13 -0.04,0.13 -0.05,0.12 -0.06,0.12 -0.06,0.11 -0.06,0.11 -0.07,0.11 -0.08,0.1 -0.08,0.1 -0.08,0.09 -0.09,0.09 -0.09,0.09 -0.1,0.07 -0.1,0.08 -0.11,0.07 -0.1,0.06 -0.11,0.06 -0.12,0.06 -0.11,0.05 -0.12,0.04 -0.12,0.04 -0.13,0.03 -0.12,0.03 -0.13,0.02 -0.13,0.01 -0.12,0.01 -0.13,0 c -1.55,0 -2.65,-1.34 -2.65,-2.64 0,-1.34 1.1,-2.64 2.65,-2.64 1.39,0 2.64,1.05 2.64,2.64 z"
           inkscape:connector-curvature="0"
           style="fill:#000000;stroke-width:0" /><path
           id="path4487"
           d="m 849.32,422.54 0,5.48 -6.92,-0.55 0,-1.54 c 3.48,0 3.88,-0.35 3.88,-2.79 l 0,-13.35 c 0,-2.25 -0.55,-2.25 -3.88,-2.25 l 0,-1.54 12,0 0,1.54 -1.05,0 c -3.68,0 -3.78,0.55 -3.78,2.35 l 0,7.66 c 0,4.94 2.09,9.37 5.88,9.37 0.34,0 0.45,0 0.54,-0.05 -0.15,-0.05 -1.14,-0.65 -1.14,-1.94 0,-1.39 1.05,-2.14 2.14,-2.14 0.9,0 2.14,0.59 2.14,2.19 0,1.59 -1.54,3.04 -3.68,3.04 -3.64,0 -5.43,-3.34 -6.13,-5.48 z"
           inkscape:connector-curvature="0"
           style="fill:#000000;stroke-width:0" /><path
           id="path4489"
           d="m 894.49,394.04 0,0.03 0,0.03 -0.01,0.01 0,0.02 0,0.01 -0.01,0.02 0,0.02 -0.01,0.01 -0.01,0.02 -0.01,0.02 -0.01,0.03 -0.01,0.02 -0.02,0.02 -0.02,0.03 -0.02,0.03 -0.02,0.03 -0.03,0.03 -0.03,0.04 -0.01,0.02 -0.02,0.02 -0.02,0.02 -0.02,0.02 -0.02,0.02 -0.02,0.03 -0.02,0.02 -0.02,0.02 -0.02,0.03 -0.03,0.02 -0.02,0.03 -0.03,0.03 -0.02,0.03 -0.03,0.03 -0.03,0.03 -0.03,0.03 -0.03,0.03 -0.03,0.03 -0.04,0.04 -0.03,0.03 -0.04,0.04 -0.03,0.03 -0.04,0.04 -0.04,0.04 c -6.23,6.28 -7.82,15.69 -7.82,23.31 0,8.67 1.9,17.34 8.02,23.57 0.65,0.59 0.65,0.69 0.65,0.84 0,0.35 -0.2,0.5 -0.5,0.5 -0.5,0 -4.98,-3.39 -7.92,-9.72 -2.54,-5.47 -3.14,-11 -3.14,-15.19 0,-3.88 0.55,-9.91 3.29,-15.54 2.99,-6.12 7.27,-9.36 7.77,-9.36 0.3,0 0.5,0.15 0.5,0.49 z"
           inkscape:connector-curvature="0"
           style="fill:#000000;stroke-width:0" /><path
           id="path4491"
           d="m 918.27,436.24 0.03,0.13 0.03,0.12 0.03,0.11 0.03,0.11 0.03,0.11 0.03,0.09 0.03,0.1 0.03,0.08 0.03,0.09 0.03,0.07 0.03,0.08 0.03,0.06 0.03,0.07 0.03,0.06 0.03,0.05 0.03,0.06 0.03,0.04 0.03,0.05 0.04,0.04 0.03,0.04 0.04,0.03 0.03,0.04 0.04,0.03 0.04,0.02 0.04,0.03 0.05,0.02 0.04,0.02 0.05,0.02 0.05,0.02 0.05,0.02 0.05,0.01 0.05,0.02 c 0.45,0.1 2.1,0.1 3.14,0.1 5.04,0 7.28,-0.2 7.28,-4.09 0,-0.74 -0.2,-2.68 -0.4,-3.98 -0.05,-0.2 -0.15,-0.8 -0.15,-0.95 0,-0.3 0.15,-0.64 0.6,-0.64 0.55,0 0.64,0.39 0.74,1.14 l 1.35,8.67 c 0.05,0.2 0.1,0.7 0.1,0.85 0,0.54 -0.5,0.54 -1.35,0.54 l -27.64,0 c -1.2,0 -1.25,-0.05 -1.6,-0.99 l -2.98,-8.77 c -0.05,-0.1 -0.3,-0.8 -0.3,-0.9 0,-0.29 0.25,-0.54 0.59,-0.54 0.5,0 0.55,0.25 0.85,1.04 2.69,7.72 3.98,8.62 11.36,8.62 l 1.94,0 c 1.4,0 1.4,-0.2 1.4,-0.6 0,-0.3 -0.16,-0.9 -0.2,-1.04 l -6.68,-26.61 c -0.45,-1.84 -0.6,-2.39 -5.93,-2.39 -1.79,0 -2.09,0 -2.09,-0.94 0,-0.6 0.55,-0.6 0.85,-0.6 1.34,0 2.74,0.1 4.08,0.1 l 8.37,0 c 1.44,0 2.94,-0.1 4.33,-0.1 0.5,0 1.1,0 1.1,1 0,0.54 -0.4,0.54 -1.69,0.54 -1.25,0 -1.89,0 -3.19,0.1 -1.45,0.15 -1.84,0.3 -1.84,1.1 0,0.05 0,0.3 0.2,1.05 z"
           inkscape:connector-curvature="0"
           style="fill:#000000;stroke-width:0" /><path
           id="path4493"
           d="m 946.71,410.86 0.39,0.09 0.38,0.11 0.38,0.11 0.38,0.12 0.37,0.13 0.37,0.14 0.36,0.15 0.35,0.15 0.34,0.16 0.34,0.17 0.33,0.18 0.32,0.18 0.31,0.19 0.3,0.2 0.29,0.2 0.27,0.21 0.27,0.22 0.25,0.22 0.24,0.23 0.22,0.23 0.21,0.24 0.2,0.25 0.17,0.25 0.17,0.25 0.14,0.26 0.13,0.27 0.11,0.27 0.09,0.27 0.07,0.28 0.06,0.28 0.03,0.29 0.01,0.29 c 0,3 -3.56,5.37 -8.61,5.37 l -10.71,0 c -0.66,0 -1.12,0 -1.12,-0.77 0,-0.49 0.42,-0.49 1.12,-0.49 0.03,0 0.7,0 1.33,-0.07 0.73,-0.07 0.8,-0.14 0.8,-0.49 0,-0.07 0,-0.24 -0.14,-0.77 l -4.64,-18.51 c -0.28,-1.18 -0.35,-1.47 -3.07,-1.47 -0.59,0 -1.04,0 -1.04,-0.73 0,-0.34 0.24,-0.52 0.55,-0.52 0.67,0 1.47,0.11 2.17,0.11 l 4.53,0 c 0.73,0 1.6,-0.11 2.34,-0.11 0.17,0 0.73,0 0.73,0.73 0,0.52 -0.35,0.52 -1.15,0.52 -0.56,0 -0.7,0 -1.33,0.07 -0.77,0.11 -0.77,0.18 -0.77,0.53 0,0.03 0,0.24 0.15,0.76 l 2.19,8.83 4.74,0 0.04,0.97 -4.5,0 2.23,8.97 c 0.25,0.97 0.32,1.08 1.08,1.18 l 2.24,0 c 3.24,0 7.25,0 7.25,-3.59 0,-1.43 -0.67,-3.63 -2.31,-4.88 -1.43,-1.12 -3.59,-1.68 -5.99,-1.68 l -0.04,-0.97 c 3,0 4.29,-1.5 4.29,-3.14 0,-0.46 -0.31,-1.64 -0.49,-2.44 -0.41,-1.61 -0.55,-2.13 -0.55,-2.72 0,-2.76 2.54,-3.84 5.12,-3.84 3.21,0 4.6,3.42 4.6,4.05 0,0.1 -0.07,0.49 -0.59,0.49 -0.45,0 -0.52,-0.25 -0.63,-0.6 -0.48,-1.53 -1.78,-2.96 -3.24,-2.96 -0.91,0 -1.57,0.38 -1.57,2.27 0,0.87 0.21,2.68 0.35,3.62 0.14,0.94 0.14,1.29 0.14,1.64 0,0.42 0,1.53 -0.98,2.58 -0.66,0.73 -1.6,1.19 -2.37,1.47 z"
           inkscape:connector-curvature="0"
           style="fill:#000000;stroke-width:0" /><path
           id="path4495"
           d="m 973.4,418.45 -0.01,0.37 0,0.39 -0.01,0.39 -0.01,0.41 -0.04,0.84 -0.06,0.88 -0.09,0.92 -0.1,0.94 -0.14,0.98 -0.16,1 -0.2,1.02 -0.23,1.04 -0.27,1.05 -0.3,1.06 -0.35,1.06 -0.39,1.07 -0.22,0.53 -0.22,0.54 -0.24,0.53 -0.25,0.53 c -2.99,6.12 -7.27,9.36 -7.77,9.36 -0.3,0 -0.5,-0.2 -0.5,-0.5 0,-0.15 0,-0.25 0.94,-1.15 4.89,-4.92 7.73,-12.85 7.73,-23.26 0,-8.52 -1.85,-17.28 -8.02,-23.56 -0.65,-0.6 -0.65,-0.69 -0.65,-0.85 0,-0.29 0.2,-0.49 0.5,-0.49 0.5,0 4.98,3.38 7.92,9.71 2.54,5.48 3.14,11.01 3.14,15.19 z"
           inkscape:connector-curvature="0"
           style="fill:#000000;stroke-width:0" /></g>    </g>
    <g
       transform="matrix(0.70777247,0,0,0.70777247,114.08389,274.74665)"
       id="g4664">
      <g
         style="font-style:normal;font-variant:normal;font-weight:normal;font-stretch:normal;letter-spacing:normal;word-spacing:normal;text-anchor:start;fill:none;fill-opacity:1;fill-rule:evenodd;stroke:#000000;stroke-linecap:butt;stroke-linejoin:miter;stroke-miterlimit:10.43299961;stroke-dasharray:none;stroke-dashoffset:0;stroke-opacity:1"
         id="content"
         transform="matrix(0.68571429,0,0,-0.68571429,-120,480)"
         xml:space="preserve"
         stroke-miterlimit="10.433"
         font-style="normal"
         font-variant="normal"
         font-weight="normal"
         font-stretch="normal"
         font-size-adjust="none"
         letter-spacing="normal"
         word-spacing="normal"><path
           style="fill:#000000;stroke-width:0"
           inkscape:connector-curvature="0"
           d="m 473.39,425.33 -6.38,1.54 c -3.09,0.75 -5.03,3.44 -5.03,6.33 0,3.48 2.69,6.52 6.57,6.52 8.32,0 9.42,-8.17 9.72,-10.41 0.05,-0.3 0.05,-0.6 0.59,-0.6 0.65,0 0.65,0.25 0.65,1.2 l 0,10.01 c 0,0.85 0,1.2 -0.55,1.2 -0.35,0 -0.39,-0.05 -0.75,-0.65 l -1.74,-2.84 c -1.49,1.44 -3.53,3.49 -7.97,3.49 -5.53,0 -9.71,-4.39 -9.71,-9.67 0,-4.13 2.64,-7.77 6.53,-9.11 0.54,-0.2 3.08,-0.8 6.57,-1.64 1.34,-0.35 2.84,-0.7 4.23,-2.54 1.05,-1.3 1.55,-2.95 1.55,-4.59 0,-3.53 -2.49,-7.12 -6.68,-7.12 -1.44,0 -5.23,0.25 -7.87,2.69 -2.89,2.69 -3.03,5.88 -3.08,7.67 -0.06,0.5 -0.45,0.5 -0.6,0.5 -0.65,0 -0.65,-0.35 -0.65,-1.25 l 0,-9.96 c 0,-0.85 0,-1.2 0.55,-1.2 0.35,0 0.39,0.1 0.75,0.65 0,0.05 0.14,0.2 1.79,2.84 1.54,-1.69 4.73,-3.49 9.16,-3.49 5.83,0 9.82,4.89 9.82,10.37 0,4.98 -3.29,9.06 -7.47,10.06 z"
           id="path4667" /><path
           style="fill:#000000;stroke-width:0"
           inkscape:connector-curvature="0"
           d="m 503.67,422.74 0.06,0.14 0.07,0.14 0.06,0.14 0.07,0.13 0.07,0.13 0.07,0.12 0.07,0.12 0.07,0.12 0.15,0.21 0.15,0.21 0.16,0.19 0.16,0.17 0.16,0.16 0.17,0.15 0.17,0.13 0.17,0.13 0.17,0.11 0.17,0.1 0.17,0.09 0.17,0.08 0.16,0.07 0.17,0.06 0.16,0.06 0.16,0.04 0.16,0.04 0.15,0.04 0.15,0.03 0.14,0.02 0.13,0.02 0.13,0.01 0.13,0.01 0.11,0.01 0.11,0 0.1,0 0.09,0.01 0.07,0 0,1.54 -8.07,0 0,-1.54 c 1.55,-0.05 2.35,-0.9 2.35,-2.14 0,-0.5 -0.05,-0.61 -0.3,-1.2 l -5.03,-12.26 -5.53,13.4 c -0.2,0.5 -0.3,0.7 -0.3,0.9 0,1.3 1.84,1.3 2.79,1.3 l 0,1.54 -10.26,0 0,-1.54 c 2.39,0 3.34,0 4.03,-1.75 L 495.45,406 c -0.25,-0.65 -0.94,-2.29 -1.24,-2.94 -1.1,-2.74 -2.49,-6.18 -5.68,-6.18 -0.25,0 -1.4,0 -2.34,0.9 1.54,0.2 1.94,1.29 1.94,2.09 0,1.3 -0.95,2.09 -2.09,2.09 -1,0 -2.09,-0.64 -2.09,-2.14 0,-2.24 2.09,-4.03 4.58,-4.03 3.14,0 5.18,2.84 6.38,5.68 z"
           id="path4669" /><path
           style="fill:#000000;stroke-width:0"
           inkscape:connector-curvature="0"
           d="m 520.36,415.66 0.11,-0.02 0.13,-0.02 0.14,-0.03 0.16,-0.03 0.17,-0.04 0.18,-0.05 0.18,-0.05 0.2,-0.05 0.21,-0.06 0.21,-0.07 0.21,-0.08 0.22,-0.09 0.22,-0.09 0.22,-0.1 0.22,-0.12 0.22,-0.12 0.22,-0.13 0.21,-0.14 0.2,-0.15 0.2,-0.16 0.19,-0.18 0.18,-0.19 0.17,-0.2 0.16,-0.21 0.14,-0.22 0.07,-0.12 0.06,-0.12 0.06,-0.13 0.05,-0.12 0.05,-0.13 0.05,-0.14 0.04,-0.14 0.03,-0.14 0.03,-0.15 0.03,-0.15 0.02,-0.15 0.01,-0.16 0.01,-0.16 0,-0.17 c 0,-2.54 -1.74,-4.53 -5.63,-4.53 -4.18,0 -5.98,2.84 -6.92,7.07 -0.15,0.65 -0.2,0.85 -0.7,0.85 -0.65,0 -0.65,-0.35 -0.65,-1.25 l 0,-6.57 c 0,-0.85 0,-1.2 0.55,-1.2 0.25,0 0.3,0.05 1.25,1 0.09,0.1 0.09,0.2 0.99,1.14 2.19,-2.09 4.44,-2.14 5.48,-2.14 5.73,0 8.02,3.34 8.02,6.93 0,2.64 -1.49,4.13 -2.09,4.73 -1.64,1.59 -3.59,1.99 -5.68,2.39 -2.79,0.55 -6.13,1.2 -6.13,4.09 0,1.74 1.3,3.78 5.58,3.78 5.48,0 5.73,-4.48 5.83,-6.03 0.05,-0.45 0.5,-0.45 0.6,-0.45 0.65,0 0.65,0.25 0.65,1.2 l 0,5.03 c 0,0.85 0,1.2 -0.55,1.2 -0.25,0 -0.35,0 -0.99,-0.6 -0.16,-0.2 -0.65,-0.65 -0.85,-0.8 -1.9,1.4 -3.94,1.4 -4.69,1.4 -6.08,0 -7.97,-3.34 -7.97,-6.13 0,-1.74 0.8,-3.14 2.14,-4.23 1.6,-1.3 2.99,-1.6 6.58,-2.3 z"
           id="path4671" /><path
           style="fill:#000000;stroke-width:0"
           inkscape:connector-curvature="0"
           d="m 537.62,425.93 7.12,0 0,1.54 -7.12,0 0,9.17 -1.25,0 c -0.05,-4.09 -1.54,-9.42 -6.42,-9.62 l 0,-1.09 4.23,0 0,-13.75 c 0,-6.13 4.63,-6.73 6.42,-6.73 3.55,0 4.94,3.54 4.94,6.73 l 0,2.84 -1.25,0 0,-2.74 c 0,-3.69 -1.49,-5.58 -3.33,-5.58 -3.34,0 -3.34,4.53 -3.34,5.38 z"
           id="path4673" /><path
           style="fill:#000000;stroke-width:0"
           inkscape:connector-curvature="0"
           d="m 554.53,417.51 0.05,1.04 c 0.3,7.43 4.48,8.67 6.18,8.67 5.13,0 5.63,-6.72 5.63,-8.67 l -11.81,0 -0.05,-1.04 13.9,0 c 1.09,0 1.24,0 1.24,1.04 0,4.93 -2.69,9.77 -8.91,9.77 -5.78,0 -10.36,-5.14 -10.36,-11.36 0,-6.67 5.22,-11.51 10.95,-11.51 6.08,0 8.32,5.53 8.32,6.48 0,0.5 -0.4,0.6 -0.65,0.6 -0.44,0 -0.54,-0.3 -0.64,-0.7 -1.75,-5.13 -6.23,-5.13 -6.73,-5.13 -2.49,0 -4.48,1.49 -5.63,3.34 -1.49,2.39 -1.49,5.67 -1.49,7.47 z"
           id="path4675" /><path
           style="fill:#000000;stroke-width:0"
           inkscape:connector-curvature="0"
           d="m 576.48,423.14 0,-13.35 c 0,-2.25 -0.55,-2.25 -3.89,-2.25 l 0,-1.54 11.21,0 0,1.54 c -3.33,0 -3.88,0 -3.88,2.25 l 0,9.16 c 0,5.18 3.53,7.97 6.72,7.97 3.14,0 3.69,-2.69 3.69,-5.53 l 0,-11.6 c 0,-2.25 -0.55,-2.25 -3.89,-2.25 l 0,-1.54 11.21,0 0,1.54 c -3.34,0 -3.88,0 -3.88,2.25 l 0,9.16 c 0,5.18 3.53,7.97 6.72,7.97 3.14,0 3.69,-2.69 3.69,-5.53 l 0,-11.6 c 0,-2.25 -0.55,-2.25 -3.89,-2.25 l 0,-1.54 11.21,0 0,1.54 c -2.59,0 -3.84,0 -3.89,1.5 l 0,9.51 c 0,4.29 0,5.83 -1.54,7.63 -0.7,0.84 -2.34,1.84 -5.23,1.84 -4.19,0 -6.38,-2.99 -7.23,-4.88 -0.69,4.33 -4.38,4.88 -6.62,4.88 -3.64,0 -5.98,-2.14 -7.37,-5.23 l 0,5.23 -7.03,-0.55 0,-1.54 c 3.49,0 3.89,-0.35 3.89,-2.79 z"
           id="path4677" /></g>    </g>
    <g
       id="g4839"
       transform="matrix(0.95146275,0,0,0.95146275,-401.95769,160.60704)">
      <g
         word-spacing="normal"
         letter-spacing="normal"
         font-size-adjust="none"
         font-stretch="normal"
         font-weight="normal"
         font-variant="normal"
         font-style="normal"
         stroke-miterlimit="10.433"
         xml:space="preserve"
         transform="matrix(0.68571429,0,0,-0.68571429,-120,480)"
         id="g4841"
         style="font-style:normal;font-variant:normal;font-weight:normal;font-stretch:normal;letter-spacing:normal;word-spacing:normal;text-anchor:start;fill:none;fill-opacity:1;fill-rule:evenodd;stroke:#000000;stroke-linecap:butt;stroke-linejoin:miter;stroke-miterlimit:10.43299961;stroke-dasharray:none;stroke-dashoffset:0;stroke-opacity:1"><path
           id="path4843"
           d="m 1243.3,376.24 0,0.13 0,0.12 0.1,0.11 0,0.11 0,0.11 0.1,0.09 0,0.1 0,0.08 0,0.09 0.1,0.07 0,0.08 0,0.06 0.1,0.07 0,0.06 0,0.05 0,0.06 0.1,0.04 0,0.05 0,0.04 0.1,0.04 0,0.03 0.1,0.04 0,0.03 0,0.02 0.1,0.03 0,0.02 0.1,0.02 0,0.02 0.1,0.02 0,0.02 0.1,0.01 0,0.02 c 0.5,0.1 2.1,0.1 3.2,0.1 5,0 7.2,-0.2 7.2,-4.09 0,-0.74 -0.2,-2.68 -0.4,-3.98 0,-0.2 -0.1,-0.8 -0.1,-0.95 0,-0.3 0.1,-0.64 0.6,-0.64 0.5,0 0.6,0.39 0.7,1.14 l 1.4,8.67 c 0,0.2 0.1,0.7 0.1,0.85 0,0.54 -0.5,0.54 -1.4,0.54 l -27.6,0 c -1.2,0 -1.3,-0.05 -1.6,-0.99 l -3,-8.77 c -0.1,-0.1 -0.3,-0.8 -0.3,-0.9 0,-0.29 0.2,-0.54 0.6,-0.54 0.5,0 0.5,0.25 0.8,1.04 2.7,7.72 4,8.62 11.4,8.62 l 1.9,0 c 1.4,0 1.4,-0.2 1.4,-0.6 0,-0.3 -0.1,-0.9 -0.2,-1.04 l -6.6,-26.61 c -0.5,-1.84 -0.6,-2.39 -6,-2.39 -1.8,0 -2.1,0 -2.1,-0.94 0,-0.6 0.6,-0.6 0.9,-0.6 1.3,0 2.7,0.1 4.1,0.1 l 8.3,0 c 1.5,0 3,-0.1 4.4,-0.1 0.5,0 1.1,0 1.1,1 0,0.54 -0.4,0.54 -1.7,0.54 -1.3,0 -1.9,0 -3.2,0.1 -1.5,0.15 -1.9,0.3 -1.9,1.1 0,0.05 0,0.3 0.2,1.05 z"
           inkscape:connector-curvature="0"
           style="fill:#000000;stroke-width:0" /></g>    </g>
    <g
       transform="matrix(0.66659727,0,0,0.66659727,37.75109,212.15695)"
       id="g5011">
      <g
         style="font-style:normal;font-variant:normal;font-weight:normal;font-stretch:normal;letter-spacing:normal;word-spacing:normal;text-anchor:start;fill:none;fill-opacity:1;fill-rule:evenodd;stroke:#000000;stroke-linecap:butt;stroke-linejoin:miter;stroke-miterlimit:10.43299961;stroke-dasharray:none;stroke-dashoffset:0;stroke-opacity:1"
         id="g5013"
         transform="matrix(0.68571429,0,0,-0.68571429,-120,480)"
         xml:space="preserve"
         stroke-miterlimit="10.433"
         font-style="normal"
         font-variant="normal"
         font-weight="normal"
         font-stretch="normal"
         font-size-adjust="none"
         letter-spacing="normal"
         word-spacing="normal"><path
           style="fill:#000000;stroke-width:0"
           inkscape:connector-curvature="0"
           d="m 1231.7,374.24 0.2,0.41 0.2,0.39 0.3,0.39 0.2,0.37 0.2,0.17 0.1,0.18 0.1,0.17 0.2,0.16 0.1,0.16 0.2,0.16 0.1,0.15 0.2,0.14 0.1,0.14 0.2,0.13 0.2,0.13 0.1,0.12 0.2,0.11 0.2,0.11 0.2,0.1 0.2,0.09 0.3,0.09 0.2,0.07 0.2,0.07 0.3,0.06 0.2,0.06 0.3,0.04 0.3,0.04 0.3,0.03 c 0.4,0.05 0.9,0.05 0.9,0.99 0,0.2 -0.2,0.55 -0.6,0.55 l -9,0 c -0.3,0 -1,0 -1,-0.95 0,-0.54 0.5,-0.59 0.8,-0.59 1.2,-0.05 2.9,-0.45 2.9,-1.94 0,-0.55 -0.2,-0.95 -0.6,-1.65 l -13.5,-23.46 -1.8,24.71 c -0.1,0.99 -0.2,2.29 3.5,2.34 0.8,0 1.3,0 1.3,0.99 0,0.5 -0.5,0.55 -0.7,0.55 l -11.3,0 c -0.3,0 -1,0 -1,-0.99 0,-0.55 0.5,-0.55 1.2,-0.55 2.2,0 2.6,-0.3 2.7,-1.25 l 0.3,-3.83 -12.6,-21.97 -1.9,25.25 c 0,0.6 0,1.75 3.7,1.8 0.5,0 1.1,0 1.1,0.99 0,0.55 -0.6,0.55 -0.7,0.55 l -11.4,0 c -0.2,0 -0.9,0 -0.9,-0.95 0,-0.59 0.5,-0.59 1.3,-0.59 2.5,0 2.5,-0.45 2.6,-1.84 l 2.3,-30.44 c 0,-0.9 0.1,-1.3 0.8,-1.3 0.6,0 0.7,0.3 1.2,1.05 l 14.6,25.41 1.8,-25.16 c 0.1,-1.05 0.3,-1.3 0.8,-1.3 0.7,0 1,0.5 1.2,0.95 z"
           id="path5015" /><path
           style="fill:#000000;stroke-width:0"
           inkscape:connector-curvature="0"
           d="m 1248,352.11 -0.1,-0.02 0,-0.03 -0.1,-0.02 -0.1,-0.03 -0.1,-0.03 0,-0.04 -0.1,-0.04 -0.1,-0.04 -0.1,-0.04 0,-0.04 -0.1,-0.05 0,-0.05 -0.1,-0.05 0,-0.05 -0.1,-0.05 0,-0.06 -0.1,-0.05 0,-0.06 -0.1,-0.06 0,-0.06 0,-0.06 -0.1,-0.06 0,-0.06 0,-0.07 -0.1,-0.06 0,-0.07 0,-0.06 0,-0.07 0,-0.06 0,-0.07 0,-0.06 0,-0.07 c 0,-0.8 0.7,-1.11 1.1,-1.11 0.4,0 1.7,0.21 1.7,1.98 0,2.27 -2.5,3.04 -4.6,3.04 -5.5,0 -6.5,-4.01 -6.5,-5.09 0,-1.29 0.8,-2.13 1.3,-2.55 0.9,-0.7 1.5,-0.84 3.9,-1.26 0.7,-0.13 3,-0.55 3,-2.3 0,-0.59 -0.4,-1.91 -1.9,-2.79 -1.4,-0.76 -3.1,-0.76 -3.5,-0.76 -1.4,0 -3.4,0.31 -4.2,1.46 1.2,0.14 2,1.01 2,1.99 0,0.87 -0.7,1.29 -1.4,1.29 -1,0 -2,-0.8 -2,-2.33 0,-2.1 2.2,-3.39 5.6,-3.39 6.4,0 7.6,4.39 7.6,5.76 0,3.2 -3.5,3.83 -4.8,4.07 -0.3,0.07 -1.2,0.22 -1.4,0.28 -1.3,0.25 -1.9,0.98 -1.9,1.75 0,0.8 0.6,1.74 1.4,2.23 0.9,0.59 2.1,0.66 2.7,0.66 0.7,0 2.6,-0.1 3.3,-1.29 z"
           id="path5017" /><path
           style="fill:#000000;stroke-width:0"
           inkscape:connector-curvature="0"
           d="m 1271.4,352.14 0,0.03 0,0.02 0,0.02 0,0.02 0,0.02 0,0.02 0,0.04 0,0.04 0.1,0.03 0,0.03 0,0.03 0,0.03 0,0.03 0,0.02 0,0.03 0,0.02 0,0.02 0,0.02 0,0.02 0,0.02 0,0.02 0,0.02 0,0.02 0,0.03 0,0.03 0,0.04 0,0.03 0,0.02 0,0.02 0,0.01 0,0.02 c 0,0.7 -0.5,1.12 -1.1,1.12 -0.4,0 -1.1,-0.17 -1.5,-0.84 -0.1,-0.21 -0.3,-1.32 -0.5,-2.02 l -0.7,-2.9 c -0.3,-0.83 -1.3,-5.23 -1.4,-5.61 -0.1,0 -1.6,-3.03 -4.3,-3.03 -2.4,0 -2.4,2.26 -2.4,2.89 0,1.89 0.8,4.08 1.8,6.77 0.5,1.11 0.6,1.53 0.6,2.12 0,1.68 -1.4,2.97 -3.3,2.97 -3.5,0 -5.1,-4.74 -5.1,-5.34 0,-0.45 0.5,-0.45 0.6,-0.45 0.5,0 0.6,0.17 0.7,0.56 0.8,2.89 2.3,4.25 3.7,4.25 0.6,0 0.9,-0.38 0.9,-1.22 0,-0.8 -0.3,-1.57 -0.5,-2.02 -1.7,-4.26 -2,-5.55 -2,-7.08 0,-0.59 0,-2.23 1.3,-3.35 1.1,-0.91 2.6,-1.08 3.5,-1.08 1.4,0 2.7,0.53 3.8,1.57 -0.4,-1.92 -0.8,-3.38 -2.3,-5.13 -0.9,-1.07 -2.3,-2.23 -4.1,-2.23 -0.3,0 -1.9,0 -2.7,1.16 1.9,0.2 1.9,1.88 1.9,1.91 0,1.12 -1,1.33 -1.3,1.33 -0.9,0 -2.1,-0.7 -2.1,-2.3 0,-1.78 1.7,-3.07 4.2,-3.07 3.5,0 7.8,2.72 8.9,7.07 z"
           id="path5019" /><path
           style="fill:#000000;stroke-width:0"
           inkscape:connector-curvature="0"
           d="m 1288,352.11 -0.1,-0.02 0,-0.03 -0.1,-0.02 -0.1,-0.03 -0.1,-0.03 0,-0.04 -0.1,-0.04 -0.1,-0.04 -0.1,-0.04 0,-0.04 -0.1,-0.05 0,-0.05 -0.1,-0.05 0,-0.05 -0.1,-0.05 0,-0.06 -0.1,-0.05 0,-0.06 -0.1,-0.06 0,-0.06 0,-0.06 -0.1,-0.06 0,-0.06 0,-0.07 -0.1,-0.06 0,-0.07 0,-0.06 0,-0.07 0,-0.06 0,-0.07 0,-0.06 0,-0.07 c 0,-0.8 0.7,-1.11 1.1,-1.11 0.4,0 1.7,0.21 1.7,1.98 0,2.27 -2.5,3.04 -4.6,3.04 -5.5,0 -6.5,-4.01 -6.5,-5.09 0,-1.29 0.8,-2.13 1.3,-2.55 0.9,-0.7 1.5,-0.84 3.9,-1.26 0.7,-0.13 3,-0.55 3,-2.3 0,-0.59 -0.4,-1.91 -1.9,-2.79 -1.4,-0.76 -3.1,-0.76 -3.5,-0.76 -1.4,0 -3.4,0.31 -4.2,1.46 1.2,0.14 2,1.01 2,1.99 0,0.87 -0.7,1.29 -1.4,1.29 -1,0 -2,-0.8 -2,-2.33 0,-2.1 2.2,-3.39 5.6,-3.39 6.4,0 7.6,4.39 7.6,5.76 0,3.2 -3.5,3.83 -4.8,4.07 -0.3,0.07 -1.2,0.22 -1.4,0.28 -1.3,0.25 -1.9,0.98 -1.9,1.75 0,0.8 0.6,1.74 1.4,2.23 0.9,0.59 2.1,0.66 2.7,0.66 0.7,0 2.6,-0.1 3.3,-1.29 z"
           id="path5021" /></g>    </g>
    <g
       id="g5201"
       transform="matrix(0.76901548,0,0,0.76901548,-55.22323,29.289442)">
      <g
         word-spacing="normal"
         letter-spacing="normal"
         font-size-adjust="none"
         font-stretch="normal"
         font-weight="normal"
         font-variant="normal"
         font-style="normal"
         stroke-miterlimit="10.433"
         xml:space="preserve"
         transform="matrix(0.68571429,0,0,-0.68571429,-120,480)"
         id="g5203"
         style="font-style:normal;font-variant:normal;font-weight:normal;font-stretch:normal;letter-spacing:normal;word-spacing:normal;text-anchor:start;fill:none;fill-opacity:1;fill-rule:evenodd;stroke:#000000;stroke-linecap:butt;stroke-linejoin:miter;stroke-miterlimit:10.43299961;stroke-dasharray:none;stroke-dashoffset:0;stroke-opacity:1"><path
           id="path5205"
           d="m 1245.7,374.24 0.2,0.41 0.2,0.39 0.3,0.39 0.2,0.37 0.2,0.17 0.1,0.18 0.1,0.17 0.2,0.16 0.1,0.16 0.2,0.16 0.1,0.15 0.2,0.14 0.1,0.14 0.2,0.13 0.2,0.13 0.1,0.12 0.2,0.11 0.2,0.11 0.2,0.1 0.2,0.09 0.3,0.09 0.2,0.07 0.2,0.07 0.3,0.06 0.2,0.06 0.3,0.04 0.3,0.04 0.3,0.03 c 0.4,0.05 0.9,0.05 0.9,0.99 0,0.2 -0.2,0.55 -0.6,0.55 l -9,0 c -0.3,0 -1,0 -1,-0.95 0,-0.54 0.5,-0.59 0.8,-0.59 1.2,-0.05 2.9,-0.45 2.9,-1.94 0,-0.55 -0.2,-0.95 -0.6,-1.65 l -13.5,-23.46 -1.8,24.71 c -0.1,0.99 -0.2,2.29 3.5,2.34 0.8,0 1.3,0 1.3,0.99 0,0.5 -0.5,0.55 -0.7,0.55 l -11.3,0 c -0.3,0 -1,0 -1,-0.99 0,-0.55 0.5,-0.55 1.2,-0.55 2.2,0 2.6,-0.3 2.7,-1.25 l 0.3,-3.83 -12.6,-21.97 -1.9,25.25 c 0,0.6 0,1.75 3.7,1.8 0.5,0 1.1,0 1.1,0.99 0,0.55 -0.6,0.55 -0.7,0.55 l -11.4,0 c -0.2,0 -0.9,0 -0.9,-0.95 0,-0.59 0.5,-0.59 1.3,-0.59 2.5,0 2.5,-0.45 2.6,-1.84 l 2.3,-30.44 c 0,-0.9 0.1,-1.3 0.8,-1.3 0.6,0 0.7,0.3 1.2,1.05 l 14.6,25.41 1.8,-25.16 c 0.1,-1.05 0.3,-1.3 0.8,-1.3 0.7,0 1,0.5 1.2,0.95 z"
           inkscape:connector-curvature="0"
           style="fill:#000000;stroke-width:0" /><path
           id="path5207"
           d="m 1267.7,350.86 0.4,0.09 0.4,0.11 0.4,0.11 0.3,0.12 0.4,0.13 0.4,0.14 0.3,0.15 0.4,0.15 0.3,0.16 0.4,0.17 0.3,0.18 0.3,0.18 0.3,0.19 0.3,0.2 0.3,0.2 0.3,0.21 0.3,0.22 0.2,0.22 0.2,0.23 0.3,0.23 0.2,0.24 0.2,0.25 0.2,0.25 0.1,0.25 0.2,0.26 0.1,0.27 0.1,0.27 0.1,0.27 0.1,0.28 0,0.28 0,0.29 0.1,0.29 c 0,3 -3.6,5.37 -8.7,5.37 l -10.7,0 c -0.6,0 -1.1,0 -1.1,-0.77 0,-0.49 0.4,-0.49 1.1,-0.49 0.1,0 0.7,0 1.4,-0.07 0.7,-0.07 0.8,-0.14 0.8,-0.49 0,-0.07 0,-0.24 -0.2,-0.77 l -4.6,-18.51 c -0.3,-1.18 -0.4,-1.47 -3.1,-1.47 -0.6,0 -1,0 -1,-0.73 0,-0.34 0.2,-0.52 0.5,-0.52 0.7,0 1.5,0.11 2.2,0.11 l 4.5,0 c 0.8,0 1.6,-0.11 2.4,-0.11 0.1,0 0.7,0 0.7,0.73 0,0.52 -0.4,0.52 -1.2,0.52 -0.5,0 -0.7,0 -1.3,0.07 -0.7,0.11 -0.7,0.18 -0.7,0.53 0,0.03 0,0.24 0.1,0.76 l 2.2,8.83 4.7,0 0.1,0.97 -4.5,0 2.2,8.97 c 0.2,0.97 0.3,1.08 1.1,1.18 l 2.2,0 c 3.3,0 7.3,0 7.3,-3.59 0,-1.43 -0.7,-3.63 -2.3,-4.88 -1.5,-1.12 -3.6,-1.68 -6,-1.68 l -0.1,-0.97 c 3,0 4.3,-1.5 4.3,-3.14 0,-0.46 -0.3,-1.64 -0.5,-2.44 -0.4,-1.61 -0.5,-2.13 -0.5,-2.72 0,-2.76 2.5,-3.84 5.1,-3.84 3.2,0 4.6,3.42 4.6,4.05 0,0.1 -0.1,0.49 -0.6,0.49 -0.4,0 -0.5,-0.25 -0.6,-0.6 -0.5,-1.53 -1.8,-2.96 -3.3,-2.96 -0.9,0 -1.5,0.38 -1.5,2.27 0,0.87 0.2,2.68 0.3,3.62 0.2,0.94 0.2,1.29 0.2,1.64 0,0.42 0,1.53 -1,2.58 -0.7,0.73 -1.6,1.19 -2.4,1.47 z"
           inkscape:connector-curvature="0"
           style="fill:#000000;stroke-width:0" /></g>    </g>
    <g
       transform="translate(108,42)"
       id="g6169">
      <g
         style="font-style:normal;font-variant:normal;font-weight:normal;font-stretch:normal;letter-spacing:normal;word-spacing:normal;text-anchor:start;fill:none;fill-opacity:1;fill-rule:evenodd;stroke:#000000;stroke-linecap:butt;stroke-linejoin:miter;stroke-miterlimit:10.43299961;stroke-dasharray:none;stroke-dashoffset:0;stroke-opacity:1"
         id="g6171"
         transform="matrix(0.68571429,0,0,-0.68571429,-120,480)"
         xml:space="preserve"
         stroke-miterlimit="10.433"
         font-style="normal"
         font-variant="normal"
         font-weight="normal"
         font-stretch="normal"
         font-size-adjust="none"
         letter-spacing="normal"
         word-spacing="normal"><path
           style="fill:#000000;stroke-width:0"
           inkscape:connector-curvature="0"
           d="m 477.67,422.94 0.45,0.12 0.44,0.12 0.44,0.14 0.43,0.15 0.42,0.16 0.42,0.17 0.4,0.18 0.4,0.18 0.39,0.2 0.37,0.21 0.37,0.21 0.35,0.23 0.34,0.23 0.33,0.24 0.32,0.25 0.3,0.26 0.29,0.26 0.27,0.28 0.26,0.28 0.24,0.29 0.23,0.29 0.21,0.3 0.19,0.31 0.17,0.32 0.16,0.32 0.14,0.33 0.11,0.33 0.1,0.34 0.08,0.35 0.05,0.35 0.04,0.35 0.01,0.36 c 0,4.79 -5.68,8.97 -13,8.97 l -15.65,0 0,-1.54 1.2,0 c 3.83,0 3.94,-0.55 3.94,-2.34 l 0,-26.25 c 0,-1.8 -0.11,-2.35 -3.94,-2.35 l -1.2,0 0,-1.54 14.55,0 0,1.54 -1.2,0 c -3.83,0 -3.93,0.55 -3.93,2.35 l 0,12.6 0,1.1 0,12.89 c 0,1.15 0,1.75 1.09,1.9 0.5,0.1 1.95,0.1 2.94,0.1 4.49,0 10.06,-0.2 10.06,-7.43 0,-3.43 -1.19,-7.46 -8.56,-7.46 l -5.53,0 0,-1.1 5.73,0 c 0.79,0 2.89,0 4.63,-1.7 1.89,-1.79 1.89,-3.33 1.89,-6.67 0,-3.24 0,-5.23 2.04,-7.12 2.05,-1.8 4.79,-2.1 6.28,-2.1 3.89,0 4.73,4.09 4.73,5.48 0,0.3 0,0.85 -0.64,0.85 -0.55,0 -0.55,-0.45 -0.6,-0.8 -0.3,-3.53 -2.04,-4.43 -3.29,-4.43 -2.44,0 -2.84,2.54 -3.54,7.17 l -0.64,3.99 c -0.9,3.19 -3.34,4.83 -6.08,5.78 z"
           id="path6173" /></g>    </g>
    <g
       id="g6379"
       transform="matrix(0,-0.88579029,0.88579029,0,-25.585393,502.26955)">
      <g
         word-spacing="normal"
         letter-spacing="normal"
         font-size-adjust="none"
         font-stretch="normal"
         font-weight="normal"
         font-variant="normal"
         font-style="normal"
         stroke-miterlimit="10.433"
         xml:space="preserve"
         transform="matrix(0.68571429,0,0,-0.68571429,-120,480)"
         id="g6381"
         style="font-style:normal;font-variant:normal;font-weight:normal;font-stretch:normal;letter-spacing:normal;word-spacing:normal;text-anchor:start;fill:none;fill-opacity:1;fill-rule:evenodd;stroke:#000000;stroke-linecap:butt;stroke-linejoin:miter;stroke-miterlimit:10.43299961;stroke-dasharray:none;stroke-dashoffset:0;stroke-opacity:1"><path
           id="path6383"
           d="m 458.79,423.04 0.02,-0.96 0.07,-0.95 0.12,-0.92 0.15,-0.91 0.2,-0.89 0.24,-0.88 0.29,-0.85 0.31,-0.83 0.36,-0.8 0.39,-0.79 0.43,-0.76 0.46,-0.73 0.49,-0.71 0.53,-0.68 0.55,-0.65 0.58,-0.63 0.61,-0.59 0.64,-0.56 0.66,-0.53 0.68,-0.5 0.7,-0.46 0.73,-0.43 0.74,-0.39 0.77,-0.35 0.78,-0.32 0.79,-0.28 0.82,-0.24 0.82,-0.19 0.84,-0.16 0.84,-0.11 0.86,-0.07 0.86,-0.02 c 8.12,0 13,6.93 13,12.71 0,0.5 0,0.84 -0.64,0.84 -0.55,0 -0.55,-0.29 -0.6,-0.79 -0.4,-7.13 -5.73,-11.21 -11.16,-11.21 -3.04,0 -12.8,1.69 -12.8,16.53 0,14.9 9.71,16.59 12.75,16.59 5.43,0 9.87,-4.53 10.86,-11.8 0.1,-0.7 0.1,-0.85 0.8,-0.85 0.79,0 0.79,0.15 0.79,1.2 l 0,11.8 c 0,0.85 0,1.2 -0.54,1.2 -0.2,0 -0.4,0 -0.8,-0.6 l -2.49,-3.68 c -1.84,1.79 -4.38,4.28 -9.17,4.28 -9.31,0 -17.33,-7.92 -17.33,-18.08 z"
           inkscape:connector-curvature="0"
           style="fill:#000000;stroke-width:0" /><path
           id="path6385"
           d="m 515.46,416.66 -0.01,0.59 -0.05,0.59 -0.07,0.58 -0.09,0.57 -0.13,0.56 -0.15,0.55 -0.17,0.54 -0.2,0.53 -0.22,0.52 -0.25,0.5 -0.26,0.49 -0.29,0.47 -0.31,0.46 -0.33,0.44 -0.35,0.42 -0.36,0.41 -0.39,0.39 -0.4,0.36 -0.41,0.35 -0.44,0.33 -0.44,0.3 -0.46,0.29 -0.48,0.26 -0.48,0.23 -0.5,0.21 -0.51,0.19 -0.52,0.16 -0.53,0.13 -0.54,0.1 -0.55,0.08 -0.56,0.04 -0.56,0.02 -0.05,-1.1 c 2.19,0 4.34,-1.1 5.63,-3.24 1.3,-2.14 1.3,-5.03 1.3,-6.92 0,-1.79 0,-4.49 -1.1,-6.68 -1.09,-2.24 -3.28,-3.68 -5.78,-3.68 l 0,0 c -2.14,0 -4.33,1.04 -5.68,3.34 -1.24,2.19 -1.24,5.23 -1.24,7.02 0,1.94 0,4.63 1.2,6.82 1.34,2.3 3.68,3.34 5.67,3.34 l 0.05,1.1 c -6.22,0 -11.06,-5.43 -11.06,-11.66 0,-6.43 5.18,-11.21 11.01,-11.21 6.03,0 11.06,4.88 11.06,11.21 z"
           inkscape:connector-curvature="0"
           style="fill:#000000;stroke-width:0" /><path
           id="path6387"
           d="m 521.48,423.14 0,-13.35 c 0,-2.25 -0.55,-2.25 -3.89,-2.25 l 0,-1.54 11.21,0 0,1.54 c -3.33,0 -3.88,0 -3.88,2.25 l 0,9.16 c 0,5.18 3.53,7.97 6.72,7.97 3.14,0 3.69,-2.69 3.69,-5.53 l 0,-11.6 c 0,-2.25 -0.55,-2.25 -3.89,-2.25 l 0,-1.54 11.21,0 0,1.54 c -3.34,0 -3.88,0 -3.88,2.25 l 0,9.16 c 0,5.18 3.53,7.97 6.72,7.97 3.14,0 3.69,-2.69 3.69,-5.53 l 0,-11.6 c 0,-2.25 -0.55,-2.25 -3.89,-2.25 l 0,-1.54 11.21,0 0,1.54 c -2.59,0 -3.84,0 -3.89,1.5 l 0,9.51 c 0,4.29 0,5.83 -1.54,7.63 -0.7,0.84 -2.34,1.84 -5.23,1.84 -4.19,0 -6.38,-2.99 -7.23,-4.88 -0.69,4.33 -4.38,4.88 -6.62,4.88 -3.64,0 -5.98,-2.14 -7.37,-5.23 l 0,5.23 -7.03,-0.55 0,-1.54 c 3.49,0 3.89,-0.35 3.89,-2.79 z"
           inkscape:connector-curvature="0"
           style="fill:#000000;stroke-width:0" /><path
           id="path6389"
           d="m 565.57,424.78 0,15.79 -7.17,-0.55 0,-1.54 c 3.48,0 3.88,-0.35 3.88,-2.79 l 0,-29.69 1.25,0 c 0.04,0.05 0.44,0.75 1.79,3.09 0.75,-1.15 2.84,-3.64 6.52,-3.64 l -0.19,1.1 c -2.25,0 -4.04,1.19 -5.24,3.04 -0.69,1.04 -0.69,1.19 -0.69,2.09 l 0,0 0,10.26 c 0,0.95 0,1 0.55,1.79 1.94,2.79 4.68,3.19 5.88,3.19 2.24,0 4.03,-1.3 5.23,-3.19 1.29,-2.04 1.44,-4.88 1.44,-6.92 0,-1.85 -0.1,-4.83 -1.55,-7.08 -1.04,-1.54 -2.93,-3.18 -5.62,-3.18 l 0.19,-1.1 c 5.93,0 11.11,4.88 11.11,11.31 0,6.33 -4.88,11.26 -10.56,11.26 -3.88,0 -6.03,-2.34 -6.82,-3.24 z"
           inkscape:connector-curvature="0"
           style="fill:#000000;stroke-width:0" /><path
           id="path6391"
           d="m 592.82,428.02 -6.98,-0.55 0,-1.54 c 3.24,0 3.69,-0.31 3.69,-2.75 l 0,-13.39 c 0,-2.25 -0.55,-2.25 -3.88,-2.25 l 0,-1.54 10.65,0 0,1.54 c -3.28,0 -3.48,0.25 -3.48,2.19 z"
           inkscape:connector-curvature="0"
           style="fill:#000000;stroke-width:0" /><path
           id="path6393"
           d="m 593.02,436.68 -0.01,0.15 -0.01,0.15 -0.02,0.14 -0.02,0.13 -0.03,0.14 -0.04,0.13 -0.04,0.13 -0.05,0.12 -0.06,0.12 -0.06,0.11 -0.06,0.11 -0.07,0.11 -0.08,0.1 -0.08,0.1 -0.08,0.09 -0.09,0.09 -0.09,0.09 -0.1,0.07 -0.1,0.08 -0.11,0.07 -0.1,0.06 -0.11,0.06 -0.12,0.06 -0.11,0.05 -0.12,0.04 -0.12,0.04 -0.13,0.03 -0.12,0.03 -0.13,0.02 -0.13,0.01 -0.12,0.01 -0.13,0 c -1.55,0 -2.65,-1.34 -2.65,-2.64 0,-1.34 1.1,-2.64 2.65,-2.64 1.39,0 2.64,1.05 2.64,2.64 z"
           inkscape:connector-curvature="0"
           style="fill:#000000;stroke-width:0" /><path
           id="path6395"
           d="m 603.48,423.14 0,-13.35 c 0,-2.25 -0.55,-2.25 -3.89,-2.25 l 0,-1.54 11.21,0 0,1.54 c -3.33,0 -3.88,0 -3.88,2.25 l 0,9.16 c 0,5.18 3.53,7.97 6.72,7.97 3.14,0 3.69,-2.69 3.69,-5.53 l 0,-11.6 c 0,-2.25 -0.55,-2.25 -3.89,-2.25 l 0,-1.54 11.21,0 0,1.54 c -2.59,0 -3.84,0 -3.88,1.5 l 0,9.51 c 0,4.29 0,5.83 -1.55,7.63 -0.7,0.84 -2.34,1.84 -5.23,1.84 -3.64,0 -5.98,-2.14 -7.37,-5.23 l 0,5.23 -7.03,-0.55 0,-1.54 c 3.49,0 3.89,-0.35 3.89,-2.79 z"
           inkscape:connector-curvature="0"
           style="fill:#000000;stroke-width:0" /><path
           id="path6397"
           d="m 631.53,417.51 0.05,1.04 c 0.3,7.43 4.48,8.67 6.18,8.67 5.13,0 5.63,-6.72 5.63,-8.67 l -11.81,0 -0.05,-1.04 13.9,0 c 1.09,0 1.24,0 1.24,1.04 0,4.93 -2.69,9.77 -8.91,9.77 -5.78,0 -10.36,-5.14 -10.36,-11.36 0,-6.67 5.22,-11.51 10.95,-11.51 6.08,0 8.32,5.53 8.32,6.48 0,0.5 -0.4,0.6 -0.65,0.6 -0.44,0 -0.54,-0.3 -0.64,-0.7 -1.75,-5.13 -6.23,-5.13 -6.73,-5.13 -2.49,0 -4.48,1.49 -5.63,3.34 -1.49,2.39 -1.49,5.67 -1.49,7.47 z"
           inkscape:connector-curvature="0"
           style="fill:#000000;stroke-width:0" /><path
           id="path6399"
           d="m 666.93,408.74 0,-3.29 7.32,0.55 0,1.54 c -3.48,0 -3.88,0.35 -3.88,2.79 l 0,30.24 -7.18,-0.55 0,-1.54 c 3.49,0 3.89,-0.35 3.89,-2.79 l 0,-10.76 c -1.45,1.79 -3.59,3.09 -6.28,3.09 l 0.2,-1.1 c 1.75,0 3.84,-0.74 5.38,-2.99 0.55,-0.84 0.55,-0.95 0.55,-1.84 l 0,0 0,-10.21 c 0,-0.9 0,-1 -0.55,-1.84 -1.49,-2.4 -3.73,-3.49 -5.88,-3.49 -2.24,0 -4.03,1.29 -5.23,3.18 -1.29,2.05 -1.44,4.89 -1.44,6.93 0,1.84 0.1,4.83 1.54,7.07 1.05,1.55 2.94,3.19 5.63,3.19 l -0.2,1.1 c -5.87,0 -11.1,-4.88 -11.1,-11.31 0,-6.33 4.87,-11.26 10.55,-11.26 3.19,0 5.43,1.69 6.68,3.29 z"
           inkscape:connector-curvature="0"
           style="fill:#000000;stroke-width:0" /></g>    </g>
    <rect
       style="color:#000000;clip-rule:nonzero;display:inline;overflow:visible;visibility:visible;opacity:1;isolation:auto;mix-blend-mode:normal;color-interpolation:sRGB;color-interpolation-filters:linearRGB;solid-color:#000000;solid-opacity:1;fill:none;fill-opacity:0.2745098;fill-rule:nonzero;stroke:none;stroke-width:2;stroke-linecap:butt;stroke-linejoin:miter;stroke-miterlimit:4;stroke-dasharray:none;stroke-dashoffset:0;stroke-opacity:1;color-rendering:auto;image-rendering:auto;shape-rendering:auto;text-rendering:auto;enable-background:accumulate"
       id="rect6513"
       width="486.62411"
       height="469.84396"
       x="77.446808"
       y="14.028366" />
    <g
       id="g6630"
       transform="matrix(0.72708145,0,0,0.72708145,-159.3167,55.994293)">
      <g
         id="g6632"
         transform="matrix(0.67120566,0,0,-0.67120566,-117.46099,364.96808)"
         xml:space="preserve"
         stroke-miterlimit="10.433"
         font-style="normal"
         font-variant="normal"
         font-weight="normal"
         font-stretch="normal"
         font-size-adjust="none"
         letter-spacing="normal"
         word-spacing="normal"
         style="font-style:normal;font-variant:normal;font-weight:normal;font-stretch:normal;letter-spacing:normal;word-spacing:normal;text-anchor:start;fill:none;fill-opacity:1;fill-rule:evenodd;stroke:#000000;stroke-linecap:butt;stroke-linejoin:miter;stroke-miterlimit:10.43299961;stroke-dasharray:none;stroke-dashoffset:0;stroke-opacity:1"><path
           d="m 1205.2,367.77 -0.6,-0.15 -0.6,-0.19 -0.6,-0.21 -0.5,-0.23 -0.6,-0.27 -0.5,-0.28 -0.5,-0.31 -0.5,-0.33 -0.5,-0.35 -0.5,-0.38 -0.4,-0.39 -0.5,-0.41 -0.4,-0.43 -0.4,-0.44 -0.4,-0.46 -0.4,-0.47 -0.4,-0.49 -0.3,-0.5 -0.3,-0.51 -0.4,-0.52 -0.2,-0.53 -0.3,-0.53 -0.2,-0.55 -0.3,-0.55 -0.2,-0.56 -0.1,-0.56 -0.2,-0.56 -0.1,-0.57 -0.1,-0.57 -0.1,-0.57 0,-0.56 0,-0.57 c 0,-4.78 3.2,-8.37 7.9,-8.37 l 0,1.1 c -2.8,0 -4.8,2.09 -4.8,5.88 0,3.14 1.8,12.5 8.6,14.29 l 0,0 c 1.2,-2.29 2.7,-4.98 2.7,-8.56 0,-3.29 -1.9,-11.61 -6.5,-11.61 l 0,-1.1 c 5.8,0 9.9,7.82 9.9,14.7 0,4.53 -2,7.02 -3.7,9.26 -1.8,2.25 -4.7,5.98 -4.7,8.17 0,1.1 1,2.29 2.7,2.29 1.5,0 2.5,-0.64 3.6,-1.34 1,-0.6 2,-1.25 2.7,-1.25 1.3,0 2,1.2 2,2 0,1.09 -0.8,1.24 -2.6,1.64 -2.6,0.55 -3.3,0.55 -4.1,0.55 -3.8,0 -5.6,-2.15 -5.6,-5.13 0,-2.69 1.4,-5.48 3,-8.52 z"
           id="path6634"
           inkscape:connector-curvature="0"
           style="fill:#000000;stroke-width:0" /><path
           d="m 1237.8,346.3 0.7,0.29 0.8,0.33 0.7,0.36 0.7,0.39 0.7,0.42 0.7,0.45 0.7,0.49 0.6,0.5 0.7,0.54 0.6,0.56 0.7,0.59 0.6,0.61 0.6,0.64 0.5,0.66 0.6,0.68 0.5,0.7 0.5,0.72 0.5,0.73 0.5,0.76 0.4,0.77 0.4,0.79 0.4,0.8 0.4,0.82 0.3,0.83 0.3,0.84 0.2,0.85 0.3,0.87 0.1,0.87 0.2,0.88 0.1,0.89 0,0.89 0.1,0.9 c 0,8.02 -5.3,13.4 -12.7,13.4 l -0.3,-1.25 c 4.9,0 8.6,-3.88 8.6,-10.56 0,-4.98 -2.6,-16.63 -10.9,-21.32 -0.3,1.74 -0.8,5.38 -4.4,5.38 -2.6,0 -5.1,-2.49 -5.1,-5.08 l 1.1,0 c 0,2 1.9,3.99 4,3.99 2.1,0 3,-1.2 3,-4.24 0,-0.74 0,-0.79 -0.5,-0.99 -1.3,-0.55 -2.8,-0.9 -4.2,-0.9 l 0,0 c -0.7,0 -2.3,0 -2.3,2.14 l -1.1,0 c 0,-0.99 0.3,-1.54 0.3,-1.59 l 0,0 c -3.9,1.54 -5.6,5.43 -5.6,9.91 0,3.44 1.3,10.51 5.1,15.89 3.6,5.08 8.3,7.37 12,7.37 l 0.3,1.25 c -10.8,0 -21.8,-11.31 -21.8,-22.92 0,-8.27 5.6,-13.3 12.8,-13.3 1.2,0 2.9,0.2 4.9,0.75 -0.2,-3.09 -0.2,-3.19 -0.2,-3.83 0,-1.6 0,-5.48 4.1,-5.48 5.9,0 8.3,9.11 8.3,9.66 0,0.35 -0.3,0.5 -0.5,0.5 -0.4,0 -0.5,-0.25 -0.6,-0.55 -1.2,-3.54 -4.1,-4.78 -5.8,-4.78 -2.3,0 -3.1,1.34 -3.6,5.13 z"
           id="path6636"
           inkscape:connector-curvature="0"
           style="fill:#000000;stroke-width:0" /><path
           d="m 1275.7,350.86 0.4,0.09 0.4,0.11 0.4,0.11 0.3,0.12 0.4,0.13 0.4,0.14 0.3,0.15 0.4,0.15 0.3,0.16 0.4,0.17 0.3,0.18 0.3,0.18 0.3,0.19 0.3,0.2 0.3,0.2 0.3,0.21 0.3,0.22 0.2,0.22 0.2,0.23 0.3,0.23 0.2,0.24 0.2,0.25 0.2,0.25 0.1,0.25 0.2,0.26 0.1,0.27 0.1,0.27 0.1,0.27 0.1,0.28 0,0.28 0,0.29 0.1,0.29 c 0,3 -3.6,5.37 -8.7,5.37 l -10.7,0 c -0.6,0 -1.1,0 -1.1,-0.77 0,-0.49 0.4,-0.49 1.1,-0.49 0.1,0 0.7,0 1.4,-0.07 0.7,-0.07 0.8,-0.14 0.8,-0.49 0,-0.07 0,-0.24 -0.2,-0.77 l -4.6,-18.51 c -0.3,-1.18 -0.4,-1.47 -3.1,-1.47 -0.6,0 -1,0 -1,-0.73 0,-0.34 0.2,-0.52 0.5,-0.52 0.7,0 1.5,0.11 2.2,0.11 l 4.5,0 c 0.8,0 1.6,-0.11 2.4,-0.11 0.1,0 0.7,0 0.7,0.73 0,0.52 -0.4,0.52 -1.2,0.52 -0.5,0 -0.7,0 -1.3,0.07 -0.7,0.11 -0.7,0.18 -0.7,0.53 0,0.03 0,0.24 0.1,0.76 l 2.2,8.83 4.7,0 0.1,0.97 -4.5,0 2.2,8.97 c 0.2,0.97 0.3,1.08 1.1,1.18 l 2.2,0 c 3.3,0 7.3,0 7.3,-3.59 0,-1.43 -0.7,-3.63 -2.3,-4.88 -1.5,-1.12 -3.6,-1.68 -6,-1.68 l -0.1,-0.97 c 3,0 4.3,-1.5 4.3,-3.14 0,-0.46 -0.3,-1.64 -0.5,-2.44 -0.4,-1.61 -0.5,-2.13 -0.5,-2.72 0,-2.76 2.5,-3.84 5.1,-3.84 3.2,0 4.6,3.42 4.6,4.05 0,0.1 -0.1,0.49 -0.6,0.49 -0.4,0 -0.5,-0.25 -0.6,-0.6 -0.5,-1.53 -1.8,-2.96 -3.3,-2.96 -0.9,0 -1.5,0.38 -1.5,2.27 0,0.87 0.2,2.68 0.3,3.62 0.2,0.94 0.2,1.29 0.2,1.64 0,0.42 0,1.53 -1,2.58 -0.7,0.73 -1.6,1.19 -2.4,1.47 z"
           id="path6638"
           inkscape:connector-curvature="0"
           style="fill:#000000;stroke-width:0" /></g>    </g>
    <g
       id="g6878"
       transform="matrix(0.72708145,0,0,0.72708145,-172.25151,223.89716)">
      <g
         word-spacing="normal"
         letter-spacing="normal"
         font-size-adjust="none"
         font-stretch="normal"
         font-weight="normal"
         font-variant="normal"
         font-style="normal"
         stroke-miterlimit="10.433"
         xml:space="preserve"
         transform="matrix(0.67120566,0,0,-0.67120566,-117.46099,364.96808)"
         id="g6880"
         style="font-style:normal;font-variant:normal;font-weight:normal;font-stretch:normal;letter-spacing:normal;word-spacing:normal;text-anchor:start;fill:none;fill-opacity:1;fill-rule:evenodd;stroke:#000000;stroke-linecap:butt;stroke-linejoin:miter;stroke-miterlimit:10.43299961;stroke-dasharray:none;stroke-dashoffset:0;stroke-opacity:1"><path
           id="path6882"
           d="m 1221.2,367.77 -0.6,-0.15 -0.6,-0.19 -0.6,-0.21 -0.5,-0.23 -0.6,-0.27 -0.5,-0.28 -0.5,-0.31 -0.5,-0.33 -0.5,-0.35 -0.5,-0.38 -0.4,-0.39 -0.5,-0.41 -0.4,-0.43 -0.4,-0.44 -0.4,-0.46 -0.4,-0.47 -0.4,-0.49 -0.3,-0.5 -0.3,-0.51 -0.4,-0.52 -0.2,-0.53 -0.3,-0.53 -0.2,-0.55 -0.3,-0.55 -0.2,-0.56 -0.1,-0.56 -0.2,-0.56 -0.1,-0.57 -0.1,-0.57 -0.1,-0.57 0,-0.56 0,-0.57 c 0,-4.78 3.2,-8.37 7.9,-8.37 l 0,1.1 c -2.8,0 -4.8,2.09 -4.8,5.88 0,3.14 1.8,12.5 8.6,14.29 l 0,0 c 1.2,-2.29 2.7,-4.98 2.7,-8.56 0,-3.29 -1.9,-11.61 -6.5,-11.61 l 0,-1.1 c 5.8,0 9.9,7.82 9.9,14.7 0,4.53 -2,7.02 -3.7,9.26 -1.8,2.25 -4.7,5.98 -4.7,8.17 0,1.1 1,2.29 2.7,2.29 1.5,0 2.5,-0.64 3.6,-1.34 1,-0.6 2,-1.25 2.7,-1.25 1.3,0 2,1.2 2,2 0,1.09 -0.8,1.24 -2.6,1.64 -2.6,0.55 -3.3,0.55 -4.1,0.55 -3.8,0 -5.6,-2.15 -5.6,-5.13 0,-2.69 1.4,-5.48 3,-8.52 z"
           inkscape:connector-curvature="0"
           style="fill:#000000;stroke-width:0" /><path
           id="path6884"
           d="m 1253.8,346.3 0.7,0.29 0.8,0.33 0.7,0.36 0.7,0.39 0.7,0.42 0.7,0.45 0.7,0.49 0.6,0.5 0.7,0.54 0.6,0.56 0.7,0.59 0.6,0.61 0.6,0.64 0.5,0.66 0.6,0.68 0.5,0.7 0.5,0.72 0.5,0.73 0.5,0.76 0.4,0.77 0.4,0.79 0.4,0.8 0.4,0.82 0.3,0.83 0.3,0.84 0.2,0.85 0.3,0.87 0.1,0.87 0.2,0.88 0.1,0.89 0,0.89 0.1,0.9 c 0,8.02 -5.3,13.4 -12.7,13.4 l -0.3,-1.25 c 4.9,0 8.6,-3.88 8.6,-10.56 0,-4.98 -2.6,-16.63 -10.9,-21.32 -0.3,1.74 -0.8,5.38 -4.4,5.38 -2.6,0 -5.1,-2.49 -5.1,-5.08 l 1.1,0 c 0,2 1.9,3.99 4,3.99 2.1,0 3,-1.2 3,-4.24 0,-0.74 0,-0.79 -0.5,-0.99 -1.3,-0.55 -2.8,-0.9 -4.2,-0.9 l 0,0 c -0.7,0 -2.3,0 -2.3,2.14 l -1.1,0 c 0,-0.99 0.3,-1.54 0.3,-1.59 l 0,0 c -3.9,1.54 -5.6,5.43 -5.6,9.91 0,3.44 1.3,10.51 5.1,15.89 3.6,5.08 8.3,7.37 12,7.37 l 0.3,1.25 c -10.8,0 -21.8,-11.31 -21.8,-22.92 0,-8.27 5.6,-13.3 12.8,-13.3 1.2,0 2.9,0.2 4.9,0.75 -0.2,-3.09 -0.2,-3.19 -0.2,-3.83 0,-1.6 0,-5.48 4.1,-5.48 5.9,0 8.3,9.11 8.3,9.66 0,0.35 -0.3,0.5 -0.5,0.5 -0.4,0 -0.5,-0.25 -0.6,-0.55 -1.2,-3.54 -4.1,-4.78 -5.8,-4.78 -2.3,0 -3.1,1.34 -3.6,5.13 z"
           inkscape:connector-curvature="0"
           style="fill:#000000;stroke-width:0" /></g>    </g>
  </g>
</svg>
