<?xml version="1.0" encoding="UTF-8" standalone="no"?>
<!-- Created with Inkscape (http://www.inkscape.org/) -->

<svg
   xmlns:dc="http://purl.org/dc/elements/1.1/"
   xmlns:cc="http://creativecommons.org/ns#"
   xmlns:rdf="http://www.w3.org/1999/02/22-rdf-syntax-ns#"
   xmlns:svg="http://www.w3.org/2000/svg"
   xmlns="http://www.w3.org/2000/svg"
   xmlns:sodipodi="http://sodipodi.sourceforge.net/DTD/sodipodi-0.dtd"
   xmlns:inkscape="http://www.inkscape.org/namespaces/inkscape"
   width="471"
   height="550"
   id="svg4152"
   version="1.1"
   inkscape:version="0.91 r13725"
   viewBox="0 0 471 550"
   sodipodi:docname="clausius.svg"
   inkscape:export-filename="/home/sandeep/Desktop/figures/secondlaw/heat-pump.png"
   inkscape:export-xdpi="90"
   inkscape:export-ydpi="90">
  <sodipodi:namedview
     id="base"
     pagecolor="#ffffff"
     bordercolor="#666666"
     borderopacity="1.0"
     inkscape:pageopacity="0.0"
     inkscape:pageshadow="2"
     inkscape:zoom="1.4142136"
     inkscape:cx="319.97705"
     inkscape:cy="279.21122"
     inkscape:current-layer="layer1"
     inkscape:document-units="px"
     showgrid="false"
     inkscape:window-width="1317"
     inkscape:window-height="744"
     inkscape:window-x="49"
     inkscape:window-y="24"
     inkscape:window-maximized="1"
     inkscape:object-nodes="true"
     inkscape:snap-smooth-nodes="true"
     inkscape:snap-midpoints="true"
     fit-margin-top="0"
     fit-margin-left="0"
     fit-margin-right="0"
     fit-margin-bottom="0" />
  <defs
     id="defs4154">
    <marker
       inkscape:isstock="true"
       style="overflow:visible"
       id="Arrow1Mstart"
       refX="0"
       refY="0"
       orient="auto"
       inkscape:stockid="Arrow1Mstart">
      <path
         transform="matrix(0.4,0,0,0.4,4,0)"
         style="fill:#000000;fill-opacity:1;fill-rule:evenodd;stroke:#000000;stroke-width:1pt;stroke-opacity:1"
         d="M 0,0 5,-5 -12.5,0 5,5 0,0 Z"
         id="path4745"
         inkscape:connector-curvature="0" />
    </marker>
    <marker
       inkscape:stockid="Arrow1Mend"
       orient="auto"
       refY="0"
       refX="0"
       id="marker5187"
       style="overflow:visible"
       inkscape:isstock="true">
      <path
         id="path5189"
         d="M 0,0 5,-5 -12.5,0 5,5 0,0 Z"
         style="fill:#000000;fill-opacity:1;fill-rule:evenodd;stroke:#000000;stroke-width:1pt;stroke-opacity:1"
         transform="matrix(-0.4,0,0,-0.4,-4,0)"
         inkscape:connector-curvature="0" />
    </marker>
    <marker
       inkscape:collect="always"
       inkscape:stockid="Arrow1Mend"
       orient="auto"
       refY="0"
       refX="0"
       id="marker5021"
       style="overflow:visible"
       inkscape:isstock="true">
      <path
         id="path5023"
         d="M 0,0 5,-5 -12.5,0 5,5 0,0 Z"
         style="fill:#000000;fill-opacity:1;fill-rule:evenodd;stroke:#000000;stroke-width:1pt;stroke-opacity:1"
         transform="matrix(-0.4,0,0,-0.4,-4,0)"
         inkscape:connector-curvature="0" />
    </marker>
    <marker
       inkscape:collect="always"
       inkscape:isstock="true"
       style="overflow:visible"
       id="Arrow1Mend"
       refX="0"
       refY="0"
       orient="auto"
       inkscape:stockid="Arrow1Mend">
      <path
         transform="matrix(-0.4,0,0,-0.4,-4,0)"
         style="fill:#000000;fill-opacity:1;fill-rule:evenodd;stroke:#000000;stroke-width:1pt;stroke-opacity:1"
         d="M 0,0 5,-5 -12.5,0 5,5 0,0 Z"
         id="path4748"
         inkscape:connector-curvature="0" />
    </marker>
  </defs>
  <metadata
     id="metadata4157">
    <rdf:RDF>
      <cc:Work
         rdf:about="">
        <dc:format>image/svg+xml</dc:format>
        <dc:type
           rdf:resource="http://purl.org/dc/dcmitype/StillImage" />
        <dc:title />
      </cc:Work>
    </rdf:RDF>
  </metadata>
  <g
     inkscape:groupmode="layer"
     inkscape:label="Device"
     id="layer1"
     transform="translate(-41,-50)">
    <rect
       y="81.647484"
       x="101.14748"
       height="85.205032"
       width="347.70502"
       id="rect4719"
       style="fill:#ff0000;fill-opacity:0.2745098;stroke:#ff0000;stroke-width:2.29496932;stroke-miterlimit:4;stroke-dasharray:none;stroke-dashoffset:0;stroke-opacity:1" />
    <rect
       style="fill:#0000ff;fill-opacity:0.2745098;stroke:#0000ff;stroke-width:2.29496932;stroke-miterlimit:4;stroke-dasharray:none;stroke-dashoffset:0;stroke-opacity:1"
       id="rect4723"
       width="347.70502"
       height="85.205032"
       x="101.14748"
       y="481.64746" />
    <ellipse
       ry="73.843925"
       rx="73.843933"
       cy="330.5"
       cx="275"
       id="path4727"
       style="fill:#ffff00;fill-opacity:0.2745098;stroke:#000000;stroke-width:2.31214309;stroke-miterlimit:4;stroke-dasharray:none;stroke-dashoffset:0;stroke-opacity:1" />
    <path
       inkscape:connector-curvature="0"
       id="path4729"
       d="m 274.99998,256.47608 1e-5,-85.22796"
       style="fill:none;fill-rule:evenodd;stroke:#000000;stroke-width:1.90156913;stroke-linecap:butt;stroke-linejoin:miter;stroke-miterlimit:4;stroke-dasharray:none;stroke-opacity:1;marker-end:url(#Arrow1Mend)" />
    <path
       inkscape:connector-curvature="0"
       id="path4731"
       d="m 274.99999,483.80357 -1e-5,-77.52798"
       style="fill:none;fill-rule:evenodd;stroke:#000000;stroke-width:1.90156937;stroke-linecap:butt;stroke-linejoin:miter;stroke-miterlimit:4;stroke-dasharray:none;stroke-opacity:1;marker-end:url(#marker5021)" />
    <path
       sodipodi:nodetypes="ccc"
       inkscape:connector-curvature="0"
       id="ellipse5149"
       d="m 229.98077,298.65234 c 10.52062,-14.97644 28.49394,-24.7581 46.91992,-24.33398 18.24645,-0.18299 34.64327,10.364 44.70047,25.1791"
       style="fill:none;fill-opacity:0.2745098;stroke:#000000;stroke-width:2.31200004;stroke-miterlimit:4;stroke-dasharray:none;stroke-dashoffset:0;stroke-opacity:1;marker-start:url(#Arrow1Mstart)" />
    <g
       transform="matrix(0.62286429,0,0,0.62286429,-19.796076,-63.157927)"
       id="g5306">
      <g
         style="font-style:normal;font-variant:normal;font-weight:normal;font-stretch:normal;letter-spacing:normal;word-spacing:normal;text-anchor:start;fill:none;fill-opacity:1;fill-rule:evenodd;stroke:#000000;stroke-linecap:butt;stroke-linejoin:miter;stroke-miterlimit:10.43299961;stroke-dasharray:none;stroke-dashoffset:0;stroke-opacity:1"
         word-spacing="normal"
         letter-spacing="normal"
         font-size-adjust="none"
         font-stretch="normal"
         font-weight="normal"
         font-variant="normal"
         font-style="normal"
         stroke-miterlimit="10.433"
         xml:space="preserve"
         transform="matrix(1.0971429,0,0,-1.0971429,-192,768)"
         id="content"><path
           style="fill:#000000;stroke-width:0"
           inkscape:connector-curvature="0"
           id="path5309"
           d="m 486.54,436.14 0,0.16 0,0.16 0,0.15 0.01,0.14 0.01,0.14 0.01,0.13 0.02,0.12 0.02,0.12 0.03,0.11 0.04,0.1 0.04,0.1 0.05,0.1 0.06,0.08 0.07,0.08 0.08,0.08 0.08,0.07 0.11,0.06 0.11,0.06 0.06,0.03 0.06,0.03 0.07,0.02 0.07,0.03 0.07,0.02 0.08,0.02 0.08,0.03 0.09,0.02 0.09,0.01 0.09,0.02 0.1,0.02 0.1,0.01 0.1,0.02 0.11,0.01 0.12,0.01 0.11,0.01 0.13,0.01 0.12,0.01 0.13,0.01 0.14,0.01 0.14,0.01 0.15,0 0.15,0.01 0.15,0 0.16,0 0.17,0.01 0.17,0 0.18,0 1.2,0 0,1.54 -14.7,0 0,-1.54 1.2,0 c 3.83,0 3.93,-0.55 3.93,-2.34 l 0,-11.66 -14.89,0 0,11.66 c 0,1.79 0.1,2.34 3.93,2.34 l 1.2,0 0,1.54 -14.7,0 0,-1.54 1.2,0 c 3.84,0 3.93,-0.55 3.93,-2.34 l 0,-26.25 c 0,-1.8 -0.09,-2.35 -3.93,-2.35 l -1.2,0 0,-1.54 14.7,0 0,1.54 -1.2,0 c -3.83,0 -3.93,0.55 -3.93,2.35 l 0,13.05 14.89,0 0,-13.05 c 0,-1.8 -0.1,-2.35 -3.93,-2.35 l -1.2,0 0,-1.54 14.7,0 0,1.54 -1.2,0 c -3.83,0 -3.93,0.55 -3.93,2.35 z" /><path
           style="fill:#000000;stroke-width:0"
           inkscape:connector-curvature="0"
           id="path5311"
           d="m 516.46,416.66 -0.01,0.59 -0.05,0.59 -0.07,0.58 -0.09,0.57 -0.13,0.56 -0.15,0.55 -0.17,0.54 -0.2,0.53 -0.22,0.52 -0.25,0.5 -0.26,0.49 -0.29,0.47 -0.31,0.46 -0.33,0.44 -0.35,0.42 -0.36,0.41 -0.39,0.39 -0.4,0.36 -0.41,0.35 -0.44,0.33 -0.44,0.3 -0.46,0.29 -0.48,0.26 -0.48,0.23 -0.5,0.21 -0.51,0.19 -0.52,0.16 -0.53,0.13 -0.54,0.1 -0.55,0.08 -0.56,0.04 -0.56,0.02 -0.05,-1.1 c 2.19,0 4.34,-1.1 5.63,-3.24 1.3,-2.14 1.3,-5.03 1.3,-6.92 0,-1.79 0,-4.49 -1.1,-6.68 -1.09,-2.24 -3.28,-3.68 -5.78,-3.68 l 0,0 c -2.14,0 -4.33,1.04 -5.68,3.34 -1.24,2.19 -1.24,5.23 -1.24,7.02 0,1.94 0,4.63 1.2,6.82 1.34,2.3 3.68,3.34 5.67,3.34 l 0.05,1.1 c -6.22,0 -11.06,-5.43 -11.06,-11.66 0,-6.43 5.18,-11.21 11.01,-11.21 6.03,0 11.06,4.88 11.06,11.21 z" /><path
           style="fill:#000000;stroke-width:0"
           inkscape:connector-curvature="0"
           id="path5313"
           d="m 526.62,425.93 7.12,0 0,1.54 -7.12,0 0,9.17 -1.25,0 c -0.05,-4.09 -1.54,-9.42 -6.42,-9.62 l 0,-1.09 4.23,0 0,-13.75 c 0,-6.13 4.63,-6.73 6.42,-6.73 3.55,0 4.94,3.54 4.94,6.73 l 0,2.84 -1.25,0 0,-2.74 c 0,-3.69 -1.49,-5.58 -3.33,-5.58 -3.34,0 -3.34,4.53 -3.34,5.38 z" /><path
           style="fill:#000000;stroke-width:0"
           inkscape:connector-curvature="0"
           id="path5315"
           d="m 575.67,422.94 0.45,0.12 0.44,0.12 0.44,0.14 0.43,0.15 0.42,0.16 0.42,0.17 0.4,0.18 0.4,0.18 0.39,0.2 0.37,0.21 0.37,0.21 0.35,0.23 0.34,0.23 0.33,0.24 0.32,0.25 0.3,0.26 0.29,0.26 0.27,0.28 0.26,0.28 0.24,0.29 0.23,0.29 0.21,0.3 0.19,0.31 0.17,0.32 0.16,0.32 0.14,0.33 0.11,0.33 0.1,0.34 0.08,0.35 0.05,0.35 0.04,0.35 0.01,0.36 c 0,4.79 -5.68,8.97 -13,8.97 l -15.65,0 0,-1.54 1.2,0 c 3.83,0 3.94,-0.55 3.94,-2.34 l 0,-26.25 c 0,-1.8 -0.11,-2.35 -3.94,-2.35 l -1.2,0 0,-1.54 14.55,0 0,1.54 -1.2,0 c -3.83,0 -3.93,0.55 -3.93,2.35 l 0,12.6 0,1.1 0,12.89 c 0,1.15 0,1.75 1.09,1.9 0.5,0.1 1.95,0.1 2.94,0.1 4.49,0 10.06,-0.2 10.06,-7.43 0,-3.43 -1.19,-7.46 -8.56,-7.46 l -5.53,0 0,-1.1 5.73,0 c 0.79,0 2.89,0 4.63,-1.7 1.89,-1.79 1.89,-3.33 1.89,-6.67 0,-3.24 0,-5.23 2.04,-7.12 2.05,-1.8 4.79,-2.1 6.28,-2.1 3.89,0 4.74,4.09 4.74,5.48 0,0.3 0,0.85 -0.65,0.85 -0.55,0 -0.55,-0.45 -0.6,-0.8 -0.3,-3.53 -2.04,-4.43 -3.29,-4.43 -2.44,0 -2.84,2.54 -3.53,7.17 l -0.65,3.99 c -0.9,3.19 -3.34,4.83 -6.08,5.78 z" /><path
           style="fill:#000000;stroke-width:0"
           inkscape:connector-curvature="0"
           id="path5317"
           d="m 596.53,417.51 0.05,1.04 c 0.3,7.43 4.48,8.67 6.18,8.67 5.13,0 5.63,-6.72 5.63,-8.67 l -11.81,0 -0.05,-1.04 13.9,0 c 1.09,0 1.24,0 1.24,1.04 0,4.93 -2.69,9.77 -8.91,9.77 -5.78,0 -10.36,-5.14 -10.36,-11.36 0,-6.67 5.22,-11.51 10.95,-11.51 6.08,0 8.32,5.53 8.32,6.48 0,0.5 -0.4,0.6 -0.65,0.6 -0.44,0 -0.54,-0.3 -0.64,-0.7 -1.75,-5.13 -6.23,-5.13 -6.73,-5.13 -2.49,0 -4.48,1.49 -5.63,3.34 -1.49,2.39 -1.49,5.67 -1.49,7.47 z" /><path
           style="fill:#000000;stroke-width:0"
           inkscape:connector-curvature="0"
           id="path5319"
           d="m 623.36,415.66 0.11,-0.02 0.13,-0.02 0.14,-0.03 0.16,-0.03 0.17,-0.04 0.18,-0.05 0.18,-0.05 0.2,-0.05 0.21,-0.06 0.21,-0.07 0.21,-0.08 0.22,-0.09 0.22,-0.09 0.22,-0.1 0.22,-0.12 0.22,-0.12 0.22,-0.13 0.21,-0.14 0.2,-0.15 0.2,-0.16 0.19,-0.18 0.18,-0.19 0.17,-0.2 0.16,-0.21 0.14,-0.22 0.07,-0.12 0.06,-0.12 0.06,-0.13 0.05,-0.12 0.05,-0.13 0.05,-0.14 0.04,-0.14 0.03,-0.14 0.03,-0.15 0.03,-0.15 0.02,-0.15 0.01,-0.16 0.01,-0.16 0,-0.17 c 0,-2.54 -1.74,-4.53 -5.63,-4.53 -4.18,0 -5.98,2.84 -6.92,7.07 -0.15,0.65 -0.2,0.85 -0.7,0.85 -0.64,0 -0.64,-0.35 -0.64,-1.25 l 0,-6.57 c 0,-0.85 0,-1.2 0.54,-1.2 0.25,0 0.3,0.05 1.25,1 0.09,0.1 0.09,0.2 0.99,1.14 2.19,-2.09 4.44,-2.14 5.48,-2.14 5.73,0 8.02,3.34 8.02,6.93 0,2.64 -1.49,4.13 -2.09,4.73 -1.64,1.59 -3.59,1.99 -5.68,2.39 -2.79,0.55 -6.13,1.2 -6.13,4.09 0,1.74 1.3,3.78 5.58,3.78 5.48,0 5.73,-4.48 5.83,-6.03 0.05,-0.45 0.5,-0.45 0.6,-0.45 0.65,0 0.65,0.25 0.65,1.2 l 0,5.03 c 0,0.85 0,1.2 -0.55,1.2 -0.25,0 -0.35,0 -0.99,-0.6 -0.16,-0.2 -0.65,-0.65 -0.85,-0.8 -1.9,1.4 -3.94,1.4 -4.69,1.4 -6.08,0 -7.96,-3.34 -7.96,-6.13 0,-1.74 0.79,-3.14 2.13,-4.23 1.6,-1.3 2.99,-1.6 6.58,-2.3 z" /><path
           style="fill:#000000;stroke-width:0"
           inkscape:connector-curvature="0"
           id="path5321"
           d="m 637.53,417.51 0.05,1.04 c 0.3,7.43 4.48,8.67 6.18,8.67 5.13,0 5.63,-6.72 5.63,-8.67 l -11.81,0 -0.05,-1.04 13.9,0 c 1.09,0 1.24,0 1.24,1.04 0,4.93 -2.69,9.77 -8.91,9.77 -5.78,0 -10.36,-5.14 -10.36,-11.36 0,-6.67 5.22,-11.51 10.95,-11.51 6.08,0 8.32,5.53 8.32,6.48 0,0.5 -0.4,0.6 -0.65,0.6 -0.44,0 -0.54,-0.3 -0.64,-0.7 -1.75,-5.13 -6.23,-5.13 -6.73,-5.13 -2.49,0 -4.48,1.49 -5.63,3.34 -1.49,2.39 -1.49,5.67 -1.49,7.47 z" /><path
           style="fill:#000000;stroke-width:0"
           inkscape:connector-curvature="0"
           id="path5323"
           d="m 662.32,422.54 0,5.48 -6.92,-0.55 0,-1.54 c 3.48,0 3.88,-0.35 3.88,-2.79 l 0,-13.35 c 0,-2.25 -0.55,-2.25 -3.88,-2.25 l 0,-1.54 12,0 0,1.54 -1.05,0 c -3.68,0 -3.78,0.55 -3.78,2.35 l 0,7.66 c 0,4.94 2.09,9.37 5.88,9.37 0.34,0 0.45,0 0.54,-0.05 -0.15,-0.05 -1.14,-0.65 -1.14,-1.94 0,-1.39 1.05,-2.14 2.14,-2.14 0.9,0 2.14,0.59 2.14,2.19 0,1.59 -1.54,3.04 -3.68,3.04 -3.64,0 -5.43,-3.34 -6.13,-5.48 z" /><path
           style="fill:#000000;stroke-width:0"
           inkscape:connector-curvature="0"
           id="path5325"
           d="m 694.72,422.59 0.05,0.11 0.04,0.11 0.05,0.12 0.05,0.13 0.06,0.13 0.06,0.13 0.07,0.13 0.07,0.14 0.07,0.13 0.08,0.14 0.09,0.14 0.09,0.13 0.1,0.14 0.11,0.13 0.12,0.14 0.12,0.13 0.13,0.12 0.14,0.13 0.15,0.12 0.16,0.11 0.17,0.11 0.18,0.1 0.18,0.1 0.2,0.08 0.22,0.08 0.22,0.08 0.23,0.06 0.25,0.05 0.26,0.05 0.14,0.02 0.14,0.01 0.14,0.02 0.14,0.01 0.15,0 0.15,0.01 0,1.54 -8.07,0 0,-1.54 c 1.85,-0.05 2.39,-1.2 2.39,-2.14 0,-0.45 -0.09,-0.65 -0.29,-1.2 l -5.08,-12.7 -5.58,13.9 c -0.3,0.64 -0.3,0.74 -0.3,0.84 0,1.3 1.94,1.3 2.84,1.3 l 0,1.54 -10.26,0 0,-1.54 c 3.14,0 3.33,-0.31 3.98,-1.85 l 7.17,-17.68 c 0.3,-0.7 0.4,-0.95 1.05,-0.95 0.65,0 0.85,0.45 1.05,0.95 z" /><path
           style="fill:#000000;stroke-width:0"
           inkscape:connector-curvature="0"
           id="path5327"
           d="m 722.46,416.66 -0.01,0.59 -0.05,0.59 -0.07,0.58 -0.09,0.57 -0.13,0.56 -0.15,0.55 -0.17,0.54 -0.2,0.53 -0.22,0.52 -0.25,0.5 -0.26,0.49 -0.29,0.47 -0.31,0.46 -0.33,0.44 -0.35,0.42 -0.36,0.41 -0.39,0.39 -0.4,0.36 -0.41,0.35 -0.44,0.33 -0.44,0.3 -0.46,0.29 -0.48,0.26 -0.48,0.23 -0.5,0.21 -0.51,0.19 -0.52,0.16 -0.53,0.13 -0.54,0.1 -0.55,0.08 -0.56,0.04 -0.56,0.02 -0.05,-1.1 c 2.19,0 4.34,-1.1 5.63,-3.24 1.3,-2.14 1.3,-5.03 1.3,-6.92 0,-1.79 0,-4.49 -1.1,-6.68 -1.09,-2.24 -3.28,-3.68 -5.78,-3.68 l 0,0 c -2.14,0 -4.33,1.04 -5.68,3.34 -1.24,2.19 -1.24,5.23 -1.24,7.02 0,1.94 0,4.63 1.2,6.82 1.34,2.3 3.68,3.34 5.67,3.34 l 0.05,1.1 c -6.22,0 -11.05,-5.43 -11.05,-11.66 0,-6.43 5.17,-11.21 11,-11.21 6.03,0 11.06,4.88 11.06,11.21 z" /><path
           style="fill:#000000;stroke-width:0"
           inkscape:connector-curvature="0"
           id="path5329"
           d="m 732.82,428.02 -6.98,-0.55 0,-1.54 c 3.24,0 3.69,-0.31 3.69,-2.75 l 0,-13.39 c 0,-2.25 -0.55,-2.25 -3.88,-2.25 l 0,-1.54 10.65,0 0,1.54 c -3.28,0 -3.48,0.25 -3.48,2.19 z" /><path
           style="fill:#000000;stroke-width:0"
           inkscape:connector-curvature="0"
           id="path5331"
           d="m 733.02,436.68 -0.01,0.15 -0.01,0.15 -0.02,0.14 -0.02,0.13 -0.03,0.14 -0.04,0.13 -0.04,0.13 -0.05,0.12 -0.06,0.12 -0.06,0.11 -0.06,0.11 -0.07,0.11 -0.08,0.1 -0.08,0.1 -0.08,0.09 -0.09,0.09 -0.09,0.09 -0.1,0.07 -0.1,0.08 -0.11,0.07 -0.1,0.06 -0.11,0.06 -0.12,0.06 -0.11,0.05 -0.12,0.04 -0.12,0.04 -0.13,0.03 -0.12,0.03 -0.13,0.02 -0.13,0.01 -0.12,0.01 -0.13,0 c -1.55,0 -2.65,-1.34 -2.65,-2.64 0,-1.34 1.1,-2.64 2.65,-2.64 1.39,0 2.64,1.05 2.64,2.64 z" /><path
           style="fill:#000000;stroke-width:0"
           inkscape:connector-curvature="0"
           id="path5333"
           d="m 745.32,422.54 0,5.48 -6.92,-0.55 0,-1.54 c 3.48,0 3.88,-0.35 3.88,-2.79 l 0,-13.35 c 0,-2.25 -0.55,-2.25 -3.88,-2.25 l 0,-1.54 12,0 0,1.54 -1.05,0 c -3.68,0 -3.78,0.55 -3.78,2.35 l 0,7.66 c 0,4.94 2.09,9.37 5.88,9.37 0.34,0 0.45,0 0.54,-0.05 -0.15,-0.05 -1.14,-0.65 -1.14,-1.94 0,-1.39 1.05,-2.14 2.14,-2.14 0.9,0 2.14,0.59 2.14,2.19 0,1.59 -1.54,3.04 -3.68,3.04 -3.64,0 -5.43,-3.34 -6.13,-5.48 z" /></g>    </g>
    <g
       transform="matrix(0.6039479,0,0,0.6039479,-18.181604,346.88034)"
       id="g5409">
      <g
         style="font-style:normal;font-variant:normal;font-weight:normal;font-stretch:normal;letter-spacing:normal;word-spacing:normal;text-anchor:start;fill:none;fill-opacity:1;fill-rule:evenodd;stroke:#000000;stroke-linecap:butt;stroke-linejoin:miter;stroke-miterlimit:10.43299961;stroke-dasharray:none;stroke-dashoffset:0;stroke-opacity:1"
         id="g5411"
         transform="matrix(1.0971429,0,0,-1.0971429,-192,768)"
         xml:space="preserve"
         stroke-miterlimit="10.433"
         font-style="normal"
         font-variant="normal"
         font-weight="normal"
         font-stretch="normal"
         font-size-adjust="none"
         letter-spacing="normal"
         word-spacing="normal"><path
           style="fill:#000000;stroke-width:0"
           inkscape:connector-curvature="0"
           d="m 458.79,423.04 0.02,-0.96 0.07,-0.95 0.12,-0.92 0.15,-0.91 0.2,-0.89 0.24,-0.88 0.29,-0.85 0.31,-0.83 0.36,-0.8 0.39,-0.79 0.43,-0.76 0.46,-0.73 0.49,-0.71 0.53,-0.68 0.55,-0.65 0.58,-0.63 0.61,-0.59 0.64,-0.56 0.66,-0.53 0.68,-0.5 0.7,-0.46 0.73,-0.43 0.74,-0.39 0.77,-0.35 0.78,-0.32 0.79,-0.28 0.82,-0.24 0.82,-0.19 0.84,-0.16 0.84,-0.11 0.86,-0.07 0.86,-0.02 c 8.12,0 13,6.93 13,12.71 0,0.5 0,0.84 -0.64,0.84 -0.55,0 -0.55,-0.29 -0.6,-0.79 -0.4,-7.13 -5.73,-11.21 -11.16,-11.21 -3.04,0 -12.8,1.69 -12.8,16.53 0,14.9 9.71,16.59 12.75,16.59 5.43,0 9.87,-4.53 10.86,-11.8 0.1,-0.7 0.1,-0.85 0.8,-0.85 0.79,0 0.79,0.15 0.79,1.2 l 0,11.8 c 0,0.85 0,1.2 -0.54,1.2 -0.2,0 -0.4,0 -0.8,-0.6 l -2.49,-3.68 c -1.84,1.79 -4.38,4.28 -9.17,4.28 -9.31,0 -17.33,-7.92 -17.33,-18.08 z"
           id="path5413" /><path
           style="fill:#000000;stroke-width:0"
           inkscape:connector-curvature="0"
           d="m 515.46,416.66 -0.01,0.59 -0.05,0.59 -0.07,0.58 -0.09,0.57 -0.13,0.56 -0.15,0.55 -0.17,0.54 -0.2,0.53 -0.22,0.52 -0.25,0.5 -0.26,0.49 -0.29,0.47 -0.31,0.46 -0.33,0.44 -0.35,0.42 -0.36,0.41 -0.39,0.39 -0.4,0.36 -0.41,0.35 -0.44,0.33 -0.44,0.3 -0.46,0.29 -0.48,0.26 -0.48,0.23 -0.5,0.21 -0.51,0.19 -0.52,0.16 -0.53,0.13 -0.54,0.1 -0.55,0.08 -0.56,0.04 -0.56,0.02 -0.05,-1.1 c 2.19,0 4.34,-1.1 5.63,-3.24 1.3,-2.14 1.3,-5.03 1.3,-6.92 0,-1.79 0,-4.49 -1.1,-6.68 -1.09,-2.24 -3.28,-3.68 -5.78,-3.68 l 0,0 c -2.14,0 -4.33,1.04 -5.68,3.34 -1.24,2.19 -1.24,5.23 -1.24,7.02 0,1.94 0,4.63 1.2,6.82 1.34,2.3 3.68,3.34 5.67,3.34 l 0.05,1.1 c -6.22,0 -11.06,-5.43 -11.06,-11.66 0,-6.43 5.18,-11.21 11.01,-11.21 6.03,0 11.06,4.88 11.06,11.21 z"
           id="path5415" /><path
           style="fill:#000000;stroke-width:0"
           inkscape:connector-curvature="0"
           d="m 524.82,440.57 -7.17,-0.55 0,-1.54 c 3.48,0 3.88,-0.35 3.88,-2.79 l 0,-25.9 c 0,-2.25 -0.55,-2.25 -3.88,-2.25 l 0,-1.54 11.05,0 0,1.54 c -3.34,0 -3.88,0 -3.88,2.25 z"
           id="path5417" /><path
           style="fill:#000000;stroke-width:0"
           inkscape:connector-curvature="0"
           d="m 548.93,408.74 0,-3.29 7.32,0.55 0,1.54 c -3.48,0 -3.88,0.35 -3.88,2.79 l 0,30.24 -7.18,-0.55 0,-1.54 c 3.49,0 3.89,-0.35 3.89,-2.79 l 0,-10.76 c -1.45,1.79 -3.59,3.09 -6.28,3.09 l 0.2,-1.1 c 1.75,0 3.84,-0.74 5.38,-2.99 0.55,-0.84 0.55,-0.95 0.55,-1.84 l 0,0 0,-10.21 c 0,-0.9 0,-1 -0.55,-1.84 -1.49,-2.4 -3.73,-3.49 -5.88,-3.49 -2.24,0 -4.03,1.29 -5.23,3.18 -1.29,2.05 -1.44,4.89 -1.44,6.93 0,1.84 0.1,4.83 1.54,7.07 1.05,1.55 2.94,3.19 5.63,3.19 l -0.2,1.1 c -5.87,0 -11.1,-4.88 -11.1,-11.31 0,-6.33 4.87,-11.26 10.55,-11.26 3.19,0 5.43,1.69 6.68,3.29 z"
           id="path5419" /><path
           style="fill:#000000;stroke-width:0"
           inkscape:connector-curvature="0"
           d="m 596.67,422.94 0.45,0.12 0.44,0.12 0.44,0.14 0.43,0.15 0.42,0.16 0.42,0.17 0.4,0.18 0.4,0.18 0.39,0.2 0.37,0.21 0.37,0.21 0.35,0.23 0.34,0.23 0.33,0.24 0.32,0.25 0.3,0.26 0.29,0.26 0.27,0.28 0.26,0.28 0.24,0.29 0.23,0.29 0.21,0.3 0.19,0.31 0.17,0.32 0.16,0.32 0.14,0.33 0.11,0.33 0.1,0.34 0.08,0.35 0.05,0.35 0.04,0.35 0.01,0.36 c 0,4.79 -5.68,8.97 -13,8.97 l -15.65,0 0,-1.54 1.2,0 c 3.83,0 3.94,-0.55 3.94,-2.34 l 0,-26.25 c 0,-1.8 -0.11,-2.35 -3.94,-2.35 l -1.2,0 0,-1.54 14.55,0 0,1.54 -1.2,0 c -3.83,0 -3.93,0.55 -3.93,2.35 l 0,12.6 0,1.1 0,12.89 c 0,1.15 0,1.75 1.09,1.9 0.5,0.1 1.95,0.1 2.94,0.1 4.49,0 10.06,-0.2 10.06,-7.43 0,-3.43 -1.19,-7.46 -8.56,-7.46 l -5.53,0 0,-1.1 5.73,0 c 0.79,0 2.89,0 4.63,-1.7 1.89,-1.79 1.89,-3.33 1.89,-6.67 0,-3.24 0,-5.23 2.04,-7.12 2.05,-1.8 4.79,-2.1 6.28,-2.1 3.89,0 4.74,4.09 4.74,5.48 0,0.3 0,0.85 -0.65,0.85 -0.55,0 -0.55,-0.45 -0.6,-0.8 -0.3,-3.53 -2.04,-4.43 -3.29,-4.43 -2.44,0 -2.84,2.54 -3.53,7.17 l -0.65,3.99 c -0.9,3.19 -3.34,4.83 -6.08,5.78 z"
           id="path5421" /><path
           style="fill:#000000;stroke-width:0"
           inkscape:connector-curvature="0"
           d="m 616.53,417.51 0.05,1.04 c 0.3,7.43 4.48,8.67 6.18,8.67 5.13,0 5.63,-6.72 5.63,-8.67 l -11.81,0 -0.05,-1.04 13.9,0 c 1.09,0 1.24,0 1.24,1.04 0,4.93 -2.69,9.77 -8.91,9.77 -5.78,0 -10.36,-5.14 -10.36,-11.36 0,-6.67 5.22,-11.51 10.95,-11.51 6.08,0 8.32,5.53 8.32,6.48 0,0.5 -0.4,0.6 -0.65,0.6 -0.44,0 -0.54,-0.3 -0.64,-0.7 -1.75,-5.13 -6.23,-5.13 -6.73,-5.13 -2.49,0 -4.48,1.49 -5.63,3.34 -1.49,2.39 -1.49,5.67 -1.49,7.47 z"
           id="path5423" /><path
           style="fill:#000000;stroke-width:0"
           inkscape:connector-curvature="0"
           d="m 643.36,415.66 0.11,-0.02 0.13,-0.02 0.14,-0.03 0.16,-0.03 0.17,-0.04 0.18,-0.05 0.18,-0.05 0.2,-0.05 0.21,-0.06 0.21,-0.07 0.21,-0.08 0.22,-0.09 0.22,-0.09 0.22,-0.1 0.22,-0.12 0.22,-0.12 0.22,-0.13 0.21,-0.14 0.2,-0.15 0.2,-0.16 0.19,-0.18 0.18,-0.19 0.17,-0.2 0.16,-0.21 0.14,-0.22 0.07,-0.12 0.06,-0.12 0.06,-0.13 0.05,-0.12 0.05,-0.13 0.05,-0.14 0.04,-0.14 0.03,-0.14 0.03,-0.15 0.03,-0.15 0.02,-0.15 0.01,-0.16 0.01,-0.16 0,-0.17 c 0,-2.54 -1.74,-4.53 -5.63,-4.53 -4.18,0 -5.98,2.84 -6.92,7.07 -0.15,0.65 -0.2,0.85 -0.7,0.85 -0.64,0 -0.64,-0.35 -0.64,-1.25 l 0,-6.57 c 0,-0.85 0,-1.2 0.54,-1.2 0.25,0 0.3,0.05 1.25,1 0.09,0.1 0.09,0.2 0.99,1.14 2.19,-2.09 4.44,-2.14 5.48,-2.14 5.73,0 8.02,3.34 8.02,6.93 0,2.64 -1.49,4.13 -2.09,4.73 -1.64,1.59 -3.59,1.99 -5.68,2.39 -2.79,0.55 -6.13,1.2 -6.13,4.09 0,1.74 1.3,3.78 5.58,3.78 5.48,0 5.73,-4.48 5.83,-6.03 0.05,-0.45 0.5,-0.45 0.6,-0.45 0.65,0 0.65,0.25 0.65,1.2 l 0,5.03 c 0,0.85 0,1.2 -0.55,1.2 -0.25,0 -0.35,0 -0.99,-0.6 -0.16,-0.2 -0.65,-0.65 -0.85,-0.8 -1.9,1.4 -3.94,1.4 -4.69,1.4 -6.08,0 -7.96,-3.34 -7.96,-6.13 0,-1.74 0.79,-3.14 2.13,-4.23 1.6,-1.3 2.99,-1.6 6.58,-2.3 z"
           id="path5425" /><path
           style="fill:#000000;stroke-width:0"
           inkscape:connector-curvature="0"
           d="m 658.53,417.51 0.05,1.04 c 0.3,7.43 4.48,8.67 6.18,8.67 5.13,0 5.63,-6.72 5.63,-8.67 l -11.81,0 -0.05,-1.04 13.9,0 c 1.09,0 1.24,0 1.24,1.04 0,4.93 -2.69,9.77 -8.91,9.77 -5.78,0 -10.36,-5.14 -10.36,-11.36 0,-6.67 5.22,-11.51 10.95,-11.51 6.08,0 8.32,5.53 8.32,6.48 0,0.5 -0.4,0.6 -0.65,0.6 -0.44,0 -0.54,-0.3 -0.64,-0.7 -1.75,-5.13 -6.23,-5.13 -6.73,-5.13 -2.49,0 -4.48,1.49 -5.63,3.34 -1.49,2.39 -1.49,5.67 -1.49,7.47 z"
           id="path5427" /><path
           style="fill:#000000;stroke-width:0"
           inkscape:connector-curvature="0"
           d="m 683.32,422.54 0,5.48 -6.92,-0.55 0,-1.54 c 3.48,0 3.88,-0.35 3.88,-2.79 l 0,-13.35 c 0,-2.25 -0.55,-2.25 -3.88,-2.25 l 0,-1.54 12,0 0,1.54 -1.05,0 c -3.68,0 -3.78,0.55 -3.78,2.35 l 0,7.66 c 0,4.94 2.09,9.37 5.88,9.37 0.34,0 0.45,0 0.54,-0.05 -0.15,-0.05 -1.14,-0.65 -1.14,-1.94 0,-1.39 1.05,-2.14 2.14,-2.14 0.9,0 2.14,0.59 2.14,2.19 0,1.59 -1.54,3.04 -3.68,3.04 -3.64,0 -5.43,-3.34 -6.13,-5.48 z"
           id="path5429" /><path
           style="fill:#000000;stroke-width:0"
           inkscape:connector-curvature="0"
           d="m 715.72,422.59 0.05,0.11 0.04,0.11 0.05,0.12 0.05,0.13 0.06,0.13 0.06,0.13 0.07,0.13 0.07,0.14 0.07,0.13 0.08,0.14 0.09,0.14 0.09,0.13 0.1,0.14 0.11,0.13 0.12,0.14 0.12,0.13 0.13,0.12 0.14,0.13 0.15,0.12 0.16,0.11 0.17,0.11 0.18,0.1 0.18,0.1 0.2,0.08 0.22,0.08 0.22,0.08 0.23,0.06 0.25,0.05 0.26,0.05 0.14,0.02 0.14,0.01 0.14,0.02 0.14,0.01 0.15,0 0.15,0.01 0,1.54 -8.07,0 0,-1.54 c 1.85,-0.05 2.39,-1.2 2.39,-2.14 0,-0.45 -0.09,-0.65 -0.29,-1.2 l -5.08,-12.7 -5.58,13.9 c -0.3,0.64 -0.3,0.74 -0.3,0.84 0,1.3 1.94,1.3 2.84,1.3 l 0,1.54 -10.26,0 0,-1.54 c 3.14,0 3.33,-0.31 3.98,-1.85 l 7.17,-17.68 c 0.3,-0.7 0.4,-0.95 1.05,-0.95 0.65,0 0.85,0.45 1.05,0.95 z"
           id="path5431" /><path
           style="fill:#000000;stroke-width:0"
           inkscape:connector-curvature="0"
           d="m 743.46,416.66 -0.01,0.59 -0.05,0.59 -0.07,0.58 -0.09,0.57 -0.13,0.56 -0.15,0.55 -0.17,0.54 -0.2,0.53 -0.22,0.52 -0.25,0.5 -0.26,0.49 -0.29,0.47 -0.31,0.46 -0.33,0.44 -0.35,0.42 -0.36,0.41 -0.39,0.39 -0.4,0.36 -0.41,0.35 -0.44,0.33 -0.44,0.3 -0.46,0.29 -0.48,0.26 -0.48,0.23 -0.5,0.21 -0.51,0.19 -0.52,0.16 -0.53,0.13 -0.54,0.1 -0.55,0.08 -0.56,0.04 -0.56,0.02 -0.05,-1.1 c 2.19,0 4.34,-1.1 5.63,-3.24 1.3,-2.14 1.3,-5.03 1.3,-6.92 0,-1.79 0,-4.49 -1.1,-6.68 -1.09,-2.24 -3.28,-3.68 -5.78,-3.68 l 0,0 c -2.14,0 -4.33,1.04 -5.68,3.34 -1.24,2.19 -1.24,5.23 -1.24,7.02 0,1.94 0,4.63 1.2,6.82 1.34,2.3 3.68,3.34 5.67,3.34 l 0.05,1.1 c -6.22,0 -11.05,-5.43 -11.05,-11.66 0,-6.43 5.17,-11.21 11,-11.21 6.03,0 11.06,4.88 11.06,11.21 z"
           id="path5433" /><path
           style="fill:#000000;stroke-width:0"
           inkscape:connector-curvature="0"
           d="m 752.82,428.02 -6.98,-0.55 0,-1.54 c 3.24,0 3.69,-0.31 3.69,-2.75 l 0,-13.39 c 0,-2.25 -0.55,-2.25 -3.88,-2.25 l 0,-1.54 10.65,0 0,1.54 c -3.28,0 -3.48,0.25 -3.48,2.19 z"
           id="path5435" /><path
           style="fill:#000000;stroke-width:0"
           inkscape:connector-curvature="0"
           d="m 753.02,436.68 -0.01,0.15 -0.01,0.15 -0.02,0.14 -0.02,0.13 -0.03,0.14 -0.04,0.13 -0.04,0.13 -0.05,0.12 -0.06,0.12 -0.06,0.11 -0.06,0.11 -0.07,0.11 -0.08,0.1 -0.08,0.1 -0.08,0.09 -0.09,0.09 -0.09,0.09 -0.1,0.07 -0.1,0.08 -0.11,0.07 -0.1,0.06 -0.11,0.06 -0.12,0.06 -0.11,0.05 -0.12,0.04 -0.12,0.04 -0.13,0.03 -0.12,0.03 -0.13,0.02 -0.13,0.01 -0.12,0.01 -0.13,0 c -1.55,0 -2.65,-1.34 -2.65,-2.64 0,-1.34 1.1,-2.64 2.65,-2.64 1.39,0 2.64,1.05 2.64,2.64 z"
           id="path5437" /><path
           style="fill:#000000;stroke-width:0"
           inkscape:connector-curvature="0"
           d="m 766.32,422.54 0,5.48 -6.92,-0.55 0,-1.54 c 3.48,0 3.88,-0.35 3.88,-2.79 l 0,-13.35 c 0,-2.25 -0.55,-2.25 -3.88,-2.25 l 0,-1.54 12,0 0,1.54 -1.05,0 c -3.68,0 -3.78,0.55 -3.78,2.35 l 0,7.66 c 0,4.94 2.09,9.37 5.88,9.37 0.34,0 0.45,0 0.54,-0.05 -0.15,-0.05 -1.14,-0.65 -1.14,-1.94 0,-1.39 1.05,-2.14 2.14,-2.14 0.9,0 2.14,0.59 2.14,2.19 0,1.59 -1.54,3.04 -3.68,3.04 -3.64,0 -5.43,-3.34 -6.13,-5.48 z"
           id="path5439" /></g>    </g>
    <g
       id="g9919"
       transform="matrix(0.68049416,0,0,0.68049416,89.76245,241.59028)">
      <g
         id="g9921"
         transform="matrix(0.67285714,0,0,-0.67285714,-117.75,412.5)"
         xml:space="preserve"
         stroke-miterlimit="10.433"
         font-style="normal"
         font-variant="normal"
         font-weight="normal"
         font-stretch="normal"
         font-size-adjust="none"
         letter-spacing="normal"
         word-spacing="normal"
         style="font-style:normal;font-variant:normal;font-weight:normal;font-stretch:normal;letter-spacing:normal;word-spacing:normal;text-anchor:start;fill:none;fill-opacity:1;fill-rule:evenodd;stroke:#000000;stroke-linecap:butt;stroke-linejoin:miter;stroke-miterlimit:10.43299961;stroke-dasharray:none;stroke-dashoffset:0;stroke-opacity:1"><path
           d="m 486.54,436.14 0,0.16 0,0.16 0,0.15 0.01,0.14 0.01,0.14 0.01,0.13 0.02,0.12 0.02,0.12 0.03,0.11 0.04,0.1 0.04,0.1 0.05,0.1 0.06,0.08 0.07,0.08 0.08,0.08 0.08,0.07 0.11,0.06 0.11,0.06 0.06,0.03 0.06,0.03 0.07,0.02 0.07,0.03 0.07,0.02 0.08,0.02 0.08,0.03 0.09,0.02 0.09,0.01 0.09,0.02 0.1,0.02 0.1,0.01 0.1,0.02 0.11,0.01 0.12,0.01 0.11,0.01 0.13,0.01 0.12,0.01 0.13,0.01 0.14,0.01 0.14,0.01 0.15,0 0.15,0.01 0.15,0 0.16,0 0.17,0.01 0.17,0 0.18,0 1.2,0 0,1.54 -14.7,0 0,-1.54 1.2,0 c 3.83,0 3.93,-0.55 3.93,-2.34 l 0,-11.66 -14.89,0 0,11.66 c 0,1.79 0.1,2.34 3.93,2.34 l 1.2,0 0,1.54 -14.7,0 0,-1.54 1.2,0 c 3.84,0 3.93,-0.55 3.93,-2.34 l 0,-26.25 c 0,-1.8 -0.09,-2.35 -3.93,-2.35 l -1.2,0 0,-1.54 14.7,0 0,1.54 -1.2,0 c -3.83,0 -3.93,0.55 -3.93,2.35 l 0,13.05 14.89,0 0,-13.05 c 0,-1.8 -0.1,-2.35 -3.93,-2.35 l -1.2,0 0,-1.54 14.7,0 0,1.54 -1.2,0 c -3.83,0 -3.93,0.55 -3.93,2.35 z"
           id="path9923"
           inkscape:connector-curvature="0"
           style="fill:#000000;stroke-width:0" /><path
           d="m 498.53,417.51 0.05,1.04 c 0.3,7.43 4.48,8.67 6.18,8.67 5.13,0 5.63,-6.72 5.63,-8.67 l -11.81,0 -0.05,-1.04 13.9,0 c 1.09,0 1.24,0 1.24,1.04 0,4.93 -2.69,9.77 -8.91,9.77 -5.78,0 -10.37,-5.14 -10.37,-11.36 0,-6.67 5.23,-11.51 10.97,-11.51 6.07,0 8.31,5.53 8.31,6.48 0,0.5 -0.4,0.6 -0.65,0.6 -0.44,0 -0.54,-0.3 -0.64,-0.7 -1.75,-5.13 -6.23,-5.13 -6.73,-5.13 -2.49,0 -4.48,1.49 -5.63,3.34 -1.49,2.39 -1.49,5.67 -1.49,7.47 z"
           id="path9925"
           inkscape:connector-curvature="0"
           style="fill:#000000;stroke-width:0" /><path
           d="m 531.59,409.79 0.02,-0.19 0.03,-0.19 0.03,-0.19 0.04,-0.18 0.05,-0.19 0.06,-0.18 0.06,-0.18 0.07,-0.18 0.07,-0.18 0.08,-0.18 0.09,-0.17 0.1,-0.16 0.1,-0.17 0.1,-0.15 0.12,-0.16 0.12,-0.14 0.12,-0.15 0.13,-0.13 0.14,-0.13 0.15,-0.12 0.15,-0.12 0.15,-0.1 0.17,-0.1 0.17,-0.09 0.17,-0.08 0.18,-0.07 0.19,-0.07 0.19,-0.05 0.2,-0.04 0.21,-0.03 0.21,-0.01 0.21,-0.01 c 1.05,0 4.09,0.7 4.09,4.73 l 0,2.79 -1.25,0 0,-2.79 c 0,-2.89 -1.24,-3.18 -1.79,-3.18 -1.64,0 -1.84,2.24 -1.84,2.48 l 0,9.97 c 0,2.09 0,4.03 -1.8,5.88 -1.94,1.94 -4.43,2.74 -6.82,2.74 -4.09,0 -7.53,-2.34 -7.53,-5.63 0,-1.5 1,-2.34 2.3,-2.34 1.39,0 2.29,0.99 2.29,2.29 0,0.59 -0.25,2.24 -2.54,2.29 1.35,1.74 3.78,2.29 5.38,2.29 2.44,0 5.28,-1.94 5.28,-6.38 l 0,-1.84 0,-1.04 0,-4.99 c 0,-4.73 -3.59,-6.42 -5.83,-6.42 -2.44,0 -4.48,1.74 -4.48,4.23 0,2.74 2.09,6.88 10.31,7.18 l 0,0 0,1.04 c -2.54,-0.15 -6.03,-0.3 -9.17,-1.79 -3.73,-1.69 -4.98,-4.28 -4.98,-6.48 0,-4.03 4.84,-5.28 7.97,-5.28 3.29,0 5.58,2 6.53,4.34 z"
           id="path9927"
           inkscape:connector-curvature="0"
           style="fill:#000000;stroke-width:0" /><path
           d="m 548.62,425.93 7.12,0 0,1.54 -7.12,0 0,9.17 -1.25,0 c -0.05,-4.09 -1.54,-9.42 -6.42,-9.62 l 0,-1.09 4.23,0 0,-13.75 c 0,-6.13 4.63,-6.73 6.42,-6.73 3.55,0 4.94,3.54 4.94,6.73 l 0,2.84 -1.25,0 0,-2.74 c 0,-3.69 -1.49,-5.58 -3.33,-5.58 -3.34,0 -3.34,4.53 -3.34,5.38 z"
           id="path9929"
           inkscape:connector-curvature="0"
           style="fill:#000000;stroke-width:0" /><path
           d="m 587.31,421.74 -0.15,1.3 0,13.44 c 0,1.65 0.1,2 2.44,2 l 4.43,0 c 7.92,0 7.92,-5.28 7.92,-7.72 0,-2.35 0,-7.72 -7.92,-7.72 l -6.87,0 0.15,-1.3 8.42,0 c 5.97,0 11.35,4.04 11.35,9.02 0,4.88 -4.93,9.26 -11.75,9.26 l -17.59,0 0,-1.54 1.2,0 c 3.83,0 3.94,-0.55 3.94,-2.34 l 0,-26.25 c 0,-1.8 -0.11,-2.35 -3.94,-2.35 l -1.2,0 0,-1.54 14.7,0 0,1.54 -1.2,0 c -3.83,0 -3.93,0.55 -3.93,2.35 z"
           id="path9931"
           inkscape:connector-curvature="0"
           style="fill:#000000;stroke-width:0" /><path
           d="m 629.48,409.93 0,-4.48 7.17,0.55 0,1.54 c -3.49,0 -3.88,0.35 -3.88,2.79 l 0,17.69 -7.33,-0.55 0,-1.54 c 3.49,0 3.89,-0.35 3.89,-2.79 l 0,-8.87 c 0,-4.34 -2.39,-7.72 -6.03,-7.72 -4.18,0 -4.38,2.34 -4.38,4.93 l 0,16.54 -7.33,-0.55 0,-1.54 c 3.89,0 3.89,-0.15 3.89,-4.59 l 0,-7.47 c 0,-3.89 0,-8.42 7.57,-8.42 2.79,0 4.98,1.4 6.43,4.48 z"
           id="path9933"
           inkscape:connector-curvature="0"
           style="fill:#000000;stroke-width:0" /><path
           d="m 643.48,423.14 0,-13.35 c 0,-2.25 -0.55,-2.25 -3.89,-2.25 l 0,-1.54 11.21,0 0,1.54 c -3.33,0 -3.88,0 -3.88,2.25 l 0,9.16 c 0,5.18 3.53,7.97 6.72,7.97 3.14,0 3.69,-2.69 3.69,-5.53 l 0,-11.6 c 0,-2.25 -0.55,-2.25 -3.89,-2.25 l 0,-1.54 11.21,0 0,1.54 c -3.34,0 -3.88,0 -3.88,2.25 l 0,9.16 c 0,5.18 3.53,7.97 6.72,7.97 3.14,0 3.69,-2.69 3.69,-5.53 l 0,-11.6 c 0,-2.25 -0.55,-2.25 -3.89,-2.25 l 0,-1.54 11.21,0 0,1.54 c -2.59,0 -3.84,0 -3.89,1.5 l 0,9.51 c 0,4.29 0,5.83 -1.54,7.63 -0.7,0.84 -2.34,1.84 -5.23,1.84 -4.19,0 -6.38,-2.99 -7.23,-4.88 -0.69,4.33 -4.38,4.88 -6.62,4.88 -3.64,0 -5.98,-2.14 -7.37,-5.23 l 0,5.23 -7.03,-0.55 0,-1.54 c 3.49,0 3.89,-0.35 3.89,-2.79 z"
           id="path9935"
           inkscape:connector-curvature="0"
           style="fill:#000000;stroke-width:0" /><path
           d="m 687.57,424.73 0,3.29 -7.17,-0.55 0,-1.54 c 3.53,0 3.88,-0.31 3.88,-2.5 l 0,-23.31 c 0,-2.24 -0.55,-2.24 -3.88,-2.24 l 0,-1.54 11.2,0 0,1.54 c -3.33,0 -3.88,0 -3.88,2.24 l 0,8.37 0,0.45 0.69,0.65 c -0.69,1.04 -0.69,1.09 -0.69,2.09 l 0,0 0,11.11 c 1.44,2.54 3.88,3.98 6.43,3.98 3.63,0 6.67,-4.38 6.67,-10.01 0,-6.03 -3.49,-10.21 -7.17,-10.21 -2,0 -3.89,0.99 -5.24,3.04 l -0.69,-0.65 c 0.25,-0.8 2.34,-3.49 6.12,-3.49 5.93,0 11.11,4.88 11.11,11.31 0,6.33 -4.83,11.26 -10.41,11.26 -3.88,0 -5.98,-2.2 -6.97,-3.29 z"
           id="path9937"
           inkscape:connector-curvature="0"
           style="fill:#000000;stroke-width:0" /></g>    </g>
    <g
       id="g8224"
       transform="translate(20.532592,-162.10328)">
      <rect
         transform="matrix(1,0,0.78742107,0.61641549,0,0)"
         y="682.9809"
         x="-390.79355"
         height="251.45377"
         width="11"
         id="rect8220"
         style="fill:#ff0000;fill-opacity:1;stroke:none;stroke-width:7;stroke-miterlimit:4;stroke-dasharray:none;stroke-dashoffset:0;stroke-opacity:1" />
      <rect
         style="fill:#ff0000;fill-opacity:1;stroke:none;stroke-width:7;stroke-miterlimit:4;stroke-dasharray:none;stroke-dashoffset:0;stroke-opacity:1"
         id="rect8222"
         width="11"
         height="251.45377"
         x="-893.79352"
         y="682.9809"
         transform="matrix(-1,0,-0.78742107,0.61641549,0,0)" />
    </g>
    <g
       id="g10820"
       transform="translate(110,80)">
      <g
         id="g10822"
         transform="matrix(0.67285714,0,0,-0.67285714,-117.75,412.5)"
         xml:space="preserve"
         stroke-miterlimit="10.433"
         font-style="normal"
         font-variant="normal"
         font-weight="normal"
         font-stretch="normal"
         font-size-adjust="none"
         letter-spacing="normal"
         word-spacing="normal"
         style="font-style:normal;font-variant:normal;font-weight:normal;font-stretch:normal;letter-spacing:normal;word-spacing:normal;text-anchor:start;fill:none;fill-opacity:1;fill-rule:evenodd;stroke:#000000;stroke-linecap:butt;stroke-linejoin:miter;stroke-miterlimit:10.43299961;stroke-dasharray:none;stroke-dashoffset:0;stroke-opacity:1"><path
           d="m 467.21,436.14 0,0.16 0,0.16 0,0.15 0.01,0.14 0.01,0.14 0.02,0.13 0.02,0.12 0.02,0.12 0.03,0.11 0.04,0.1 0.05,0.1 0.05,0.1 0.06,0.08 0.08,0.08 0.08,0.08 0.09,0.07 0.11,0.06 0.12,0.06 0.06,0.03 0.07,0.03 0.07,0.02 0.07,0.03 0.08,0.02 0.08,0.02 0.08,0.03 0.09,0.02 0.09,0.01 0.1,0.02 0.1,0.02 0.1,0.01 0.11,0.02 0.11,0.01 0.12,0.01 0.12,0.01 0.13,0.01 0.13,0.01 0.14,0.01 0.14,0.01 0.14,0.01 0.15,0 0.16,0.01 0.16,0 0.16,0 0.17,0.01 0.18,0 0.18,0 1.3,0 0,1.54 -15.2,0 0,-1.54 1.3,0 c 3.93,0 4.08,-0.55 4.08,-2.34 l 0,-26.25 c 0,-1.8 -0.15,-2.35 -4.08,-2.35 l -1.3,0 0,-1.54 15.2,0 0,1.54 -1.3,0 c -3.93,0 -4.08,0.55 -4.08,2.35 z"
           id="path10824"
           inkscape:connector-curvature="0"
           style="fill:#000000;stroke-width:0" /><path
           d="m 479.48,423.14 0,-13.35 c 0,-2.25 -0.55,-2.25 -3.89,-2.25 l 0,-1.54 11.21,0 0,1.54 c -3.34,0 -3.88,0 -3.88,2.25 l 0,9.16 c 0,5.18 3.53,7.97 6.72,7.97 3.14,0 3.69,-2.69 3.69,-5.53 l 0,-11.6 c 0,-2.25 -0.55,-2.25 -3.89,-2.25 l 0,-1.54 11.21,0 0,1.54 c -3.34,0 -3.88,0 -3.88,2.25 l 0,9.16 c 0,5.18 3.53,7.97 6.72,7.97 3.14,0 3.69,-2.69 3.69,-5.53 l 0,-11.6 c 0,-2.25 -0.55,-2.25 -3.89,-2.25 l 0,-1.54 11.21,0 0,1.54 c -2.59,0 -3.84,0 -3.89,1.5 l 0,9.51 c 0,4.29 0,5.83 -1.54,7.63 -0.7,0.84 -2.34,1.84 -5.23,1.84 -4.19,0 -6.38,-2.99 -7.23,-4.88 -0.69,4.33 -4.38,4.88 -6.62,4.88 -3.63,0 -5.98,-2.14 -7.37,-5.23 l 0,5.23 -7.03,-0.55 0,-1.54 c 3.49,0 3.89,-0.35 3.89,-2.79 z"
           id="path10826"
           inkscape:connector-curvature="0"
           style="fill:#000000;stroke-width:0" /><path
           d="m 523.57,424.73 0,3.29 -7.17,-0.55 0,-1.54 c 3.53,0 3.88,-0.31 3.88,-2.5 l 0,-23.31 c 0,-2.24 -0.55,-2.24 -3.88,-2.24 l 0,-1.54 11.2,0 0,1.54 c -3.33,0 -3.88,0 -3.88,2.24 l 0,8.37 0,0.45 0.69,0.65 c -0.69,1.04 -0.69,1.09 -0.69,2.09 l 0,0 0,11.11 c 1.44,2.54 3.88,3.98 6.43,3.98 3.63,0 6.67,-4.38 6.67,-10.01 0,-6.03 -3.49,-10.21 -7.17,-10.21 -2,0 -3.89,0.99 -5.24,3.04 l -0.69,-0.65 c 0.25,-0.8 2.34,-3.49 6.12,-3.49 5.93,0 11.11,4.88 11.11,11.31 0,6.33 -4.83,11.26 -10.41,11.26 -3.88,0 -5.98,-2.2 -6.97,-3.29 z"
           id="path10828"
           inkscape:connector-curvature="0"
           style="fill:#000000;stroke-width:0" /><path
           d="m 567.46,416.66 -0.01,0.59 -0.05,0.59 -0.07,0.58 -0.09,0.57 -0.13,0.56 -0.15,0.55 -0.17,0.54 -0.2,0.53 -0.22,0.52 -0.25,0.5 -0.26,0.49 -0.29,0.47 -0.31,0.46 -0.33,0.44 -0.35,0.42 -0.36,0.41 -0.39,0.39 -0.4,0.36 -0.41,0.35 -0.44,0.33 -0.44,0.3 -0.46,0.29 -0.48,0.26 -0.48,0.23 -0.5,0.21 -0.51,0.19 -0.52,0.16 -0.53,0.13 -0.54,0.1 -0.55,0.08 -0.56,0.04 -0.56,0.02 -0.05,-1.1 c 2.19,0 4.34,-1.1 5.63,-3.24 1.3,-2.14 1.3,-5.03 1.3,-6.92 0,-1.79 0,-4.49 -1.1,-6.68 -1.09,-2.24 -3.28,-3.68 -5.78,-3.68 l 0,0 c -2.14,0 -4.33,1.04 -5.68,3.34 -1.24,2.19 -1.24,5.23 -1.24,7.02 0,1.94 0,4.63 1.2,6.82 1.34,2.3 3.68,3.34 5.67,3.34 l 0.05,1.1 c -6.22,0 -11.05,-5.43 -11.05,-11.66 0,-6.43 5.17,-11.21 11,-11.21 6.03,0 11.06,4.88 11.06,11.21 z"
           id="path10830"
           inkscape:connector-curvature="0"
           style="fill:#000000;stroke-width:0" /><path
           d="m 579.36,415.66 0.11,-0.02 0.13,-0.02 0.14,-0.03 0.16,-0.03 0.17,-0.04 0.18,-0.05 0.18,-0.05 0.2,-0.05 0.21,-0.06 0.21,-0.07 0.21,-0.08 0.22,-0.09 0.22,-0.09 0.22,-0.1 0.22,-0.12 0.22,-0.12 0.22,-0.13 0.21,-0.14 0.2,-0.15 0.2,-0.16 0.19,-0.18 0.18,-0.19 0.17,-0.2 0.16,-0.21 0.14,-0.22 0.07,-0.12 0.06,-0.12 0.06,-0.13 0.05,-0.12 0.05,-0.13 0.05,-0.14 0.04,-0.14 0.03,-0.14 0.03,-0.15 0.03,-0.15 0.02,-0.15 0.01,-0.16 0.01,-0.16 0,-0.17 c 0,-2.54 -1.74,-4.53 -5.63,-4.53 -4.18,0 -5.98,2.84 -6.92,7.07 -0.15,0.65 -0.2,0.85 -0.7,0.85 -0.64,0 -0.64,-0.35 -0.64,-1.25 l 0,-6.57 c 0,-0.85 0,-1.2 0.54,-1.2 0.25,0 0.3,0.05 1.25,1 0.09,0.1 0.09,0.2 0.99,1.14 2.19,-2.09 4.44,-2.14 5.48,-2.14 5.73,0 8.02,3.34 8.02,6.93 0,2.64 -1.49,4.13 -2.09,4.73 -1.64,1.59 -3.59,1.99 -5.68,2.39 -2.79,0.55 -6.13,1.2 -6.13,4.09 0,1.74 1.3,3.78 5.58,3.78 5.48,0 5.73,-4.48 5.83,-6.03 0.05,-0.45 0.5,-0.45 0.6,-0.45 0.65,0 0.65,0.25 0.65,1.2 l 0,5.03 c 0,0.85 0,1.2 -0.55,1.2 -0.25,0 -0.35,0 -0.99,-0.6 -0.16,-0.2 -0.65,-0.65 -0.85,-0.8 -1.9,1.4 -3.94,1.4 -4.69,1.4 -6.08,0 -7.96,-3.34 -7.96,-6.13 0,-1.74 0.79,-3.14 2.13,-4.23 1.6,-1.3 2.99,-1.6 6.58,-2.3 z"
           id="path10832"
           inkscape:connector-curvature="0"
           style="fill:#000000;stroke-width:0" /><path
           d="m 599.36,415.66 0.11,-0.02 0.13,-0.02 0.14,-0.03 0.16,-0.03 0.17,-0.04 0.18,-0.05 0.18,-0.05 0.2,-0.05 0.21,-0.06 0.21,-0.07 0.21,-0.08 0.22,-0.09 0.22,-0.09 0.22,-0.1 0.22,-0.12 0.22,-0.12 0.22,-0.13 0.21,-0.14 0.2,-0.15 0.2,-0.16 0.19,-0.18 0.18,-0.19 0.17,-0.2 0.16,-0.21 0.14,-0.22 0.07,-0.12 0.06,-0.12 0.06,-0.13 0.05,-0.12 0.05,-0.13 0.05,-0.14 0.04,-0.14 0.03,-0.14 0.03,-0.15 0.03,-0.15 0.02,-0.15 0.01,-0.16 0.01,-0.16 0,-0.17 c 0,-2.54 -1.74,-4.53 -5.63,-4.53 -4.18,0 -5.98,2.84 -6.92,7.07 -0.15,0.65 -0.2,0.85 -0.7,0.85 -0.64,0 -0.64,-0.35 -0.64,-1.25 l 0,-6.57 c 0,-0.85 0,-1.2 0.54,-1.2 0.25,0 0.3,0.05 1.25,1 0.09,0.1 0.09,0.2 0.99,1.14 2.19,-2.09 4.44,-2.14 5.48,-2.14 5.73,0 8.02,3.34 8.02,6.93 0,2.64 -1.49,4.13 -2.09,4.73 -1.64,1.59 -3.59,1.99 -5.68,2.39 -2.79,0.55 -6.13,1.2 -6.13,4.09 0,1.74 1.3,3.78 5.58,3.78 5.48,0 5.73,-4.48 5.83,-6.03 0.05,-0.45 0.5,-0.45 0.6,-0.45 0.65,0 0.65,0.25 0.65,1.2 l 0,5.03 c 0,0.85 0,1.2 -0.55,1.2 -0.25,0 -0.35,0 -0.99,-0.6 -0.16,-0.2 -0.65,-0.65 -0.85,-0.8 -1.9,1.4 -3.94,1.4 -4.69,1.4 -6.08,0 -7.96,-3.34 -7.96,-6.13 0,-1.74 0.79,-3.14 2.13,-4.23 1.6,-1.3 2.99,-1.6 6.58,-2.3 z"
           id="path10834"
           inkscape:connector-curvature="0"
           style="fill:#000000;stroke-width:0" /><path
           d="m 617.82,428.02 -6.98,-0.55 0,-1.54 c 3.24,0 3.69,-0.31 3.69,-2.75 l 0,-13.39 c 0,-2.25 -0.55,-2.25 -3.88,-2.25 l 0,-1.54 10.65,0 0,1.54 c -3.28,0 -3.48,0.25 -3.48,2.19 z"
           id="path10836"
           inkscape:connector-curvature="0"
           style="fill:#000000;stroke-width:0" /><path
           d="m 618.02,436.68 -0.01,0.15 -0.01,0.15 -0.02,0.14 -0.02,0.13 -0.03,0.14 -0.04,0.13 -0.04,0.13 -0.05,0.12 -0.06,0.12 -0.06,0.11 -0.06,0.11 -0.07,0.11 -0.08,0.1 -0.08,0.1 -0.08,0.09 -0.09,0.09 -0.09,0.09 -0.1,0.07 -0.1,0.08 -0.11,0.07 -0.1,0.06 -0.11,0.06 -0.12,0.06 -0.11,0.05 -0.12,0.04 -0.12,0.04 -0.13,0.03 -0.12,0.03 -0.13,0.02 -0.13,0.01 -0.12,0.01 -0.13,0 c -1.55,0 -2.65,-1.34 -2.65,-2.64 0,-1.34 1.1,-2.64 2.65,-2.64 1.39,0 2.64,1.05 2.64,2.64 z"
           id="path10838"
           inkscape:connector-curvature="0"
           style="fill:#000000;stroke-width:0" /><path
           d="m 630.57,424.78 0,15.79 -7.17,-0.55 0,-1.54 c 3.48,0 3.88,-0.35 3.88,-2.79 l 0,-29.69 1.25,0 c 0.04,0.05 0.44,0.75 1.79,3.09 0.75,-1.15 2.84,-3.64 6.52,-3.64 l -0.19,1.1 c -2.25,0 -4.04,1.19 -5.24,3.04 -0.69,1.04 -0.69,1.19 -0.69,2.09 l 0,0 0,10.26 c 0,0.95 0,1 0.55,1.79 1.94,2.79 4.68,3.19 5.88,3.19 2.24,0 4.03,-1.3 5.23,-3.19 1.29,-2.04 1.44,-4.88 1.44,-6.92 0,-1.85 -0.1,-4.83 -1.55,-7.08 -1.04,-1.54 -2.93,-3.18 -5.62,-3.18 l 0.19,-1.1 c 5.93,0 11.11,4.88 11.11,11.31 0,6.33 -4.88,11.26 -10.56,11.26 -3.88,0 -6.03,-2.34 -6.82,-3.24 z"
           id="path10840"
           inkscape:connector-curvature="0"
           style="fill:#000000;stroke-width:0" /><path
           d="m 658.82,440.57 -7.17,-0.55 0,-1.54 c 3.48,0 3.88,-0.35 3.88,-2.79 l 0,-25.9 c 0,-2.25 -0.55,-2.25 -3.88,-2.25 l 0,-1.54 11.05,0 0,1.54 c -3.34,0 -3.88,0 -3.88,2.25 z"
           id="path10842"
           inkscape:connector-curvature="0"
           style="fill:#000000;stroke-width:0" /><path
           d="m 669.53,417.51 0.05,1.04 c 0.3,7.43 4.48,8.67 6.18,8.67 5.13,0 5.63,-6.72 5.63,-8.67 l -11.81,0 -0.05,-1.04 13.9,0 c 1.09,0 1.24,0 1.24,1.04 0,4.93 -2.69,9.77 -8.91,9.77 -5.78,0 -10.36,-5.14 -10.36,-11.36 0,-6.67 5.22,-11.51 10.95,-11.51 6.08,0 8.32,5.53 8.32,6.48 0,0.5 -0.4,0.6 -0.65,0.6 -0.44,0 -0.54,-0.3 -0.64,-0.7 -1.75,-5.13 -6.23,-5.13 -6.73,-5.13 -2.49,0 -4.48,1.49 -5.63,3.34 -1.49,2.39 -1.49,5.67 -1.49,7.47 z"
           id="path10844"
           inkscape:connector-curvature="0"
           style="fill:#000000;stroke-width:0" /><path
           d="m 693.62,416.41 1.94,22.71 c 0,1.65 -1.34,2.55 -2.63,2.55 -1.3,0 -2.65,-0.9 -2.65,-2.55 l 1.95,-22.66 c 0.05,-0.75 0.1,-1.14 0.7,-1.14 0.49,0 0.64,0.24 0.69,1.09 z"
           id="path10846"
           inkscape:connector-curvature="0"
           style="fill:#000000;stroke-width:0" /><path
           d="m 695.56,408.64 0,0.14 -0.01,0.13 -0.02,0.13 -0.02,0.13 -0.03,0.13 -0.04,0.12 -0.04,0.12 -0.05,0.12 -0.05,0.12 -0.06,0.11 -0.06,0.11 -0.07,0.11 -0.08,0.1 -0.07,0.1 -0.09,0.1 -0.09,0.09 -0.09,0.09 -0.09,0.08 -0.1,0.08 -0.11,0.08 -0.1,0.07 -0.11,0.06 -0.12,0.06 -0.11,0.05 -0.12,0.05 -0.13,0.04 -0.12,0.04 -0.13,0.03 -0.13,0.02 -0.13,0.02 -0.13,0.01 -0.13,0 c -1.45,0 -2.65,-1.19 -2.65,-2.64 0,-1.44 1.2,-2.64 2.65,-2.64 1.44,0 2.63,1.2 2.63,2.64 z"
           id="path10848"
           inkscape:connector-curvature="0"
           style="fill:#000000;stroke-width:0" /><path
           d="m 707.62,416.41 1.94,22.71 c 0,1.65 -1.34,2.55 -2.63,2.55 -1.3,0 -2.65,-0.9 -2.65,-2.55 l 1.95,-22.66 c 0.05,-0.75 0.1,-1.14 0.7,-1.14 0.49,0 0.64,0.24 0.69,1.09 z"
           id="path10850"
           inkscape:connector-curvature="0"
           style="fill:#000000;stroke-width:0" /><path
           d="m 709.56,408.64 0,0.14 -0.01,0.13 -0.02,0.13 -0.02,0.13 -0.03,0.13 -0.04,0.12 -0.04,0.12 -0.05,0.12 -0.05,0.12 -0.06,0.11 -0.06,0.11 -0.07,0.11 -0.08,0.1 -0.07,0.1 -0.09,0.1 -0.09,0.09 -0.09,0.09 -0.09,0.08 -0.1,0.08 -0.11,0.08 -0.1,0.07 -0.11,0.06 -0.12,0.06 -0.11,0.05 -0.12,0.05 -0.13,0.04 -0.12,0.04 -0.13,0.03 -0.13,0.02 -0.13,0.02 -0.13,0.01 -0.13,0 c -1.45,0 -2.65,-1.19 -2.65,-2.64 0,-1.44 1.2,-2.64 2.65,-2.64 1.44,0 2.63,1.2 2.63,2.64 z"
           id="path10852"
           inkscape:connector-curvature="0"
           style="fill:#000000;stroke-width:0" /><path
           d="m 721.62,416.41 1.94,22.71 c 0,1.65 -1.34,2.55 -2.63,2.55 -1.3,0 -2.65,-0.9 -2.65,-2.55 l 1.95,-22.66 c 0.05,-0.75 0.1,-1.14 0.7,-1.14 0.49,0 0.64,0.24 0.69,1.09 z"
           id="path10854"
           inkscape:connector-curvature="0"
           style="fill:#000000;stroke-width:0" /><path
           d="m 723.56,408.64 0,0.14 -0.01,0.13 -0.02,0.13 -0.02,0.13 -0.03,0.13 -0.04,0.12 -0.04,0.12 -0.05,0.12 -0.05,0.12 -0.06,0.11 -0.06,0.11 -0.07,0.11 -0.08,0.1 -0.07,0.1 -0.09,0.1 -0.09,0.09 -0.09,0.09 -0.09,0.08 -0.1,0.08 -0.11,0.08 -0.1,0.07 -0.11,0.06 -0.12,0.06 -0.11,0.05 -0.12,0.05 -0.13,0.04 -0.12,0.04 -0.13,0.03 -0.13,0.02 -0.13,0.02 -0.13,0.01 -0.13,0 c -1.45,0 -2.65,-1.19 -2.65,-2.64 0,-1.44 1.2,-2.64 2.65,-2.64 1.44,0 2.63,1.2 2.63,2.64 z"
           id="path10856"
           inkscape:connector-curvature="0"
           style="fill:#000000;stroke-width:0" /></g>    </g>
    <g
       id="g11040"
       transform="matrix(1,0,0,0.79653374,-475.14068,310.35167)">
      <g
         word-spacing="normal"
         letter-spacing="normal"
         font-size-adjust="none"
         font-stretch="normal"
         font-weight="normal"
         font-variant="normal"
         font-style="normal"
         stroke-miterlimit="10.433"
         xml:space="preserve"
         transform="matrix(0.67285714,0,0,-0.67285714,-117.75,412.5)"
         id="g11042"
         style="font-style:normal;font-variant:normal;font-weight:normal;font-stretch:normal;letter-spacing:normal;word-spacing:normal;text-anchor:start;fill:none;fill-opacity:1;fill-rule:evenodd;stroke:#000000;stroke-linecap:butt;stroke-linejoin:miter;stroke-miterlimit:10.43299961;stroke-dasharray:none;stroke-dashoffset:0;stroke-opacity:1"><path
           id="path11044"
           d="m 1241.8,346.3 0.7,0.29 0.8,0.33 0.7,0.36 0.7,0.39 0.7,0.42 0.7,0.45 0.7,0.49 0.6,0.5 0.7,0.54 0.6,0.56 0.7,0.59 0.6,0.61 0.6,0.64 0.5,0.66 0.6,0.68 0.5,0.7 0.5,0.72 0.5,0.73 0.5,0.76 0.4,0.77 0.4,0.79 0.4,0.8 0.4,0.82 0.3,0.83 0.3,0.84 0.2,0.85 0.3,0.87 0.1,0.87 0.2,0.88 0.1,0.89 0,0.89 0.1,0.9 c 0,8.02 -5.3,13.4 -12.7,13.4 l -0.3,-1.25 c 4.9,0 8.6,-3.88 8.6,-10.56 0,-4.98 -2.6,-16.63 -10.9,-21.32 -0.3,1.74 -0.8,5.38 -4.4,5.38 -2.6,0 -5.1,-2.49 -5.1,-5.08 l 1.1,0 c 0,2 1.9,3.99 4,3.99 2.1,0 3,-1.2 3,-4.24 0,-0.74 0,-0.79 -0.5,-0.99 -1.3,-0.55 -2.8,-0.9 -4.2,-0.9 l 0,0 c -0.7,0 -2.3,0 -2.3,2.14 l -1.1,0 c 0,-0.99 0.3,-1.54 0.3,-1.59 l 0,0 c -3.9,1.54 -5.6,5.43 -5.6,9.91 0,3.44 1.3,10.51 5.1,15.89 3.6,5.08 8.3,7.37 12,7.37 l 0.3,1.25 c -10.8,0 -21.8,-11.31 -21.8,-22.92 0,-8.27 5.6,-13.3 12.8,-13.3 1.2,0 2.9,0.2 4.9,0.75 -0.2,-3.09 -0.2,-3.19 -0.2,-3.83 0,-1.6 0,-5.48 4.1,-5.48 5.9,0 8.3,9.11 8.3,9.66 0,0.35 -0.3,0.5 -0.5,0.5 -0.4,0 -0.5,-0.25 -0.6,-0.55 -1.2,-3.54 -4.1,-4.78 -5.8,-4.78 -2.3,0 -3.1,1.34 -3.6,5.13 z"
           inkscape:connector-curvature="0"
           style="fill:#000000;stroke-width:0" /></g>    </g>
    <g
       transform="matrix(1,0,0,0.79653374,-475.14068,72.35167)"
       id="g11141">
      <g
         style="font-style:normal;font-variant:normal;font-weight:normal;font-stretch:normal;letter-spacing:normal;word-spacing:normal;text-anchor:start;fill:none;fill-opacity:1;fill-rule:evenodd;stroke:#000000;stroke-linecap:butt;stroke-linejoin:miter;stroke-miterlimit:10.43299961;stroke-dasharray:none;stroke-dashoffset:0;stroke-opacity:1"
         id="g11143"
         transform="matrix(0.67285714,0,0,-0.67285714,-117.75,412.5)"
         xml:space="preserve"
         stroke-miterlimit="10.433"
         font-style="normal"
         font-variant="normal"
         font-weight="normal"
         font-stretch="normal"
         font-size-adjust="none"
         letter-spacing="normal"
         word-spacing="normal"><path
           style="fill:#000000;stroke-width:0"
           inkscape:connector-curvature="0"
           d="m 1241.8,346.3 0.7,0.29 0.8,0.33 0.7,0.36 0.7,0.39 0.7,0.42 0.7,0.45 0.7,0.49 0.6,0.5 0.7,0.54 0.6,0.56 0.7,0.59 0.6,0.61 0.6,0.64 0.5,0.66 0.6,0.68 0.5,0.7 0.5,0.72 0.5,0.73 0.5,0.76 0.4,0.77 0.4,0.79 0.4,0.8 0.4,0.82 0.3,0.83 0.3,0.84 0.2,0.85 0.3,0.87 0.1,0.87 0.2,0.88 0.1,0.89 0,0.89 0.1,0.9 c 0,8.02 -5.3,13.4 -12.7,13.4 l -0.3,-1.25 c 4.9,0 8.6,-3.88 8.6,-10.56 0,-4.98 -2.6,-16.63 -10.9,-21.32 -0.3,1.74 -0.8,5.38 -4.4,5.38 -2.6,0 -5.1,-2.49 -5.1,-5.08 l 1.1,0 c 0,2 1.9,3.99 4,3.99 2.1,0 3,-1.2 3,-4.24 0,-0.74 0,-0.79 -0.5,-0.99 -1.3,-0.55 -2.8,-0.9 -4.2,-0.9 l 0,0 c -0.7,0 -2.3,0 -2.3,2.14 l -1.1,0 c 0,-0.99 0.3,-1.54 0.3,-1.59 l 0,0 c -3.9,1.54 -5.6,5.43 -5.6,9.91 0,3.44 1.3,10.51 5.1,15.89 3.6,5.08 8.3,7.37 12,7.37 l 0.3,1.25 c -10.8,0 -21.8,-11.31 -21.8,-22.92 0,-8.27 5.6,-13.3 12.8,-13.3 1.2,0 2.9,0.2 4.9,0.75 -0.2,-3.09 -0.2,-3.19 -0.2,-3.83 0,-1.6 0,-5.48 4.1,-5.48 5.9,0 8.3,9.11 8.3,9.66 0,0.35 -0.3,0.5 -0.5,0.5 -0.4,0 -0.5,-0.25 -0.6,-0.55 -1.2,-3.54 -4.1,-4.78 -5.8,-4.78 -2.3,0 -3.1,1.34 -3.6,5.13 z"
           id="path11145" /></g>    </g>
  </g>
  <g
     inkscape:groupmode="layer"
     id="layer2"
     inkscape:label="Boundary"
     transform="translate(-41,-50)">
    <rect
       style="fill:none;fill-opacity:0.2745098;stroke:none;stroke-width:2.31200004;stroke-miterlimit:4;stroke-dasharray:none;stroke-dashoffset:0;stroke-opacity:1"
       id="rect8596"
       width="471"
       height="550"
       x="41"
       y="50"
       inkscape:export-xdpi="90"
       inkscape:export-ydpi="90" />
  </g>
</svg>
