<?xml version="1.0" encoding="UTF-8" standalone="no"?>
<!-- Created with Inkscape (http://www.inkscape.org/) -->

<svg
   xmlns:dc="http://purl.org/dc/elements/1.1/"
   xmlns:cc="http://creativecommons.org/ns#"
   xmlns:rdf="http://www.w3.org/1999/02/22-rdf-syntax-ns#"
   xmlns:svg="http://www.w3.org/2000/svg"
   xmlns="http://www.w3.org/2000/svg"
   xmlns:xlink="http://www.w3.org/1999/xlink"
   xmlns:sodipodi="http://sodipodi.sourceforge.net/DTD/sodipodi-0.dtd"
   xmlns:inkscape="http://www.inkscape.org/namespaces/inkscape"
   width="203.5453mm"
   height="208.43822mm"
   viewBox="0 0 721.22352 738.56061"
   id="svg33772"
   version="1.1"
   inkscape:version="0.91 r13725"
   sodipodi:docname="controlled-volume.svg"
   inkscape:export-filename="/home/sandeep/Desktop/figures/controlled-volume.png"
   inkscape:export-xdpi="90"
   inkscape:export-ydpi="90">
  <sodipodi:namedview
     id="base"
     pagecolor="#ffffff"
     bordercolor="#666666"
     borderopacity="1.0"
     inkscape:pageopacity="0.0"
     inkscape:pageshadow="2"
     inkscape:zoom="0.81571499"
     inkscape:cx="93.050561"
     inkscape:cy="401.37554"
     inkscape:document-units="px"
     inkscape:current-layer="layer7"
     showgrid="false"
     inkscape:window-width="1317"
     inkscape:window-height="744"
     inkscape:window-x="49"
     inkscape:window-y="24"
     inkscape:window-maximized="1"
     fit-margin-top="0"
     fit-margin-left="0"
     fit-margin-right="0"
     fit-margin-bottom="0" />
  <defs
     id="defs33774">
    <marker
       inkscape:stockid="Arrow1Mstart"
       orient="auto"
       refY="0"
       refX="0"
       id="Arrow1Mstart"
       style="overflow:visible"
       inkscape:isstock="true">
      <path
         id="path4256"
         d="M 0,0 5,-5 -12.5,0 5,5 0,0 Z"
         style="fill:#000000;fill-opacity:1;fill-rule:evenodd;stroke:#000000;stroke-width:1pt;stroke-opacity:1"
         transform="matrix(0.4,0,0,0.4,4,0)"
         inkscape:connector-curvature="0" />
    </marker>
    <marker
       inkscape:stockid="Arrow2Mend"
       orient="auto"
       refY="0"
       refX="0"
       id="marker40565"
       style="overflow:visible"
       inkscape:isstock="true">
      <path
         id="path40567"
         style="fill:#000000;fill-opacity:1;fill-rule:evenodd;stroke:#000000;stroke-width:0.625;stroke-linejoin:round;stroke-opacity:1"
         d="M 8.7185878,4.0337352 -2.2072895,0.01601326 8.7185884,-4.0017078 c -1.7454984,2.3720609 -1.7354408,5.6174519 -6e-7,8.035443 z"
         transform="scale(-0.6,-0.6)"
         inkscape:connector-curvature="0" />
    </marker>
    <marker
       inkscape:stockid="Arrow1Mend"
       orient="auto"
       refY="0"
       refX="0"
       id="Arrow1Mend"
       style="overflow:visible"
       inkscape:isstock="true">
      <path
         id="path4259"
         d="M 0,0 5,-5 -12.5,0 5,5 0,0 Z"
         style="fill:#000000;fill-opacity:1;fill-rule:evenodd;stroke:#000000;stroke-width:1pt;stroke-opacity:1"
         transform="matrix(-0.4,0,0,-0.4,-4,0)"
         inkscape:connector-curvature="0" />
    </marker>
    <marker
       inkscape:stockid="Arrow2Mend"
       orient="auto"
       refY="0"
       refX="0"
       id="Arrow2Mend"
       style="overflow:visible"
       inkscape:isstock="true">
      <path
         id="path4277"
         style="fill:#000000;fill-opacity:1;fill-rule:evenodd;stroke:#000000;stroke-width:0.625;stroke-linejoin:round;stroke-opacity:1"
         d="M 8.7185878,4.0337352 -2.2072895,0.01601326 8.7185884,-4.0017078 c -1.7454984,2.3720609 -1.7354408,5.6174519 -6e-7,8.035443 z"
         transform="scale(-0.6,-0.6)"
         inkscape:connector-curvature="0" />
    </marker>
    <marker
       inkscape:stockid="Arrow2Mstart"
       orient="auto"
       refY="0"
       refX="0"
       id="Arrow2Mstart"
       style="overflow:visible"
       inkscape:isstock="true">
      <path
         id="path4274"
         style="fill:#000000;fill-opacity:1;fill-rule:evenodd;stroke:#000000;stroke-width:0.625;stroke-linejoin:round;stroke-opacity:1"
         d="M 8.7185878,4.0337352 -2.2072895,0.01601326 8.7185884,-4.0017078 c -1.7454984,2.3720609 -1.7354408,5.6174519 -6e-7,8.035443 z"
         transform="scale(0.6,0.6)"
         inkscape:connector-curvature="0" />
    </marker>
    <marker
       inkscape:isstock="true"
       style="overflow:visible"
       id="marker35548"
       refX="0"
       refY="0"
       orient="auto"
       inkscape:stockid="Arrow1Sstart">
      <path
         transform="matrix(0.2,0,0,0.2,1.2,0)"
         style="fill:#e600e6;fill-opacity:1;fill-rule:evenodd;stroke:#e600e6;stroke-width:1pt;stroke-opacity:1"
         d="M 0,0 5,-5 -12.5,0 5,5 0,0 Z"
         id="path35550"
         inkscape:connector-curvature="0" />
    </marker>
    <linearGradient
       gradientTransform="matrix(0,-0.43299739,0.49967116,0,-27.748125,394.96175)"
       inkscape:collect="always"
       xlink:href="#b-9"
       id="linearGradient6712"
       x1="66"
       y1="344"
       x2="320"
       y2="346"
       gradientUnits="userSpaceOnUse" />
    <linearGradient
       inkscape:collect="always"
       id="b-9">
      <stop
         style="stop-color:#646464;stop-opacity:0.821"
         offset="0"
         id="stop6722" />
      <stop
         id="stop7390"
         offset="0.32269067"
         style="stop-color:#c8c8c8;stop-opacity:0.74117649" />
      <stop
         style="stop-color:#646464;stop-opacity:1"
         offset="1"
         id="stop6724" />
    </linearGradient>
    <linearGradient
       inkscape:collect="always"
       xlink:href="#b-9"
       id="linearGradient4242"
       x1="174.98505"
       y1="212.24808"
       x2="235.00746"
       y2="212.24808"
       gradientUnits="userSpaceOnUse" />
    <linearGradient
       y2="346"
       x2="320"
       y1="344"
       x1="66"
       gradientTransform="matrix(0,-0.43299739,0.49967116,0,-27.748125,394.96175)"
       gradientUnits="userSpaceOnUse"
       id="linearGradient34494"
       xlink:href="#b-9"
       inkscape:collect="always" />
    <linearGradient
       y2="212.24808"
       x2="235.00746"
       y1="212.24808"
       x1="174.98505"
       gradientUnits="userSpaceOnUse"
       id="linearGradient34496"
       xlink:href="#b-9"
       inkscape:collect="always" />
    <marker
       inkscape:collect="always"
       inkscape:stockid="Arrow1Sstart"
       orient="auto"
       refY="0"
       refX="0"
       id="Arrow1Sstart"
       style="overflow:visible"
       inkscape:isstock="true">
      <path
         inkscape:connector-curvature="0"
         id="path4262"
         d="M 0,0 5,-5 -12.5,0 5,5 0,0 Z"
         style="fill:#e600e6;fill-opacity:1;fill-rule:evenodd;stroke:#e600e6;stroke-width:1pt;stroke-opacity:1"
         transform="matrix(0.2,0,0,0.2,1.2,0)" />
    </marker>
  </defs>
  <metadata
     id="metadata33777">
    <rdf:RDF>
      <cc:Work
         rdf:about="">
        <dc:format>image/svg+xml</dc:format>
        <dc:type
           rdf:resource="http://purl.org/dc/dcmitype/StillImage" />
        <dc:title></dc:title>
      </cc:Work>
    </rdf:RDF>
  </metadata>
  <g
     style="display:inline"
     inkscape:label="CV_Fill"
     id="layer3"
     inkscape:groupmode="layer"
     sodipodi:insensitive="true"
     transform="translate(-13.869683,-50.277569)">
    <path
       inkscape:connector-curvature="0"
       id="rect33830"
       d="m 247.22656,212.47266 0,25.95507 -219.152341,0 0,140.41797 219.152341,0 0,324.38086 340.75586,0 0,-23.1914 126.32617,0 0,-142.56446 -126.32617,0 0,-324.99804 -340.75586,0 z"
       style="fill:#ffff96;fill-opacity:1;stroke:none;stroke-width:9.24459648;stroke-miterlimit:4;stroke-dasharray:none;stroke-dashoffset:0;stroke-opacity:1" />
  </g>
  <g
     inkscape:groupmode="layer"
     id="layer2"
     inkscape:label="Boundary"
     transform="translate(-13.869683,-50.277569)"
     sodipodi:insensitive="true">
    <rect
       style="fill:none;fill-opacity:1;stroke:none;stroke-width:7;stroke-miterlimit:4;stroke-dasharray:none;stroke-dashoffset:0;stroke-opacity:1"
       id="rect3422"
       width="721.22351"
       height="738.56061"
       x="13.869683"
       y="50.277569" />
  </g>
  <g
     inkscape:groupmode="layer"
     id="layer7"
     inkscape:label="Text"
     style="display:inline"
     transform="translate(-13.869683,-50.277569)">
    <g
       style="display:inline"
       id="g40208"
       transform="translate(-913.1779,-224.25387)">
      <g
         id="g40210"
         transform="matrix(1.0629921,0,0,-1.0629921,-186.02362,789.27165)"
         xml:space="preserve"
         stroke-miterlimit="10.433"
         font-style="normal"
         font-variant="normal"
         font-weight="normal"
         font-stretch="normal"
         font-size-adjust="none"
         letter-spacing="normal"
         word-spacing="normal"
         style="font-style:normal;font-variant:normal;font-weight:normal;font-stretch:normal;letter-spacing:normal;word-spacing:normal;text-anchor:start;fill:none;fill-opacity:1;fill-rule:evenodd;stroke:#000000;stroke-linecap:butt;stroke-linejoin:miter;stroke-miterlimit:10.43299961;stroke-dasharray:none;stroke-dashoffset:0;stroke-opacity:1"><path
           d="m 1229.9,351.73 -0.2,-0.31 -0.2,-0.29 -0.1,-0.27 -0.2,-0.26 -0.2,-0.25 -0.2,-0.23 -0.2,-0.23 -0.2,-0.2 -0.2,-0.2 -0.1,-0.18 -0.2,-0.17 -0.2,-0.16 -0.2,-0.15 -0.2,-0.14 -0.2,-0.13 -0.2,-0.12 -0.2,-0.11 -0.1,-0.1 -0.2,-0.09 -0.2,-0.09 -0.2,-0.07 -0.2,-0.07 -0.2,-0.06 -0.2,-0.06 -0.2,-0.05 -0.2,-0.04 -0.2,-0.04 -0.2,-0.03 -0.4,-0.05 -0.4,-0.04 c -0.6,-0.04 -1.1,-0.04 -1.1,-0.99 0,-0.3 0.3,-0.55 0.7,-0.55 l 9.3,0 c 0.3,0 0.9,0 0.9,0.95 0,0.55 -0.4,0.59 -0.8,0.59 -1.1,0.1 -2.3,0.5 -2.3,1.75 0,0.6 0.3,1.14 0.7,1.84 l 3.7,6.38 12.5,0 -0.1,1.54 -11.4,0 9.8,16.44 1.6,-16.44 0.1,-1.54 c 0.2,-1.05 0.8,-7.82 0.8,-8.32 0,-1.49 -2.5,-1.65 -3.5,-1.65 -0.7,0 -1.2,0 -1.2,-0.99 0,-0.55 0.6,-0.55 0.7,-0.55 l 11.8,0 c 0.3,0 0.9,0 0.9,1 0,0.54 -0.5,0.54 -1.1,0.54 -3.1,0 -3.1,0.35 -3.3,1.8 l -3,31.13 c -0.1,1 -0.1,1.2 -0.9,1.2 -0.8,0 -1,-0.35 -1.4,-0.85 z"
           id="path40212"
           inkscape:connector-curvature="0"
           style="fill:#000000;stroke-width:0" /></g>    </g>
    <g
       style="display:inline"
       transform="translate(-712.15754,-97.984797)"
       id="g39978">
      <g
         style="font-style:normal;font-variant:normal;font-weight:normal;font-stretch:normal;letter-spacing:normal;word-spacing:normal;text-anchor:start;fill:none;fill-opacity:1;fill-rule:evenodd;stroke:#000000;stroke-linecap:butt;stroke-linejoin:miter;stroke-miterlimit:10.43299961;stroke-dasharray:none;stroke-dashoffset:0;stroke-opacity:1"
         id="g39980"
         transform="matrix(1.0629921,0,0,-1.0629921,-186.02362,789.27165)"
         xml:space="preserve"
         stroke-miterlimit="10.433"
         font-style="normal"
         font-variant="normal"
         font-weight="normal"
         font-stretch="normal"
         font-size-adjust="none"
         letter-spacing="normal"
         word-spacing="normal"><path
           style="fill:#000000;stroke-width:0"
           inkscape:connector-curvature="0"
           d="m 1236.1,361.74 0.2,1.3 3.4,13.55 c 0.4,1.74 0.5,1.89 2.7,1.89 l 4.8,0 c 4.1,0 6.7,-1.35 6.7,-4.78 0,-1.95 -1,-6.23 -2.9,-8.02 -2.5,-2.25 -5.5,-2.64 -7.7,-2.64 l -7,0 -0.2,-1.3 8.5,0 c 7,0 14,5.18 14,10.76 0,3.84 -3.3,7.52 -9.8,7.52 l -16.2,0 c -0.9,0 -1.5,0 -1.5,-0.95 0,-0.59 0.5,-0.59 1.5,-0.59 0.6,0 1.5,-0.05 2.1,-0.1 0.8,-0.1 1.1,-0.25 1.1,-0.8 0,-0.2 0,-0.35 -0.2,-0.94 l -6.7,-26.75 c -0.5,-1.95 -0.6,-2.35 -4.5,-2.35 -0.9,0 -1.4,0 -1.4,-0.94 0,-0.6 0.6,-0.6 0.7,-0.6 l 12.8,0 c 0.3,0 1,0 1,1 0,0.54 -0.5,0.54 -1.4,0.54 -1.9,0 -3.2,0 -3.2,0.9 0,0.3 0.1,0.55 0.1,0.85 z"
           id="path39982" /></g>    </g>
    <g
       style="display:inline"
       id="g40066"
       transform="translate(-928.33018,-91.923877)"
       inkscape:transform-center-x="-179.80715"
       inkscape:transform-center-y="52.527954">
      <g
         word-spacing="normal"
         letter-spacing="normal"
         font-size-adjust="none"
         font-stretch="normal"
         font-weight="normal"
         font-variant="normal"
         font-style="normal"
         stroke-miterlimit="10.433"
         xml:space="preserve"
         transform="matrix(1.0629921,0,0,-1.0629921,-186.02362,789.27165)"
         id="content"
         style="font-style:normal;font-variant:normal;font-weight:normal;font-stretch:normal;letter-spacing:normal;word-spacing:normal;text-anchor:start;fill:none;fill-opacity:1;fill-rule:evenodd;stroke:#000000;stroke-linecap:butt;stroke-linejoin:miter;stroke-miterlimit:10.43299961;stroke-dasharray:none;stroke-dashoffset:0;stroke-opacity:1"><path
           id="path40069"
           d="m 1253.7,375.84 0.1,0.06 0,0.06 0,0.08 0,0.07 0.1,0.08 0,0.09 0.1,0.09 0,0.09 0.1,0.1 0,0.09 0.1,0.1 0.1,0.1 0,0.11 0.1,0.1 0.1,0.1 0.1,0.1 0.1,0.1 0.1,0.1 0.1,0.09 0.1,0.1 0.1,0.09 0.1,0.08 0.2,0.08 0.1,0.08 0.1,0.08 0.2,0.06 0.1,0.06 0.2,0.06 0.2,0.04 0.1,0.04 0.2,0.04 0.2,0.02 c 0.3,0 1.1,0.1 1.1,0.85 0,0.89 -0.8,0.89 -1.7,0.89 l -8,0 c -0.9,0 -1.6,0 -1.6,-0.89 0,-0.75 0.7,-0.8 1,-0.85 0.7,-0.1 1.8,-0.3 1.8,-2.89 l 1.7,0 c 0,0.65 0,1.99 -0.6,2.89 l 2.7,0 c -0.6,-0.65 -0.8,-1.25 -1.2,-2.04 -0.2,-0.55 -0.7,-1.85 -1,-2.39 0.1,0.44 0.1,1.09 0.1,1.54 l -1.7,0 c 0,-2.94 -1.6,-7.67 -2.4,-10.06 -0.4,-1 -0.4,-1.1 -4,-10.22 -0.9,1.85 -8.6,18.39 -8.6,21.63 l -1.7,0.04 c 0,-3.38 6.3,-17.33 9.5,-24.26 l -1.9,-4.53 -12.6,27.85 c -0.5,0.94 -1.4,2.34 -1.5,2.44 l 7.1,0 c -0.2,-0.2 -0.6,-0.45 -0.6,-1.5 l 1.7,-0.04 c 0,0.34 1.2,1.39 3,1.54 0.8,0.05 1,0.6 1,0.85 0,0.89 -0.8,0.89 -1.6,0.89 l -13.1,0 c -0.9,0 -1.6,0 -1.6,-0.89 0,-0.7 0.6,-0.8 1,-0.85 1.6,-0.25 2.7,-2.59 2.8,-2.74 l 13.4,-29.54 c 0.3,-0.75 0.6,-1.05 1,-1.05 0.6,0 0.7,0.25 1,1.05 z"
           inkscape:connector-curvature="0"
           style="fill:#000000;stroke-width:0" /></g>    </g>
    <g
       style="display:inline"
       id="g40350"
       transform="translate(-934.87843,62.403215)">
      <g
         word-spacing="normal"
         letter-spacing="normal"
         font-size-adjust="none"
         font-stretch="normal"
         font-weight="normal"
         font-variant="normal"
         font-style="normal"
         stroke-miterlimit="10.433"
         xml:space="preserve"
         transform="matrix(1.0629921,0,0,-1.0629921,-186.02362,789.27165)"
         id="g40352"
         style="font-style:normal;font-variant:normal;font-weight:normal;font-stretch:normal;letter-spacing:normal;word-spacing:normal;text-anchor:start;fill:none;fill-opacity:1;fill-rule:evenodd;stroke:#000000;stroke-linecap:butt;stroke-linejoin:miter;stroke-miterlimit:10.43299961;stroke-dasharray:none;stroke-dashoffset:0;stroke-opacity:1"><path
           id="path40354"
           d="m 1241.6,376.14 0.1,0.16 0,0.16 0.1,0.15 0,0.14 0,0.14 0.1,0.13 0,0.12 0.1,0.12 0,0.11 0.1,0.1 0.1,0.1 0.1,0.1 0.1,0.08 0.1,0.08 0.1,0.08 0.1,0.07 0.1,0.06 0.2,0.06 0.1,0.06 0.2,0.05 0.1,0.02 0.1,0.02 0.1,0.03 0.1,0.02 0.1,0.01 0.1,0.02 0.1,0.02 0.2,0.01 0.1,0.02 0.1,0.01 0.2,0.01 0.1,0.01 0.2,0.01 0.1,0.01 0.2,0.01 0.2,0.01 0.1,0.01 0.2,0 0.2,0.01 0.2,0 0.2,0 0.2,0.01 0.2,0 0.2,0 c 1.5,0 1.9,0 1.9,0.95 0,0.59 -0.6,0.59 -0.8,0.59 l -14,0 c -0.3,0 -0.9,0 -0.9,-0.99 0,-0.55 0.4,-0.55 1.4,-0.55 0.1,0 1,0 1.8,-0.1 0.9,-0.1 1.4,-0.15 1.4,-0.8 0,-0.2 -0.1,-0.35 -0.2,-0.94 l -6.7,-26.75 c -0.5,-1.95 -0.6,-2.35 -4.5,-2.35 -0.9,0 -1.4,0 -1.4,-0.99 0,-0.55 0.5,-0.55 1.4,-0.55 l 23,0 c 1.3,0 1.3,0 1.6,0.85 l 3.9,10.76 c 0.2,0.55 0.2,0.64 0.2,0.69 0,0.2 -0.1,0.55 -0.6,0.55 -0.4,0 -0.5,-0.25 -0.8,-1.05 -1.7,-4.58 -3.9,-10.26 -12.5,-10.26 l -4.7,0 c -0.7,0 -0.8,0 -1.1,0.05 -0.5,0.05 -0.6,0.11 -0.6,0.5 0,0.15 0,0.25 0.2,1.15 z"
           inkscape:connector-curvature="0"
           style="fill:#000000;stroke-width:0" /></g>    </g>
    <g
       style="display:inline"
       transform="translate(-715.188,-20.203051)"
       id="g34709">
      <g
         id="g34531"
         transform="translate(-4.0406102,40.406102)">
        <g
           id="g40092"
           transform="matrix(1.0629921,0,0,-1.0629921,-186.02362,789.27165)"
           xml:space="preserve"
           stroke-miterlimit="10.433"
           font-style="normal"
           font-variant="normal"
           font-weight="normal"
           font-stretch="normal"
           font-size-adjust="none"
           letter-spacing="normal"
           word-spacing="normal"
           style="font-style:normal;font-variant:normal;font-weight:normal;font-stretch:normal;letter-spacing:normal;word-spacing:normal;text-anchor:start;fill:none;fill-opacity:1;fill-rule:evenodd;stroke:#000000;stroke-linecap:butt;stroke-linejoin:miter;stroke-miterlimit:10.43299961;stroke-dasharray:none;stroke-dashoffset:0;stroke-opacity:1"><path
             d="m 1157.9,380.62 0,0.02 0,0.01 0,0.02 0,0.02 0,0.01 -0.1,0.02 0,0.02 0,0.02 0,0.02 0,0.02 0,0.02 0,0.02 0,0.02 0,0.02 0,0.02 0,0.02 -0.1,0.02 0,0.02 0,0.02 0,0.02 0,0.02 -0.1,0.01 0,0.02 0,0.01 0,0.01 -0.1,0.01 0,0 0,0.01 0,0 0,0.01 0,0 -0.1,0.01 0,0 0,0 0,0 0,0 0,0.01 -0.1,0 0,0 c -0.1,0 -0.2,-0.05 -0.7,-0.6 l -3.5,-3.84 c -0.5,0.7 -2.8,4.44 -8.3,4.44 -11.1,0 -22.3,-11.01 -22.3,-22.57 0,-8.22 5.9,-13.65 13.5,-13.65 4.3,0 8.1,2 10.8,4.29 4.6,4.08 5.4,8.61 5.4,8.77 0,0.49 -0.5,0.49 -0.6,0.49 -0.3,0 -0.5,-0.09 -0.6,-0.49 -0.5,-1.45 -1.6,-4.99 -5.1,-7.87 -3.4,-2.79 -6.5,-3.64 -9.1,-3.64 -4.5,0 -9.8,2.59 -9.8,10.36 0,2.84 1.1,10.91 6.1,16.74 3,3.53 7.7,6.02 12.1,6.02 5.1,0 8,-3.83 8,-9.61 0,-1.99 -0.1,-2.04 -0.1,-2.54 0,-0.5 0.5,-0.5 0.7,-0.5 0.7,0 0.7,0.1 0.9,1 z"
             id="path34534"
             inkscape:connector-curvature="0"
             style="fill:#000000;stroke-width:0" /><path
             d="m 1182.4,359.6 -0.1,0.48 0,0.47 0,0.45 -0.1,0.45 -0.1,0.43 -0.1,0.42 -0.1,0.41 -0.2,0.39 -0.1,0.38 -0.2,0.37 -0.2,0.35 -0.2,0.34 -0.2,0.32 -0.2,0.31 -0.3,0.3 -0.2,0.28 -0.3,0.27 -0.3,0.25 -0.3,0.23 -0.3,0.22 -0.3,0.2 -0.4,0.19 -0.3,0.17 -0.4,0.15 -0.3,0.14 -0.4,0.11 -0.4,0.1 -0.4,0.09 -0.4,0.06 -0.4,0.05 -0.4,0.03 -0.4,0.01 -0.1,-1.1 c 2.9,0 4.4,-2.39 4.4,-5.38 0,-1.94 -1,-7.17 -2.9,-10.41 -1.7,-2.89 -4.4,-4.58 -6.7,-4.58 l 0,0 c -2.2,0 -4.4,1.54 -4.4,5.43 0,2.44 1.3,7.82 2.9,10.36 2.5,3.84 5.3,4.58 6.7,4.58 l 0.1,1.1 c -6.7,0 -13.4,-7.07 -13.4,-14.15 0,-4.93 3.4,-8.42 8,-8.42 6.6,0 13.4,6.88 13.4,14.15 z"
             id="path34536"
             inkscape:connector-curvature="0"
             style="fill:#000000;stroke-width:0" /><path
             d="m 1187.4,348.94 0,-0.07 0,-0.08 -0.1,-0.07 0,-0.08 0,-0.16 -0.1,-0.16 0,-0.16 0,-0.16 -0.1,-0.16 0,-0.16 0,-0.08 0,-0.07 -0.1,-0.07 0,-0.07 0,-0.07 0,-0.07 0,-0.06 0,-0.06 0,-0.05 0,-0.06 0,-0.05 -0.1,-0.04 0,-0.04 0,-0.04 0,-0.03 0,-0.02 c 0,-0.9 0.7,-1.35 1.5,-1.35 0.6,0 1.5,0.4 1.8,1.4 0.1,0.1 0.7,2.44 1,3.68 l 1.1,4.49 c 0.3,1.09 0.6,2.19 0.8,3.34 0.2,0.84 0.6,2.28 0.7,2.48 0.7,1.55 3.4,6.08 8.1,6.08 2.2,0 2.7,-1.84 2.7,-3.49 0,-3.08 -2.5,-9.46 -3.3,-11.6 -0.4,-1.15 -0.5,-1.74 -0.5,-2.29 0,-2.34 1.8,-4.09 4.1,-4.09 4.7,0 6.5,7.28 6.5,7.67 0,0.5 -0.4,0.5 -0.6,0.5 -0.5,0 -0.5,-0.15 -0.7,-0.89 -1,-3.39 -2.6,-6.18 -5.1,-6.18 -0.8,0 -1.2,0.5 -1.2,1.64 0,1.25 0.5,2.44 0.9,3.54 1,2.64 3.1,8.12 3.1,10.96 0,3.33 -2.2,5.33 -5.8,5.33 -4.4,0 -6.9,-3.19 -7.7,-4.34 -0.3,2.79 -2.3,4.34 -4.6,4.34 -2.3,0 -3.3,-1.95 -3.8,-2.84 -0.8,-1.7 -1.5,-4.63 -1.5,-4.83 0,-0.5 0.5,-0.5 0.6,-0.5 0.5,0 0.6,0.05 0.9,1.14 0.8,3.54 1.8,5.93 3.6,5.93 1,0 1.6,-0.65 1.6,-2.29 0,-1.04 -0.2,-1.59 -0.8,-4.18 z"
             id="path34538"
             inkscape:connector-curvature="0"
             style="fill:#000000;stroke-width:0" /><path
             d="m 1223.3,365.93 4.6,0 c 1,0 1.5,0 1.5,0.99 0,0.55 -0.5,0.55 -1.4,0.55 l -4.3,0 c 1.7,7.07 2,8.07 2,8.37 0,0.84 -0.6,1.34 -1.4,1.34 -0.2,0 -1.6,-0.05 -2,-1.79 l -2,-7.92 -4.7,0 c -1,0 -1.5,0 -1.5,-0.95 0,-0.59 0.4,-0.59 1.4,-0.59 l 4.4,0 c -3.6,-14.15 -3.8,-15 -3.8,-15.89 0,-2.7 1.9,-4.59 4.6,-4.59 5.1,0 7.9,7.28 7.9,7.67 0,0.5 -0.4,0.5 -0.6,0.5 -0.4,0 -0.4,-0.15 -0.7,-0.69 -2.1,-5.19 -4.8,-6.38 -6.5,-6.38 -1,0 -1.5,0.65 -1.5,2.29 0,1.2 0.1,1.54 0.3,2.39 z"
             id="path34540"
             inkscape:connector-curvature="0"
             style="fill:#000000;stroke-width:0" /><path
             d="m 1235.4,348.94 0,-0.07 0,-0.08 -0.1,-0.07 0,-0.08 0,-0.16 -0.1,-0.16 0,-0.16 0,-0.16 -0.1,-0.16 0,-0.16 0,-0.08 0,-0.07 -0.1,-0.07 0,-0.07 0,-0.07 0,-0.07 0,-0.06 0,-0.06 0,-0.05 0,-0.06 0,-0.05 -0.1,-0.04 0,-0.04 0,-0.04 0,-0.03 0,-0.02 c 0,-0.9 0.7,-1.35 1.5,-1.35 0.6,0 1.5,0.4 1.8,1.4 0.1,0.2 1.8,6.97 2,7.87 0.4,1.64 1.3,5.13 1.6,6.47 0.2,0.65 1.6,2.99 2.8,4.09 0.4,0.34 1.8,1.64 4,1.64 1.3,0 2,-0.6 2.1,-0.6 -1.5,-0.25 -2.6,-1.44 -2.6,-2.73 0,-0.8 0.5,-1.75 1.9,-1.75 1.3,0 2.7,1.14 2.7,2.94 0,1.74 -1.6,3.24 -4.1,3.24 -3.3,0 -5.4,-2.44 -6.4,-3.84 -0.4,2.24 -2.2,3.84 -4.5,3.84 -2.3,0 -3.3,-1.95 -3.7,-2.84 -0.9,-1.7 -1.6,-4.68 -1.6,-4.83 0,-0.5 0.5,-0.5 0.6,-0.5 0.5,0 0.6,0.05 0.9,1.14 0.8,3.54 1.8,5.93 3.6,5.93 0.9,0 1.6,-0.4 1.6,-2.29 0,-1.04 -0.2,-1.59 -0.8,-4.18 z"
             id="path34542"
             inkscape:connector-curvature="0"
             style="fill:#000000;stroke-width:0" /><path
             d="m 1278.4,359.6 -0.1,0.48 0,0.47 0,0.45 -0.1,0.45 -0.1,0.43 -0.1,0.42 -0.1,0.41 -0.2,0.39 -0.1,0.38 -0.2,0.37 -0.2,0.35 -0.2,0.34 -0.2,0.32 -0.2,0.31 -0.3,0.3 -0.2,0.28 -0.3,0.27 -0.3,0.25 -0.3,0.23 -0.3,0.22 -0.3,0.2 -0.4,0.19 -0.3,0.17 -0.4,0.15 -0.3,0.14 -0.4,0.11 -0.4,0.1 -0.4,0.09 -0.4,0.06 -0.4,0.05 -0.4,0.03 -0.4,0.01 -0.1,-1.1 c 2.9,0 4.4,-2.39 4.4,-5.38 0,-1.94 -1,-7.17 -2.9,-10.41 -1.7,-2.89 -4.4,-4.58 -6.7,-4.58 l 0,0 c -2.2,0 -4.4,1.54 -4.4,5.43 0,2.44 1.3,7.82 2.9,10.36 2.5,3.84 5.3,4.58 6.7,4.58 l 0.1,1.1 c -6.7,0 -13.4,-7.07 -13.4,-14.15 0,-4.93 3.4,-8.42 8,-8.42 6.6,0 13.4,6.88 13.4,14.15 z"
             id="path34544"
             inkscape:connector-curvature="0"
             style="fill:#000000;stroke-width:0" /><path
             d="m 1291.8,380.02 0,0.01 0,0 0,0.01 0,0.01 0,0.01 0,0.01 0,0.02 0,0.02 0,0.02 0,0.02 0,0.02 0,0.02 0,0.03 0,0.02 0,0.03 0,0.02 0,0.02 0,0.03 -0.1,0.02 0,0.03 0,0.02 0,0.01 0,0.01 0,0.01 -0.1,0.01 0,0.01 0,0.01 0,0.01 0,0.01 0,0.01 -0.1,0.01 0,0.01 0,0 0,0.01 0,0.01 -0.1,0 0,0.01 0,0 0,0.01 -0.1,0 0,0 0,0.01 0,0 -0.1,0 0,0 c -1.1,0 -4.8,-0.4 -6.1,-0.5 -0.4,-0.05 -0.9,-0.1 -0.9,-1.04 0,-0.55 0.5,-0.55 1.2,-0.55 2.4,0 2.5,-0.45 2.5,-0.85 l -0.2,-0.99 -6.3,-24.91 c -0.1,-0.55 -0.2,-0.9 -0.2,-1.69 0,-2.84 2.2,-4.59 4.5,-4.59 1.7,0 2.9,1 3.8,2.79 0.9,1.89 1.5,4.78 1.5,4.88 0,0.5 -0.5,0.5 -0.6,0.5 -0.5,0 -0.6,-0.2 -0.7,-0.89 -0.9,-3.24 -1.8,-6.18 -3.8,-6.18 -1.5,0 -1.5,1.59 -1.5,2.29 0,1.2 0,1.45 0.3,2.39 z"
             id="path34546"
             inkscape:connector-curvature="0"
             style="fill:#000000;stroke-width:0" /><path
             d="m 1307.8,380.02 0,0.01 0,0 0,0.01 0,0.01 0,0.01 0,0.01 0,0.02 0,0.02 0,0.02 0,0.02 0,0.02 0,0.02 0,0.03 0,0.02 0,0.03 0,0.02 0,0.02 0,0.03 -0.1,0.02 0,0.03 0,0.02 0,0.01 0,0.01 0,0.01 -0.1,0.01 0,0.01 0,0.01 0,0.01 0,0.01 0,0.01 -0.1,0.01 0,0.01 0,0 0,0.01 0,0.01 -0.1,0 0,0.01 0,0 0,0.01 -0.1,0 0,0 0,0.01 0,0 -0.1,0 0,0 c -1.1,0 -4.8,-0.4 -6.1,-0.5 -0.4,-0.05 -0.9,-0.1 -0.9,-1.04 0,-0.55 0.5,-0.55 1.2,-0.55 2.4,0 2.5,-0.45 2.5,-0.85 l -0.2,-0.99 -6.3,-24.91 c -0.1,-0.55 -0.2,-0.9 -0.2,-1.69 0,-2.84 2.2,-4.59 4.5,-4.59 1.7,0 2.9,1 3.8,2.79 0.9,1.89 1.5,4.78 1.5,4.88 0,0.5 -0.5,0.5 -0.6,0.5 -0.5,0 -0.6,-0.2 -0.7,-0.89 -0.9,-3.24 -1.8,-6.18 -3.8,-6.18 -1.5,0 -1.5,1.59 -1.5,2.29 0,1.2 0,1.45 0.3,2.39 z"
             id="path34548"
             inkscape:connector-curvature="0"
             style="fill:#000000;stroke-width:0" /><path
             d="m 1320.3,357.51 0.2,0 0.1,0 0.2,0 0.2,0 0.1,0.01 0.2,0 0.3,0.01 0.2,0.01 0.2,0.01 0.2,0.01 0.3,0.02 0.2,0.01 0.3,0.02 0.2,0.03 0.5,0.05 0.6,0.06 0.5,0.08 0.6,0.09 0.5,0.11 0.5,0.13 0.3,0.07 0.3,0.07 0.2,0.08 0.3,0.09 0.2,0.09 0.2,0.09 c 3.5,1.5 3.8,4.44 3.8,5.14 0,2.19 -1.9,4.23 -5.4,4.23 l 0,-1.1 c 2.4,0 3.7,-1.44 3.7,-3.13 0,-5.19 -7.9,-5.19 -10,-5.19 l -2,0 c 1.9,7.58 7.1,8.32 8.3,8.32 l 0,1.1 c -5.5,0 -13,-4.84 -13,-13.55 0,-5.08 2.9,-9.02 7.8,-9.02 7.1,0 11.3,5.28 11.3,5.88 0,0.3 -0.3,0.65 -0.6,0.65 -0.2,0 -0.3,-0.1 -0.6,-0.5 -4,-4.93 -9.4,-4.93 -10,-4.93 -3.9,0 -4.3,4.18 -4.3,5.78 0,0.6 0,2.14 0.8,5.18 z"
             id="path34550"
             inkscape:connector-curvature="0"
             style="fill:#000000;stroke-width:0" /><path
             d="m 1359.7,380.02 0,0.01 0,0 0,0.01 0,0.01 0,0.01 0,0.01 0,0.02 0,0.02 0,0.02 0,0.02 0,0.02 0,0.02 0,0.03 0,0.02 -0.1,0.03 0,0.02 0,0.02 0,0.03 0,0.02 0,0.03 -0.1,0.02 0,0.01 0,0.01 0,0.01 0,0.01 0,0.01 0,0.01 -0.1,0.01 0,0.01 0,0.01 0,0.01 0,0.01 0,0 -0.1,0.01 0,0.01 0,0 0,0.01 -0.1,0 0,0.01 0,0 0,0 -0.1,0.01 0,0 0,0 0,0 c -0.8,0 -5.5,-0.45 -6.4,-0.55 -0.4,-0.05 -0.7,-0.3 -0.7,-0.95 0,-0.59 0.5,-0.59 1.2,-0.59 2.4,0 2.5,-0.35 2.5,-0.85 l -0.1,-0.99 -3,-11.81 c -0.9,1.84 -2.4,3.19 -4.6,3.19 l 0.1,-1.1 c 3.2,0 3.9,-4.08 3.9,-4.38 0,-0.3 -0.1,-0.6 -0.2,-0.85 l -2.5,-9.76 c -0.2,-0.9 -0.2,-1 -1,-1.84 -2.1,-2.75 -4.2,-3.54 -5.6,-3.54 -2.5,0 -3.2,2.74 -3.2,4.68 0,2.49 1.6,8.62 2.8,10.91 1.5,2.94 3.8,4.78 5.8,4.78 l -0.1,1.1 c -5.8,0 -12,-7.32 -12,-14.6 0,-4.68 2.7,-7.97 6.6,-7.97 1,0 3.5,0.2 6.5,3.74 0.4,-2.09 2.1,-3.74 4.5,-3.74 1.8,0 2.9,1.15 3.7,2.74 0.9,1.79 1.5,4.83 1.5,4.93 0,0.5 -0.4,0.5 -0.6,0.5 -0.5,0 -0.5,-0.2 -0.7,-0.89 -0.8,-3.24 -1.7,-6.18 -3.8,-6.18 -1.3,0 -1.5,1.29 -1.5,2.29 0,1.2 0.1,1.54 0.3,2.39 z"
             id="path34552"
             inkscape:connector-curvature="0"
             style="fill:#000000;stroke-width:0" /></g>      </g>
      <g
         id="g34642"
         transform="translate(0,90)">
        <g
           word-spacing="normal"
           letter-spacing="normal"
           font-size-adjust="none"
           font-stretch="normal"
           font-weight="normal"
           font-variant="normal"
           font-style="normal"
           stroke-miterlimit="10.433"
           xml:space="preserve"
           transform="matrix(1.0629921,0,0,-1.0629921,-186.02362,789.27165)"
           id="g34644"
           style="font-style:normal;font-variant:normal;font-weight:normal;font-stretch:normal;letter-spacing:normal;word-spacing:normal;text-anchor:start;fill:none;fill-opacity:1;fill-rule:evenodd;stroke:#000000;stroke-linecap:butt;stroke-linejoin:miter;stroke-miterlimit:10.43299961;stroke-dasharray:none;stroke-dashoffset:0;stroke-opacity:1"><path
             id="path34646"
             d="m 1183.3,374.34 0.2,0.36 0.2,0.33 0.3,0.31 0.2,0.29 0.2,0.28 0.2,0.25 0.2,0.24 0.2,0.22 0.3,0.2 0.2,0.18 0.2,0.18 0.2,0.15 0.2,0.15 0.2,0.13 0.2,0.11 0.2,0.11 0.2,0.1 0.2,0.08 0.2,0.08 0.2,0.06 0.2,0.06 0.2,0.05 0.1,0.04 0.2,0.04 0.2,0.03 0.2,0.02 0.4,0.04 0.3,0.03 0.4,0.02 c 0.6,0.05 0.6,0.9 0.6,0.95 0,0.39 -0.2,0.59 -0.6,0.59 l -9.1,0 c -0.3,0 -0.9,0 -0.9,-0.95 0,-0.54 0.4,-0.59 0.8,-0.59 1.3,-0.1 2.3,-0.6 2.3,-1.64 0,-0.75 -0.8,-1.85 -0.8,-1.9 l -15.2,-24.31 -3.4,26.35 c 0,0.85 1.1,1.5 3.4,1.5 0.7,0 1.2,0 1.2,0.99 0,0.45 -0.4,0.55 -0.7,0.55 -2,0 -4.1,-0.15 -6.1,-0.15 -0.9,0 -1.9,0.05 -2.8,0.05 -0.9,0 -1.8,0.1 -2.7,0.1 -0.3,0 -0.9,0 -0.9,-0.95 0,-0.59 0.4,-0.59 1.2,-0.59 2.8,0 2.9,-0.45 3,-1.69 l 4,-30.74 c 0.1,-1 0.3,-1.15 1,-1.15 0.8,0 0.9,0.25 1.3,0.9 z"
             inkscape:connector-curvature="0"
             style="fill:#000000;stroke-width:0" /><path
             id="path34648"
             d="m 1215.4,359.6 -0.1,0.48 0,0.47 0,0.45 -0.1,0.45 -0.1,0.43 -0.1,0.42 -0.1,0.41 -0.2,0.39 -0.1,0.38 -0.2,0.37 -0.2,0.35 -0.2,0.34 -0.2,0.32 -0.2,0.31 -0.3,0.3 -0.2,0.28 -0.3,0.27 -0.3,0.25 -0.3,0.23 -0.3,0.22 -0.3,0.2 -0.4,0.19 -0.3,0.17 -0.4,0.15 -0.3,0.14 -0.4,0.11 -0.4,0.1 -0.4,0.09 -0.4,0.06 -0.4,0.05 -0.4,0.03 -0.4,0.01 -0.1,-1.1 c 2.9,0 4.4,-2.39 4.4,-5.38 0,-1.94 -1,-7.17 -2.9,-10.41 -1.7,-2.89 -4.4,-4.58 -6.7,-4.58 l 0,0 c -2.2,0 -4.4,1.54 -4.4,5.43 0,2.44 1.3,7.82 2.9,10.36 2.5,3.84 5.3,4.58 6.7,4.58 l 0.1,1.1 c -6.7,0 -13.4,-7.07 -13.4,-14.15 0,-4.93 3.4,-8.42 8,-8.42 6.6,0 13.4,6.88 13.4,14.15 z"
             inkscape:connector-curvature="0"
             style="fill:#000000;stroke-width:0" /><path
             id="path34650"
             d="m 1229.8,380.02 0,0.01 0,0 0,0.01 0,0.01 0,0.01 0,0.01 0,0.02 0,0.02 0,0.02 0,0.02 0,0.02 0,0.02 0,0.03 0,0.02 0,0.03 0,0.02 0,0.02 0,0.03 -0.1,0.02 0,0.03 0,0.02 0,0.01 0,0.01 0,0.01 -0.1,0.01 0,0.01 0,0.01 0,0.01 0,0.01 0,0.01 -0.1,0.01 0,0.01 0,0 0,0.01 0,0.01 -0.1,0 0,0.01 0,0 0,0.01 -0.1,0 0,0 0,0.01 0,0 -0.1,0 0,0 c -1.1,0 -4.8,-0.4 -6.1,-0.5 -0.4,-0.05 -0.9,-0.1 -0.9,-1.04 0,-0.55 0.5,-0.55 1.2,-0.55 2.4,0 2.5,-0.45 2.5,-0.85 l -0.2,-0.99 -6.3,-24.91 c -0.1,-0.55 -0.2,-0.9 -0.2,-1.69 0,-2.84 2.2,-4.59 4.5,-4.59 1.7,0 2.9,1 3.8,2.79 0.9,1.89 1.5,4.78 1.5,4.88 0,0.5 -0.5,0.5 -0.6,0.5 -0.5,0 -0.6,-0.2 -0.7,-0.89 -0.9,-3.24 -1.8,-6.18 -3.8,-6.18 -1.5,0 -1.5,1.59 -1.5,2.29 0,1.2 0,1.45 0.3,2.39 z"
             inkscape:connector-curvature="0"
             style="fill:#000000;stroke-width:0" /><path
             id="path34652"
             d="m 1249.4,348.79 0.1,-0.19 0,-0.19 0.1,-0.18 0.1,-0.17 0.1,-0.17 0.1,-0.17 0.1,-0.16 0.1,-0.15 0.1,-0.15 0.1,-0.15 0.1,-0.14 0.1,-0.13 0.1,-0.13 0.2,-0.13 0.1,-0.11 0.2,-0.12 0.1,-0.1 0.2,-0.1 0.1,-0.09 0.2,-0.09 0.1,-0.08 0.2,-0.07 0.2,-0.07 0.2,-0.06 0.1,-0.06 0.2,-0.04 0.2,-0.04 0.2,-0.04 0.2,-0.02 0.2,-0.02 0.2,-0.01 0.2,-0.01 c 1.7,0 2.9,1.15 3.7,2.74 0.8,1.79 1.5,4.83 1.5,4.93 0,0.5 -0.5,0.5 -0.7,0.5 -0.5,0 -0.5,-0.2 -0.6,-0.89 -0.7,-2.8 -1.7,-6.18 -3.8,-6.18 -1,0 -1.5,0.65 -1.5,2.29 0,1.09 0.6,3.44 1,5.18 l 1.4,5.38 c 0.1,0.75 0.6,2.64 0.8,3.39 0.3,1.14 0.8,3.03 0.8,3.33 0,0.9 -0.7,1.35 -1.5,1.35 -0.2,0 -1.5,-0.05 -1.9,-1.74 -1,-3.64 -3.2,-12.36 -3.8,-15 0,-0.2 -2,-4.18 -5.6,-4.18 -2.6,0 -3.1,2.24 -3.1,4.08 0,2.79 1.4,6.73 2.7,10.16 0.6,1.5 0.8,2.19 0.8,3.14 0,2.25 -1.6,4.09 -4.1,4.09 -4.7,0 -6.6,-7.23 -6.6,-7.67 0,-0.5 0.5,-0.5 0.6,-0.5 0.5,0 0.6,0.1 0.8,0.9 1.3,4.33 3.2,6.17 5.1,6.17 0.4,0 1.2,-0.05 1.2,-1.64 0,-1.2 -0.5,-2.64 -0.8,-3.39 -1.9,-4.93 -2.9,-8.02 -2.9,-10.46 0,-4.73 3.4,-5.98 6.1,-5.98 3.3,0 5.1,2.25 5.9,3.34 z"
             inkscape:connector-curvature="0"
             style="fill:#000000;stroke-width:0" /><path
             id="path34654"
             d="m 1265.4,348.94 0,-0.07 0,-0.08 -0.1,-0.07 0,-0.08 0,-0.16 -0.1,-0.16 0,-0.16 0,-0.16 -0.1,-0.16 0,-0.16 0,-0.08 0,-0.07 -0.1,-0.07 0,-0.07 0,-0.07 0,-0.07 0,-0.06 0,-0.06 0,-0.05 0,-0.06 0,-0.05 -0.1,-0.04 0,-0.04 0,-0.04 0,-0.03 0,-0.02 c 0,-0.9 0.7,-1.35 1.5,-1.35 0.6,0 1.5,0.4 1.8,1.4 0.1,0.1 0.7,2.44 1,3.68 l 1.1,4.49 c 0.3,1.09 0.6,2.19 0.8,3.34 0.2,0.84 0.6,2.28 0.7,2.48 0.7,1.55 3.4,6.08 8.1,6.08 2.2,0 2.7,-1.84 2.7,-3.49 0,-1.24 -0.4,-2.64 -0.8,-4.13 l -1.4,-5.78 -1,-3.79 c -0.2,-0.99 -0.6,-2.68 -0.6,-2.93 0,-0.9 0.7,-1.35 1.4,-1.35 1.6,0 1.9,1.25 2.3,2.84 0.7,2.79 2.5,10.07 3,12.01 0.1,0.65 2.7,6.62 8.2,6.62 2.1,0 2.7,-1.69 2.7,-3.49 0,-2.84 -2.1,-8.51 -3.1,-11.15 -0.5,-1.2 -0.7,-1.75 -0.7,-2.74 0,-2.34 1.8,-4.09 4.1,-4.09 4.7,0 6.5,7.28 6.5,7.67 0,0.5 -0.4,0.5 -0.6,0.5 -0.5,0 -0.5,-0.15 -0.7,-0.89 -0.7,-2.64 -2.3,-6.18 -5.1,-6.18 -0.8,0 -1.2,0.5 -1.2,1.64 0,1.25 0.5,2.44 0.9,3.54 1,2.59 3.1,8.12 3.1,10.96 0,3.24 -2,5.33 -5.8,5.33 -3.7,0 -6.2,-2.2 -8.1,-4.84 0,0.65 -0.2,2.35 -1.6,3.54 -1.2,1.05 -2.8,1.3 -4.1,1.3 -4.4,0 -6.9,-3.19 -7.7,-4.34 -0.3,2.84 -2.4,4.34 -4.6,4.34 -2.3,0 -3.3,-1.95 -3.7,-2.84 -0.9,-1.75 -1.6,-4.68 -1.6,-4.83 0,-0.5 0.5,-0.5 0.6,-0.5 0.5,0 0.6,0.05 0.9,1.14 0.8,3.54 1.8,5.93 3.6,5.93 0.8,0 1.6,-0.4 1.6,-2.29 0,-1.04 -0.2,-1.59 -0.8,-4.18 z"
             inkscape:connector-curvature="0"
             style="fill:#000000;stroke-width:0" /><path
             id="path34656"
             d="m 1314.3,357.51 0.2,0 0.1,0 0.2,0 0.2,0 0.1,0.01 0.2,0 0.3,0.01 0.2,0.01 0.2,0.01 0.2,0.01 0.3,0.02 0.2,0.01 0.3,0.02 0.2,0.03 0.5,0.05 0.6,0.06 0.5,0.08 0.6,0.09 0.5,0.11 0.5,0.13 0.3,0.07 0.3,0.07 0.2,0.08 0.3,0.09 0.2,0.09 0.2,0.09 c 3.5,1.5 3.8,4.44 3.8,5.14 0,2.19 -1.9,4.23 -5.4,4.23 l 0,-1.1 c 2.4,0 3.7,-1.44 3.7,-3.13 0,-5.19 -7.9,-5.19 -10,-5.19 l -2,0 c 1.9,7.58 7.1,8.32 8.3,8.32 l 0,1.1 c -5.5,0 -13,-4.84 -13,-13.55 0,-5.08 2.9,-9.02 7.8,-9.02 7.1,0 11.3,5.28 11.3,5.88 0,0.3 -0.3,0.65 -0.6,0.65 -0.2,0 -0.3,-0.1 -0.6,-0.5 -4,-4.93 -9.4,-4.93 -10,-4.93 -3.9,0 -4.3,4.18 -4.3,5.78 0,0.6 0,2.14 0.8,5.18 z"
             inkscape:connector-curvature="0"
             style="fill:#000000;stroke-width:0" /></g>      </g>
    </g>
    <path
       style="display:inline;opacity:0.95;fill:none;fill-rule:evenodd;stroke:#e600e6;stroke-width:6.45754671;stroke-linecap:butt;stroke-linejoin:miter;stroke-miterlimit:4;stroke-dasharray:none;stroke-opacity:1;marker-start:url(#Arrow1Sstart)"
       d="m 703.11326,608.15293 c -39.5452,0 -39.5452,0 -39.5452,0 l 0,0"
       id="path29166"
       inkscape:connector-curvature="0" />
    <path
       inkscape:connector-curvature="0"
       id="path35546"
       d="m 71.113257,308.15293 c -39.545197,0 -39.545197,0 -39.545197,0 l 0,0"
       style="display:inline;opacity:0.95;fill:none;fill-rule:evenodd;stroke:#e600e6;stroke-width:6.45754671;stroke-linecap:butt;stroke-linejoin:miter;stroke-miterlimit:4;stroke-dasharray:none;stroke-opacity:1;marker-start:url(#marker35548)" />
    <path
       style="display:inline;fill:none;fill-rule:evenodd;stroke:#000000;stroke-width:1px;stroke-linecap:butt;stroke-linejoin:miter;stroke-opacity:1;marker-start:url(#Arrow1Mstart);marker-end:url(#Arrow1Mend)"
       d="m 159.64286,442.36218 c 80.35714,0 80.35714,0 80.35714,0"
       id="path40911"
       inkscape:connector-curvature="0" />
    <path
       style="display:inline;fill:none;fill-rule:evenodd;stroke:#000000;stroke-width:1px;stroke-linecap:butt;stroke-linejoin:miter;stroke-opacity:1"
       d="m 157.5838,385.6615 c 0,70.71068 0,70.71068 0,70.71068"
       id="path40471"
       inkscape:connector-curvature="0" />
    <path
       style="fill:none;fill-rule:evenodd;stroke:#000000;stroke-width:1px;stroke-linecap:butt;stroke-linejoin:miter;stroke-opacity:1"
       d="m 158.52805,304.60042 c 25.74429,-122.59184 25.74429,-122.59184 25.74429,-122.59184 l 22.06653,0"
       id="path4308"
       inkscape:connector-curvature="0" />
  </g>
  <g
     style="display:inline"
     sodipodi:insensitive="true"
     inkscape:label="CV_Outline"
     id="layer6"
     inkscape:groupmode="layer"
     transform="translate(-13.869683,-50.277569)">
    <path
       sodipodi:nodetypes="cccccccccccc"
       style="display:inline;fill:none;fill-opacity:1;stroke:#0000d6;stroke-width:9.24459648;stroke-miterlimit:4;stroke-dasharray:none;stroke-dashoffset:0;stroke-opacity:1"
       d="m 28.074219,378.8457 219.152341,0 0,324.38086 340.75586,0 0,-23.1914 126.32617,0 m 0,-142.56446 -126.32617,0 0,-324.99804 -340.75586,0 0,25.95507 -219.152341,0"
       id="path34440"
       inkscape:connector-curvature="0" />
    <path
       inkscape:connector-curvature="0"
       id="path34442"
       d="m 247.22656,212.47266 0,25.95507 -219.152341,0 0,140.41797 219.152341,0 0,324.38086 340.75586,0 0,-23.1914 126.32617,0 0,-142.56446 -126.32617,0 0,-324.99804 -340.75586,0 z"
       style="display:inline;fill:none;fill-opacity:1;stroke:none;stroke-width:9.24459648;stroke-miterlimit:4;stroke-dasharray:none;stroke-dashoffset:0;stroke-opacity:1" />
  </g>
  <g
     sodipodi:insensitive="true"
     style="display:inline"
     inkscape:label="dashed_vol"
     id="layer4"
     inkscape:groupmode="layer"
     transform="translate(-13.869683,-50.277569)">
    <path
       inkscape:connector-curvature="0"
       id="rect34393"
       d="m 257.22656,693.22656 c 106.91862,0 213.83724,0 320.75586,0 0,-156.91797 0,-313.83593 0,-470.7539 -106.91862,0 -213.83724,0 -320.75586,0 0,156.91796 0,313.83593 0,470.7539 z"
       style="fill:none;fill-opacity:1;stroke:#ff0000;stroke-width:2;stroke-miterlimit:4;stroke-dasharray:8, 4;stroke-dashoffset:0;stroke-opacity:1" />
    <path
       inkscape:connector-curvature="0"
       id="rect34418"
       d="m 161.73242,367.1875 c 28.89453,0 57.78906,0 86.6836,0 0,-39.03385 0,-78.06771 0,-117.10156 -28.89454,0 -57.78907,0 -86.6836,0 0,39.03385 0,78.06771 0,117.10156 z"
       style="display:inline;fill:none;fill-opacity:1;stroke:#ff0000;stroke-width:2;stroke-miterlimit:4;stroke-dasharray:8, 4;stroke-dashoffset:0;stroke-opacity:1" />
  </g>
  <g
     style="display:inline"
     id="layer1"
     inkscape:groupmode="layer"
     inkscape:label="Piston"
     sodipodi:insensitive="true"
     transform="translate(-13.869683,-50.277569)">
    <g
       id="g34475">
      <path
         style="display:inline;opacity:0.8;fill:url(#linearGradient6712);fill-opacity:1;fill-rule:nonzero;stroke:#646464;stroke-width:2.27518249;stroke-miterlimit:4;stroke-dasharray:none;stroke-opacity:0.78431373"
         d="m 128.27702,371.22461 c 9.24174,0 18.48352,0 27.72527,0 0,-41.90828 0,-83.81655 0,-125.72481 -9.24175,0 -18.48353,0 -27.72527,0 0,41.90826 0,83.81653 0,125.72481 z"
         id="rect6566"
         inkscape:connector-curvature="0" />
      <g
         style="display:inline"
         id="g33721"
         transform="matrix(0,-0.67758638,0.29735259,0,41.11812,447.24938)">
        <path
           style="opacity:0.82099998;fill:url(#linearGradient4242);fill-opacity:1;fill-rule:nonzero;stroke:#646464;stroke-width:4.19552374;stroke-miterlimit:4;stroke-dasharray:none;stroke-opacity:0.78431373"
           d="m 178.09776,151.59776 c 0,0 5.52129,-19.8136 13.40224,-19.5 16.81642,0.66917 8.37707,43.31257 25.20112,43.75 9.62649,0.25029 15.70112,-24.25 15.70112,-24.25 l 0.5,140.80448 -55.80448,0 z"
           id="rect7393"
           inkscape:connector-curvature="0"
           sodipodi:nodetypes="csscccc" />
        <path
           style="fill:none;fill-rule:evenodd;stroke:#636363;stroke-width:5;stroke-linecap:butt;stroke-linejoin:miter;stroke-miterlimit:4;stroke-dasharray:none;stroke-opacity:0.64705882"
           d="m 231.90224,152.59776 c 0,0 4.01405,-21.62882 -14.17195,-9.35874 -13.72916,9.26305 -15.17194,6.64126 -15.17194,6.64126"
           id="path3417"
           inkscape:connector-curvature="0"
           sodipodi:nodetypes="csc" />
        <path
           style="fill:#646464;fill-opacity:0.41176471;stroke:none;stroke-width:2.5;stroke-miterlimit:4;stroke-dasharray:none;stroke-opacity:0.64705882"
           d="m 214.06485,172.69736 c -3.02524,-1.84474 -4.79031,-5.56824 -6.71581,-14.16732 -1.34748,-6.0177 -1.35574,-5.97583 1.39841,-7.09234 1.30522,-0.52912 3.83562,-1.85806 5.62312,-2.9532 13.86618,-8.49532 14.8646,-8.45114 15.03364,0.66524 0.0755,4.0732 -0.10764,5.28433 -1.28559,8.5 -2.91073,7.94602 -6.47959,13.81838 -9.27715,15.26505 -1.87846,0.97139 -2.90355,0.92473 -4.77662,-0.21743 z"
           id="path4234"
           inkscape:connector-curvature="0" />
      </g>
    </g>
    <g
       transform="matrix(-1,0,0,1,742.9127,300)"
       id="g34482">
      <path
         inkscape:connector-curvature="0"
         id="path34484"
         d="m 128.27702,371.22461 c 9.24174,0 18.48352,0 27.72527,0 0,-41.90828 0,-83.81655 0,-125.72481 -9.24175,0 -18.48353,0 -27.72527,0 0,41.90826 0,83.81653 0,125.72481 z"
         style="display:inline;opacity:0.8;fill:url(#linearGradient34494);fill-opacity:1;fill-rule:nonzero;stroke:#646464;stroke-width:2.27518249;stroke-miterlimit:4;stroke-dasharray:none;stroke-opacity:0.78431373" />
      <g
         transform="matrix(0,-0.67758638,0.29735259,0,41.11812,447.24938)"
         id="g34486"
         style="display:inline">
        <path
           sodipodi:nodetypes="csscccc"
           inkscape:connector-curvature="0"
           id="path34488"
           d="m 178.09776,151.59776 c 0,0 5.52129,-19.8136 13.40224,-19.5 16.81642,0.66917 8.37707,43.31257 25.20112,43.75 9.62649,0.25029 15.70112,-24.25 15.70112,-24.25 l 0.5,140.80448 -55.80448,0 z"
           style="opacity:0.82099998;fill:url(#linearGradient34496);fill-opacity:1;fill-rule:nonzero;stroke:#646464;stroke-width:4.19552374;stroke-miterlimit:4;stroke-dasharray:none;stroke-opacity:0.78431373" />
        <path
           sodipodi:nodetypes="csc"
           inkscape:connector-curvature="0"
           id="path34490"
           d="m 231.90224,152.59776 c 0,0 4.01405,-21.62882 -14.17195,-9.35874 -13.72916,9.26305 -15.17194,6.64126 -15.17194,6.64126"
           style="fill:none;fill-rule:evenodd;stroke:#636363;stroke-width:5;stroke-linecap:butt;stroke-linejoin:miter;stroke-miterlimit:4;stroke-dasharray:none;stroke-opacity:0.64705882" />
        <path
           inkscape:connector-curvature="0"
           id="path34492"
           d="m 214.06485,172.69736 c -3.02524,-1.84474 -4.79031,-5.56824 -6.71581,-14.16732 -1.34748,-6.0177 -1.35574,-5.97583 1.39841,-7.09234 1.30522,-0.52912 3.83562,-1.85806 5.62312,-2.9532 13.86618,-8.49532 14.8646,-8.45114 15.03364,0.66524 0.0755,4.0732 -0.10764,5.28433 -1.28559,8.5 -2.91073,7.94602 -6.47959,13.81838 -9.27715,15.26505 -1.87846,0.97139 -2.90355,0.92473 -4.77662,-0.21743 z"
           style="fill:#646464;fill-opacity:0.41176471;stroke:none;stroke-width:2.5;stroke-miterlimit:4;stroke-dasharray:none;stroke-opacity:0.64705882" />
      </g>
    </g>
  </g>
</svg>
