<?xml version="1.0" encoding="UTF-8" standalone="no"?>
<!-- Created with Inkscape (http://www.inkscape.org/) -->

<svg
   xmlns:dc="http://purl.org/dc/elements/1.1/"
   xmlns:cc="http://creativecommons.org/ns#"
   xmlns:rdf="http://www.w3.org/1999/02/22-rdf-syntax-ns#"
   xmlns:svg="http://www.w3.org/2000/svg"
   xmlns="http://www.w3.org/2000/svg"
   xmlns:sodipodi="http://sodipodi.sourceforge.net/DTD/sodipodi-0.dtd"
   xmlns:inkscape="http://www.inkscape.org/namespaces/inkscape"
   width="84.369453mm"
   height="84.369453mm"
   viewBox="0 0 298.94688 298.94688"
   id="svg325332"
   version="1.1"
   inkscape:version="0.91 r13725"
   sodipodi:docname="isochoric.svg"
   inkscape:export-filename="/home/sandeep/Desktop/figures/polytropic.png"
   inkscape:export-xdpi="90"
   inkscape:export-ydpi="90">
  <sodipodi:namedview
     id="base"
     pagecolor="#ffffff"
     bordercolor="#666666"
     borderopacity="1.0"
     inkscape:pageopacity="0.0"
     inkscape:pageshadow="2"
     inkscape:zoom="0.98994949"
     inkscape:cx="291.26981"
     inkscape:cy="65.720195"
     inkscape:document-units="px"
     inkscape:current-layer="layer4"
     showgrid="true"
     inkscape:window-width="1317"
     inkscape:window-height="744"
     inkscape:window-x="49"
     inkscape:window-y="24"
     inkscape:window-maximized="1"
     showguides="false"
     inkscape:object-paths="true"
     inkscape:object-nodes="false"
     inkscape:snap-others="true"
     inkscape:snap-global="true"
     inkscape:snap-smooth-nodes="true"
     inkscape:snap-grids="true"
     inkscape:snap-to-guides="false"
     inkscape:snap-nodes="true"
     fit-margin-top="0"
     fit-margin-left="0"
     fit-margin-right="0"
     fit-margin-bottom="0">
    <inkscape:grid
       originy="-539.88374"
       originx="-331.31227"
       type="xygrid"
       id="grid325995" />
  </sodipodi:namedview>
  <defs
     id="defs325334">
    <marker
       inkscape:isstock="true"
       style="overflow:visible"
       id="marker327035"
       refX="0"
       refY="0"
       orient="auto"
       inkscape:stockid="Arrow1Mend">
      <path
         inkscape:connector-curvature="0"
         transform="matrix(-0.4,0,0,-0.4,-4,0)"
         style="fill:#000000;fill-opacity:1;fill-rule:evenodd;stroke:#000000;stroke-width:1pt;stroke-opacity:1"
         d="M 0,0 5,-5 -12.5,0 5,5 0,0 Z"
         id="path327037" />
    </marker>
    <marker
       inkscape:isstock="true"
       style="overflow:visible"
       id="marker326887"
       refX="0"
       refY="0"
       orient="auto"
       inkscape:stockid="Arrow1Mend">
      <path
         inkscape:connector-curvature="0"
         transform="matrix(-0.4,0,0,-0.4,-4,0)"
         style="fill:#000000;fill-opacity:1;fill-rule:evenodd;stroke:#000000;stroke-width:1pt;stroke-opacity:1"
         d="M 0,0 5,-5 -12.5,0 5,5 0,0 Z"
         id="path326889" />
    </marker>
    <marker
       inkscape:isstock="true"
       style="overflow:visible"
       id="marker326751"
       refX="0"
       refY="0"
       orient="auto"
       inkscape:stockid="Arrow1Mend">
      <path
         inkscape:connector-curvature="0"
         transform="matrix(-0.4,0,0,-0.4,-4,0)"
         style="fill:#000000;fill-opacity:1;fill-rule:evenodd;stroke:#000000;stroke-width:1pt;stroke-opacity:1"
         d="M 0,0 5,-5 -12.5,0 5,5 0,0 Z"
         id="path326753" />
    </marker>
    <marker
       inkscape:isstock="true"
       style="overflow:visible"
       id="marker326627"
       refX="0"
       refY="0"
       orient="auto"
       inkscape:stockid="Arrow1Mend">
      <path
         inkscape:connector-curvature="0"
         transform="matrix(-0.4,0,0,-0.4,-4,0)"
         style="fill:#000000;fill-opacity:1;fill-rule:evenodd;stroke:#000000;stroke-width:1pt;stroke-opacity:1"
         d="M 0,0 5,-5 -12.5,0 5,5 0,0 Z"
         id="path326629" />
    </marker>
    <marker
       inkscape:isstock="true"
       style="overflow:visible"
       id="marker326515"
       refX="0"
       refY="0"
       orient="auto"
       inkscape:stockid="Arrow1Mend">
      <path
         inkscape:connector-curvature="0"
         transform="matrix(-0.4,0,0,-0.4,-4,0)"
         style="fill:#000000;fill-opacity:1;fill-rule:evenodd;stroke:#000000;stroke-width:1pt;stroke-opacity:1"
         d="M 0,0 5,-5 -12.5,0 5,5 0,0 Z"
         id="path326517" />
    </marker>
    <marker
       inkscape:isstock="true"
       style="overflow:visible"
       id="marker326415"
       refX="0"
       refY="0"
       orient="auto"
       inkscape:stockid="Arrow1Mend">
      <path
         inkscape:connector-curvature="0"
         transform="matrix(-0.4,0,0,-0.4,-4,0)"
         style="fill:#000000;fill-opacity:1;fill-rule:evenodd;stroke:#000000;stroke-width:1pt;stroke-opacity:1"
         d="M 0,0 5,-5 -12.5,0 5,5 0,0 Z"
         id="path326417" />
    </marker>
    <marker
       inkscape:isstock="true"
       style="overflow:visible"
       id="marker326327"
       refX="0"
       refY="0"
       orient="auto"
       inkscape:stockid="Arrow1Mend">
      <path
         inkscape:connector-curvature="0"
         transform="matrix(-0.4,0,0,-0.4,-4,0)"
         style="fill:#000000;fill-opacity:1;fill-rule:evenodd;stroke:#000000;stroke-width:1pt;stroke-opacity:1"
         d="M 0,0 5,-5 -12.5,0 5,5 0,0 Z"
         id="path326329" />
    </marker>
    <marker
       inkscape:isstock="true"
       style="overflow:visible"
       id="marker326251"
       refX="0"
       refY="0"
       orient="auto"
       inkscape:stockid="Arrow1Mend">
      <path
         inkscape:connector-curvature="0"
         transform="matrix(-0.4,0,0,-0.4,-4,0)"
         style="fill:#000000;fill-opacity:1;fill-rule:evenodd;stroke:#000000;stroke-width:1pt;stroke-opacity:1"
         d="M 0,0 5,-5 -12.5,0 5,5 0,0 Z"
         id="path326253" />
    </marker>
    <marker
       inkscape:isstock="true"
       style="overflow:visible"
       id="marker326187"
       refX="0"
       refY="0"
       orient="auto"
       inkscape:stockid="Arrow1Mend">
      <path
         inkscape:connector-curvature="0"
         transform="matrix(-0.4,0,0,-0.4,-4,0)"
         style="fill:#000000;fill-opacity:1;fill-rule:evenodd;stroke:#000000;stroke-width:1pt;stroke-opacity:1"
         d="M 0,0 5,-5 -12.5,0 5,5 0,0 Z"
         id="path326189" />
    </marker>
    <marker
       inkscape:isstock="true"
       style="overflow:visible"
       id="marker326135"
       refX="0"
       refY="0"
       orient="auto"
       inkscape:stockid="Arrow1Mend">
      <path
         inkscape:connector-curvature="0"
         transform="matrix(-0.4,0,0,-0.4,-4,0)"
         style="fill:#000000;fill-opacity:1;fill-rule:evenodd;stroke:#000000;stroke-width:1pt;stroke-opacity:1"
         d="M 0,0 5,-5 -12.5,0 5,5 0,0 Z"
         id="path326137" />
    </marker>
    <marker
       inkscape:stockid="Arrow1Mend"
       orient="auto"
       refY="0"
       refX="0"
       id="Arrow1Mend"
       style="overflow:visible"
       inkscape:isstock="true"
       inkscape:collect="always">
      <path
         inkscape:connector-curvature="0"
         id="path10601"
         d="M 0,0 5,-5 -12.5,0 5,5 0,0 Z"
         style="fill:#000000;fill-opacity:1;fill-rule:evenodd;stroke:#000000;stroke-width:1pt;stroke-opacity:1"
         transform="matrix(-0.4,0,0,-0.4,-4,0)" />
    </marker>
    <marker
       inkscape:stockid="Arrow2Mstart"
       orient="auto"
       refY="0"
       refX="0"
       id="Arrow2Mstart"
       style="overflow:visible"
       inkscape:isstock="true">
      <path
         inkscape:connector-curvature="0"
         id="path10616"
         style="fill:#000000;fill-opacity:1;fill-rule:evenodd;stroke:#000000;stroke-width:0.625;stroke-linejoin:round;stroke-opacity:1"
         d="M 8.7185878,4.0337352 -2.2072895,0.01601326 8.7185884,-4.0017078 c -1.7454984,2.3720609 -1.7354408,5.6174519 -6e-7,8.035443 z"
         transform="scale(0.6,0.6)" />
    </marker>
  </defs>
  <metadata
     id="metadata325337">
    <rdf:RDF>
      <cc:Work
         rdf:about="">
        <dc:format>image/svg+xml</dc:format>
        <dc:type
           rdf:resource="http://purl.org/dc/dcmitype/StillImage" />
        <dc:title />
      </cc:Work>
    </rdf:RDF>
  </metadata>
  <g
     transform="translate(-331.31226,-213.53162)"
     inkscape:groupmode="layer"
     id="layer4"
     inkscape:label="vector">
    <path
       style="fill:none;fill-rule:evenodd;stroke:#000000;stroke-width:1px;stroke-linecap:butt;stroke-linejoin:miter;stroke-opacity:1;marker-end:url(#Arrow1Mend)"
       d="m 380,452.3622 0,-185"
       id="path325997"
       inkscape:connector-curvature="0" />
    <path
       style="fill:none;fill-rule:evenodd;stroke:#000000;stroke-width:1px;stroke-linecap:butt;stroke-linejoin:miter;stroke-opacity:1;marker-end:url(#Arrow1Mend)"
       d="m 380,452.3622 220,0"
       id="path325999"
       inkscape:connector-curvature="0" />
    <ellipse
       style="fill:none;fill-opacity:1;stroke:none;stroke-width:1;stroke-miterlimit:4;stroke-dasharray:4, 1;stroke-dashoffset:0;stroke-opacity:1"
       id="path327195"
       cx="430"
       cy="297.36221"
       rx="10"
       ry="5" />
    <path
       style="fill:none;fill-rule:evenodd;stroke:#009600;stroke-width:1px;stroke-linecap:butt;stroke-linejoin:miter;stroke-opacity:1;color:#000000;clip-rule:nonzero;display:inline;overflow:visible;visibility:visible;opacity:1;isolation:auto;mix-blend-mode:normal;color-interpolation:sRGB;color-interpolation-filters:linearRGB;solid-color:#000000;solid-opacity:1;fill-opacity:1;stroke-miterlimit:4;stroke-dasharray:none;stroke-dashoffset:0;filter-blend-mode:normal;filter-gaussianBlur-deviation:0;color-rendering:auto;image-rendering:auto;shape-rendering:auto;text-rendering:auto;enable-background:accumulate"
       d="m 465,322.36222 0,85"
       id="path335214"
       inkscape:connector-curvature="0" />
    <path
       style="fill:none;fill-rule:evenodd;stroke:#000000;stroke-width:1;stroke-linecap:butt;stroke-linejoin:miter;stroke-opacity:1;color:#000000;clip-rule:nonzero;display:inline;overflow:visible;visibility:visible;opacity:1;isolation:auto;mix-blend-mode:normal;color-interpolation:sRGB;color-interpolation-filters:linearRGB;solid-color:#000000;solid-opacity:1;fill-opacity:1;stroke-miterlimit:4;stroke-dasharray:4, 1;stroke-dashoffset:0;filter-blend-mode:normal;filter-gaussianBlur-deviation:0;color-rendering:auto;image-rendering:auto;shape-rendering:auto;text-rendering:auto;enable-background:accumulate"
       d="m 465,407.36222 -85,0"
       id="path335232"
       inkscape:connector-curvature="0" />
    <circle
       style="fill:#ea0000;fill-opacity:1;stroke:#ea0000;stroke-width:0.48032153;stroke-miterlimit:4;stroke-dasharray:none;stroke-dashoffset:0;stroke-opacity:1"
       id="path327203-3"
       cx="464.92828"
       cy="407.54559"
       r="2.4016078" />
    <circle
       style="fill:#f20000;fill-opacity:1;stroke:#ef0000;stroke-width:0.48032153;stroke-miterlimit:4;stroke-dasharray:none;stroke-dashoffset:0;stroke-opacity:1"
       id="path327203"
       cx="465.2132"
       cy="322.35168"
       r="2.4016078" />
    <g
       transform="matrix(0.33183086,0,0,0.33183086,-8.565894,143.68852)"
       id="g327375">
      <g
         style="font-style:normal;font-variant:normal;font-weight:normal;font-stretch:normal;letter-spacing:normal;word-spacing:normal;text-anchor:start;fill:none;fill-opacity:1;fill-rule:evenodd;stroke:#000000;stroke-linecap:butt;stroke-linejoin:miter;stroke-miterlimit:10.43299961;stroke-dasharray:none;stroke-dashoffset:0;stroke-opacity:1"
         id="content"
         transform="matrix(1.0629921,0,0,-1.0629921,-186.02362,789.27165)"
         xml:space="preserve"
         stroke-miterlimit="10.433"
         font-style="normal"
         font-variant="normal"
         font-weight="normal"
         font-stretch="normal"
         font-size-adjust="none"
         letter-spacing="normal"
         word-spacing="normal"><path
           style="fill:#000000;stroke-width:0"
           inkscape:connector-curvature="0"
           d="m 1236.1,361.74 0.2,1.3 3.4,13.55 c 0.4,1.74 0.5,1.89 2.7,1.89 l 4.8,0 c 4.1,0 6.7,-1.35 6.7,-4.78 0,-1.95 -1,-6.23 -2.9,-8.02 -2.5,-2.25 -5.5,-2.64 -7.7,-2.64 l -7,0 -0.2,-1.3 8.5,0 c 7,0 14,5.18 14,10.76 0,3.84 -3.3,7.52 -9.8,7.52 l -16.2,0 c -0.9,0 -1.5,0 -1.5,-0.95 0,-0.59 0.5,-0.59 1.5,-0.59 0.6,0 1.5,-0.05 2.1,-0.1 0.8,-0.1 1.1,-0.25 1.1,-0.8 0,-0.2 0,-0.35 -0.2,-0.94 l -6.7,-26.75 c -0.5,-1.95 -0.6,-2.35 -4.5,-2.35 -0.9,0 -1.4,0 -1.4,-0.94 0,-0.6 0.6,-0.6 0.7,-0.6 l 12.8,0 c 0.3,0 1,0 1,1 0,0.54 -0.5,0.54 -1.4,0.54 -1.9,0 -3.2,0 -3.2,0.9 0,0.3 0.1,0.55 0.1,0.85 z"
           id="path327378" /></g>    </g>
    <g
       id="g327480"
       transform="matrix(0.32189581,0,0,0.32189581,232.25206,337.64478)">
      <g
         word-spacing="normal"
         letter-spacing="normal"
         font-size-adjust="none"
         font-stretch="normal"
         font-weight="normal"
         font-variant="normal"
         font-style="normal"
         stroke-miterlimit="10.433"
         xml:space="preserve"
         transform="matrix(1.0629921,0,0,-1.0629921,-186.02362,789.27165)"
         id="g327482"
         style="font-style:normal;font-variant:normal;font-weight:normal;font-stretch:normal;letter-spacing:normal;word-spacing:normal;text-anchor:start;fill:none;fill-opacity:1;fill-rule:evenodd;stroke:#000000;stroke-linecap:butt;stroke-linejoin:miter;stroke-miterlimit:10.43299961;stroke-dasharray:none;stroke-dashoffset:0;stroke-opacity:1"><path
           id="path327484"
           d="m 1253.7,375.84 0.1,0.06 0,0.06 0,0.08 0,0.07 0.1,0.08 0,0.09 0.1,0.09 0,0.09 0.1,0.1 0,0.09 0.1,0.1 0.1,0.1 0,0.11 0.1,0.1 0.1,0.1 0.1,0.1 0.1,0.1 0.1,0.1 0.1,0.09 0.1,0.1 0.1,0.09 0.1,0.08 0.2,0.08 0.1,0.08 0.1,0.08 0.2,0.06 0.1,0.06 0.2,0.06 0.2,0.04 0.1,0.04 0.2,0.04 0.2,0.02 c 0.3,0 1.1,0.1 1.1,0.85 0,0.89 -0.8,0.89 -1.7,0.89 l -8,0 c -0.9,0 -1.6,0 -1.6,-0.89 0,-0.75 0.7,-0.8 1,-0.85 0.7,-0.1 1.8,-0.3 1.8,-2.89 l 1.7,0 c 0,0.65 0,1.99 -0.6,2.89 l 2.7,0 c -0.6,-0.65 -0.8,-1.25 -1.2,-2.04 -0.2,-0.55 -0.7,-1.85 -1,-2.39 0.1,0.44 0.1,1.09 0.1,1.54 l -1.7,0 c 0,-2.94 -1.6,-7.67 -2.4,-10.06 -0.4,-1 -0.4,-1.1 -4,-10.22 -0.9,1.85 -8.6,18.39 -8.6,21.63 l -1.7,0.04 c 0,-3.38 6.3,-17.33 9.5,-24.26 l -1.9,-4.53 -12.6,27.85 c -0.5,0.94 -1.4,2.34 -1.5,2.44 l 7.1,0 c -0.2,-0.2 -0.6,-0.45 -0.6,-1.5 l 1.7,-0.04 c 0,0.34 1.2,1.39 3,1.54 0.8,0.05 1,0.6 1,0.85 0,0.89 -0.8,0.89 -1.6,0.89 l -13.1,0 c -0.9,0 -1.6,0 -1.6,-0.89 0,-0.7 0.6,-0.8 1,-0.85 1.6,-0.25 2.7,-2.59 2.8,-2.74 l 13.4,-29.54 c 0.3,-0.75 0.6,-1.05 1,-1.05 0.6,0 0.7,0.25 1,1.05 z"
           inkscape:connector-curvature="0"
           style="fill:#000000;stroke-width:0" /></g>    </g>
    <g
       id="g327908"
       transform="matrix(0.27520445,0,0,0.27520445,56.857138,210.33344)">
      <g
         id="g327910"
         transform="matrix(1.0629921,0,0,-1.0629921,-186.02362,789.27165)"
         xml:space="preserve"
         stroke-miterlimit="10.433"
         font-style="normal"
         font-variant="normal"
         font-weight="normal"
         font-stretch="normal"
         font-size-adjust="none"
         letter-spacing="normal"
         word-spacing="normal"
         style="font-style:normal;font-variant:normal;font-weight:normal;font-stretch:normal;letter-spacing:normal;word-spacing:normal;text-anchor:start;fill:none;fill-opacity:1;fill-rule:evenodd;stroke:#000000;stroke-linecap:butt;stroke-linejoin:miter;stroke-miterlimit:10.43299961;stroke-dasharray:none;stroke-dashoffset:0;stroke-opacity:1"><path
           d="m 1228.1,361.74 0.2,1.3 3.4,13.55 c 0.4,1.74 0.5,1.89 2.7,1.89 l 4.8,0 c 4.1,0 6.7,-1.35 6.7,-4.78 0,-1.95 -1,-6.23 -2.9,-8.02 -2.5,-2.25 -5.5,-2.64 -7.7,-2.64 l -7,0 -0.2,-1.3 8.5,0 c 7,0 14,5.18 14,10.76 0,3.84 -3.3,7.52 -9.8,7.52 l -16.2,0 c -0.9,0 -1.5,0 -1.5,-0.95 0,-0.59 0.5,-0.59 1.5,-0.59 0.6,0 1.5,-0.05 2.1,-0.1 0.8,-0.1 1.1,-0.25 1.1,-0.8 0,-0.2 0,-0.35 -0.2,-0.94 l -6.7,-26.75 c -0.5,-1.95 -0.6,-2.35 -4.5,-2.35 -0.9,0 -1.4,0 -1.4,-0.94 0,-0.6 0.6,-0.6 0.7,-0.6 l 12.8,0 c 0.3,0 1,0 1,1 0,0.54 -0.5,0.54 -1.4,0.54 -1.9,0 -3.2,0 -3.2,0.9 0,0.3 0.1,0.55 0.1,0.85 z"
           id="path327912"
           inkscape:connector-curvature="0"
           style="fill:#000000;stroke-width:0" /><path
           d="m 1256.7,361.18 0,0.04 0,0.04 0,0.04 0,0.04 0,0.04 0,0.04 0,0.03 0,0.04 0,0.03 0,0.03 0,0.04 0,0.03 0,0.02 0,0.03 0,0.03 0,0.03 -0.1,0.02 0,0.02 0,0.05 0,0.04 0,0.04 0,0.03 0,0.03 -0.1,0.03 0,0.03 0,0.02 0,0.02 -0.1,0.02 0,0.01 0,0.01 -0.1,0.02 0,0 -0.1,0.01 0,0 0,0.01 0,0 -0.1,0 0,0 0,0 -0.1,0.01 0,0 0,0 -0.1,0 0,0 0,0 -0.1,0 0,0 -0.1,0 0,0 -0.1,0 c -2.2,-2.19 -5.4,-2.23 -6.8,-2.23 l 0,-1.25 c 0.8,0 3.1,0 5.1,0.97 l 0,-17.78 c 0,-1.15 0,-1.61 -3.5,-1.61 l -1.4,0 0,-1.25 12.5,0 0,1.25 -1.3,0 c -3.5,0 -3.5,0.46 -3.5,1.61 z"
           id="path327914"
           inkscape:connector-curvature="0"
           style="fill:#000000;stroke-width:0" /></g>    </g>
    <g
       id="g328074"
       transform="matrix(0.27520445,0,0,0.27520445,56.857138,296.30399)">
      <g
         word-spacing="normal"
         letter-spacing="normal"
         font-size-adjust="none"
         font-stretch="normal"
         font-weight="normal"
         font-variant="normal"
         font-style="normal"
         stroke-miterlimit="10.433"
         xml:space="preserve"
         transform="matrix(1.0629921,0,0,-1.0629921,-186.02362,789.27165)"
         id="g328076"
         style="font-style:normal;font-variant:normal;font-weight:normal;font-stretch:normal;letter-spacing:normal;word-spacing:normal;text-anchor:start;fill:none;fill-opacity:1;fill-rule:evenodd;stroke:#000000;stroke-linecap:butt;stroke-linejoin:miter;stroke-miterlimit:10.43299961;stroke-dasharray:none;stroke-dashoffset:0;stroke-opacity:1"><path
           id="path328078"
           d="m 1228.1,361.74 0.2,1.3 3.4,13.55 c 0.4,1.74 0.5,1.89 2.7,1.89 l 4.8,0 c 4.1,0 6.7,-1.35 6.7,-4.78 0,-1.95 -1,-6.23 -2.9,-8.02 -2.5,-2.25 -5.5,-2.64 -7.7,-2.64 l -7,0 -0.2,-1.3 8.5,0 c 7,0 14,5.18 14,10.76 0,3.84 -3.3,7.52 -9.8,7.52 l -16.2,0 c -0.9,0 -1.5,0 -1.5,-0.95 0,-0.59 0.5,-0.59 1.5,-0.59 0.6,0 1.5,-0.05 2.1,-0.1 0.8,-0.1 1.1,-0.25 1.1,-0.8 0,-0.2 0,-0.35 -0.2,-0.94 l -6.7,-26.75 c -0.5,-1.95 -0.6,-2.35 -4.5,-2.35 -0.9,0 -1.4,0 -1.4,-0.94 0,-0.6 0.6,-0.6 0.7,-0.6 l 12.8,0 c 0.3,0 1,0 1,1 0,0.54 -0.5,0.54 -1.4,0.54 -1.9,0 -3.2,0 -3.2,0.9 0,0.3 0.1,0.55 0.1,0.85 z"
           inkscape:connector-curvature="0"
           style="fill:#000000;stroke-width:0" /><path
           id="path328080"
           d="m 1262.6,345.35 -1.2,0 c -0.1,-0.77 -0.4,-2.83 -0.9,-3.18 -0.3,-0.21 -2.9,-0.21 -3.4,-0.21 l -6.4,0 c 3.6,3.25 4.8,4.22 6.9,5.86 2.6,2.06 5,4.22 5,7.54 0,4.21 -3.7,6.79 -8.2,6.79 -4.3,0 -7.2,-3.03 -7.2,-6.24 0,-1.78 1.5,-1.95 1.8,-1.95 0.9,0 1.9,0.59 1.9,1.85 0,0.62 -0.2,1.85 -2.1,1.85 1.1,2.47 3.5,3.24 5.1,3.24 3.5,0 5.3,-2.72 5.3,-5.54 0,-3.04 -2.1,-5.45 -3.3,-6.7 l -8.3,-8.3 c -0.4,-0.31 -0.4,-0.38 -0.4,-1.36 l 14.4,0 z"
           inkscape:connector-curvature="0"
           style="fill:#000000;stroke-width:0" /></g>    </g>
    <path
       style="fill:none;fill-rule:evenodd;stroke:#000000;stroke-width:1;stroke-linecap:butt;stroke-linejoin:miter;stroke-opacity:1;color:#000000;clip-rule:nonzero;display:inline;overflow:visible;visibility:visible;opacity:1;isolation:auto;mix-blend-mode:normal;color-interpolation:sRGB;color-interpolation-filters:linearRGB;solid-color:#000000;solid-opacity:1;fill-opacity:1;stroke-miterlimit:4;stroke-dasharray:4, 1;stroke-dashoffset:0;filter-blend-mode:normal;filter-gaussianBlur-deviation:0;color-rendering:auto;image-rendering:auto;shape-rendering:auto;text-rendering:auto;enable-background:accumulate"
       d="m 380,322.36222 85,0"
       id="path335230"
       inkscape:connector-curvature="0" />
    <g
       transform="matrix(0.73444759,0,0,0.73444759,197.86152,306.45233)"
       id="g335550">
      <g
         style="font-style:normal;font-variant:normal;font-weight:normal;font-stretch:normal;letter-spacing:normal;word-spacing:normal;text-anchor:start;fill:none;fill-opacity:1;fill-rule:evenodd;stroke:#000000;stroke-linecap:butt;stroke-linejoin:miter;stroke-miterlimit:10.43299961;stroke-dasharray:none;stroke-dashoffset:0;stroke-opacity:1"
         word-spacing="normal"
         letter-spacing="normal"
         font-size-adjust="none"
         font-stretch="normal"
         font-weight="normal"
         font-variant="normal"
         font-style="normal"
         stroke-miterlimit="10.433"
         xml:space="preserve"
         transform="matrix(0.42706697,0,0,-0.42706697,-74.73672,224.21016)"
         id="g335552"><path
           style="fill:#000000;stroke-width:0"
           inkscape:connector-curvature="0"
           id="path335554"
           d="m 1124.7,375.84 0.1,0.06 0,0.06 0,0.08 0,0.07 0.1,0.08 0,0.09 0.1,0.09 0,0.09 0.1,0.1 0,0.09 0.1,0.1 0.1,0.1 0,0.11 0.1,0.1 0.1,0.1 0.1,0.1 0.1,0.1 0.1,0.1 0.1,0.09 0.1,0.1 0.1,0.09 0.1,0.08 0.2,0.08 0.1,0.08 0.1,0.08 0.2,0.06 0.1,0.06 0.2,0.06 0.2,0.04 0.1,0.04 0.2,0.04 0.2,0.02 c 0.3,0 1.1,0.1 1.1,0.85 0,0.89 -0.8,0.89 -1.7,0.89 l -8,0 c -0.9,0 -1.6,0 -1.6,-0.89 0,-0.75 0.7,-0.8 1,-0.85 0.7,-0.1 1.8,-0.3 1.8,-2.89 l 1.7,0 c 0,0.65 0,1.99 -0.6,2.89 l 2.7,0 c -0.6,-0.65 -0.8,-1.25 -1.2,-2.04 -0.2,-0.55 -0.7,-1.85 -1,-2.39 0.1,0.44 0.1,1.09 0.1,1.54 l -1.7,0 c 0,-2.94 -1.6,-7.67 -2.4,-10.06 -0.4,-1 -0.4,-1.1 -4,-10.22 -0.9,1.85 -8.6,18.39 -8.6,21.63 l -1.7,0.04 c 0,-3.38 6.3,-17.33 9.5,-24.26 l -1.9,-4.53 -12.6,27.85 c -0.5,0.94 -1.4,2.34 -1.5,2.44 l 7.1,0 c -0.2,-0.2 -0.6,-0.45 -0.6,-1.5 l 1.7,-0.04 c 0,0.34 1.2,1.39 3,1.54 0.8,0.05 1,0.6 1,0.85 0,0.89 -0.8,0.89 -1.6,0.89 l -13.1,0 c -0.9,0 -1.6,0 -1.6,-0.89 0,-0.7 0.6,-0.8 1,-0.85 1.6,-0.25 2.7,-2.59 2.8,-2.74 l 13.4,-29.54 c 0.3,-0.75 0.6,-1.05 1,-1.05 0.6,0 0.7,0.25 1,1.05 z" /><path
           style="fill:#000000;stroke-width:0"
           inkscape:connector-curvature="0"
           id="path335556"
           d="m 1177.2,362.29 0.2,0 0.1,0 0.2,0.01 0,0 0.1,0 0.1,0.01 0,0.01 0.1,0.01 0.1,0.01 0.1,0.02 0,0.01 0.1,0.02 0,0.02 0.1,0.03 0.1,0.03 0,0.03 0.1,0.03 0,0.04 0.1,0.04 0,0.05 0.1,0.05 0,0.03 0,0.02 0,0.03 0,0.03 0,0.03 0,0.04 0.1,0.03 0,0.04 0,0.03 0,0.04 0,0.04 0,0.04 0,0.04 0,0.04 0,0.05 0,0.05 c 0,0.99 -0.9,0.99 -1.6,0.99 l -29.9,0 c -0.7,0 -1.6,0 -1.6,-0.99 0,-1 0.9,-1 1.7,-1 z" /><path
           style="fill:#000000;stroke-width:0"
           inkscape:connector-curvature="0"
           id="path335558"
           d="m 1177.3,352.62 0.1,0.01 0.1,0 0.2,0 0.1,0.01 0,0 0.1,0.01 0.1,0.01 0,0.01 0.1,0.01 0.1,0.01 0,0.02 0.1,0.02 0.1,0.02 0,0.02 0.1,0.03 0,0.03 0.1,0.04 0,0.04 0.1,0.04 0,0.04 0,0.03 0.1,0.03 0,0.02 0,0.03 0,0.03 0,0.03 0,0.03 0,0.03 0.1,0.04 0,0.03 0,0.04 0,0.04 0,0.04 0,0.04 0,0.04 0,0.04 0,0.05 0,0.04 c 0,1 -0.9,1 -1.7,1 l -29.7,0 c -0.8,0 -1.7,0 -1.7,-1 0,-1 0.9,-1 1.6,-1 z" /><path
           style="fill:#000000;stroke-width:0"
           inkscape:connector-curvature="0"
           id="path335560"
           d="m 1215.7,364.93 -0.1,0 -0.2,0 -0.1,0 -0.2,-0.01 -0.1,-0.01 -0.1,-0.02 -0.1,-0.01 -0.1,-0.01 0,-0.01 -0.1,-0.02 -0.1,-0.01 0,-0.02 -0.1,-0.03 -0.1,-0.02 0,-0.03 -0.1,-0.03 -0.1,-0.03 0,-0.04 -0.1,-0.03 -0.1,-0.05 0,-0.04 -0.1,-0.05 -0.1,-0.05 0,-0.06 -0.1,-0.06 -0.1,-0.06 c -0.8,-0.75 -0.9,-1.59 -0.9,-1.94 0,-1.2 0.9,-1.74 1.9,-1.74 1.4,0 2.8,1.19 2.8,3.18 0,2.45 -2.4,4.29 -5.9,4.29 -6.7,0 -13.4,-7.13 -13.4,-14.15 0,-4.48 2.9,-8.42 8.1,-8.42 7.1,0 11.3,5.28 11.3,5.88 0,0.3 -0.3,0.65 -0.6,0.65 -0.2,0 -0.3,-0.1 -0.6,-0.5 -4,-4.93 -9.4,-4.93 -10,-4.93 -3.1,0 -4.5,2.44 -4.5,5.43 0,2.04 1,6.87 2.7,9.96 1.6,2.84 4.3,4.98 7,4.98 1.7,0 3.6,-0.65 4.3,-1.99 z" /><path
           style="fill:#000000;stroke-width:0"
           inkscape:connector-curvature="0"
           id="path335562"
           d="m 1240.4,359.6 -0.1,0.48 0,0.47 0,0.45 -0.1,0.45 -0.1,0.43 -0.1,0.42 -0.1,0.41 -0.2,0.39 -0.1,0.38 -0.2,0.37 -0.2,0.35 -0.2,0.34 -0.2,0.32 -0.2,0.31 -0.3,0.3 -0.2,0.28 -0.3,0.27 -0.3,0.25 -0.3,0.23 -0.3,0.22 -0.3,0.2 -0.4,0.19 -0.3,0.17 -0.4,0.15 -0.3,0.14 -0.4,0.11 -0.4,0.1 -0.4,0.09 -0.4,0.06 -0.4,0.05 -0.4,0.03 -0.4,0.01 -0.1,-1.1 c 2.9,0 4.4,-2.39 4.4,-5.38 0,-1.94 -1,-7.17 -2.9,-10.41 -1.7,-2.89 -4.4,-4.58 -6.7,-4.58 l 0,0 c -2.2,0 -4.4,1.54 -4.4,5.43 0,2.44 1.3,7.82 2.9,10.36 2.5,3.84 5.3,4.58 6.7,4.58 l 0.1,1.1 c -6.7,0 -13.4,-7.07 -13.4,-14.15 0,-4.93 3.4,-8.42 8,-8.42 6.6,0 13.4,6.88 13.4,14.15 z" /><path
           style="fill:#000000;stroke-width:0"
           inkscape:connector-curvature="0"
           id="path335564"
           d="m 1245.4,348.94 0,-0.07 0,-0.08 -0.1,-0.07 0,-0.08 0,-0.16 -0.1,-0.16 0,-0.16 0,-0.16 -0.1,-0.16 0,-0.16 0,-0.08 0,-0.07 -0.1,-0.07 0,-0.07 0,-0.07 0,-0.07 0,-0.06 0,-0.06 0,-0.05 0,-0.06 0,-0.05 -0.1,-0.04 0,-0.04 0,-0.04 0,-0.03 0,-0.02 c 0,-0.9 0.7,-1.35 1.5,-1.35 0.6,0 1.5,0.4 1.8,1.4 0.1,0.1 0.7,2.44 1,3.68 l 1.1,4.49 c 0.3,1.09 0.6,2.19 0.8,3.34 0.2,0.84 0.6,2.28 0.7,2.48 0.7,1.55 3.4,6.08 8.1,6.08 2.2,0 2.7,-1.84 2.7,-3.49 0,-3.08 -2.5,-9.46 -3.3,-11.6 -0.4,-1.15 -0.5,-1.74 -0.5,-2.29 0,-2.34 1.8,-4.09 4.1,-4.09 4.7,0 6.5,7.28 6.5,7.67 0,0.5 -0.4,0.5 -0.6,0.5 -0.5,0 -0.5,-0.15 -0.7,-0.89 -1,-3.39 -2.6,-6.18 -5.1,-6.18 -0.8,0 -1.2,0.5 -1.2,1.64 0,1.25 0.5,2.44 0.9,3.54 1,2.64 3.1,8.12 3.1,10.96 0,3.33 -2.2,5.33 -5.8,5.33 -4.4,0 -6.9,-3.19 -7.7,-4.34 -0.3,2.79 -2.3,4.34 -4.6,4.34 -2.3,0 -3.3,-1.95 -3.8,-2.84 -0.8,-1.7 -1.5,-4.63 -1.5,-4.83 0,-0.5 0.5,-0.5 0.6,-0.5 0.5,0 0.6,0.05 0.9,1.14 0.8,3.54 1.8,5.93 3.6,5.93 1,0 1.6,-0.65 1.6,-2.29 0,-1.04 -0.2,-1.59 -0.8,-4.18 z" /><path
           style="fill:#000000;stroke-width:0"
           inkscape:connector-curvature="0"
           id="path335566"
           d="m 1290.5,364.63 -0.2,-0.01 -0.1,-0.01 -0.1,-0.02 -0.1,-0.03 -0.1,-0.03 -0.2,-0.03 -0.1,-0.04 -0.1,-0.05 -0.1,-0.05 -0.1,-0.05 -0.1,-0.06 -0.1,-0.06 -0.1,-0.07 -0.1,-0.07 -0.1,-0.07 0,-0.08 -0.1,-0.08 -0.1,-0.08 -0.1,-0.09 0,-0.08 -0.1,-0.09 0,-0.1 -0.1,-0.09 0,-0.1 -0.1,-0.09 0,-0.1 0,-0.1 -0.1,-0.1 0,-0.11 0,-0.1 0,-0.1 0,-0.1 c 0,-0.7 0.4,-1.44 1.5,-1.44 1.1,0 2.3,0.84 2.3,2.78 0,2.25 -2.1,4.29 -5.9,4.29 -6.6,0 -8.4,-5.08 -8.4,-7.27 0,-3.89 3.7,-4.64 5.1,-4.94 2.6,-0.49 5.2,-1.04 5.2,-3.78 0,-1.3 -1.2,-5.48 -7.1,-5.48 -0.7,0 -4.6,0 -5.7,2.64 1.9,-0.25 3.1,1.24 3.1,2.64 0,1.14 -0.8,1.74 -1.8,1.74 -1.3,0 -2.8,-1.04 -2.8,-3.28 0,-2.84 2.8,-4.84 7.1,-4.84 8.1,0 10,6.03 10,8.27 0,1.8 -0.9,3.04 -1.5,3.64 -1.4,1.39 -2.8,1.64 -5,2.09 -1.8,0.4 -3.8,0.75 -3.8,2.99 0,1.44 1.2,4.48 5.6,4.48 1.2,0 3.7,-0.35 4.5,-2.29 z" /><path
           style="fill:#000000;stroke-width:0"
           inkscape:connector-curvature="0"
           id="path335568"
           d="m 1305.3,365.93 4.6,0 c 1,0 1.5,0 1.5,0.99 0,0.55 -0.5,0.55 -1.4,0.55 l -4.3,0 c 1.7,7.07 2,8.07 2,8.37 0,0.84 -0.6,1.34 -1.4,1.34 -0.2,0 -1.6,-0.05 -2,-1.79 l -2,-7.92 -4.7,0 c -1,0 -1.5,0 -1.5,-0.95 0,-0.59 0.4,-0.59 1.4,-0.59 l 4.4,0 c -3.6,-14.15 -3.8,-15 -3.8,-15.89 0,-2.7 1.9,-4.59 4.6,-4.59 5.1,0 7.9,7.28 7.9,7.67 0,0.5 -0.4,0.5 -0.6,0.5 -0.4,0 -0.4,-0.15 -0.7,-0.69 -2.1,-5.19 -4.8,-6.38 -6.5,-6.38 -1,0 -1.5,0.65 -1.5,2.29 0,1.2 0.1,1.54 0.3,2.39 z" /><path
           style="fill:#000000;stroke-width:0"
           inkscape:connector-curvature="0"
           id="path335570"
           d="m 1331.6,364.83 -0.1,0.17 -0.1,0.17 -0.1,0.16 -0.1,0.16 -0.1,0.16 -0.1,0.16 -0.1,0.15 -0.1,0.14 -0.1,0.15 -0.1,0.13 -0.2,0.14 -0.1,0.13 -0.1,0.12 -0.1,0.12 -0.2,0.11 -0.1,0.11 -0.2,0.11 -0.1,0.09 -0.1,0.1 -0.2,0.08 -0.2,0.08 -0.1,0.08 -0.2,0.07 -0.2,0.06 -0.1,0.05 -0.2,0.05 -0.2,0.04 -0.2,0.03 -0.2,0.03 -0.2,0.02 -0.2,0.01 -0.2,0.01 0.1,-1.1 c 3.2,0 3.9,-4.08 3.9,-4.38 0,-0.3 -0.1,-0.6 -0.2,-0.85 l -2.5,-9.76 c -0.2,-0.9 -0.2,-1 -1,-1.84 -2.1,-2.75 -4.2,-3.54 -5.6,-3.54 -2.5,0 -3.2,2.74 -3.2,4.68 0,2.49 1.6,8.62 2.8,10.91 1.5,2.94 3.8,4.78 5.8,4.78 l -0.1,1.1 c -5.8,0 -12,-7.32 -12,-14.6 0,-4.68 2.7,-7.97 6.6,-7.97 1,0 3.5,0.2 6.5,3.74 0.4,-2.09 2.1,-3.74 4.5,-3.74 1.8,0 2.9,1.15 3.7,2.74 0.9,1.79 1.5,4.83 1.5,4.93 0,0.5 -0.4,0.5 -0.6,0.5 -0.5,0 -0.5,-0.2 -0.7,-0.89 -0.8,-3.24 -1.7,-6.18 -3.8,-6.18 -1.3,0 -1.5,1.29 -1.5,2.29 0,1.09 0.1,1.49 0.7,3.69 0.5,2.09 0.6,2.59 1.1,4.48 l 1.8,6.97 c 0.3,1.4 0.3,1.5 0.3,1.7 0,0.84 -0.6,1.34 -1.4,1.34 -1.2,0 -2,-1.09 -2.1,-2.19 z" /><path
           style="fill:#000000;stroke-width:0"
           inkscape:connector-curvature="0"
           id="path335572"
           d="m 1343.4,348.94 0,-0.07 0,-0.08 -0.1,-0.07 0,-0.08 0,-0.16 -0.1,-0.16 0,-0.16 0,-0.16 -0.1,-0.16 0,-0.16 0,-0.08 0,-0.07 -0.1,-0.07 0,-0.07 0,-0.07 0,-0.07 0,-0.06 0,-0.06 0,-0.05 0,-0.06 0,-0.05 -0.1,-0.04 0,-0.04 0,-0.04 0,-0.03 0,-0.02 c 0,-0.9 0.7,-1.35 1.5,-1.35 0.6,0 1.5,0.4 1.8,1.4 0.1,0.1 0.7,2.44 1,3.68 l 1.1,4.49 c 0.3,1.09 0.6,2.19 0.8,3.34 0.2,0.84 0.6,2.28 0.7,2.48 0.7,1.55 3.4,6.08 8.1,6.08 2.2,0 2.7,-1.84 2.7,-3.49 0,-3.08 -2.5,-9.46 -3.3,-11.6 -0.4,-1.15 -0.5,-1.74 -0.5,-2.29 0,-2.34 1.8,-4.09 4.1,-4.09 4.7,0 6.5,7.28 6.5,7.67 0,0.5 -0.4,0.5 -0.6,0.5 -0.5,0 -0.5,-0.15 -0.7,-0.89 -1,-3.39 -2.6,-6.18 -5.1,-6.18 -0.8,0 -1.2,0.5 -1.2,1.64 0,1.25 0.5,2.44 0.9,3.54 1,2.64 3.1,8.12 3.1,10.96 0,3.33 -2.2,5.33 -5.8,5.33 -4.4,0 -6.9,-3.19 -7.7,-4.34 -0.3,2.79 -2.3,4.34 -4.6,4.34 -2.3,0 -3.3,-1.95 -3.8,-2.84 -0.8,-1.7 -1.5,-4.63 -1.5,-4.83 0,-0.5 0.5,-0.5 0.6,-0.5 0.5,0 0.6,0.05 0.9,1.14 0.8,3.54 1.8,5.93 3.6,5.93 1,0 1.6,-0.65 1.6,-2.29 0,-1.04 -0.2,-1.59 -0.8,-4.18 z" /><path
           style="fill:#000000;stroke-width:0"
           inkscape:connector-curvature="0"
           id="path335574"
           d="m 1379.3,365.93 4.6,0 c 1,0 1.5,0 1.5,0.99 0,0.55 -0.5,0.55 -1.4,0.55 l -4.3,0 c 1.7,7.07 2,8.07 2,8.37 0,0.84 -0.6,1.34 -1.4,1.34 -0.2,0 -1.6,-0.05 -2,-1.79 l -2,-7.92 -4.7,0 c -1,0 -1.5,0 -1.5,-0.95 0,-0.59 0.4,-0.59 1.4,-0.59 l 4.4,0 c -3.6,-14.15 -3.8,-15 -3.8,-15.89 0,-2.7 1.9,-4.59 4.6,-4.59 5.1,0 7.9,7.28 7.9,7.67 0,0.5 -0.4,0.5 -0.6,0.5 -0.4,0 -0.4,-0.15 -0.7,-0.69 -2.1,-5.19 -4.8,-6.38 -6.5,-6.38 -1,0 -1.5,0.65 -1.5,2.29 0,1.2 0.1,1.54 0.3,2.39 z" /></g>    </g>
    <g
       transform="matrix(0.67189457,0,0,0.67189457,225.80352,282.89881)"
       id="g335796">
      <g
         style="font-style:normal;font-variant:normal;font-weight:normal;font-stretch:normal;letter-spacing:normal;word-spacing:normal;text-anchor:start;fill:none;fill-opacity:1;fill-rule:evenodd;stroke:#000000;stroke-linecap:butt;stroke-linejoin:miter;stroke-miterlimit:10.43299961;stroke-dasharray:none;stroke-dashoffset:0;stroke-opacity:1"
         id="g335798"
         transform="matrix(0.42706697,0,0,-0.42706697,-74.73672,224.21016)"
         xml:space="preserve"
         stroke-miterlimit="10.433"
         font-style="normal"
         font-variant="normal"
         font-weight="normal"
         font-stretch="normal"
         font-size-adjust="none"
         letter-spacing="normal"
         word-spacing="normal"><path
           style="fill:#000000;stroke-width:0"
           inkscape:connector-curvature="0"
           d="m 1117.7,375.84 0.1,0.06 0,0.06 0,0.08 0,0.07 0.1,0.08 0,0.09 0.1,0.09 0,0.09 0.1,0.1 0,0.09 0.1,0.1 0.1,0.1 0,0.11 0.1,0.1 0.1,0.1 0.1,0.1 0.1,0.1 0.1,0.1 0.1,0.09 0.1,0.1 0.1,0.09 0.1,0.08 0.2,0.08 0.1,0.08 0.1,0.08 0.2,0.06 0.1,0.06 0.2,0.06 0.2,0.04 0.1,0.04 0.2,0.04 0.2,0.02 c 0.3,0 1.1,0.1 1.1,0.85 0,0.89 -0.8,0.89 -1.7,0.89 l -8,0 c -0.9,0 -1.6,0 -1.6,-0.89 0,-0.75 0.7,-0.8 1,-0.85 0.7,-0.1 1.8,-0.3 1.8,-2.89 l 1.7,0 c 0,0.65 0,1.99 -0.6,2.89 l 2.7,0 c -0.6,-0.65 -0.8,-1.25 -1.2,-2.04 -0.2,-0.55 -0.7,-1.85 -1,-2.39 0.1,0.44 0.1,1.09 0.1,1.54 l -1.7,0 c 0,-2.94 -1.6,-7.67 -2.4,-10.06 -0.4,-1 -0.4,-1.1 -4,-10.22 -0.9,1.85 -8.6,18.39 -8.6,21.63 l -1.7,0.04 c 0,-3.38 6.3,-17.33 9.5,-24.26 l -1.9,-4.53 -12.6,27.85 c -0.5,0.94 -1.4,2.34 -1.5,2.44 l 7.1,0 c -0.2,-0.2 -0.6,-0.45 -0.6,-1.5 l 1.7,-0.04 c 0,0.34 1.2,1.39 3,1.54 0.8,0.05 1,0.6 1,0.85 0,0.89 -0.8,0.89 -1.6,0.89 l -13.1,0 c -0.9,0 -1.6,0 -1.6,-0.89 0,-0.7 0.6,-0.8 1,-0.85 1.6,-0.25 2.7,-2.59 2.8,-2.74 l 13.4,-29.54 c 0.3,-0.75 0.6,-1.05 1,-1.05 0.6,0 0.7,0.25 1,1.05 z"
           id="path335800" /><path
           style="fill:#000000;stroke-width:0"
           inkscape:connector-curvature="0"
           d="m 1133.7,361.18 0,0.04 0,0.04 0,0.04 0,0.04 0,0.04 0,0.04 0,0.03 0,0.04 0,0.03 0,0.03 0,0.04 0,0.03 0,0.02 0,0.03 0,0.03 0,0.03 -0.1,0.02 0,0.02 0,0.05 0,0.04 0,0.04 0,0.03 0,0.03 -0.1,0.03 0,0.03 0,0.02 0,0.02 -0.1,0.02 0,0.01 0,0.01 -0.1,0.02 0,0 -0.1,0.01 0,0 0,0.01 0,0 -0.1,0 0,0 0,0 -0.1,0.01 0,0 0,0 -0.1,0 0,0 0,0 -0.1,0 0,0 -0.1,0 0,0 -0.1,0 c -2.2,-2.19 -5.4,-2.23 -6.8,-2.23 l 0,-1.25 c 0.8,0 3.1,0 5.1,0.97 l 0,-17.78 c 0,-1.15 0,-1.61 -3.5,-1.61 l -1.4,0 0,-1.25 12.5,0 0,1.25 -1.3,0 c -3.5,0 -3.5,0.46 -3.5,1.61 z"
           id="path335802" /><path
           style="fill:#000000;stroke-width:0"
           inkscape:connector-curvature="0"
           d="m 1192.2,362.29 0.2,0 0.1,0 0.2,0.01 0,0 0.1,0 0.1,0.01 0,0.01 0.1,0.01 0.1,0.01 0.1,0.02 0,0.01 0.1,0.02 0,0.02 0.1,0.03 0.1,0.03 0,0.03 0.1,0.03 0,0.04 0.1,0.04 0,0.05 0.1,0.05 0,0.03 0,0.02 0,0.03 0,0.03 0,0.03 0,0.04 0.1,0.03 0,0.04 0,0.03 0,0.04 0,0.04 0,0.04 0,0.04 0,0.04 0,0.05 0,0.05 c 0,0.99 -0.9,0.99 -1.6,0.99 l -29.9,0 c -0.7,0 -1.6,0 -1.6,-0.99 0,-1 0.9,-1 1.7,-1 z"
           id="path335804" /><path
           style="fill:#000000;stroke-width:0"
           inkscape:connector-curvature="0"
           d="m 1192.3,352.62 0.1,0.01 0.1,0 0.2,0 0.1,0.01 0,0 0.1,0.01 0.1,0.01 0,0.01 0.1,0.01 0.1,0.01 0,0.02 0.1,0.02 0.1,0.02 0,0.02 0.1,0.03 0,0.03 0.1,0.04 0,0.04 0.1,0.04 0,0.04 0,0.03 0.1,0.03 0,0.02 0,0.03 0,0.03 0,0.03 0,0.03 0,0.03 0.1,0.04 0,0.03 0,0.04 0,0.04 0,0.04 0,0.04 0,0.04 0,0.04 0,0.05 0,0.04 c 0,1 -0.9,1 -1.7,1 l -29.7,0 c -0.8,0 -1.7,0 -1.7,-1 0,-1 0.9,-1 1.6,-1 z"
           id="path335806" /><path
           style="fill:#000000;stroke-width:0"
           inkscape:connector-curvature="0"
           d="m 1242.7,375.84 0.1,0.06 0,0.06 0,0.08 0,0.07 0.1,0.08 0,0.09 0.1,0.09 0,0.09 0.1,0.1 0,0.09 0.1,0.1 0.1,0.1 0,0.11 0.1,0.1 0.1,0.1 0.1,0.1 0.1,0.1 0.1,0.1 0.1,0.09 0.1,0.1 0.1,0.09 0.1,0.08 0.2,0.08 0.1,0.08 0.1,0.08 0.2,0.06 0.1,0.06 0.2,0.06 0.2,0.04 0.1,0.04 0.2,0.04 0.2,0.02 c 0.3,0 1.1,0.1 1.1,0.85 0,0.89 -0.8,0.89 -1.7,0.89 l -8,0 c -0.9,0 -1.6,0 -1.6,-0.89 0,-0.75 0.7,-0.8 1,-0.85 0.7,-0.1 1.8,-0.3 1.8,-2.89 l 1.7,0 c 0,0.65 0,1.99 -0.6,2.89 l 2.7,0 c -0.6,-0.65 -0.8,-1.25 -1.2,-2.04 -0.2,-0.55 -0.7,-1.85 -1,-2.39 0.1,0.44 0.1,1.09 0.1,1.54 l -1.7,0 c 0,-2.94 -1.6,-7.67 -2.4,-10.06 -0.4,-1 -0.4,-1.1 -4,-10.22 -0.9,1.85 -8.6,18.39 -8.6,21.63 l -1.7,0.04 c 0,-3.38 6.3,-17.33 9.5,-24.26 l -1.9,-4.53 -12.6,27.85 c -0.5,0.94 -1.4,2.34 -1.5,2.44 l 7.1,0 c -0.2,-0.2 -0.6,-0.45 -0.6,-1.5 l 1.7,-0.04 c 0,0.34 1.2,1.39 3,1.54 0.8,0.05 1,0.6 1,0.85 0,0.89 -0.8,0.89 -1.6,0.89 l -13.1,0 c -0.9,0 -1.6,0 -1.6,-0.89 0,-0.7 0.6,-0.8 1,-0.85 1.6,-0.25 2.7,-2.59 2.8,-2.74 l 13.4,-29.54 c 0.3,-0.75 0.6,-1.05 1,-1.05 0.6,0 0.7,0.25 1,1.05 z"
           id="path335808" /><path
           style="fill:#000000;stroke-width:0"
           inkscape:connector-curvature="0"
           d="m 1264.6,345.35 -1.2,0 c -0.1,-0.77 -0.4,-2.83 -0.9,-3.18 -0.3,-0.21 -2.9,-0.21 -3.4,-0.21 l -6.4,0 c 3.6,3.25 4.8,4.22 6.9,5.86 2.6,2.06 5,4.22 5,7.54 0,4.21 -3.7,6.79 -8.2,6.79 -4.3,0 -7.2,-3.03 -7.2,-6.24 0,-1.78 1.5,-1.95 1.8,-1.95 0.9,0 1.9,0.59 1.9,1.85 0,0.62 -0.2,1.85 -2.1,1.85 1.1,2.47 3.5,3.24 5.1,3.24 3.5,0 5.3,-2.72 5.3,-5.54 0,-3.04 -2.1,-5.45 -3.3,-6.7 l -8.3,-8.3 c -0.4,-0.31 -0.4,-0.38 -0.4,-1.36 l 14.4,0 z"
           id="path335810" /><path
           style="fill:#000000;stroke-width:0"
           inkscape:connector-curvature="0"
           d="m 1317.2,362.29 0.2,0 0.1,0 0.2,0.01 0,0 0.1,0 0.1,0.01 0,0.01 0.1,0.01 0.1,0.01 0.1,0.02 0,0.01 0.1,0.02 0,0.02 0.1,0.03 0.1,0.03 0,0.03 0.1,0.03 0,0.04 0.1,0.04 0,0.05 0.1,0.05 0,0.03 0,0.02 0,0.03 0,0.03 0,0.03 0,0.04 0.1,0.03 0,0.04 0,0.03 0,0.04 0,0.04 0,0.04 0,0.04 0,0.04 0,0.05 0,0.05 c 0,0.99 -0.9,0.99 -1.6,0.99 l -29.9,0 c -0.7,0 -1.6,0 -1.6,-0.99 0,-1 0.9,-1 1.7,-1 z"
           id="path335812" /><path
           style="fill:#000000;stroke-width:0"
           inkscape:connector-curvature="0"
           d="m 1317.3,352.62 0.1,0.01 0.1,0 0.2,0 0.1,0.01 0,0 0.1,0.01 0.1,0.01 0,0.01 0.1,0.01 0.1,0.01 0,0.02 0.1,0.02 0.1,0.02 0,0.02 0.1,0.03 0,0.03 0.1,0.04 0,0.04 0.1,0.04 0,0.04 0,0.03 0.1,0.03 0,0.02 0,0.03 0,0.03 0,0.03 0,0.03 0,0.03 0.1,0.04 0,0.03 0,0.04 0,0.04 0,0.04 0,0.04 0,0.04 0,0.04 0,0.05 0,0.04 c 0,1 -0.9,1 -1.7,1 l -29.7,0 c -0.8,0 -1.7,0 -1.7,-1 0,-1 0.9,-1 1.6,-1 z"
           id="path335814" /><path
           style="fill:#000000;stroke-width:0"
           inkscape:connector-curvature="0"
           d="m 1367.7,375.84 0.1,0.06 0,0.06 0,0.08 0,0.07 0.1,0.08 0,0.09 0.1,0.09 0,0.09 0.1,0.1 0,0.09 0.1,0.1 0.1,0.1 0,0.11 0.1,0.1 0.1,0.1 0.1,0.1 0.1,0.1 0.1,0.1 0.1,0.09 0.1,0.1 0.1,0.09 0.1,0.08 0.2,0.08 0.1,0.08 0.1,0.08 0.2,0.06 0.1,0.06 0.2,0.06 0.2,0.04 0.1,0.04 0.2,0.04 0.2,0.02 c 0.3,0 1.1,0.1 1.1,0.85 0,0.89 -0.8,0.89 -1.7,0.89 l -8,0 c -0.9,0 -1.6,0 -1.6,-0.89 0,-0.75 0.7,-0.8 1,-0.85 0.7,-0.1 1.8,-0.3 1.8,-2.89 l 1.7,0 c 0,0.65 0,1.99 -0.6,2.89 l 2.7,0 c -0.6,-0.65 -0.8,-1.25 -1.2,-2.04 -0.2,-0.55 -0.7,-1.85 -1,-2.39 0.1,0.44 0.1,1.09 0.1,1.54 l -1.7,0 c 0,-2.94 -1.6,-7.67 -2.4,-10.06 -0.4,-1 -0.4,-1.1 -4,-10.22 -0.9,1.85 -8.6,18.39 -8.6,21.63 l -1.7,0.04 c 0,-3.38 6.3,-17.33 9.5,-24.26 l -1.9,-4.53 -12.6,27.85 c -0.5,0.94 -1.4,2.34 -1.5,2.44 l 7.1,0 c -0.2,-0.2 -0.6,-0.45 -0.6,-1.5 l 1.7,-0.04 c 0,0.34 1.2,1.39 3,1.54 0.8,0.05 1,0.6 1,0.85 0,0.89 -0.8,0.89 -1.6,0.89 l -13.1,0 c -0.9,0 -1.6,0 -1.6,-0.89 0,-0.7 0.6,-0.8 1,-0.85 1.6,-0.25 2.7,-2.59 2.8,-2.74 l 13.4,-29.54 c 0.3,-0.75 0.6,-1.05 1,-1.05 0.6,0 0.7,0.25 1,1.05 z"
           id="path335816" /><path
           style="fill:#000000;stroke-width:0"
           inkscape:connector-curvature="0"
           d="m 1390,350.12 0,0.71 0,0.68 -0.1,0.66 0,0.64 -0.1,0.62 0,0.59 -0.1,0.58 -0.1,0.56 -0.2,0.55 -0.1,0.53 -0.2,0.51 -0.2,0.5 -0.2,0.49 -0.2,0.48 -0.3,0.47 -0.1,0.24 -0.2,0.23 c -1,1.6 -3.2,2.99 -6,2.99 l 0,-0.97 c 1.9,0 3.7,-1.15 4.3,-3.18 0.6,-1.88 0.6,-4.39 0.6,-7.42 0,-2.58 0,-5.17 -0.4,-7.36 -0.7,-3.17 -3.1,-3.94 -4.5,-3.94 l 0,0 c -1.6,0 -3.7,0.94 -4.4,3.8 -0.5,2.06 -0.5,4.92 -0.5,7.5 0,2.54 0,5.19 0.5,7.11 0.7,2.76 3,3.49 4.4,3.49 l 0,0.97 c -8.1,0 -8.1,-9.52 -8.1,-12.03 0,-2.51 0,-11.82 8.1,-11.82 8.1,0 8.1,9.31 8.1,11.82 z"
           id="path335818" /></g>    </g>
    <g
       id="g336051"
       transform="matrix(0.73340196,0,0,0.73340196,321.20021,440.63756)">
      <g
         word-spacing="normal"
         letter-spacing="normal"
         font-size-adjust="none"
         font-stretch="normal"
         font-weight="normal"
         font-variant="normal"
         font-style="normal"
         stroke-miterlimit="10.433"
         xml:space="preserve"
         transform="matrix(0.42706697,0,0,-0.42706697,-74.73672,224.21016)"
         id="g336053"
         style="font-style:normal;font-variant:normal;font-weight:normal;font-stretch:normal;letter-spacing:normal;word-spacing:normal;text-anchor:start;fill:none;fill-opacity:1;fill-rule:evenodd;stroke:#000000;stroke-linecap:butt;stroke-linejoin:miter;stroke-miterlimit:10.43299961;stroke-dasharray:none;stroke-dashoffset:0;stroke-opacity:1"><path
           id="path336055"
           d="m 467.21,436.14 0,0.16 0,0.16 0,0.15 0.01,0.14 0.01,0.14 0.02,0.13 0.02,0.12 0.02,0.12 0.03,0.11 0.04,0.1 0.05,0.1 0.05,0.1 0.06,0.08 0.08,0.08 0.08,0.08 0.09,0.07 0.11,0.06 0.12,0.06 0.06,0.03 0.07,0.03 0.07,0.02 0.07,0.03 0.08,0.02 0.08,0.02 0.08,0.03 0.09,0.02 0.09,0.01 0.1,0.02 0.1,0.02 0.1,0.01 0.11,0.02 0.11,0.01 0.12,0.01 0.12,0.01 0.13,0.01 0.13,0.01 0.14,0.01 0.14,0.01 0.14,0.01 0.15,0 0.16,0.01 0.16,0 0.16,0 0.17,0.01 0.18,0 0.18,0 1.3,0 0,1.54 -15.2,0 0,-1.54 1.3,0 c 3.93,0 4.08,-0.55 4.08,-2.34 l 0,-26.25 c 0,-1.8 -0.15,-2.35 -4.08,-2.35 l -1.3,0 0,-1.54 15.2,0 0,1.54 -1.3,0 c -3.93,0 -4.08,0.55 -4.08,2.35 z"
           inkscape:connector-curvature="0"
           style="fill:#000000;stroke-width:0" /><path
           id="path336057"
           d="m 484.36,415.66 0.11,-0.02 0.13,-0.02 0.14,-0.03 0.16,-0.03 0.17,-0.04 0.18,-0.05 0.18,-0.05 0.2,-0.05 0.21,-0.06 0.21,-0.07 0.21,-0.08 0.22,-0.09 0.22,-0.09 0.22,-0.1 0.22,-0.12 0.22,-0.12 0.22,-0.13 0.21,-0.14 0.2,-0.15 0.2,-0.16 0.19,-0.18 0.18,-0.19 0.17,-0.2 0.16,-0.21 0.14,-0.22 0.07,-0.12 0.06,-0.12 0.06,-0.13 0.05,-0.12 0.05,-0.13 0.05,-0.14 0.04,-0.14 0.03,-0.14 0.03,-0.15 0.03,-0.15 0.02,-0.15 0.01,-0.16 0.01,-0.16 0,-0.17 c 0,-2.54 -1.74,-4.53 -5.63,-4.53 -4.18,0 -5.98,2.84 -6.92,7.07 -0.15,0.65 -0.2,0.85 -0.7,0.85 -0.65,0 -0.65,-0.35 -0.65,-1.25 l 0,-6.57 c 0,-0.85 0,-1.2 0.55,-1.2 0.25,0 0.3,0.05 1.25,1 0.1,0.1 0.1,0.2 0.99,1.14 2.19,-2.09 4.44,-2.14 5.48,-2.14 5.73,0 8.02,3.34 8.02,6.93 0,2.64 -1.49,4.13 -2.09,4.73 -1.64,1.59 -3.59,1.99 -5.68,2.39 -2.79,0.55 -6.12,1.2 -6.12,4.09 0,1.74 1.29,3.78 5.57,3.78 5.48,0 5.73,-4.48 5.83,-6.03 0.05,-0.45 0.5,-0.45 0.6,-0.45 0.65,0 0.65,0.25 0.65,1.2 l 0,5.03 c 0,0.85 0,1.2 -0.55,1.2 -0.25,0 -0.35,0 -1,-0.6 -0.15,-0.2 -0.64,-0.65 -0.84,-0.8 -1.9,1.4 -3.94,1.4 -4.69,1.4 -6.07,0 -7.97,-3.34 -7.97,-6.13 0,-1.74 0.8,-3.14 2.15,-4.23 1.59,-1.3 2.98,-1.6 6.57,-2.3 z"
           inkscape:connector-curvature="0"
           style="fill:#000000;stroke-width:0" /><path
           id="path336059"
           d="m 516.46,416.66 -0.01,0.59 -0.05,0.59 -0.07,0.58 -0.09,0.57 -0.13,0.56 -0.15,0.55 -0.17,0.54 -0.2,0.53 -0.22,0.52 -0.25,0.5 -0.26,0.49 -0.29,0.47 -0.31,0.46 -0.33,0.44 -0.35,0.42 -0.36,0.41 -0.39,0.39 -0.4,0.36 -0.41,0.35 -0.44,0.33 -0.44,0.3 -0.46,0.29 -0.48,0.26 -0.48,0.23 -0.5,0.21 -0.51,0.19 -0.52,0.16 -0.53,0.13 -0.54,0.1 -0.55,0.08 -0.56,0.04 -0.56,0.02 -0.05,-1.1 c 2.19,0 4.34,-1.1 5.63,-3.24 1.3,-2.14 1.3,-5.03 1.3,-6.92 0,-1.79 0,-4.49 -1.1,-6.68 -1.09,-2.24 -3.28,-3.68 -5.78,-3.68 l 0,0 c -2.14,0 -4.33,1.04 -5.68,3.34 -1.24,2.19 -1.24,5.23 -1.24,7.02 0,1.94 0,4.63 1.2,6.82 1.34,2.3 3.68,3.34 5.67,3.34 l 0.05,1.1 c -6.22,0 -11.06,-5.43 -11.06,-11.66 0,-6.43 5.18,-11.21 11.01,-11.21 6.03,0 11.06,4.88 11.06,11.21 z"
           inkscape:connector-curvature="0"
           style="fill:#000000;stroke-width:0" /><path
           id="path336061"
           d="m 525.83,416.86 0,0.38 0.01,0.36 0.01,0.36 0.02,0.35 0.03,0.34 0.03,0.34 0.04,0.32 0.04,0.32 0.05,0.31 0.05,0.3 0.05,0.29 0.06,0.29 0.14,0.54 0.15,0.52 0.16,0.49 0.19,0.46 0.19,0.43 0.21,0.4 0.22,0.37 0.23,0.35 0.24,0.33 0.25,0.3 0.26,0.28 0.26,0.25 0.27,0.23 0.28,0.21 0.27,0.19 0.28,0.17 0.29,0.15 0.28,0.13 0.28,0.11 0.28,0.09 0.28,0.08 0.28,0.06 0.27,0.05 0.26,0.03 0.26,0.02 0.25,0.01 c 0.45,0 3.59,-0.05 5.33,-1.84 -2.04,-0.15 -2.34,-1.64 -2.34,-2.29 0,-1.3 0.9,-2.3 2.29,-2.3 1.3,0 2.29,0.85 2.29,2.34 0,3.4 -3.78,5.34 -7.62,5.34 -6.22,0 -10.8,-5.38 -10.8,-11.56 0,-6.38 4.92,-11.31 10.7,-11.31 6.68,0 8.27,5.98 8.27,6.48 0,0.5 -0.49,0.5 -0.65,0.5 -0.44,0 -0.54,-0.2 -0.64,-0.5 -1.45,-4.63 -4.68,-5.23 -6.53,-5.23 -2.64,0 -7.02,2.14 -7.02,10.16 z"
           inkscape:connector-curvature="0"
           style="fill:#000000;stroke-width:0" /><path
           id="path336063"
           d="m 545.48,409.79 0,-0.11 0,-0.1 -0.01,-0.19 -0.01,-0.18 -0.01,-0.17 -0.02,-0.15 -0.02,-0.14 -0.03,-0.14 -0.04,-0.12 -0.04,-0.11 -0.05,-0.11 -0.06,-0.09 -0.06,-0.09 -0.07,-0.08 -0.08,-0.07 -0.09,-0.06 -0.1,-0.06 -0.11,-0.05 -0.12,-0.04 -0.13,-0.04 -0.14,-0.03 -0.15,-0.03 -0.17,-0.02 -0.17,-0.02 -0.19,-0.01 -0.1,-0.01 -0.1,0 -0.11,-0.01 -0.11,0 -0.11,-0.01 -0.12,0 -0.12,0 -0.12,0 -0.13,0 -0.13,-0.01 -0.13,0 -0.14,0 -0.15,0 -0.14,0 -0.15,0 -0.16,0 0,-1.54 11.21,0 0,1.54 c -3.33,0 -3.88,0 -3.88,2.25 l 0,9.16 c 0,5.18 3.53,7.97 6.72,7.97 3.14,0 3.69,-2.69 3.69,-5.53 l 0,-11.6 c 0,-2.25 -0.55,-2.25 -3.89,-2.25 l 0,-1.54 11.21,0 0,1.54 c -2.59,0 -3.84,0 -3.88,1.5 l 0,9.51 c 0,4.29 0,5.83 -1.55,7.63 -0.7,0.84 -2.34,1.84 -5.23,1.84 -4.19,0 -6.38,-2.99 -7.22,-4.88 l 0,17.43 -7.18,-0.55 0,-1.54 c 3.49,0 3.89,-0.35 3.89,-2.79 z"
           inkscape:connector-curvature="0"
           style="fill:#000000;stroke-width:0" /><path
           id="path336065"
           d="m 591.46,416.66 -0.01,0.59 -0.05,0.59 -0.07,0.58 -0.09,0.57 -0.13,0.56 -0.15,0.55 -0.17,0.54 -0.2,0.53 -0.22,0.52 -0.25,0.5 -0.26,0.49 -0.29,0.47 -0.31,0.46 -0.33,0.44 -0.35,0.42 -0.36,0.41 -0.39,0.39 -0.4,0.36 -0.41,0.35 -0.44,0.33 -0.44,0.3 -0.46,0.29 -0.48,0.26 -0.48,0.23 -0.5,0.21 -0.51,0.19 -0.52,0.16 -0.53,0.13 -0.54,0.1 -0.55,0.08 -0.56,0.04 -0.56,0.02 -0.05,-1.1 c 2.19,0 4.34,-1.1 5.63,-3.24 1.3,-2.14 1.3,-5.03 1.3,-6.92 0,-1.79 0,-4.49 -1.1,-6.68 -1.09,-2.24 -3.28,-3.68 -5.78,-3.68 l 0,0 c -2.14,0 -4.33,1.04 -5.68,3.34 -1.24,2.19 -1.24,5.23 -1.24,7.02 0,1.94 0,4.63 1.2,6.82 1.34,2.3 3.68,3.34 5.67,3.34 l 0.05,1.1 c -6.22,0 -11.05,-5.43 -11.05,-11.66 0,-6.43 5.17,-11.21 11,-11.21 6.03,0 11.06,4.88 11.06,11.21 z"
           inkscape:connector-curvature="0"
           style="fill:#000000;stroke-width:0" /><path
           id="path336067"
           d="m 601.32,422.54 0,5.48 -6.92,-0.55 0,-1.54 c 3.48,0 3.88,-0.35 3.88,-2.79 l 0,-13.35 c 0,-2.25 -0.55,-2.25 -3.88,-2.25 l 0,-1.54 12,0 0,1.54 -1.05,0 c -3.68,0 -3.78,0.55 -3.78,2.35 l 0,7.66 c 0,4.94 2.09,9.37 5.88,9.37 0.34,0 0.45,0 0.54,-0.05 -0.15,-0.05 -1.14,-0.65 -1.14,-1.94 0,-1.39 1.05,-2.14 2.14,-2.14 0.9,0 2.14,0.59 2.14,2.19 0,1.59 -1.54,3.04 -3.68,3.04 -3.64,0 -5.43,-3.34 -6.13,-5.48 z"
           inkscape:connector-curvature="0"
           style="fill:#000000;stroke-width:0" /><path
           id="path336069"
           d="m 620.82,428.02 -6.98,-0.55 0,-1.54 c 3.24,0 3.69,-0.31 3.69,-2.75 l 0,-13.39 c 0,-2.25 -0.55,-2.25 -3.88,-2.25 l 0,-1.54 10.65,0 0,1.54 c -3.28,0 -3.48,0.25 -3.48,2.19 z"
           inkscape:connector-curvature="0"
           style="fill:#000000;stroke-width:0" /><path
           id="path336071"
           d="m 621.02,436.68 -0.01,0.15 -0.01,0.15 -0.02,0.14 -0.02,0.13 -0.03,0.14 -0.04,0.13 -0.04,0.13 -0.05,0.12 -0.06,0.12 -0.06,0.11 -0.06,0.11 -0.07,0.11 -0.08,0.1 -0.08,0.1 -0.08,0.09 -0.09,0.09 -0.09,0.09 -0.1,0.07 -0.1,0.08 -0.11,0.07 -0.1,0.06 -0.11,0.06 -0.12,0.06 -0.11,0.05 -0.12,0.04 -0.12,0.04 -0.13,0.03 -0.12,0.03 -0.13,0.02 -0.13,0.01 -0.12,0.01 -0.13,0 c -1.55,0 -2.65,-1.34 -2.65,-2.64 0,-1.34 1.1,-2.64 2.65,-2.64 1.39,0 2.64,1.05 2.64,2.64 z"
           inkscape:connector-curvature="0"
           style="fill:#000000;stroke-width:0" /><path
           id="path336073"
           d="m 631.83,416.86 0,0.38 0.01,0.36 0.01,0.36 0.02,0.35 0.03,0.34 0.03,0.34 0.04,0.32 0.04,0.32 0.05,0.31 0.05,0.3 0.05,0.29 0.06,0.29 0.14,0.54 0.15,0.52 0.16,0.49 0.19,0.46 0.19,0.43 0.21,0.4 0.22,0.37 0.23,0.35 0.24,0.33 0.25,0.3 0.26,0.28 0.26,0.25 0.27,0.23 0.28,0.21 0.27,0.19 0.28,0.17 0.29,0.15 0.28,0.13 0.28,0.11 0.28,0.09 0.28,0.08 0.28,0.06 0.27,0.05 0.26,0.03 0.26,0.02 0.25,0.01 c 0.45,0 3.59,-0.05 5.33,-1.84 -2.04,-0.15 -2.34,-1.64 -2.34,-2.29 0,-1.3 0.9,-2.3 2.29,-2.3 1.3,0 2.29,0.85 2.29,2.34 0,3.4 -3.78,5.34 -7.62,5.34 -6.22,0 -10.8,-5.38 -10.8,-11.56 0,-6.38 4.92,-11.31 10.7,-11.31 6.68,0 8.27,5.98 8.27,6.48 0,0.5 -0.49,0.5 -0.65,0.5 -0.44,0 -0.54,-0.2 -0.64,-0.5 -1.45,-4.63 -4.68,-5.23 -6.53,-5.23 -2.64,0 -7.02,2.14 -7.02,10.16 z"
           inkscape:connector-curvature="0"
           style="fill:#000000;stroke-width:0" /><path
           id="path336075"
           d="m 676.31,421.74 -0.15,1.3 0,13.44 c 0,1.65 0.1,2 2.44,2 l 4.43,0 c 7.92,0 7.92,-5.28 7.92,-7.72 0,-2.35 0,-7.72 -7.92,-7.72 l -6.87,0 0.15,-1.3 8.42,0 c 5.97,0 11.35,4.04 11.35,9.02 0,4.88 -4.93,9.26 -11.75,9.26 l -17.59,0 0,-1.54 1.2,0 c 3.83,0 3.94,-0.55 3.94,-2.34 l 0,-26.25 c 0,-1.8 -0.11,-2.35 -3.94,-2.35 l -1.2,0 0,-1.54 14.7,0 0,1.54 -1.2,0 c -3.83,0 -3.93,0.55 -3.93,2.35 z"
           inkscape:connector-curvature="0"
           style="fill:#000000;stroke-width:0" /><path
           id="path336077"
           d="m 707.32,422.54 0,5.48 -6.92,-0.55 0,-1.54 c 3.48,0 3.88,-0.35 3.88,-2.79 l 0,-13.35 c 0,-2.25 -0.55,-2.25 -3.88,-2.25 l 0,-1.54 12,0 0,1.54 -1.05,0 c -3.68,0 -3.78,0.55 -3.78,2.35 l 0,7.66 c 0,4.94 2.09,9.37 5.88,9.37 0.34,0 0.45,0 0.54,-0.05 -0.15,-0.05 -1.14,-0.65 -1.14,-1.94 0,-1.39 1.05,-2.14 2.14,-2.14 0.9,0 2.14,0.59 2.14,2.19 0,1.59 -1.54,3.04 -3.68,3.04 -3.64,0 -5.43,-3.34 -6.13,-5.48 z"
           inkscape:connector-curvature="0"
           style="fill:#000000;stroke-width:0" /><path
           id="path336079"
           d="m 741.46,416.66 -0.01,0.59 -0.05,0.59 -0.07,0.58 -0.09,0.57 -0.13,0.56 -0.15,0.55 -0.17,0.54 -0.2,0.53 -0.22,0.52 -0.25,0.5 -0.26,0.49 -0.29,0.47 -0.31,0.46 -0.33,0.44 -0.35,0.42 -0.36,0.41 -0.39,0.39 -0.4,0.36 -0.41,0.35 -0.44,0.33 -0.44,0.3 -0.46,0.29 -0.48,0.26 -0.48,0.23 -0.5,0.21 -0.51,0.19 -0.52,0.16 -0.53,0.13 -0.54,0.1 -0.55,0.08 -0.56,0.04 -0.56,0.02 -0.05,-1.1 c 2.19,0 4.34,-1.1 5.63,-3.24 1.3,-2.14 1.3,-5.03 1.3,-6.92 0,-1.79 0,-4.49 -1.1,-6.68 -1.09,-2.24 -3.28,-3.68 -5.78,-3.68 l 0,0 c -2.14,0 -4.33,1.04 -5.68,3.34 -1.24,2.19 -1.24,5.23 -1.24,7.02 0,1.94 0,4.63 1.2,6.82 1.34,2.3 3.68,3.34 5.67,3.34 l 0.05,1.1 c -6.22,0 -11.05,-5.43 -11.05,-11.66 0,-6.43 5.17,-11.21 11,-11.21 6.03,0 11.06,4.88 11.06,11.21 z"
           inkscape:connector-curvature="0"
           style="fill:#000000;stroke-width:0" /><path
           id="path336081"
           d="m 750.83,416.86 0,0.38 0.01,0.36 0.01,0.36 0.02,0.35 0.03,0.34 0.03,0.34 0.04,0.32 0.04,0.32 0.05,0.31 0.05,0.3 0.05,0.29 0.06,0.29 0.14,0.54 0.15,0.52 0.16,0.49 0.19,0.46 0.19,0.43 0.21,0.4 0.22,0.37 0.23,0.35 0.24,0.33 0.25,0.3 0.26,0.28 0.26,0.25 0.27,0.23 0.28,0.21 0.27,0.19 0.28,0.17 0.29,0.15 0.28,0.13 0.28,0.11 0.28,0.09 0.28,0.08 0.28,0.06 0.27,0.05 0.26,0.03 0.26,0.02 0.25,0.01 c 0.45,0 3.59,-0.05 5.33,-1.84 -2.04,-0.15 -2.34,-1.64 -2.34,-2.29 0,-1.3 0.9,-2.3 2.29,-2.3 1.3,0 2.29,0.85 2.29,2.34 0,3.4 -3.78,5.34 -7.62,5.34 -6.22,0 -10.8,-5.38 -10.8,-11.56 0,-6.38 4.92,-11.31 10.7,-11.31 6.68,0 8.27,5.98 8.27,6.48 0,0.5 -0.49,0.5 -0.65,0.5 -0.44,0 -0.54,-0.2 -0.64,-0.5 -1.45,-4.63 -4.68,-5.23 -6.53,-5.23 -2.64,0 -7.02,2.14 -7.02,10.16 z"
           inkscape:connector-curvature="0"
           style="fill:#000000;stroke-width:0" /><path
           id="path336083"
           d="m 772.53,417.51 0.05,1.04 c 0.3,7.43 4.48,8.67 6.18,8.67 5.13,0 5.63,-6.72 5.63,-8.67 l -11.81,0 -0.05,-1.04 13.9,0 c 1.09,0 1.24,0 1.24,1.04 0,4.93 -2.69,9.77 -8.91,9.77 -5.78,0 -10.36,-5.14 -10.36,-11.36 0,-6.67 5.22,-11.51 10.95,-11.51 6.08,0 8.32,5.53 8.32,6.48 0,0.5 -0.4,0.6 -0.65,0.6 -0.44,0 -0.54,-0.3 -0.64,-0.7 -1.75,-5.13 -6.23,-5.13 -6.73,-5.13 -2.49,0 -4.48,1.49 -5.63,3.34 -1.49,2.39 -1.49,5.67 -1.49,7.47 z"
           inkscape:connector-curvature="0"
           style="fill:#000000;stroke-width:0" /><path
           id="path336085"
           d="m 799.36,415.66 0.11,-0.02 0.13,-0.02 0.14,-0.03 0.16,-0.03 0.17,-0.04 0.18,-0.05 0.18,-0.05 0.2,-0.05 0.21,-0.06 0.21,-0.07 0.21,-0.08 0.22,-0.09 0.22,-0.09 0.22,-0.1 0.22,-0.12 0.22,-0.12 0.22,-0.13 0.21,-0.14 0.2,-0.15 0.2,-0.16 0.19,-0.18 0.18,-0.19 0.17,-0.2 0.16,-0.21 0.14,-0.22 0.07,-0.12 0.06,-0.12 0.06,-0.13 0.05,-0.12 0.05,-0.13 0.05,-0.14 0.04,-0.14 0.03,-0.14 0.03,-0.15 0.03,-0.15 0.02,-0.15 0.01,-0.16 0.01,-0.16 0,-0.17 c 0,-2.54 -1.74,-4.53 -5.63,-4.53 -4.18,0 -5.98,2.84 -6.92,7.07 -0.15,0.65 -0.2,0.85 -0.7,0.85 -0.64,0 -0.64,-0.35 -0.64,-1.25 l 0,-6.57 c 0,-0.85 0,-1.2 0.54,-1.2 0.25,0 0.3,0.05 1.25,1 0.09,0.1 0.09,0.2 0.99,1.14 2.19,-2.09 4.44,-2.14 5.48,-2.14 5.73,0 8.02,3.34 8.02,6.93 0,2.64 -1.49,4.13 -2.09,4.73 -1.64,1.59 -3.59,1.99 -5.68,2.39 -2.79,0.55 -6.13,1.2 -6.13,4.09 0,1.74 1.3,3.78 5.58,3.78 5.48,0 5.73,-4.48 5.83,-6.03 0.05,-0.45 0.5,-0.45 0.6,-0.45 0.65,0 0.65,0.25 0.65,1.2 l 0,5.03 c 0,0.85 0,1.2 -0.55,1.2 -0.25,0 -0.35,0 -0.99,-0.6 -0.16,-0.2 -0.65,-0.65 -0.85,-0.8 -1.9,1.4 -3.94,1.4 -4.69,1.4 -6.08,0 -7.96,-3.34 -7.96,-6.13 0,-1.74 0.79,-3.14 2.13,-4.23 1.6,-1.3 2.99,-1.6 6.58,-2.3 z"
           inkscape:connector-curvature="0"
           style="fill:#000000;stroke-width:0" /><path
           id="path336087"
           d="m 819.36,415.66 0.11,-0.02 0.13,-0.02 0.14,-0.03 0.16,-0.03 0.17,-0.04 0.18,-0.05 0.18,-0.05 0.2,-0.05 0.21,-0.06 0.21,-0.07 0.21,-0.08 0.22,-0.09 0.22,-0.09 0.22,-0.1 0.22,-0.12 0.22,-0.12 0.22,-0.13 0.21,-0.14 0.2,-0.15 0.2,-0.16 0.19,-0.18 0.18,-0.19 0.17,-0.2 0.16,-0.21 0.14,-0.22 0.07,-0.12 0.06,-0.12 0.06,-0.13 0.05,-0.12 0.05,-0.13 0.05,-0.14 0.04,-0.14 0.03,-0.14 0.03,-0.15 0.03,-0.15 0.02,-0.15 0.01,-0.16 0.01,-0.16 0,-0.17 c 0,-2.54 -1.74,-4.53 -5.63,-4.53 -4.18,0 -5.98,2.84 -6.92,7.07 -0.15,0.65 -0.2,0.85 -0.7,0.85 -0.64,0 -0.64,-0.35 -0.64,-1.25 l 0,-6.57 c 0,-0.85 0,-1.2 0.54,-1.2 0.25,0 0.3,0.05 1.25,1 0.09,0.1 0.09,0.2 0.99,1.14 2.19,-2.09 4.44,-2.14 5.48,-2.14 5.73,0 8.02,3.34 8.02,6.93 0,2.64 -1.49,4.13 -2.09,4.73 -1.64,1.59 -3.59,1.99 -5.68,2.39 -2.79,0.55 -6.13,1.2 -6.13,4.09 0,1.74 1.3,3.78 5.58,3.78 5.48,0 5.73,-4.48 5.83,-6.03 0.05,-0.45 0.5,-0.45 0.6,-0.45 0.65,0 0.65,0.25 0.65,1.2 l 0,5.03 c 0,0.85 0,1.2 -0.55,1.2 -0.25,0 -0.35,0 -0.99,-0.6 -0.16,-0.2 -0.65,-0.65 -0.85,-0.8 -1.9,1.4 -3.94,1.4 -4.69,1.4 -6.08,0 -7.96,-3.34 -7.96,-6.13 0,-1.74 0.79,-3.14 2.13,-4.23 1.6,-1.3 2.99,-1.6 6.58,-2.3 z"
           inkscape:connector-curvature="0"
           style="fill:#000000;stroke-width:0" /></g>    </g>
    <path
       sodipodi:type="star"
       style="color:#000000;clip-rule:nonzero;display:inline;overflow:visible;visibility:visible;opacity:1;isolation:auto;mix-blend-mode:normal;color-interpolation:sRGB;color-interpolation-filters:linearRGB;solid-color:#000000;solid-opacity:1;fill:#008000;fill-opacity:1;fill-rule:evenodd;stroke:#008000;stroke-width:1;stroke-linecap:butt;stroke-linejoin:miter;stroke-miterlimit:4;stroke-dasharray:none;stroke-dashoffset:0;stroke-opacity:1;color-rendering:auto;image-rendering:auto;shape-rendering:auto;text-rendering:auto;enable-background:accumulate"
       id="path336226"
       sodipodi:sides="3"
       sodipodi:cx="480"
       sodipodi:cy="387.36221"
       sodipodi:r1="7.0710678"
       sodipodi:r2="3.5355339"
       sodipodi:arg1="0.78539816"
       sodipodi:arg2="1.8325957"
       inkscape:flatsided="false"
       inkscape:rounded="0"
       inkscape:randomized="0"
       d="m 485,392.36221 -5.91506,-1.58493 -5.91507,-1.58494 4.33013,-4.33013 4.33013,-4.33012 1.58493,5.91506 z"
       inkscape:transform-center-x="0.023893886"
       transform="matrix(0.27868698,0.26912489,-0.26912489,0.27868698,435.43595,121.42794)"
       inkscape:transform-center-y="0.66405803" />
  </g>
  <g
     transform="translate(-331.31226,-213.53162)"
     inkscape:label="boundary"
     id="layer5"
     inkscape:groupmode="layer">
    <rect
       y="213.53162"
       x="331.31226"
       height="298.94687"
       width="298.94687"
       id="rect328786"
       style="color:#000000;clip-rule:nonzero;display:inline;overflow:visible;visibility:visible;opacity:1;isolation:auto;mix-blend-mode:normal;color-interpolation:sRGB;color-interpolation-filters:linearRGB;solid-color:#000000;solid-opacity:1;fill:none;fill-opacity:1;fill-rule:evenodd;stroke:none;stroke-width:1;stroke-linecap:butt;stroke-linejoin:miter;stroke-miterlimit:4;stroke-dasharray:none;stroke-dashoffset:0;stroke-opacity:1;color-rendering:auto;image-rendering:auto;shape-rendering:auto;text-rendering:auto;enable-background:accumulate" />
    <g
       id="g333063"
       transform="matrix(0.705712,0,0,0.705712,154.32499,280.59852)">
      <g
         word-spacing="normal"
         letter-spacing="normal"
         font-size-adjust="none"
         font-stretch="normal"
         font-weight="normal"
         font-variant="normal"
         font-style="normal"
         stroke-miterlimit="10.433"
         xml:space="preserve"
         transform="matrix(0.42706697,0,0,-0.42706697,-74.73672,224.21016)"
         id="g333065"
         style="font-style:normal;font-variant:normal;font-weight:normal;font-stretch:normal;letter-spacing:normal;word-spacing:normal;text-anchor:start;fill:none;fill-opacity:1;fill-rule:evenodd;stroke:#000000;stroke-linecap:butt;stroke-linejoin:miter;stroke-miterlimit:10.43299961;stroke-dasharray:none;stroke-dashoffset:0;stroke-opacity:1"><path
           id="path333067"
           d="m 1242.6,377.88 0,0.05 0,0.06 0,0.05 0,0.05 0,0.05 0,0.05 0,0.04 0,0.05 0,0.04 0,0.04 0,0.04 0,0.04 0,0.04 0,0.04 0,0.03 0,0.04 0,0.03 0,0.03 0,0.06 0,0.05 0,0.05 0,0.05 -0.1,0.04 0,0.04 0,0.04 0,0.03 -0.1,0.02 0,0.03 0,0.02 -0.1,0.02 0,0.01 0,0.01 -0.1,0 0,0.01 0,0.01 0,0 -0.1,0.01 0,0 0,0.01 -0.1,0 0,0 0,0 -0.1,0.01 0,0 -0.1,0 0,0 -0.1,0 0,0 0,0.01 -0.1,0 0,0 -0.1,0 c -3.1,-3.19 -7.5,-3.19 -9.1,-3.19 l 0,-1.55 c 1,0 4,0 6.6,1.3 l 0,-25.81 c 0,-1.79 -0.2,-2.39 -4.7,-2.39 l -1.6,0 0,-1.54 16.2,0 0,1.54 -1.6,0 c -4.5,0 -4.7,0.55 -4.7,2.39 z"
           inkscape:connector-curvature="0"
           style="fill:#000000;stroke-width:0" /></g>    </g>
    <g
       id="g333305"
       transform="matrix(0.705712,0,0,0.705712,153.84278,367.18141)">
      <g
         id="g333307"
         transform="matrix(0.42706697,0,0,-0.42706697,-74.73672,224.21016)"
         xml:space="preserve"
         stroke-miterlimit="10.433"
         font-style="normal"
         font-variant="normal"
         font-weight="normal"
         font-stretch="normal"
         font-size-adjust="none"
         letter-spacing="normal"
         word-spacing="normal"
         style="font-style:normal;font-variant:normal;font-weight:normal;font-stretch:normal;letter-spacing:normal;word-spacing:normal;text-anchor:start;fill:none;fill-opacity:1;fill-rule:evenodd;stroke:#000000;stroke-linecap:butt;stroke-linejoin:miter;stroke-miterlimit:10.43299961;stroke-dasharray:none;stroke-dashoffset:0;stroke-opacity:1"><path
           d="m 1234.3,349.84 5.3,5.12 c 7.8,6.88 10.8,9.57 10.8,14.55 0,5.68 -4.5,9.67 -10.6,9.67 -5.6,0 -9.3,-4.59 -9.3,-9.02 0,-2.79 2.5,-2.79 2.6,-2.79 0.9,0 2.6,0.6 2.6,2.64 0,1.29 -0.9,2.59 -2.6,2.59 -0.4,0 -0.5,0 -0.7,-0.05 1.2,3.24 3.9,5.08 6.8,5.08 4.5,0 6.6,-4.03 6.6,-8.12 0,-3.98 -2.5,-7.92 -5.2,-11.01 l -9.6,-10.66 c -0.5,-0.54 -0.5,-0.64 -0.5,-1.84 l 18.5,0 1.4,8.67 -1.3,0 c -0.2,-1.5 -0.6,-3.69 -1.1,-4.44 -0.3,-0.39 -3.6,-0.39 -4.7,-0.39 z"
           id="path333309"
           inkscape:connector-curvature="0"
           style="fill:#000000;stroke-width:0" /></g>    </g>
  </g>
</svg>
