<?xml version="1.0" encoding="UTF-8" standalone="no"?>
<!-- Created with Inkscape (http://www.inkscape.org/) -->

<svg
   xmlns:dc="http://purl.org/dc/elements/1.1/"
   xmlns:cc="http://creativecommons.org/ns#"
   xmlns:rdf="http://www.w3.org/1999/02/22-rdf-syntax-ns#"
   xmlns:svg="http://www.w3.org/2000/svg"
   xmlns="http://www.w3.org/2000/svg"
   xmlns:sodipodi="http://sodipodi.sourceforge.net/DTD/sodipodi-0.dtd"
   xmlns:inkscape="http://www.inkscape.org/namespaces/inkscape"
   width="204.8127mm"
   height="168.93018mm"
   viewBox="0 0 725.71429 598.57149"
   id="svg6660"
   version="1.1"
   inkscape:version="0.91 r13725"
   sodipodi:docname="mixer.svg"
   inkscape:export-filename="/home/sandeep/Desktop/figures/mixer.png"
   inkscape:export-xdpi="90"
   inkscape:export-ydpi="90">
  <sodipodi:namedview
     id="base"
     pagecolor="#ffffff"
     bordercolor="#666666"
     borderopacity="1.0"
     inkscape:pageopacity="0.0"
     inkscape:pageshadow="2"
     inkscape:zoom="0.7"
     inkscape:cx="38.554104"
     inkscape:cy="274.57865"
     inkscape:document-units="px"
     inkscape:current-layer="layer5"
     showgrid="false"
     inkscape:object-nodes="true"
     inkscape:snap-others="false"
     inkscape:snap-midpoints="false"
     inkscape:snap-smooth-nodes="true"
     inkscape:window-width="1317"
     inkscape:window-height="744"
     inkscape:window-x="49"
     inkscape:window-y="24"
     inkscape:window-maximized="1"
     fit-margin-top="0"
     fit-margin-left="0"
     fit-margin-right="0"
     fit-margin-bottom="0" />
  <defs
     id="defs6662">
    <marker
       inkscape:isstock="true"
       style="overflow:visible"
       id="marker183140"
       refX="0"
       refY="0"
       orient="auto"
       inkscape:stockid="Arrow1Mstart">
      <path
         inkscape:connector-curvature="0"
         transform="matrix(0.4,0,0,0.4,4,0)"
         style="fill:#ff0000;fill-opacity:1;fill-rule:evenodd;stroke:#ff0000;stroke-width:1pt;stroke-opacity:1"
         d="M 0,0 5,-5 -12.5,0 5,5 0,0 Z"
         id="path183142" />
    </marker>
    <marker
       inkscape:isstock="true"
       style="overflow:visible"
       id="marker183140-7"
       refX="0"
       refY="0"
       orient="auto"
       inkscape:stockid="Arrow1Mstart">
      <path
         inkscape:connector-curvature="0"
         transform="matrix(0.4,0,0,0.4,4,0)"
         style="fill:#ff0000;fill-opacity:1;fill-rule:evenodd;stroke:#ff0000;stroke-width:1pt;stroke-opacity:1"
         d="M 0,0 5,-5 -12.5,0 5,5 0,0 Z"
         id="path183142-5" />
    </marker>
    <marker
       inkscape:isstock="true"
       style="overflow:visible"
       id="marker183140-5"
       refX="0"
       refY="0"
       orient="auto"
       inkscape:stockid="Arrow1Mstart">
      <path
         inkscape:connector-curvature="0"
         transform="matrix(0.4,0,0,0.4,4,0)"
         style="fill:#ff0000;fill-opacity:1;fill-rule:evenodd;stroke:#ff0000;stroke-width:1pt;stroke-opacity:1"
         d="M 0,0 5,-5 -12.5,0 5,5 0,0 Z"
         id="path183142-6" />
    </marker>
  </defs>
  <metadata
     id="metadata6665">
    <rdf:RDF>
      <cc:Work
         rdf:about="">
        <dc:format>image/svg+xml</dc:format>
        <dc:type
           rdf:resource="http://purl.org/dc/dcmitype/StillImage" />
        <dc:title />
      </cc:Work>
    </rdf:RDF>
  </metadata>
  <g
     style="display:inline"
     inkscape:label="MixerFill"
     id="layer4"
     inkscape:groupmode="layer"
     sodipodi:insensitive="true"
     transform="translate(-7.1428571,-198.07646)">
    <path
       inkscape:connector-curvature="0"
       id="rect7574"
       d="m 203.42773,255.78906 0,51.53906 -78.46289,0 0,90.06836 78.46289,0 0,209.93164 -78.46289,0 0,90.06836 78.46289,0 0,51.53907 293.14454,0 0,-201.53907 76.46289,0 0,-90.06836 -76.46289,0 0,-201.53906 -293.14454,0 z"
       style="display:inline;fill:#ffffa0;fill-opacity:1;fill-rule:evenodd;stroke:none;stroke-width:6.8544507;stroke-miterlimit:4;stroke-dasharray:none;stroke-dashoffset:0;stroke-opacity:1" />
    <path
       style="display:inline;fill:none;fill-rule:evenodd;stroke:#ff0000;stroke-width:4.32481575;stroke-linecap:butt;stroke-linejoin:miter;stroke-miterlimit:4;stroke-dasharray:none;stroke-opacity:1;marker-start:url(#marker183140);enable-background:new"
       d="m 155.57036,350.8034 -52.85501,0"
       id="path192471"
       inkscape:connector-curvature="0" />
    <path
       style="display:inline;fill:none;fill-rule:evenodd;stroke:#ff0000;stroke-width:4.32481575;stroke-linecap:butt;stroke-linejoin:miter;stroke-miterlimit:4;stroke-dasharray:none;stroke-opacity:1;marker-start:url(#marker183140-7);enable-background:new"
       d="m 154.86871,650.64792 -52.85502,0"
       id="path192471-3"
       inkscape:connector-curvature="0" />
    <path
       style="display:inline;fill:none;fill-rule:evenodd;stroke:#ff0000;stroke-width:4.32481575;stroke-linecap:butt;stroke-linejoin:miter;stroke-miterlimit:4;stroke-dasharray:none;stroke-opacity:1;marker-start:url(#marker183140-5);enable-background:new"
       d="m 596.29728,499.21935 -52.85501,0"
       id="path192471-2"
       inkscape:connector-curvature="0" />
    <g
       id="g8044"
       transform="matrix(0.65329204,0,0,0.65329204,-690.60328,60.595118)">
      <g
         word-spacing="normal"
         letter-spacing="normal"
         font-size-adjust="none"
         font-stretch="normal"
         font-weight="normal"
         font-variant="normal"
         font-style="normal"
         stroke-miterlimit="10.433"
         xml:space="preserve"
         transform="matrix(1.0629921,0,0,-1.0629921,-186.02362,789.27165)"
         id="content"
         style="font-style:normal;font-variant:normal;font-weight:normal;font-stretch:normal;letter-spacing:normal;word-spacing:normal;text-anchor:start;fill:none;fill-opacity:1;fill-rule:evenodd;stroke:#000000;stroke-linecap:butt;stroke-linejoin:miter;stroke-miterlimit:10.43299961;stroke-dasharray:none;stroke-dashoffset:0;stroke-opacity:1"><path
           id="path8047"
           d="m 1231.6,376.68 0,0.13 -0.1,0.13 0,0.12 0,0.12 0,0.13 -0.1,0.12 0,0.12 0,0.11 -0.1,0.12 0,0.11 -0.1,0.11 -0.1,0.11 -0.1,0.11 0,0.1 -0.1,0.1 -0.1,0.09 -0.1,0.09 -0.1,0.09 -0.1,0.08 -0.1,0.07 -0.1,0.08 -0.1,0.06 -0.1,0.06 -0.1,0.06 -0.2,0.05 -0.1,0.05 -0.1,0.03 -0.1,0.04 -0.2,0.02 -0.1,0.02 -0.1,0.01 -0.2,0 c -1.7,0 -2.7,-1.39 -2.7,-2.64 0,-1.34 1.2,-2.64 2.7,-2.64 1.7,0 2.7,1.4 2.7,2.64 z"
           inkscape:connector-curvature="0"
           style="fill:#000000;stroke-width:0" /><path
           id="path8049"
           d="m 1211.4,348.94 0,-0.07 0,-0.08 -0.1,-0.07 0,-0.08 0,-0.16 -0.1,-0.16 0,-0.16 0,-0.16 -0.1,-0.16 0,-0.16 0,-0.08 0,-0.07 -0.1,-0.07 0,-0.07 0,-0.07 0,-0.07 0,-0.06 0,-0.06 0,-0.05 0,-0.06 0,-0.05 -0.1,-0.04 0,-0.04 0,-0.04 0,-0.03 0,-0.02 c 0,-0.9 0.7,-1.35 1.5,-1.35 0.6,0 1.5,0.4 1.8,1.4 0.1,0.1 0.7,2.44 1,3.68 l 1.1,4.49 c 0.3,1.09 0.6,2.19 0.8,3.34 0.2,0.84 0.6,2.28 0.7,2.48 0.7,1.55 3.4,6.08 8.1,6.08 2.2,0 2.7,-1.84 2.7,-3.49 0,-1.24 -0.4,-2.64 -0.8,-4.13 l -1.4,-5.78 -1,-3.79 c -0.2,-0.99 -0.6,-2.68 -0.6,-2.93 0,-0.9 0.7,-1.35 1.4,-1.35 1.6,0 1.9,1.25 2.3,2.84 0.7,2.79 2.5,10.07 3,12.01 0.1,0.65 2.7,6.62 8.2,6.62 2.1,0 2.7,-1.69 2.7,-3.49 0,-2.84 -2.1,-8.51 -3.1,-11.15 -0.5,-1.2 -0.7,-1.75 -0.7,-2.74 0,-2.34 1.8,-4.09 4.1,-4.09 4.7,0 6.5,7.28 6.5,7.67 0,0.5 -0.4,0.5 -0.6,0.5 -0.5,0 -0.5,-0.15 -0.7,-0.89 -0.7,-2.64 -2.3,-6.18 -5.1,-6.18 -0.8,0 -1.2,0.5 -1.2,1.64 0,1.25 0.5,2.44 0.9,3.54 1,2.59 3.1,8.12 3.1,10.96 0,3.24 -2,5.33 -5.8,5.33 -3.7,0 -6.2,-2.2 -8.1,-4.84 0,0.65 -0.2,2.35 -1.6,3.54 -1.2,1.05 -2.8,1.3 -4.1,1.3 -4.4,0 -6.9,-3.19 -7.7,-4.34 -0.3,2.84 -2.4,4.34 -4.6,4.34 -2.3,0 -3.3,-1.95 -3.7,-2.84 -0.9,-1.75 -1.6,-4.68 -1.6,-4.83 0,-0.5 0.5,-0.5 0.6,-0.5 0.5,0 0.6,0.05 0.9,1.14 0.8,3.54 1.8,5.93 3.6,5.93 0.8,0 1.6,-0.4 1.6,-2.29 0,-1.04 -0.2,-1.59 -0.8,-4.18 z"
           inkscape:connector-curvature="0"
           style="fill:#000000;stroke-width:0" /><path
           id="path8051"
           d="m 1262.7,361.18 0,0.04 0,0.04 0,0.04 0,0.04 0,0.04 0,0.04 0,0.03 0,0.04 0,0.03 0,0.03 0,0.04 0,0.03 0,0.02 0,0.03 0,0.03 0,0.03 -0.1,0.02 0,0.02 0,0.05 0,0.04 0,0.04 0,0.03 0,0.03 -0.1,0.03 0,0.03 0,0.02 0,0.02 -0.1,0.02 0,0.01 0,0.01 -0.1,0.02 0,0 -0.1,0.01 0,0 0,0.01 0,0 -0.1,0 0,0 0,0 -0.1,0.01 0,0 0,0 -0.1,0 0,0 0,0 -0.1,0 0,0 -0.1,0 0,0 -0.1,0 c -2.2,-2.19 -5.4,-2.23 -6.8,-2.23 l 0,-1.25 c 0.8,0 3.1,0 5.1,0.97 l 0,-17.78 c 0,-1.15 0,-1.61 -3.5,-1.61 l -1.4,0 0,-1.25 12.5,0 0,1.25 -1.3,0 c -3.5,0 -3.5,0.46 -3.5,1.61 z"
           inkscape:connector-curvature="0"
           style="fill:#000000;stroke-width:0" /></g>    </g>
    <g
       id="g8099"
       transform="matrix(0.65329204,0,0,0.65329204,-686.55418,364.43964)">
      <g
         id="g8101"
         transform="matrix(1.0629921,0,0,-1.0629921,-186.02362,789.27165)"
         xml:space="preserve"
         stroke-miterlimit="10.433"
         font-style="normal"
         font-variant="normal"
         font-weight="normal"
         font-stretch="normal"
         font-size-adjust="none"
         letter-spacing="normal"
         word-spacing="normal"
         style="font-style:normal;font-variant:normal;font-weight:normal;font-stretch:normal;letter-spacing:normal;word-spacing:normal;text-anchor:start;fill:none;fill-opacity:1;fill-rule:evenodd;stroke:#000000;stroke-linecap:butt;stroke-linejoin:miter;stroke-miterlimit:10.43299961;stroke-dasharray:none;stroke-dashoffset:0;stroke-opacity:1"><path
           d="m 1231.6,376.68 0,0.13 -0.1,0.13 0,0.12 0,0.12 0,0.13 -0.1,0.12 0,0.12 0,0.11 -0.1,0.12 0,0.11 -0.1,0.11 -0.1,0.11 -0.1,0.11 0,0.1 -0.1,0.1 -0.1,0.09 -0.1,0.09 -0.1,0.09 -0.1,0.08 -0.1,0.07 -0.1,0.08 -0.1,0.06 -0.1,0.06 -0.1,0.06 -0.2,0.05 -0.1,0.05 -0.1,0.03 -0.1,0.04 -0.2,0.02 -0.1,0.02 -0.1,0.01 -0.2,0 c -1.7,0 -2.7,-1.39 -2.7,-2.64 0,-1.34 1.2,-2.64 2.7,-2.64 1.7,0 2.7,1.4 2.7,2.64 z"
           id="path8103"
           inkscape:connector-curvature="0"
           style="fill:#000000;stroke-width:0" /><path
           d="m 1211.4,348.94 0,-0.07 0,-0.08 -0.1,-0.07 0,-0.08 0,-0.16 -0.1,-0.16 0,-0.16 0,-0.16 -0.1,-0.16 0,-0.16 0,-0.08 0,-0.07 -0.1,-0.07 0,-0.07 0,-0.07 0,-0.07 0,-0.06 0,-0.06 0,-0.05 0,-0.06 0,-0.05 -0.1,-0.04 0,-0.04 0,-0.04 0,-0.03 0,-0.02 c 0,-0.9 0.7,-1.35 1.5,-1.35 0.6,0 1.5,0.4 1.8,1.4 0.1,0.1 0.7,2.44 1,3.68 l 1.1,4.49 c 0.3,1.09 0.6,2.19 0.8,3.34 0.2,0.84 0.6,2.28 0.7,2.48 0.7,1.55 3.4,6.08 8.1,6.08 2.2,0 2.7,-1.84 2.7,-3.49 0,-1.24 -0.4,-2.64 -0.8,-4.13 l -1.4,-5.78 -1,-3.79 c -0.2,-0.99 -0.6,-2.68 -0.6,-2.93 0,-0.9 0.7,-1.35 1.4,-1.35 1.6,0 1.9,1.25 2.3,2.84 0.7,2.79 2.5,10.07 3,12.01 0.1,0.65 2.7,6.62 8.2,6.62 2.1,0 2.7,-1.69 2.7,-3.49 0,-2.84 -2.1,-8.51 -3.1,-11.15 -0.5,-1.2 -0.7,-1.75 -0.7,-2.74 0,-2.34 1.8,-4.09 4.1,-4.09 4.7,0 6.5,7.28 6.5,7.67 0,0.5 -0.4,0.5 -0.6,0.5 -0.5,0 -0.5,-0.15 -0.7,-0.89 -0.7,-2.64 -2.3,-6.18 -5.1,-6.18 -0.8,0 -1.2,0.5 -1.2,1.64 0,1.25 0.5,2.44 0.9,3.54 1,2.59 3.1,8.12 3.1,10.96 0,3.24 -2,5.33 -5.8,5.33 -3.7,0 -6.2,-2.2 -8.1,-4.84 0,0.65 -0.2,2.35 -1.6,3.54 -1.2,1.05 -2.8,1.3 -4.1,1.3 -4.4,0 -6.9,-3.19 -7.7,-4.34 -0.3,2.84 -2.4,4.34 -4.6,4.34 -2.3,0 -3.3,-1.95 -3.7,-2.84 -0.9,-1.75 -1.6,-4.68 -1.6,-4.83 0,-0.5 0.5,-0.5 0.6,-0.5 0.5,0 0.6,0.05 0.9,1.14 0.8,3.54 1.8,5.93 3.6,5.93 0.8,0 1.6,-0.4 1.6,-2.29 0,-1.04 -0.2,-1.59 -0.8,-4.18 z"
           id="path8105"
           inkscape:connector-curvature="0"
           style="fill:#000000;stroke-width:0" /><path
           d="m 1268.6,345.35 -1.2,0 c -0.1,-0.77 -0.4,-2.83 -0.9,-3.18 -0.3,-0.21 -2.9,-0.21 -3.4,-0.21 l -6.4,0 c 3.6,3.25 4.8,4.22 6.9,5.86 2.6,2.06 5,4.22 5,7.54 0,4.21 -3.7,6.79 -8.2,6.79 -4.3,0 -7.2,-3.03 -7.2,-6.24 0,-1.78 1.5,-1.95 1.8,-1.95 0.9,0 1.9,0.59 1.9,1.85 0,0.62 -0.2,1.85 -2.1,1.85 1.1,2.47 3.5,3.24 5.1,3.24 3.5,0 5.3,-2.72 5.3,-5.54 0,-3.04 -2.1,-5.45 -3.3,-6.7 l -8.3,-8.3 c -0.4,-0.31 -0.4,-0.38 -0.4,-1.36 l 14.4,0 z"
           id="path8107"
           inkscape:connector-curvature="0"
           style="fill:#000000;stroke-width:0" /></g>    </g>
    <g
       id="g8165"
       transform="matrix(0.65329204,0,0,0.65329204,-76.646901,208.42334)">
      <g
         word-spacing="normal"
         letter-spacing="normal"
         font-size-adjust="none"
         font-stretch="normal"
         font-weight="normal"
         font-variant="normal"
         font-style="normal"
         stroke-miterlimit="10.433"
         xml:space="preserve"
         transform="matrix(1.0629921,0,0,-1.0629921,-186.02362,789.27165)"
         id="g8167"
         style="font-style:normal;font-variant:normal;font-weight:normal;font-stretch:normal;letter-spacing:normal;word-spacing:normal;text-anchor:start;fill:none;fill-opacity:1;fill-rule:evenodd;stroke:#000000;stroke-linecap:butt;stroke-linejoin:miter;stroke-miterlimit:10.43299961;stroke-dasharray:none;stroke-dashoffset:0;stroke-opacity:1"><path
           id="path8169"
           d="m 1168.6,376.68 0,0.13 -0.1,0.13 0,0.12 0,0.12 0,0.13 -0.1,0.12 0,0.12 0,0.11 -0.1,0.12 0,0.11 -0.1,0.11 -0.1,0.11 -0.1,0.11 0,0.1 -0.1,0.1 -0.1,0.09 -0.1,0.09 -0.1,0.09 -0.1,0.08 -0.1,0.07 -0.1,0.08 -0.1,0.06 -0.1,0.06 -0.1,0.06 -0.2,0.05 -0.1,0.05 -0.1,0.03 -0.1,0.04 -0.2,0.02 -0.1,0.02 -0.1,0.01 -0.2,0 c -1.7,0 -2.7,-1.39 -2.7,-2.64 0,-1.34 1.2,-2.64 2.7,-2.64 1.7,0 2.7,1.4 2.7,2.64 z"
           inkscape:connector-curvature="0"
           style="fill:#000000;stroke-width:0" /><path
           id="path8171"
           d="m 1148.4,348.94 0,-0.07 0,-0.08 -0.1,-0.07 0,-0.08 0,-0.16 -0.1,-0.16 0,-0.16 0,-0.16 -0.1,-0.16 0,-0.16 0,-0.08 0,-0.07 -0.1,-0.07 0,-0.07 0,-0.07 0,-0.07 0,-0.06 0,-0.06 0,-0.05 0,-0.06 0,-0.05 -0.1,-0.04 0,-0.04 0,-0.04 0,-0.03 0,-0.02 c 0,-0.9 0.7,-1.35 1.5,-1.35 0.6,0 1.5,0.4 1.8,1.4 0.1,0.1 0.7,2.44 1,3.68 l 1.1,4.49 c 0.3,1.09 0.6,2.19 0.8,3.34 0.2,0.84 0.6,2.28 0.7,2.48 0.7,1.55 3.4,6.08 8.1,6.08 2.2,0 2.7,-1.84 2.7,-3.49 0,-1.24 -0.4,-2.64 -0.8,-4.13 l -1.4,-5.78 -1,-3.79 c -0.2,-0.99 -0.6,-2.68 -0.6,-2.93 0,-0.9 0.7,-1.35 1.4,-1.35 1.6,0 1.9,1.25 2.3,2.84 0.7,2.79 2.5,10.07 3,12.01 0.1,0.65 2.7,6.62 8.2,6.62 2.1,0 2.7,-1.69 2.7,-3.49 0,-2.84 -2.1,-8.51 -3.1,-11.15 -0.5,-1.2 -0.7,-1.75 -0.7,-2.74 0,-2.34 1.8,-4.09 4.1,-4.09 4.7,0 6.5,7.28 6.5,7.67 0,0.5 -0.4,0.5 -0.6,0.5 -0.5,0 -0.5,-0.15 -0.7,-0.89 -0.7,-2.64 -2.3,-6.18 -5.1,-6.18 -0.8,0 -1.2,0.5 -1.2,1.64 0,1.25 0.5,2.44 0.9,3.54 1,2.59 3.1,8.12 3.1,10.96 0,3.24 -2,5.33 -5.8,5.33 -3.7,0 -6.2,-2.2 -8.1,-4.84 0,0.65 -0.2,2.35 -1.6,3.54 -1.2,1.05 -2.8,1.3 -4.1,1.3 -4.4,0 -6.9,-3.19 -7.7,-4.34 -0.3,2.84 -2.4,4.34 -4.6,4.34 -2.3,0 -3.3,-1.95 -3.7,-2.84 -0.9,-1.75 -1.6,-4.68 -1.6,-4.83 0,-0.5 0.5,-0.5 0.6,-0.5 0.5,0 0.6,0.05 0.9,1.14 0.8,3.54 1.8,5.93 3.6,5.93 0.8,0 1.6,-0.4 1.6,-2.29 0,-1.04 -0.2,-1.59 -0.8,-4.18 z"
           inkscape:connector-curvature="0"
           style="fill:#000000;stroke-width:0" /><path
           id="path8173"
           d="m 1198.7,361.18 0,0.04 0,0.04 0,0.04 0,0.04 0,0.04 0,0.04 0,0.03 0,0.04 0,0.03 0,0.03 0,0.04 0,0.03 0,0.02 0,0.03 0,0.03 0,0.03 -0.1,0.02 0,0.02 0,0.05 0,0.04 0,0.04 0,0.03 0,0.03 -0.1,0.03 0,0.03 0,0.02 0,0.02 -0.1,0.02 0,0.01 0,0.01 -0.1,0.02 0,0 -0.1,0.01 0,0 0,0.01 0,0 -0.1,0 0,0 0,0 -0.1,0.01 0,0 0,0 -0.1,0 0,0 0,0 -0.1,0 0,0 -0.1,0 0,0 -0.1,0 c -2.2,-2.19 -5.4,-2.23 -6.8,-2.23 l 0,-1.25 c 0.8,0 3.1,0 5.1,0.97 l 0,-17.78 c 0,-1.15 0,-1.61 -3.5,-1.61 l -1.4,0 0,-1.25 12.5,0 0,1.25 -1.3,0 c -3.5,0 -3.5,0.46 -3.5,1.61 z"
           inkscape:connector-curvature="0"
           style="fill:#000000;stroke-width:0" /><path
           id="path8175"
           d="m 1241.4,357.46 13.9,0 c 0.7,0 1.6,0 1.6,0.99 0,1 -0.9,1 -1.6,1 l -13.9,0 0,13.95 c 0,0.69 0,1.64 -1,1.64 -1,0 -1,-0.95 -1,-1.64 l 0,-13.95 -14,0 c -0.7,0 -1.6,0 -1.6,-1 0,-0.99 0.9,-0.99 1.6,-0.99 l 14,0 0,-13.95 c 0,-0.7 0,-1.64 1,-1.64 1,0 1,0.94 1,1.64 z"
           inkscape:connector-curvature="0"
           style="fill:#000000;stroke-width:0" /><path
           id="path8177"
           d="m 1295.6,376.68 0,0.13 -0.1,0.13 0,0.12 0,0.12 0,0.13 -0.1,0.12 0,0.12 0,0.11 -0.1,0.12 0,0.11 -0.1,0.11 -0.1,0.11 -0.1,0.11 0,0.1 -0.1,0.1 -0.1,0.09 -0.1,0.09 -0.1,0.09 -0.1,0.08 -0.1,0.07 -0.1,0.08 -0.1,0.06 -0.1,0.06 -0.1,0.06 -0.2,0.05 -0.1,0.05 -0.1,0.03 -0.1,0.04 -0.2,0.02 -0.1,0.02 -0.1,0.01 -0.2,0 c -1.7,0 -2.7,-1.39 -2.7,-2.64 0,-1.34 1.2,-2.64 2.7,-2.64 1.7,0 2.7,1.4 2.7,2.64 z"
           inkscape:connector-curvature="0"
           style="fill:#000000;stroke-width:0" /><path
           id="path8179"
           d="m 1275.4,348.94 0,-0.07 0,-0.08 -0.1,-0.07 0,-0.08 0,-0.16 -0.1,-0.16 0,-0.16 0,-0.16 -0.1,-0.16 0,-0.16 0,-0.08 0,-0.07 -0.1,-0.07 0,-0.07 0,-0.07 0,-0.07 0,-0.06 0,-0.06 0,-0.05 0,-0.06 0,-0.05 -0.1,-0.04 0,-0.04 0,-0.04 0,-0.03 0,-0.02 c 0,-0.9 0.7,-1.35 1.5,-1.35 0.6,0 1.5,0.4 1.8,1.4 0.1,0.1 0.7,2.44 1,3.68 l 1.1,4.49 c 0.3,1.09 0.6,2.19 0.8,3.34 0.2,0.84 0.6,2.28 0.7,2.48 0.7,1.55 3.4,6.08 8.1,6.08 2.2,0 2.7,-1.84 2.7,-3.49 0,-1.24 -0.4,-2.64 -0.8,-4.13 l -1.4,-5.78 -1,-3.79 c -0.2,-0.99 -0.6,-2.68 -0.6,-2.93 0,-0.9 0.7,-1.35 1.4,-1.35 1.6,0 1.9,1.25 2.3,2.84 0.7,2.79 2.5,10.07 3,12.01 0.1,0.65 2.7,6.62 8.2,6.62 2.1,0 2.7,-1.69 2.7,-3.49 0,-2.84 -2.1,-8.51 -3.1,-11.15 -0.5,-1.2 -0.7,-1.75 -0.7,-2.74 0,-2.34 1.8,-4.09 4.1,-4.09 4.7,0 6.5,7.28 6.5,7.67 0,0.5 -0.4,0.5 -0.6,0.5 -0.5,0 -0.5,-0.15 -0.7,-0.89 -0.7,-2.64 -2.3,-6.18 -5.1,-6.18 -0.8,0 -1.2,0.5 -1.2,1.64 0,1.25 0.5,2.44 0.9,3.54 1,2.59 3.1,8.12 3.1,10.96 0,3.24 -2,5.33 -5.8,5.33 -3.7,0 -6.2,-2.2 -8.1,-4.84 0,0.65 -0.2,2.35 -1.6,3.54 -1.2,1.05 -2.8,1.3 -4.1,1.3 -4.4,0 -6.9,-3.19 -7.7,-4.34 -0.3,2.84 -2.4,4.34 -4.6,4.34 -2.3,0 -3.3,-1.95 -3.7,-2.84 -0.9,-1.75 -1.6,-4.68 -1.6,-4.83 0,-0.5 0.5,-0.5 0.6,-0.5 0.5,0 0.6,0.05 0.9,1.14 0.8,3.54 1.8,5.93 3.6,5.93 0.8,0 1.6,-0.4 1.6,-2.29 0,-1.04 -0.2,-1.59 -0.8,-4.18 z"
           inkscape:connector-curvature="0"
           style="fill:#000000;stroke-width:0" /><path
           id="path8181"
           d="m 1331.6,345.35 -1.2,0 c -0.1,-0.77 -0.4,-2.83 -0.9,-3.18 -0.3,-0.21 -2.9,-0.21 -3.4,-0.21 l -6.4,0 c 3.6,3.25 4.8,4.22 6.9,5.86 2.6,2.06 5,4.22 5,7.54 0,4.21 -3.7,6.79 -8.2,6.79 -4.3,0 -7.2,-3.03 -7.2,-6.24 0,-1.78 1.5,-1.95 1.8,-1.95 0.9,0 1.9,0.59 1.9,1.85 0,0.62 -0.2,1.85 -2.1,1.85 1.1,2.47 3.5,3.24 5.1,3.24 3.5,0 5.3,-2.72 5.3,-5.54 0,-3.04 -2.1,-5.45 -3.3,-6.7 l -8.3,-8.3 c -0.4,-0.31 -0.4,-0.38 -0.4,-1.36 l 14.4,0 z"
           inkscape:connector-curvature="0"
           style="fill:#000000;stroke-width:0" /></g>    </g>
    <g
       transform="matrix(0.6336477,0,0,0.6336477,-676.51316,107.99198)"
       id="g8257">
      <g
         style="font-style:normal;font-variant:normal;font-weight:normal;font-stretch:normal;letter-spacing:normal;word-spacing:normal;text-anchor:start;fill:none;fill-opacity:1;fill-rule:evenodd;stroke:#000000;stroke-linecap:butt;stroke-linejoin:miter;stroke-miterlimit:10.43299961;stroke-dasharray:none;stroke-dashoffset:0;stroke-opacity:1"
         id="g8259"
         transform="matrix(1.0629921,0,0,-1.0629921,-186.02362,789.27165)"
         xml:space="preserve"
         stroke-miterlimit="10.433"
         font-style="normal"
         font-variant="normal"
         font-weight="normal"
         font-stretch="normal"
         font-size-adjust="none"
         letter-spacing="normal"
         word-spacing="normal"><path
           style="fill:#000000;stroke-width:0"
           inkscape:connector-curvature="0"
           d="m 1229.3,380.02 0,0.01 0,0 0,0.01 0,0.01 0,0.01 0,0.01 0,0.02 0,0.02 0,0.02 0,0.02 0,0.02 0,0.02 0,0.03 0,0.02 -0.1,0.03 0,0.02 0,0.02 0,0.03 0,0.02 0,0.03 -0.1,0.02 0,0.01 0,0.01 0,0.01 0,0.01 0,0.01 0,0.01 -0.1,0.01 0,0.01 0,0.01 0,0.01 0,0.01 0,0 -0.1,0.01 0,0.01 0,0 0,0.01 -0.1,0 0,0.01 0,0 0,0 -0.1,0.01 0,0 0,0 0,0 c -1.2,0 -4.8,-0.4 -6.1,-0.5 -0.4,-0.05 -1,-0.1 -1,-1 0,-0.59 0.5,-0.59 1.2,-0.59 2.4,0 2.5,-0.35 2.5,-0.85 l -0.1,-0.99 -7.3,-28.7 c -0.2,-0.69 -0.2,-0.8 -0.2,-1.09 0,-1.15 1,-1.4 1.5,-1.4 0.8,0 1.6,0.6 1.8,1.3 l 1,3.78 1.1,4.49 c 0.3,1.09 0.6,2.19 0.8,3.34 0.1,0.29 0.5,1.94 0.6,2.23 0.1,0.45 1.7,3.24 3.3,4.59 1.1,0.8 2.7,1.74 4.8,1.74 2.2,0 2.7,-1.69 2.7,-3.49 0,-2.68 -1.9,-8.11 -3.1,-11.15 -0.4,-1.15 -0.6,-1.75 -0.6,-2.74 0,-2.34 1.7,-4.09 4.1,-4.09 4.7,0 6.5,7.28 6.5,7.67 0,0.5 -0.4,0.5 -0.6,0.5 -0.5,0 -0.5,-0.15 -0.8,-0.89 -0.7,-2.64 -2.3,-6.18 -5,-6.18 -0.9,0 -1.2,0.5 -1.2,1.64 0,1.25 0.4,2.44 0.9,3.54 0.8,2.14 3,8.07 3,10.96 0,3.24 -2,5.33 -5.7,5.33 -3.2,0 -5.6,-1.55 -7.4,-3.84 z"
           id="path8261" /><path
           style="fill:#000000;stroke-width:0"
           inkscape:connector-curvature="0"
           d="m 1254.7,361.18 0,0.04 0,0.04 0,0.04 0,0.04 0,0.04 0,0.04 0,0.03 0,0.04 0,0.03 0,0.03 0,0.04 0,0.03 0,0.02 0,0.03 0,0.03 0,0.03 -0.1,0.02 0,0.02 0,0.05 0,0.04 0,0.04 0,0.03 0,0.03 -0.1,0.03 0,0.03 0,0.02 0,0.02 -0.1,0.02 0,0.01 0,0.01 -0.1,0.02 0,0 -0.1,0.01 0,0 0,0.01 0,0 -0.1,0 0,0 0,0 -0.1,0.01 0,0 0,0 -0.1,0 0,0 0,0 -0.1,0 0,0 -0.1,0 0,0 -0.1,0 c -2.2,-2.19 -5.4,-2.23 -6.8,-2.23 l 0,-1.25 c 0.8,0 3.1,0 5.1,0.97 l 0,-17.78 c 0,-1.15 0,-1.61 -3.5,-1.61 l -1.4,0 0,-1.25 12.5,0 0,1.25 -1.3,0 c -3.5,0 -3.5,0.46 -3.5,1.61 z"
           id="path8263" /></g>    </g>
    <g
       transform="matrix(0.6336477,0,0,0.6336477,-671.08466,414.2777)"
       id="g8347">
      <g
         style="font-style:normal;font-variant:normal;font-weight:normal;font-stretch:normal;letter-spacing:normal;word-spacing:normal;text-anchor:start;fill:none;fill-opacity:1;fill-rule:evenodd;stroke:#000000;stroke-linecap:butt;stroke-linejoin:miter;stroke-miterlimit:10.43299961;stroke-dasharray:none;stroke-dashoffset:0;stroke-opacity:1"
         word-spacing="normal"
         letter-spacing="normal"
         font-size-adjust="none"
         font-stretch="normal"
         font-weight="normal"
         font-variant="normal"
         font-style="normal"
         stroke-miterlimit="10.433"
         xml:space="preserve"
         transform="matrix(1.0629921,0,0,-1.0629921,-186.02362,789.27165)"
         id="g8349"><path
           style="fill:#000000;stroke-width:0"
           inkscape:connector-curvature="0"
           id="path8351"
           d="m 1229.3,380.02 0,0.01 0,0 0,0.01 0,0.01 0,0.01 0,0.01 0,0.02 0,0.02 0,0.02 0,0.02 0,0.02 0,0.02 0,0.03 0,0.02 -0.1,0.03 0,0.02 0,0.02 0,0.03 0,0.02 0,0.03 -0.1,0.02 0,0.01 0,0.01 0,0.01 0,0.01 0,0.01 0,0.01 -0.1,0.01 0,0.01 0,0.01 0,0.01 0,0.01 0,0 -0.1,0.01 0,0.01 0,0 0,0.01 -0.1,0 0,0.01 0,0 0,0 -0.1,0.01 0,0 0,0 0,0 c -1.2,0 -4.8,-0.4 -6.1,-0.5 -0.4,-0.05 -1,-0.1 -1,-1 0,-0.59 0.5,-0.59 1.2,-0.59 2.4,0 2.5,-0.35 2.5,-0.85 l -0.1,-0.99 -7.3,-28.7 c -0.2,-0.69 -0.2,-0.8 -0.2,-1.09 0,-1.15 1,-1.4 1.5,-1.4 0.8,0 1.6,0.6 1.8,1.3 l 1,3.78 1.1,4.49 c 0.3,1.09 0.6,2.19 0.8,3.34 0.1,0.29 0.5,1.94 0.6,2.23 0.1,0.45 1.7,3.24 3.3,4.59 1.1,0.8 2.7,1.74 4.8,1.74 2.2,0 2.7,-1.69 2.7,-3.49 0,-2.68 -1.9,-8.11 -3.1,-11.15 -0.4,-1.15 -0.6,-1.75 -0.6,-2.74 0,-2.34 1.7,-4.09 4.1,-4.09 4.7,0 6.5,7.28 6.5,7.67 0,0.5 -0.4,0.5 -0.6,0.5 -0.5,0 -0.5,-0.15 -0.8,-0.89 -0.7,-2.64 -2.3,-6.18 -5,-6.18 -0.9,0 -1.2,0.5 -1.2,1.64 0,1.25 0.4,2.44 0.9,3.54 0.8,2.14 3,8.07 3,10.96 0,3.24 -2,5.33 -5.7,5.33 -3.2,0 -5.6,-1.55 -7.4,-3.84 z" /><path
           style="fill:#000000;stroke-width:0"
           inkscape:connector-curvature="0"
           id="path8353"
           d="m 1260.6,345.35 -1.2,0 c -0.1,-0.77 -0.4,-2.83 -0.9,-3.18 -0.3,-0.21 -2.9,-0.21 -3.4,-0.21 l -6.4,0 c 3.6,3.25 4.8,4.22 6.9,5.86 2.6,2.06 5,4.22 5,7.54 0,4.21 -3.7,6.79 -8.2,6.79 -4.3,0 -7.2,-3.03 -7.2,-6.24 0,-1.78 1.5,-1.95 1.8,-1.95 0.9,0 1.9,0.59 1.9,1.85 0,0.62 -0.2,1.85 -2.1,1.85 1.1,2.47 3.5,3.24 5.1,3.24 3.5,0 5.3,-2.72 5.3,-5.54 0,-3.04 -2.1,-5.45 -3.3,-6.7 l -8.3,-8.3 c -0.4,-0.31 -0.4,-0.38 -0.4,-1.36 l 14.4,0 z" /></g>    </g>
    <g
       transform="matrix(0.62315437,0,0,0.62315437,-86.59686,272.77316)"
       id="g8445">
      <g
         style="font-style:normal;font-variant:normal;font-weight:normal;font-stretch:normal;letter-spacing:normal;word-spacing:normal;text-anchor:start;fill:none;fill-opacity:1;fill-rule:evenodd;stroke:#000000;stroke-linecap:butt;stroke-linejoin:miter;stroke-miterlimit:10.43299961;stroke-dasharray:none;stroke-dashoffset:0;stroke-opacity:1"
         id="g8447"
         transform="matrix(1.0629921,0,0,-1.0629921,-186.02362,789.27165)"
         xml:space="preserve"
         stroke-miterlimit="10.433"
         font-style="normal"
         font-variant="normal"
         font-weight="normal"
         font-stretch="normal"
         font-size-adjust="none"
         letter-spacing="normal"
         word-spacing="normal"><path
           style="fill:#000000;stroke-width:0"
           inkscape:connector-curvature="0"
           d="m 1229.3,380.02 0,0.01 0,0 0,0.01 0,0.01 0,0.01 0,0.01 0,0.02 0,0.02 0,0.02 0,0.02 0,0.02 0,0.02 0,0.03 0,0.02 -0.1,0.03 0,0.02 0,0.02 0,0.03 0,0.02 0,0.03 -0.1,0.02 0,0.01 0,0.01 0,0.01 0,0.01 0,0.01 0,0.01 -0.1,0.01 0,0.01 0,0.01 0,0.01 0,0.01 0,0 -0.1,0.01 0,0.01 0,0 0,0.01 -0.1,0 0,0.01 0,0 0,0 -0.1,0.01 0,0 0,0 0,0 c -1.2,0 -4.8,-0.4 -6.1,-0.5 -0.4,-0.05 -1,-0.1 -1,-1 0,-0.59 0.5,-0.59 1.2,-0.59 2.4,0 2.5,-0.35 2.5,-0.85 l -0.1,-0.99 -7.3,-28.7 c -0.2,-0.69 -0.2,-0.8 -0.2,-1.09 0,-1.15 1,-1.4 1.5,-1.4 0.8,0 1.6,0.6 1.8,1.3 l 1,3.78 1.1,4.49 c 0.3,1.09 0.6,2.19 0.8,3.34 0.1,0.29 0.5,1.94 0.6,2.23 0.1,0.45 1.7,3.24 3.3,4.59 1.1,0.8 2.7,1.74 4.8,1.74 2.2,0 2.7,-1.69 2.7,-3.49 0,-2.68 -1.9,-8.11 -3.1,-11.15 -0.4,-1.15 -0.6,-1.75 -0.6,-2.74 0,-2.34 1.7,-4.09 4.1,-4.09 4.7,0 6.5,7.28 6.5,7.67 0,0.5 -0.4,0.5 -0.6,0.5 -0.5,0 -0.5,-0.15 -0.8,-0.89 -0.7,-2.64 -2.3,-6.18 -5,-6.18 -0.9,0 -1.2,0.5 -1.2,1.64 0,1.25 0.4,2.44 0.9,3.54 0.8,2.14 3,8.07 3,10.96 0,3.24 -2,5.33 -5.7,5.33 -3.2,0 -5.6,-1.55 -7.4,-3.84 z"
           id="path8449" /><path
           style="fill:#000000;stroke-width:0"
           inkscape:connector-curvature="0"
           d="m 1252.5,350.64 0.3,0 0.2,-0.02 0.3,-0.02 0.2,-0.04 0.2,-0.05 0.3,-0.06 0.2,-0.07 0.2,-0.09 0.2,-0.09 0.2,-0.11 0.2,-0.11 0.2,-0.13 0.2,-0.13 0.1,-0.15 0.2,-0.16 0.2,-0.17 0.1,-0.18 0.2,-0.2 0.1,-0.2 0.1,-0.21 0.1,-0.23 0.2,-0.23 0.1,-0.25 0,-0.26 0.1,-0.27 0.1,-0.28 0.1,-0.29 0,-0.3 0,-0.31 0.1,-0.32 0,-0.33 0,-0.35 c 0,-4.32 -2.5,-5.61 -4.5,-5.61 -1.4,0 -4.5,0.38 -6,2.44 1.7,0.07 2.1,1.22 2.1,1.95 0,1.12 -0.9,1.92 -2,1.92 -0.9,0 -1.9,-0.59 -1.9,-2.02 0,-3.28 3.6,-5.41 7.8,-5.41 4.9,0 8.2,3.25 8.2,6.73 0,2.72 -2.2,5.44 -6,6.24 3.6,1.33 4.9,3.94 4.9,6.07 0,2.76 -3.1,4.81 -7,4.81 -3.9,0 -6.8,-1.88 -6.8,-4.67 0,-1.18 0.7,-1.85 1.8,-1.85 1.1,0 1.8,0.8 1.8,1.78 0,1.01 -0.7,1.75 -1.8,1.81 1.2,1.54 3.6,1.92 4.9,1.92 1.6,0 3.8,-0.76 3.8,-3.8 0,-1.46 -0.5,-3.07 -1.4,-4.15 -1.2,-1.32 -2.2,-1.39 -3.9,-1.5 -0.9,-0.07 -1,-0.07 -1.1,-0.1 -0.1,0 -0.4,-0.07 -0.4,-0.46 0,-0.49 0.3,-0.49 0.9,-0.49 z"
           id="path8451" /></g>    </g>
    <g
       id="g8917"
       transform="matrix(0.58822545,0,0,0.58822545,-312.88655,258.02229)">
      <g
         word-spacing="normal"
         letter-spacing="normal"
         font-size-adjust="none"
         font-stretch="normal"
         font-weight="normal"
         font-variant="normal"
         font-style="normal"
         stroke-miterlimit="10.433"
         xml:space="preserve"
         transform="matrix(1.0629921,0,0,-1.0629921,-186.02362,789.27165)"
         id="g8919"
         style="font-style:normal;font-variant:normal;font-weight:normal;font-stretch:normal;letter-spacing:normal;word-spacing:normal;text-anchor:start;fill:none;fill-opacity:1;fill-rule:evenodd;stroke:#000000;stroke-linecap:butt;stroke-linejoin:miter;stroke-miterlimit:10.43299961;stroke-dasharray:none;stroke-dashoffset:0;stroke-opacity:1"><path
           id="path8921"
           d="m 1062.4,348.94 0,-0.07 0,-0.08 -0.1,-0.07 0,-0.08 0,-0.16 -0.1,-0.16 0,-0.16 0,-0.16 -0.1,-0.16 0,-0.16 0,-0.08 0,-0.07 -0.1,-0.07 0,-0.07 0,-0.07 0,-0.07 0,-0.06 0,-0.06 0,-0.05 0,-0.06 0,-0.05 -0.1,-0.04 0,-0.04 0,-0.04 0,-0.03 0,-0.02 c 0,-0.9 0.7,-1.35 1.5,-1.35 0.6,0 1.5,0.4 1.8,1.4 0.1,0.1 0.7,2.44 1,3.68 l 1.1,4.49 c 0.3,1.09 0.6,2.19 0.8,3.34 0.2,0.84 0.6,2.28 0.7,2.48 0.7,1.55 3.4,6.08 8.1,6.08 2.2,0 2.7,-1.84 2.7,-3.49 0,-1.24 -0.4,-2.64 -0.8,-4.13 l -1.4,-5.78 -1,-3.79 c -0.2,-0.99 -0.6,-2.68 -0.6,-2.93 0,-0.9 0.7,-1.35 1.4,-1.35 1.6,0 1.9,1.25 2.3,2.84 0.7,2.79 2.5,10.07 3,12.01 0.1,0.65 2.7,6.62 8.2,6.62 2.1,0 2.7,-1.69 2.7,-3.49 0,-2.84 -2.1,-8.51 -3.1,-11.15 -0.5,-1.2 -0.7,-1.75 -0.7,-2.74 0,-2.34 1.8,-4.09 4.1,-4.09 4.7,0 6.5,7.28 6.5,7.67 0,0.5 -0.4,0.5 -0.6,0.5 -0.5,0 -0.5,-0.15 -0.7,-0.89 -0.7,-2.64 -2.3,-6.18 -5.1,-6.18 -0.8,0 -1.2,0.5 -1.2,1.64 0,1.25 0.5,2.44 0.9,3.54 1,2.59 3.1,8.12 3.1,10.96 0,3.24 -2,5.33 -5.8,5.33 -3.7,0 -6.2,-2.2 -8.1,-4.84 0,0.65 -0.2,2.35 -1.6,3.54 -1.2,1.05 -2.8,1.3 -4.1,1.3 -4.4,0 -6.9,-3.19 -7.7,-4.34 -0.3,2.84 -2.4,4.34 -4.6,4.34 -2.3,0 -3.3,-1.95 -3.7,-2.84 -0.9,-1.75 -1.6,-4.68 -1.6,-4.83 0,-0.5 0.5,-0.5 0.6,-0.5 0.5,0 0.6,0.05 0.9,1.14 0.8,3.54 1.8,5.93 3.6,5.93 0.8,0 1.6,-0.4 1.6,-2.29 0,-1.04 -0.2,-1.59 -0.8,-4.18 z"
           inkscape:connector-curvature="0"
           style="fill:#000000;stroke-width:0" /><path
           id="path8923"
           d="m 1115.2,377.13 -0.1,0.1 0,0.09 0,0.09 0,0.09 0,0.08 0,0.09 0,0.08 -0.1,0.08 0,0.08 0,0.08 -0.1,0.08 0,0.07 -0.1,0.07 0,0.07 -0.1,0.06 0,0.06 -0.1,0.06 -0.1,0.06 0,0.05 -0.1,0.05 -0.1,0.05 -0.1,0.04 0,0.04 -0.1,0.04 -0.1,0.03 -0.1,0.03 -0.1,0.02 -0.1,0.02 -0.1,0.02 -0.1,0.01 -0.1,0 -0.1,0.01 c -1.3,0 -2.7,-1.3 -2.7,-2.64 0,-0.95 0.7,-1.8 1.9,-1.8 1.2,0 2.7,1.15 2.7,2.64 z"
           inkscape:connector-curvature="0"
           style="fill:#000000;stroke-width:0" /><path
           id="path8925"
           d="m 1111.4,358.4 0,0.13 0.1,0.13 0,0.12 0.1,0.11 0,0.1 0,0.1 0.1,0.09 0,0.09 0,0.09 0.1,0.08 0,0.08 0,0.08 0.1,0.07 0,0.07 0,0.15 0.1,0.14 0.1,0.14 0,0.07 0,0.08 0,0.08 0.1,0.08 0,0.08 0,0.09 0.1,0.09 0,0.1 0,0.11 0.1,0.1 0,0.12 0.1,0.12 c 0.4,1 0.6,1.69 0.6,2.64 0,2.25 -1.6,4.09 -4.1,4.09 -4.7,0 -6.6,-7.23 -6.6,-7.67 0,-0.5 0.5,-0.5 0.6,-0.5 0.5,0 0.6,0.1 0.8,0.9 1.4,4.68 3.4,6.17 5.1,6.17 0.4,0 1.2,0 1.2,-1.59 0,-1.05 -0.3,-2.1 -0.5,-2.59 -0.4,-1.3 -2.7,-7.08 -3.5,-9.22 -0.5,-1.29 -1.1,-2.94 -1.1,-3.98 0,-2.34 1.7,-4.09 4.1,-4.09 4.7,0 6.5,7.23 6.5,7.67 0,0.5 -0.4,0.5 -0.6,0.5 -0.5,0 -0.5,-0.15 -0.8,-0.89 -0.8,-3.14 -2.5,-6.18 -5,-6.18 -0.9,0 -1.2,0.5 -1.2,1.64 0,1.25 0.3,1.94 1.4,4.98 z"
           inkscape:connector-curvature="0"
           style="fill:#000000;stroke-width:0" /><path
           id="path8927"
           d="m 1135.6,361.04 0.1,0.13 0,0.15 0,0.17 0.1,0.18 0,0.19 0.1,0.21 0.1,0.21 0,0.23 0.1,0.23 0.1,0.24 0.1,0.25 0.1,0.24 0.1,0.25 0.1,0.25 0.2,0.25 0.1,0.25 0.2,0.24 0.1,0.24 0.2,0.23 0.2,0.22 0.1,0.22 0.2,0.2 0.2,0.19 0.3,0.18 0.2,0.16 0.2,0.14 0.2,0.07 0.1,0.06 0.1,0.05 0.2,0.05 0.1,0.05 0.1,0.04 0.2,0.03 0.1,0.03 0.2,0.02 0.1,0.02 0.2,0.01 0.2,0 c 0.2,0 1.4,0 2.5,-0.65 -1.4,-0.25 -2.4,-1.49 -2.4,-2.68 0,-0.8 0.5,-1.75 1.9,-1.75 1.1,0 2.6,0.9 2.6,2.89 0,2.59 -2.9,3.29 -4.6,3.29 -2.9,0 -4.6,-2.64 -5.2,-3.79 -1.3,3.29 -4,3.79 -5.4,3.79 -5.2,0 -8,-6.43 -8,-7.67 0,-0.5 0.5,-0.5 0.6,-0.5 0.4,0 0.5,0.1 0.6,0.54 1.7,5.29 5,6.53 6.7,6.53 1,0 2.7,-0.45 2.7,-3.33 0,-1.55 -0.8,-4.89 -2.7,-11.86 -0.8,-3.09 -2.5,-5.18 -4.7,-5.18 -0.3,0 -1.5,0 -2.5,0.65 1.2,0.25 2.3,1.29 2.3,2.69 0,1.34 -1.1,1.74 -1.8,1.74 -1.5,0 -2.8,-1.3 -2.8,-2.89 0,-2.29 2.5,-3.29 4.7,-3.29 3.3,0 5.1,3.49 5.3,3.79 0.6,-1.85 2.4,-3.79 5.3,-3.79 5.2,0 8,6.43 8,7.67 0,0.5 -0.4,0.5 -0.6,0.5 -0.4,0 -0.5,-0.2 -0.6,-0.55 -1.7,-5.33 -5.1,-6.52 -6.7,-6.52 -1.9,0 -2.7,1.59 -2.7,3.29 0,1.09 0.3,2.19 0.8,4.38 z"
           inkscape:connector-curvature="0"
           style="fill:#000000;stroke-width:0" /><path
           id="path8929"
           d="m 1161.2,377.13 -0.1,0.1 0,0.09 0,0.09 0,0.09 0,0.08 0,0.09 0,0.08 -0.1,0.08 0,0.08 0,0.08 -0.1,0.08 0,0.07 -0.1,0.07 0,0.07 -0.1,0.06 0,0.06 -0.1,0.06 -0.1,0.06 0,0.05 -0.1,0.05 -0.1,0.05 -0.1,0.04 0,0.04 -0.1,0.04 -0.1,0.03 -0.1,0.03 -0.1,0.02 -0.1,0.02 -0.1,0.02 -0.1,0.01 -0.1,0 -0.1,0.01 c -1.3,0 -2.7,-1.3 -2.7,-2.64 0,-0.95 0.7,-1.8 1.9,-1.8 1.2,0 2.7,1.15 2.7,2.64 z"
           inkscape:connector-curvature="0"
           style="fill:#000000;stroke-width:0" /><path
           id="path8931"
           d="m 1157.4,358.4 0,0.13 0.1,0.13 0,0.12 0.1,0.11 0,0.1 0,0.1 0.1,0.09 0,0.09 0,0.09 0.1,0.08 0,0.08 0,0.08 0.1,0.07 0,0.07 0,0.15 0.1,0.14 0.1,0.14 0,0.07 0,0.08 0,0.08 0.1,0.08 0,0.08 0,0.09 0.1,0.09 0,0.1 0,0.11 0.1,0.1 0,0.12 0.1,0.12 c 0.4,1 0.6,1.69 0.6,2.64 0,2.25 -1.6,4.09 -4.1,4.09 -4.7,0 -6.6,-7.23 -6.6,-7.67 0,-0.5 0.5,-0.5 0.6,-0.5 0.5,0 0.6,0.1 0.8,0.9 1.4,4.68 3.4,6.17 5.1,6.17 0.4,0 1.2,0 1.2,-1.59 0,-1.05 -0.3,-2.1 -0.5,-2.59 -0.4,-1.3 -2.7,-7.08 -3.5,-9.22 -0.5,-1.29 -1.1,-2.94 -1.1,-3.98 0,-2.34 1.7,-4.09 4.1,-4.09 4.7,0 6.5,7.23 6.5,7.67 0,0.5 -0.4,0.5 -0.6,0.5 -0.5,0 -0.5,-0.15 -0.8,-0.89 -0.8,-3.14 -2.5,-6.18 -5,-6.18 -0.9,0 -1.2,0.5 -1.2,1.64 0,1.25 0.3,1.94 1.4,4.98 z"
           inkscape:connector-curvature="0"
           style="fill:#000000;stroke-width:0" /><path
           id="path8933"
           d="m 1168.4,348.94 0,-0.07 0,-0.08 -0.1,-0.07 0,-0.08 0,-0.16 -0.1,-0.16 0,-0.16 0,-0.16 -0.1,-0.16 0,-0.16 0,-0.08 0,-0.07 -0.1,-0.07 0,-0.07 0,-0.07 0,-0.07 0,-0.06 0,-0.06 0,-0.05 0,-0.06 0,-0.05 -0.1,-0.04 0,-0.04 0,-0.04 0,-0.03 0,-0.02 c 0,-0.9 0.7,-1.35 1.5,-1.35 0.6,0 1.5,0.4 1.8,1.4 0.1,0.1 0.7,2.44 1,3.68 l 1.1,4.49 c 0.3,1.09 0.6,2.19 0.8,3.34 0.2,0.84 0.6,2.28 0.7,2.48 0.7,1.55 3.4,6.08 8.1,6.08 2.2,0 2.7,-1.84 2.7,-3.49 0,-3.08 -2.5,-9.46 -3.3,-11.6 -0.4,-1.15 -0.5,-1.74 -0.5,-2.29 0,-2.34 1.8,-4.09 4.1,-4.09 4.7,0 6.5,7.28 6.5,7.67 0,0.5 -0.4,0.5 -0.6,0.5 -0.5,0 -0.5,-0.15 -0.7,-0.89 -1,-3.39 -2.6,-6.18 -5.1,-6.18 -0.8,0 -1.2,0.5 -1.2,1.64 0,1.25 0.5,2.44 0.9,3.54 1,2.64 3.1,8.12 3.1,10.96 0,3.33 -2.2,5.33 -5.8,5.33 -4.4,0 -6.9,-3.19 -7.7,-4.34 -0.3,2.79 -2.3,4.34 -4.6,4.34 -2.3,0 -3.3,-1.95 -3.8,-2.84 -0.8,-1.7 -1.5,-4.63 -1.5,-4.83 0,-0.5 0.5,-0.5 0.6,-0.5 0.5,0 0.6,0.05 0.9,1.14 0.8,3.54 1.8,5.93 3.6,5.93 1,0 1.6,-0.65 1.6,-2.29 0,-1.04 -0.2,-1.59 -0.8,-4.18 z"
           inkscape:connector-curvature="0"
           style="fill:#000000;stroke-width:0" /><path
           id="path8935"
           d="m 1217.5,364.78 0,0.06 0,0.05 0,0.05 0,0.06 0,0.1 0,0.06 0.1,0.05 0,0.05 0,0.06 0,0.05 0,0.06 0,0.06 0,0.06 0,0.03 0,0.03 0,0.03 0,0.04 c 0,0.84 -0.6,1.34 -1.4,1.34 -0.5,0 -1.9,-0.35 -2.1,-2.14 -0.9,1.84 -2.6,3.14 -4.6,3.14 l 0,-1.1 c 3.3,0 4,-4.03 4,-4.28 0,-0.25 -0.1,-0.55 -0.1,-0.75 l -2.4,-9.51 c -0.3,-1.3 -1.5,-2.54 -2.6,-3.49 -1,-0.9 -2.5,-1.79 -4,-1.79 -2.5,0 -3.2,2.59 -3.2,4.58 0,2.39 1.4,8.27 2.8,10.81 1.3,2.44 3.4,4.43 5.5,4.43 l 0,1.1 c -5.7,0 -11.9,-6.98 -11.9,-14.15 0,-4.93 3.1,-7.87 6.7,-7.87 2.9,0 5.2,2.34 5.7,2.89 l 0.1,-0.05 c -1.1,-4.43 -1.7,-6.48 -1.7,-6.57 -0.2,-0.45 -1.8,-5.39 -7.1,-5.39 -1,0 -2.6,0.05 -4,0.5 1.5,0.45 2,1.74 2,2.59 0,0.8 -0.5,1.74 -1.9,1.74 -1.1,0 -2.6,-0.89 -2.6,-2.88 0,-2.04 1.8,-3.04 6.6,-3.04 6.2,0 9.8,3.88 10.5,6.87 z"
           inkscape:connector-curvature="0"
           style="fill:#000000;stroke-width:0" /><path
           id="path8937"
           d="m 1253.7,364.93 -0.1,0 -0.2,0 -0.1,0 -0.2,-0.01 -0.1,-0.01 -0.1,-0.02 -0.1,-0.01 -0.1,-0.01 0,-0.01 -0.1,-0.02 -0.1,-0.01 0,-0.02 -0.1,-0.03 -0.1,-0.02 0,-0.03 -0.1,-0.03 -0.1,-0.03 0,-0.04 -0.1,-0.03 -0.1,-0.05 0,-0.04 -0.1,-0.05 -0.1,-0.05 0,-0.06 -0.1,-0.06 -0.1,-0.06 c -0.8,-0.75 -0.9,-1.59 -0.9,-1.94 0,-1.2 0.9,-1.74 1.9,-1.74 1.4,0 2.8,1.19 2.8,3.18 0,2.45 -2.4,4.29 -5.9,4.29 -6.7,0 -13.4,-7.13 -13.4,-14.15 0,-4.48 2.9,-8.42 8.1,-8.42 7.1,0 11.3,5.28 11.3,5.88 0,0.3 -0.3,0.65 -0.6,0.65 -0.2,0 -0.3,-0.1 -0.6,-0.5 -4,-4.93 -9.4,-4.93 -10,-4.93 -3.1,0 -4.5,2.44 -4.5,5.43 0,2.04 1,6.87 2.7,9.96 1.6,2.84 4.3,4.98 7,4.98 1.7,0 3.6,-0.65 4.3,-1.99 z"
           inkscape:connector-curvature="0"
           style="fill:#000000;stroke-width:0" /><path
           id="path8939"
           d="m 1269.3,380.02 0,0.01 0,0 0,0.01 0,0.01 0,0.01 0,0.01 0,0.02 0,0.02 0,0.02 0,0.02 0,0.02 0,0.02 0,0.03 0,0.02 -0.1,0.03 0,0.02 0,0.02 0,0.03 0,0.02 0,0.03 -0.1,0.02 0,0.01 0,0.01 0,0.01 0,0.01 0,0.01 0,0.01 -0.1,0.01 0,0.01 0,0.01 0,0.01 0,0.01 0,0 -0.1,0.01 0,0.01 0,0 0,0.01 -0.1,0 0,0.01 0,0 0,0 -0.1,0.01 0,0 0,0 0,0 c -1.2,0 -4.8,-0.4 -6.1,-0.5 -0.4,-0.05 -1,-0.1 -1,-1 0,-0.59 0.5,-0.59 1.2,-0.59 2.4,0 2.5,-0.35 2.5,-0.85 l -0.1,-0.99 -7.3,-28.7 c -0.2,-0.69 -0.2,-0.8 -0.2,-1.09 0,-1.15 1,-1.4 1.5,-1.4 0.8,0 1.6,0.6 1.8,1.3 l 1,3.78 1.1,4.49 c 0.3,1.09 0.6,2.19 0.8,3.34 0.1,0.29 0.5,1.94 0.6,2.23 0.1,0.45 1.7,3.24 3.3,4.59 1.1,0.8 2.7,1.74 4.8,1.74 2.2,0 2.7,-1.69 2.7,-3.49 0,-2.68 -1.9,-8.11 -3.1,-11.15 -0.4,-1.15 -0.6,-1.75 -0.6,-2.74 0,-2.34 1.7,-4.09 4.1,-4.09 4.7,0 6.5,7.28 6.5,7.67 0,0.5 -0.4,0.5 -0.6,0.5 -0.5,0 -0.5,-0.15 -0.8,-0.89 -0.7,-2.64 -2.3,-6.18 -5,-6.18 -0.9,0 -1.2,0.5 -1.2,1.64 0,1.25 0.4,2.44 0.9,3.54 0.8,2.14 3,8.07 3,10.96 0,3.24 -2,5.33 -5.7,5.33 -3.2,0 -5.6,-1.55 -7.4,-3.84 z"
           inkscape:connector-curvature="0"
           style="fill:#000000;stroke-width:0" /><path
           id="path8941"
           d="m 1302.6,364.83 -0.1,0.17 -0.1,0.17 -0.1,0.16 -0.1,0.16 -0.1,0.16 -0.1,0.16 -0.1,0.15 -0.1,0.14 -0.1,0.15 -0.1,0.13 -0.2,0.14 -0.1,0.13 -0.1,0.12 -0.1,0.12 -0.2,0.11 -0.1,0.11 -0.2,0.11 -0.1,0.09 -0.1,0.1 -0.2,0.08 -0.2,0.08 -0.1,0.08 -0.2,0.07 -0.2,0.06 -0.1,0.05 -0.2,0.05 -0.2,0.04 -0.2,0.03 -0.2,0.03 -0.2,0.02 -0.2,0.01 -0.2,0.01 0.1,-1.1 c 3.2,0 3.9,-4.08 3.9,-4.38 0,-0.3 -0.1,-0.6 -0.2,-0.85 l -2.5,-9.76 c -0.2,-0.9 -0.2,-1 -1,-1.84 -2.1,-2.75 -4.2,-3.54 -5.6,-3.54 -2.5,0 -3.2,2.74 -3.2,4.68 0,2.49 1.6,8.62 2.8,10.91 1.5,2.94 3.8,4.78 5.8,4.78 l -0.1,1.1 c -5.8,0 -12,-7.32 -12,-14.6 0,-4.68 2.7,-7.97 6.6,-7.97 1,0 3.5,0.2 6.5,3.74 0.4,-2.09 2.1,-3.74 4.5,-3.74 1.8,0 2.9,1.15 3.7,2.74 0.9,1.79 1.5,4.83 1.5,4.93 0,0.5 -0.4,0.5 -0.6,0.5 -0.5,0 -0.5,-0.2 -0.7,-0.89 -0.8,-3.24 -1.7,-6.18 -3.8,-6.18 -1.3,0 -1.5,1.29 -1.5,2.29 0,1.09 0.1,1.49 0.7,3.69 0.5,2.09 0.6,2.59 1.1,4.48 l 1.8,6.97 c 0.3,1.4 0.3,1.5 0.3,1.7 0,0.84 -0.6,1.34 -1.4,1.34 -1.2,0 -2,-1.09 -2.1,-2.19 z"
           inkscape:connector-curvature="0"
           style="fill:#000000;stroke-width:0" /><path
           id="path8943"
           d="m 1314.4,348.94 0,-0.07 0,-0.08 -0.1,-0.07 0,-0.08 0,-0.16 -0.1,-0.16 0,-0.16 0,-0.16 -0.1,-0.16 0,-0.16 0,-0.08 0,-0.07 -0.1,-0.07 0,-0.07 0,-0.07 0,-0.07 0,-0.06 0,-0.06 0,-0.05 0,-0.06 0,-0.05 -0.1,-0.04 0,-0.04 0,-0.04 0,-0.03 0,-0.02 c 0,-0.9 0.7,-1.35 1.5,-1.35 0.6,0 1.5,0.4 1.8,1.4 0.1,0.1 0.7,2.44 1,3.68 l 1.1,4.49 c 0.3,1.09 0.6,2.19 0.8,3.34 0.2,0.84 0.6,2.28 0.7,2.48 0.7,1.55 3.4,6.08 8.1,6.08 2.2,0 2.7,-1.84 2.7,-3.49 0,-1.24 -0.4,-2.64 -0.8,-4.13 l -1.4,-5.78 -1,-3.79 c -0.2,-0.99 -0.6,-2.68 -0.6,-2.93 0,-0.9 0.7,-1.35 1.4,-1.35 1.6,0 1.9,1.25 2.3,2.84 0.7,2.79 2.5,10.07 3,12.01 0.1,0.65 2.7,6.62 8.2,6.62 2.1,0 2.7,-1.69 2.7,-3.49 0,-2.84 -2.1,-8.51 -3.1,-11.15 -0.5,-1.2 -0.7,-1.75 -0.7,-2.74 0,-2.34 1.8,-4.09 4.1,-4.09 4.7,0 6.5,7.28 6.5,7.67 0,0.5 -0.4,0.5 -0.6,0.5 -0.5,0 -0.5,-0.15 -0.7,-0.89 -0.7,-2.64 -2.3,-6.18 -5.1,-6.18 -0.8,0 -1.2,0.5 -1.2,1.64 0,1.25 0.5,2.44 0.9,3.54 1,2.59 3.1,8.12 3.1,10.96 0,3.24 -2,5.33 -5.8,5.33 -3.7,0 -6.2,-2.2 -8.1,-4.84 0,0.65 -0.2,2.35 -1.6,3.54 -1.2,1.05 -2.8,1.3 -4.1,1.3 -4.4,0 -6.9,-3.19 -7.7,-4.34 -0.3,2.84 -2.4,4.34 -4.6,4.34 -2.3,0 -3.3,-1.95 -3.7,-2.84 -0.9,-1.75 -1.6,-4.68 -1.6,-4.83 0,-0.5 0.5,-0.5 0.6,-0.5 0.5,0 0.6,0.05 0.9,1.14 0.8,3.54 1.8,5.93 3.6,5.93 0.8,0 1.6,-0.4 1.6,-2.29 0,-1.04 -0.2,-1.59 -0.8,-4.18 z"
           inkscape:connector-curvature="0"
           style="fill:#000000;stroke-width:0" /><path
           id="path8945"
           d="m 1365.9,380.02 0,0.01 0,0 0,0.01 0,0.01 0,0.01 0,0.01 0,0.02 0,0.02 0,0.02 0,0.02 0,0.02 0,0.02 0,0.03 0,0.02 0,0.03 -0.1,0.02 0,0.02 0,0.03 0,0.02 0,0.03 0,0.02 -0.1,0.01 0,0.01 0,0.01 0,0.01 0,0.01 0,0.01 0,0.01 -0.1,0.01 0,0.01 0,0.01 0,0.01 0,0 -0.1,0.01 0,0.01 0,0 0,0.01 0,0 -0.1,0.01 0,0 0,0 -0.1,0.01 0,0 0,0 0,0 c -1.2,0 -4.8,-0.4 -6.1,-0.5 -0.4,-0.05 -1,-0.1 -1,-1 0,-0.59 0.5,-0.59 1.2,-0.59 2.4,0 2.5,-0.35 2.5,-0.85 0,-0.35 -0.4,-2.04 -0.7,-3.09 l -4.1,-16.24 c -0.6,-2.49 -0.8,-3.28 -0.8,-5.03 0,-4.73 2.7,-7.82 6.4,-7.82 l 0,1.1 c -1.7,0 -3.4,1.34 -3.4,5.03 0,0.95 0,1.89 0.8,5.03 l 1.1,4.58 c 0.3,1.1 0.3,1.2 0.8,1.75 2.4,3.24 4.7,3.98 5.9,3.98 1.8,0 3.2,-1.49 3.2,-4.68 0,-2.94 -1.7,-8.67 -2.5,-10.56 -1.7,-3.34 -4,-5.13 -5.9,-5.13 l 0,-1.1 c 5.9,0 12,7.43 12,14.6 0,4.53 -2.7,7.97 -6.6,7.97 -2.3,0 -4.4,-1.45 -5.9,-2.99 z"
           inkscape:connector-curvature="0"
           style="fill:#000000;stroke-width:0" /><path
           id="path8947"
           d="m 1384.3,357.51 0.2,0 0.1,0 0.2,0 0.2,0 0.1,0.01 0.2,0 0.3,0.01 0.2,0.01 0.2,0.01 0.2,0.01 0.3,0.02 0.2,0.01 0.3,0.02 0.2,0.03 0.5,0.05 0.6,0.06 0.5,0.08 0.6,0.09 0.5,0.11 0.5,0.13 0.3,0.07 0.3,0.07 0.2,0.08 0.3,0.09 0.2,0.09 0.2,0.09 c 3.5,1.5 3.8,4.44 3.8,5.14 0,2.19 -1.9,4.23 -5.4,4.23 l 0,-1.1 c 2.4,0 3.7,-1.44 3.7,-3.13 0,-5.19 -7.9,-5.19 -10,-5.19 l -2,0 c 1.9,7.58 7.1,8.32 8.3,8.32 l 0,1.1 c -5.5,0 -13,-4.84 -13,-13.55 0,-5.08 2.9,-9.02 7.8,-9.02 7.1,0 11.3,5.28 11.3,5.88 0,0.3 -0.3,0.65 -0.6,0.65 -0.2,0 -0.3,-0.1 -0.6,-0.5 -4,-4.93 -9.4,-4.93 -10,-4.93 -3.9,0 -4.3,4.18 -4.3,5.78 0,0.6 0,2.14 0.8,5.18 z"
           inkscape:connector-curvature="0"
           style="fill:#000000;stroke-width:0" /><path
           id="path8949"
           d="m 1402.4,348.94 0,-0.07 0,-0.08 -0.1,-0.07 0,-0.08 0,-0.16 -0.1,-0.16 0,-0.16 0,-0.16 -0.1,-0.16 0,-0.16 0,-0.08 0,-0.07 -0.1,-0.07 0,-0.07 0,-0.07 0,-0.07 0,-0.06 0,-0.06 0,-0.05 0,-0.06 0,-0.05 -0.1,-0.04 0,-0.04 0,-0.04 0,-0.03 0,-0.02 c 0,-0.9 0.7,-1.35 1.5,-1.35 0.6,0 1.5,0.4 1.8,1.4 0.1,0.2 1.8,6.97 2,7.87 0.4,1.64 1.3,5.13 1.6,6.47 0.2,0.65 1.6,2.99 2.8,4.09 0.4,0.34 1.8,1.64 4,1.64 1.3,0 2,-0.6 2.1,-0.6 -1.5,-0.25 -2.6,-1.44 -2.6,-2.73 0,-0.8 0.5,-1.75 1.9,-1.75 1.3,0 2.7,1.14 2.7,2.94 0,1.74 -1.6,3.24 -4.1,3.24 -3.3,0 -5.4,-2.44 -6.4,-3.84 -0.4,2.24 -2.2,3.84 -4.5,3.84 -2.3,0 -3.3,-1.95 -3.7,-2.84 -0.9,-1.7 -1.6,-4.68 -1.6,-4.83 0,-0.5 0.5,-0.5 0.6,-0.5 0.5,0 0.6,0.05 0.9,1.14 0.8,3.54 1.8,5.93 3.6,5.93 0.9,0 1.6,-0.4 1.6,-2.29 0,-1.04 -0.2,-1.59 -0.8,-4.18 z"
           inkscape:connector-curvature="0"
           style="fill:#000000;stroke-width:0" /></g>    </g>
    <g
       id="g9297"
       transform="matrix(0.60793803,0,0,0.60793803,-56.707221,383.04736)">
      <g
         word-spacing="normal"
         letter-spacing="normal"
         font-size-adjust="none"
         font-stretch="normal"
         font-weight="normal"
         font-variant="normal"
         font-style="normal"
         stroke-miterlimit="10.433"
         xml:space="preserve"
         transform="matrix(1.0629921,0,0,-1.0629921,-186.02362,789.27165)"
         id="g9299"
         style="font-style:normal;font-variant:normal;font-weight:normal;font-stretch:normal;letter-spacing:normal;word-spacing:normal;text-anchor:start;fill:none;fill-opacity:1;fill-rule:evenodd;stroke:#000000;stroke-linecap:butt;stroke-linejoin:miter;stroke-miterlimit:10.43299961;stroke-dasharray:none;stroke-dashoffset:0;stroke-opacity:1"><path
           id="path9301"
           d="m 1179.2,352.98 0,0.03 0,0.03 0,0.03 0,0.03 0.1,0.06 0,0.05 0,0.06 0,0.04 0,0.05 0,0.04 0,0.04 0,0.04 0.1,0.04 0,0.04 0,0.03 0,0.03 0,0.03 0,0.03 0,0.03 0,0.03 0,0.03 0,0.02 0,0.06 0,0.05 0,0.05 0,0.05 0,0.03 0,0.03 0,0.03 0,0.03 c 0,0.9 -0.7,1.35 -1.4,1.35 -0.5,0 -1.3,-0.3 -1.8,-1.05 -0.1,-0.24 -0.5,-1.79 -0.7,-2.69 -0.3,-1.29 -0.7,-2.64 -1,-3.98 l -2.2,-8.97 c -0.2,-0.74 -2.4,-4.23 -5.6,-4.23 -2.6,0 -3.1,2.19 -3.1,4.03 0,2.3 0.8,5.38 2.5,9.77 0.8,2.04 1,2.59 1,3.58 0,2.25 -1.6,4.09 -4.1,4.09 -4.7,0 -6.6,-7.23 -6.6,-7.67 0,-0.5 0.5,-0.5 0.6,-0.5 0.5,0 0.6,0.1 0.8,0.9 1.4,4.68 3.4,6.17 5.1,6.17 0.4,0 1.2,0 1.2,-1.59 0,-1.25 -0.5,-2.54 -0.8,-3.49 -2,-5.28 -2.9,-8.12 -2.9,-10.46 0,-4.43 3.1,-5.93 6.1,-5.93 1.9,0 3.6,0.85 5,2.25 -0.7,-2.6 -1.3,-5.04 -3.3,-7.68 -1.2,-1.69 -3.1,-3.14 -5.4,-3.14 -0.7,0 -3,0.16 -3.8,2.1 0.8,0 1.4,0 2.1,0.59 0.5,0.45 1,1.1 1,2.05 0,1.54 -1.3,1.74 -1.8,1.74 -1.2,0 -2.8,-0.8 -2.8,-3.24 0,-2.49 2.2,-4.33 5.3,-4.33 5.1,0 10.2,4.53 11.6,10.16 z"
           inkscape:connector-curvature="0"
           style="fill:#000000;stroke-width:0" /><path
           id="path9303"
           d="m 1229.2,350.29 0.2,0 0.1,0 0.2,0.01 0,0 0.1,0 0.1,0.01 0,0.01 0.1,0.01 0.1,0.01 0.1,0.02 0,0.01 0.1,0.02 0,0.02 0.1,0.03 0.1,0.03 0,0.03 0.1,0.03 0,0.04 0.1,0.04 0,0.05 0.1,0.05 0,0.03 0,0.02 0,0.03 0,0.03 0,0.03 0,0.04 0.1,0.03 0,0.04 0,0.03 0,0.04 0,0.04 0,0.04 0,0.04 0,0.04 0,0.05 0,0.05 c 0,0.99 -0.9,0.99 -1.6,0.99 l -29.9,0 c -0.7,0 -1.6,0 -1.6,-0.99 0,-1 0.9,-1 1.7,-1 z"
           inkscape:connector-curvature="0"
           style="fill:#000000;stroke-width:0" /><path
           id="path9305"
           d="m 1229.3,340.62 0.1,0.01 0.1,0 0.2,0 0.1,0.01 0,0 0.1,0.01 0.1,0.01 0,0.01 0.1,0.01 0.1,0.01 0,0.02 0.1,0.02 0.1,0.02 0,0.02 0.1,0.03 0,0.03 0.1,0.04 0,0.04 0.1,0.04 0,0.04 0,0.03 0.1,0.03 0,0.02 0,0.03 0,0.03 0,0.03 0,0.03 0,0.03 0.1,0.04 0,0.03 0,0.04 0,0.04 0,0.04 0,0.04 0,0.04 0,0.04 0,0.05 0,0.04 c 0,1 -0.9,1 -1.7,1 l -29.7,0 c -0.8,0 -1.7,0 -1.7,-1 0,-1 0.9,-1 1.6,-1 z"
           inkscape:connector-curvature="0"
           style="fill:#000000;stroke-width:0" /><path
           id="path9307"
           d="m 1277.6,398.68 0,0.13 -0.1,0.13 0,0.12 0,0.12 0,0.13 -0.1,0.12 0,0.12 0,0.11 -0.1,0.12 0,0.11 -0.1,0.11 -0.1,0.11 -0.1,0.11 0,0.1 -0.1,0.1 -0.1,0.09 -0.1,0.09 -0.1,0.09 -0.1,0.08 -0.1,0.07 -0.1,0.08 -0.1,0.06 -0.1,0.06 -0.1,0.06 -0.2,0.05 -0.1,0.05 -0.1,0.03 -0.1,0.04 -0.2,0.02 -0.1,0.02 -0.1,0.01 -0.2,0 c -1.7,0 -2.7,-1.39 -2.7,-2.64 0,-1.34 1.2,-2.64 2.7,-2.64 1.7,0 2.7,1.4 2.7,2.64 z"
           inkscape:connector-curvature="0"
           style="fill:#000000;stroke-width:0" /><path
           id="path9309"
           d="m 1257.4,370.94 0,-0.07 0,-0.08 -0.1,-0.07 0,-0.08 0,-0.16 -0.1,-0.16 0,-0.16 0,-0.16 -0.1,-0.16 0,-0.16 0,-0.08 0,-0.07 -0.1,-0.07 0,-0.07 0,-0.07 0,-0.07 0,-0.06 0,-0.06 0,-0.05 0,-0.06 0,-0.05 -0.1,-0.04 0,-0.04 0,-0.04 0,-0.03 0,-0.02 c 0,-0.9 0.7,-1.35 1.5,-1.35 0.6,0 1.5,0.4 1.8,1.4 0.1,0.1 0.7,2.44 1,3.68 l 1.1,4.49 c 0.3,1.09 0.6,2.19 0.8,3.34 0.2,0.84 0.6,2.28 0.7,2.48 0.7,1.55 3.4,6.08 8.1,6.08 2.2,0 2.7,-1.84 2.7,-3.49 0,-1.24 -0.4,-2.64 -0.8,-4.13 l -1.4,-5.78 -1,-3.79 c -0.2,-0.99 -0.6,-2.68 -0.6,-2.93 0,-0.9 0.7,-1.35 1.4,-1.35 1.6,0 1.9,1.25 2.3,2.84 0.7,2.79 2.5,10.07 3,12.01 0.1,0.65 2.7,6.62 8.2,6.62 2.1,0 2.7,-1.69 2.7,-3.49 0,-2.84 -2.1,-8.51 -3.1,-11.15 -0.5,-1.2 -0.7,-1.75 -0.7,-2.74 0,-2.34 1.8,-4.09 4.1,-4.09 4.7,0 6.5,7.28 6.5,7.67 0,0.5 -0.4,0.5 -0.6,0.5 -0.5,0 -0.5,-0.15 -0.7,-0.89 -0.7,-2.64 -2.3,-6.18 -5.1,-6.18 -0.8,0 -1.2,0.5 -1.2,1.64 0,1.25 0.5,2.44 0.9,3.54 1,2.59 3.1,8.12 3.1,10.96 0,3.24 -2,5.33 -5.8,5.33 -3.7,0 -6.2,-2.2 -8.1,-4.84 0,0.65 -0.2,2.35 -1.6,3.54 -1.2,1.05 -2.8,1.3 -4.1,1.3 -4.4,0 -6.9,-3.19 -7.7,-4.34 -0.3,2.84 -2.4,4.34 -4.6,4.34 -2.3,0 -3.3,-1.95 -3.7,-2.84 -0.9,-1.75 -1.6,-4.68 -1.6,-4.83 0,-0.5 0.5,-0.5 0.6,-0.5 0.5,0 0.6,0.05 0.9,1.14 0.8,3.54 1.8,5.93 3.6,5.93 0.8,0 1.6,-0.4 1.6,-2.29 0,-1.04 -0.2,-1.59 -0.8,-4.18 z"
           inkscape:connector-curvature="0"
           style="fill:#000000;stroke-width:0" /><path
           id="path9311"
           d="m 1308.7,382.18 0,0.04 0,0.04 0,0.04 0,0.04 0,0.04 0,0.04 0,0.03 0,0.04 0,0.03 0,0.03 0,0.04 0,0.03 0,0.02 0,0.03 0,0.03 0,0.03 -0.1,0.02 0,0.02 0,0.05 0,0.04 0,0.04 0,0.03 0,0.03 -0.1,0.03 0,0.03 0,0.02 0,0.02 -0.1,0.02 0,0.01 0,0.01 -0.1,0.02 0,0 -0.1,0.01 0,0 0,0.01 0,0 -0.1,0 0,0 0,0 -0.1,0.01 0,0 0,0 -0.1,0 0,0 0,0 -0.1,0 0,0 -0.1,0 0,0 -0.1,0 c -2.2,-2.19 -5.4,-2.23 -6.8,-2.23 l 0,-1.25 c 0.8,0 3.1,0 5.1,0.97 l 0,-17.78 c 0,-1.15 0,-1.61 -3.5,-1.61 l -1.4,0 0,-1.25 12.5,0 0,1.25 -1.3,0 c -3.5,0 -3.5,0.46 -3.5,1.61 z"
           inkscape:connector-curvature="0"
           style="fill:#000000;stroke-width:0" /><polyline
           id="polyline9313"
           points="1253,346 1319.1,346 1319.1,348.04 1253,348.04 "
           style="fill:#000000;fill-rule:nonzero;stroke-width:0" /><path
           id="path9315"
           d="m 1277.6,330.68 0,0.13 -0.1,0.13 0,0.12 0,0.12 0,0.13 -0.1,0.12 0,0.12 0,0.11 -0.1,0.12 0,0.11 -0.1,0.11 -0.1,0.11 -0.1,0.11 0,0.1 -0.1,0.1 -0.1,0.09 -0.1,0.09 -0.1,0.09 -0.1,0.08 -0.1,0.07 -0.1,0.08 -0.1,0.06 -0.1,0.06 -0.1,0.06 -0.2,0.05 -0.1,0.05 -0.1,0.03 -0.1,0.04 -0.2,0.02 -0.1,0.02 -0.1,0.01 -0.2,0 c -1.7,0 -2.7,-1.39 -2.7,-2.64 0,-1.34 1.2,-2.64 2.7,-2.64 1.7,0 2.7,1.4 2.7,2.64 z"
           inkscape:connector-curvature="0"
           style="fill:#000000;stroke-width:0" /><path
           id="path9317"
           d="m 1257.4,302.94 0,-0.07 0,-0.08 -0.1,-0.07 0,-0.08 0,-0.16 -0.1,-0.16 0,-0.16 0,-0.16 -0.1,-0.16 0,-0.16 0,-0.08 0,-0.07 -0.1,-0.07 0,-0.07 0,-0.07 0,-0.07 0,-0.06 0,-0.06 0,-0.05 0,-0.06 0,-0.05 -0.1,-0.04 0,-0.04 0,-0.04 0,-0.03 0,-0.02 c 0,-0.9 0.7,-1.35 1.5,-1.35 0.6,0 1.5,0.4 1.8,1.4 0.1,0.1 0.7,2.44 1,3.68 l 1.1,4.49 c 0.3,1.09 0.6,2.19 0.8,3.34 0.2,0.84 0.6,2.28 0.7,2.48 0.7,1.55 3.4,6.08 8.1,6.08 2.2,0 2.7,-1.84 2.7,-3.49 0,-1.24 -0.4,-2.64 -0.8,-4.13 l -1.4,-5.78 -1,-3.79 c -0.2,-0.99 -0.6,-2.68 -0.6,-2.93 0,-0.9 0.7,-1.35 1.4,-1.35 1.6,0 1.9,1.25 2.3,2.84 0.7,2.79 2.5,10.07 3,12.01 0.1,0.65 2.7,6.62 8.2,6.62 2.1,0 2.7,-1.69 2.7,-3.49 0,-2.84 -2.1,-8.51 -3.1,-11.15 -0.5,-1.2 -0.7,-1.75 -0.7,-2.74 0,-2.34 1.8,-4.09 4.1,-4.09 4.7,0 6.5,7.28 6.5,7.67 0,0.5 -0.4,0.5 -0.6,0.5 -0.5,0 -0.5,-0.15 -0.7,-0.89 -0.7,-2.64 -2.3,-6.18 -5.1,-6.18 -0.8,0 -1.2,0.5 -1.2,1.64 0,1.25 0.5,2.44 0.9,3.54 1,2.59 3.1,8.12 3.1,10.96 0,3.24 -2,5.33 -5.8,5.33 -3.7,0 -6.2,-2.2 -8.1,-4.84 0,0.65 -0.2,2.35 -1.6,3.54 -1.2,1.05 -2.8,1.3 -4.1,1.3 -4.4,0 -6.9,-3.19 -7.7,-4.34 -0.3,2.84 -2.4,4.34 -4.6,4.34 -2.3,0 -3.3,-1.95 -3.7,-2.84 -0.9,-1.75 -1.6,-4.68 -1.6,-4.83 0,-0.5 0.5,-0.5 0.6,-0.5 0.5,0 0.6,0.05 0.9,1.14 0.8,3.54 1.8,5.93 3.6,5.93 0.8,0 1.6,-0.4 1.6,-2.29 0,-1.04 -0.2,-1.59 -0.8,-4.18 z"
           inkscape:connector-curvature="0"
           style="fill:#000000;stroke-width:0" /><path
           id="path9319"
           d="m 1314.6,299.35 -1.2,0 c -0.1,-0.77 -0.4,-2.83 -0.9,-3.18 -0.3,-0.21 -2.9,-0.21 -3.4,-0.21 l -6.4,0 c 3.6,3.25 4.8,4.22 6.9,5.86 2.6,2.06 5,4.22 5,7.54 0,4.21 -3.7,6.79 -8.2,6.79 -4.3,0 -7.2,-3.03 -7.2,-6.24 0,-1.78 1.5,-1.95 1.8,-1.95 0.9,0 1.9,0.59 1.9,1.85 0,0.62 -0.2,1.85 -2.1,1.85 1.1,2.47 3.5,3.24 5.1,3.24 3.5,0 5.3,-2.72 5.3,-5.54 0,-3.04 -2.1,-5.45 -3.3,-6.7 l -8.3,-8.3 c -0.4,-0.31 -0.4,-0.38 -0.4,-1.36 l 14.4,0 z"
           inkscape:connector-curvature="0"
           style="fill:#000000;stroke-width:0" /></g>    </g>
  </g>
  <g
     style="display:inline"
     inkscape:label="MixerOutline"
     id="layer2"
     inkscape:groupmode="layer"
     sodipodi:insensitive="true"
     transform="translate(-7.1428571,-198.07646)">
    <path
       sodipodi:nodetypes="cccccccccccccccc"
       style="display:inline;fill:none;fill-opacity:1;fill-rule:evenodd;stroke:#0000ff;stroke-width:6.8544507;stroke-miterlimit:4;stroke-dasharray:none;stroke-dashoffset:0;stroke-opacity:1"
       d="m 124.96484,397.39648 78.46289,0 0,209.93164 -78.46289,0 m 0,90.06836 78.46289,0 0,51.53907 293.14454,0 0,-201.53907 76.46289,0 m 0,-90.06836 -76.46289,0 0,-201.53906 -293.14454,0 0,51.53906 -78.46289,0"
       id="path7591"
       inkscape:connector-curvature="0" />
  </g>
  <g
     style="display:inline"
     inkscape:label="InnerDotted"
     id="layer3"
     inkscape:groupmode="layer"
     sodipodi:insensitive="true"
     transform="translate(-7.1428571,-198.07646)">
    <path
       inkscape:connector-curvature="0"
       id="rect7541"
       d="m 213.42773,738.93555 c 91.04818,0 182.09636,0 273.14454,0 0,-157.7155 0,-315.43099 0,-473.14649 -91.04818,0 -182.09636,0 -273.14454,0 0,157.7155 0,315.43099 0,473.14649 z"
       style="fill:none;fill-opacity:1;fill-rule:evenodd;stroke:#ff0000;stroke-width:2;stroke-miterlimit:4;stroke-dasharray:4, 8;stroke-dashoffset:0;stroke-opacity:1" />
  </g>
  <g
     inkscape:groupmode="layer"
     id="layer5"
     inkscape:label="Boundary"
     transform="translate(-7.1428571,-198.07646)">
    <rect
       style="fill:none;fill-opacity:1;fill-rule:evenodd;stroke:none;stroke-width:2;stroke-miterlimit:4;stroke-dasharray:4, 8;stroke-dashoffset:0;stroke-opacity:1"
       id="rect9415"
       width="725.71429"
       height="598.57147"
       x="7.1428571"
       y="198.07646" />
  </g>
</svg>
