<?xml version="1.0" encoding="UTF-8" standalone="no"?>
<!-- Created with Inkscape (http://www.inkscape.org/) -->

<svg
   xmlns:dc="http://purl.org/dc/elements/1.1/"
   xmlns:cc="http://creativecommons.org/ns#"
   xmlns:rdf="http://www.w3.org/1999/02/22-rdf-syntax-ns#"
   xmlns:svg="http://www.w3.org/2000/svg"
   xmlns="http://www.w3.org/2000/svg"
   xmlns:sodipodi="http://sodipodi.sourceforge.net/DTD/sodipodi-0.dtd"
   xmlns:inkscape="http://www.inkscape.org/namespaces/inkscape"
   width="157.30748mm"
   height="180.06265mm"
   viewBox="0 0 557.38871 638.01727"
   id="svg4310"
   version="1.1"
   inkscape:version="0.91 r13725"
   sodipodi:docname="nozzle_diffuser.svg"
   style="enable-background:new"
   inkscape:export-filename="/home/sandeep/Desktop/figures/nozzle_diffuser.png"
   inkscape:export-xdpi="90"
   inkscape:export-ydpi="90">
  <sodipodi:namedview
     id="base"
     pagecolor="#ffffff"
     bordercolor="#666666"
     borderopacity="1.0"
     inkscape:pageopacity="0.0"
     inkscape:pageshadow="2"
     inkscape:zoom="0.57051744"
     inkscape:cx="318.31888"
     inkscape:cy="225.21344"
     inkscape:document-units="px"
     inkscape:current-layer="layer7"
     showgrid="false"
     inkscape:window-width="1317"
     inkscape:window-height="744"
     inkscape:window-x="49"
     inkscape:window-y="24"
     inkscape:window-maximized="1"
     inkscape:snap-midpoints="true"
     fit-margin-top="0"
     fit-margin-left="0"
     fit-margin-right="0"
     fit-margin-bottom="0" />
  <defs
     id="defs4312">
    <marker
       inkscape:stockid="Arrow1Send"
       orient="auto"
       refY="0"
       refX="0"
       id="Arrow1Send"
       style="overflow:visible"
       inkscape:isstock="true">
      <path
         id="path5929"
         d="M 0,0 5,-5 -12.5,0 5,5 0,0 Z"
         style="fill:#ec0000;fill-opacity:1;fill-rule:evenodd;stroke:#ec0000;stroke-width:1pt;stroke-opacity:1"
         transform="matrix(-0.2,0,0,-0.2,-1.2,0)"
         inkscape:connector-curvature="0" />
    </marker>
    <marker
       inkscape:stockid="Arrow1Mend"
       orient="auto"
       refY="0"
       refX="0"
       id="Arrow1Mend"
       style="overflow:visible"
       inkscape:isstock="true">
      <path
         id="path5923"
         d="M 0,0 5,-5 -12.5,0 5,5 0,0 Z"
         style="fill:#ec0000;fill-opacity:1;fill-rule:evenodd;stroke:#ec0000;stroke-width:1pt;stroke-opacity:1"
         transform="matrix(-0.4,0,0,-0.4,-4,0)"
         inkscape:connector-curvature="0" />
    </marker>
    <marker
       inkscape:stockid="Arrow1Lend"
       orient="auto"
       refY="0"
       refX="0"
       id="Arrow1Lend"
       style="overflow:visible"
       inkscape:isstock="true">
      <path
         id="path5917"
         d="M 0,0 5,-5 -12.5,0 5,5 0,0 Z"
         style="fill:#ec0000;fill-opacity:1;fill-rule:evenodd;stroke:#ec0000;stroke-width:1pt;stroke-opacity:1"
         transform="matrix(-0.8,0,0,-0.8,-10,0)"
         inkscape:connector-curvature="0" />
    </marker>
    <marker
       inkscape:stockid="Arrow1Send"
       orient="auto"
       refY="0"
       refX="0"
       id="Arrow1Send-3"
       style="overflow:visible"
       inkscape:isstock="true">
      <path
         inkscape:connector-curvature="0"
         id="path5929-6"
         d="M 0,0 5,-5 -12.5,0 5,5 0,0 Z"
         style="fill:#ec0000;fill-opacity:1;fill-rule:evenodd;stroke:#ec0000;stroke-width:1pt;stroke-opacity:1"
         transform="matrix(-0.2,0,0,-0.2,-1.2,0)" />
    </marker>
    <marker
       inkscape:stockid="Arrow1Send"
       orient="auto"
       refY="0"
       refX="0"
       id="Arrow1Send-5"
       style="overflow:visible"
       inkscape:isstock="true">
      <path
         inkscape:connector-curvature="0"
         id="path5929-3"
         d="M 0,0 5,-5 -12.5,0 5,5 0,0 Z"
         style="fill:#ec0000;fill-opacity:1;fill-rule:evenodd;stroke:#ec0000;stroke-width:1pt;stroke-opacity:1"
         transform="matrix(-0.2,0,0,-0.2,-1.2,0)" />
    </marker>
    <marker
       inkscape:stockid="Arrow1Send"
       orient="auto"
       refY="0"
       refX="0"
       id="Arrow1Send-5-6"
       style="overflow:visible"
       inkscape:isstock="true">
      <path
         inkscape:connector-curvature="0"
         id="path5929-3-2"
         d="M 0,0 5,-5 -12.5,0 5,5 0,0 Z"
         style="fill:#ec0000;fill-opacity:1;fill-rule:evenodd;stroke:#ec0000;stroke-width:1pt;stroke-opacity:1"
         transform="matrix(-0.2,0,0,-0.2,-1.2,0)" />
    </marker>
  </defs>
  <metadata
     id="metadata4315">
    <rdf:RDF>
      <cc:Work
         rdf:about="">
        <dc:format>image/svg+xml</dc:format>
        <dc:type
           rdf:resource="http://purl.org/dc/dcmitype/StillImage" />
        <dc:title></dc:title>
      </cc:Work>
    </rdf:RDF>
  </metadata>
  <g
     inkscape:label="Nozzle_Fill"
     inkscape:groupmode="layer"
     id="layer1"
     style="display:none"
     sodipodi:insensitive="true"
     transform="translate(-73.617378,-100.59461)">
    <rect
       style="fill:none;fill-opacity:1;stroke:none;stroke-width:7;stroke-miterlimit:4;stroke-dasharray:none;stroke-dashoffset:0;stroke-opacity:1"
       id="rect4337"
       width="51.42857"
       height="205.71428"
       x="157.14285"
       y="160.93364" />
    <path
       style="fill:#ffff94;fill-opacity:1;stroke:none;stroke-width:2;stroke-miterlimit:4;stroke-dasharray:4, 4;stroke-dashoffset:0;stroke-opacity:1"
       d="m 180.15234,144.36914 0,130.60156 0,13.81836 0,130.59961 272.51172,-84.12109 0,-46.47852 0,-13.81836 0,-46.48047 -272.51172,-84.12109 z"
       id="path4885"
       inkscape:connector-curvature="0" />
  </g>
  <g
     inkscape:groupmode="layer"
     id="layer5"
     inkscape:label="Nozzle_Outline"
     style="display:none"
     sodipodi:insensitive="true"
     transform="translate(-73.617378,-100.59461)">
    <path
       inkscape:connector-curvature="0"
       id="path5460"
       d="m 180.15234,419.38867 272.51172,-84.12109 m 0,-106.77735 -272.51172,-84.12109"
       style="display:inline;fill:none;fill-opacity:1;stroke:#0000c7;stroke-width:5;stroke-miterlimit:4;stroke-dasharray:none;stroke-dashoffset:0;stroke-opacity:1"
       sodipodi:nodetypes="cccc" />
  </g>
  <g
     style="display:inline"
     inkscape:label="Nozzle_dotted"
     id="g5464"
     inkscape:groupmode="layer"
     sodipodi:insensitive="true"
     transform="translate(-73.617378,-100.59461)">
    <path
       style="display:inline;fill:none;fill-opacity:1;stroke:#ff0000;stroke-width:2;stroke-miterlimit:4;stroke-dasharray:4, 4;stroke-dashoffset:0;stroke-opacity:1"
       d="m 188.15234,274.9707 c 0,44.52735 0,89.05469 0,133.58203 85.50391,-26.39453 171.00782,-52.78906 256.51172,-79.18359 0,-31.66016 0,-63.32031 0,-94.98047 -85.5039,-26.39453 -171.00781,-52.78906 -256.51172,-79.18359 0,39.92187 0,79.84375 0,119.76562 z"
       id="path5466"
       inkscape:connector-curvature="0" />
  </g>
  <g
     inkscape:groupmode="layer"
     id="layer6"
     inkscape:label="Nozzle_merge"
     style="display:inline"
     sodipodi:insensitive="true"
     transform="translate(-73.617378,-100.59461)">
    <g
       id="g5499">
      <rect
         style="display:inline;fill:none;fill-opacity:1;stroke:none;stroke-width:7;stroke-miterlimit:4;stroke-dasharray:none;stroke-dashoffset:0;stroke-opacity:1"
         id="rect5485"
         width="51.42857"
         height="205.71428"
         x="157.14285"
         y="160.93364" />
      <path
         style="display:inline;fill:#ffff94;fill-opacity:1;stroke:none;stroke-width:2;stroke-miterlimit:4;stroke-dasharray:4, 4;stroke-dashoffset:0;stroke-opacity:1"
         d="m 180.15234,144.36914 0,130.60156 0,13.81836 0,130.59961 272.51172,-84.12109 0,-46.47852 0,-13.81836 0,-46.48047 -272.51172,-84.12109 z"
         id="path5487"
         inkscape:connector-curvature="0" />
      <path
         inkscape:connector-curvature="0"
         id="path5489"
         d="m 180.15234,419.38867 272.51172,-84.12109 m 0,-106.77735 -272.51172,-84.12109"
         style="display:inline;fill:none;fill-opacity:1;stroke:#0000c7;stroke-width:5;stroke-miterlimit:4;stroke-dasharray:none;stroke-dashoffset:0;stroke-opacity:1"
         sodipodi:nodetypes="cccc" />
      <path
         style="display:inline;fill:none;fill-opacity:1;stroke:#ff0000;stroke-width:2;stroke-miterlimit:4;stroke-dasharray:4, 4;stroke-dashoffset:0;stroke-opacity:1"
         d="m 188.15234,274.9707 c 0,44.52735 0,89.05469 0,133.58203 85.50391,-26.39453 171.00782,-52.78906 256.51172,-79.18359 0,-31.66016 0,-63.32031 0,-94.98047 -85.5039,-26.39453 -171.00781,-52.78906 -256.51172,-79.18359 0,39.92187 0,79.84375 0,119.76562 z"
         id="path5491"
         inkscape:connector-curvature="0" />
    </g>
    <g
       id="g5505"
       transform="matrix(-1,0,0,1,634.5443,280)">
      <rect
         y="160.93364"
         x="157.14285"
         height="205.71428"
         width="51.42857"
         id="rect5507"
         style="display:inline;fill:none;fill-opacity:1;stroke:none;stroke-width:7;stroke-miterlimit:4;stroke-dasharray:none;stroke-dashoffset:0;stroke-opacity:1" />
      <path
         inkscape:connector-curvature="0"
         id="path5509"
         d="m 180.15234,144.36914 0,130.60156 0,13.81836 0,130.59961 272.51172,-84.12109 0,-46.47852 0,-13.81836 0,-46.48047 -272.51172,-84.12109 z"
         style="display:inline;fill:#ffff94;fill-opacity:1;stroke:none;stroke-width:2;stroke-miterlimit:4;stroke-dasharray:4, 4;stroke-dashoffset:0;stroke-opacity:1" />
      <path
         sodipodi:nodetypes="cccc"
         style="display:inline;fill:none;fill-opacity:1;stroke:#0000c7;stroke-width:5;stroke-miterlimit:4;stroke-dasharray:none;stroke-dashoffset:0;stroke-opacity:1"
         d="m 180.15234,419.38867 272.51172,-84.12109 m 0,-106.77735 -272.51172,-84.12109"
         id="path5511"
         inkscape:connector-curvature="0" />
      <path
         inkscape:connector-curvature="0"
         id="path5513"
         d="m 188.15234,274.9707 c 0,44.52735 0,89.05469 0,133.58203 85.50391,-26.39453 171.00782,-52.78906 256.51172,-79.18359 0,-31.66016 0,-63.32031 0,-94.98047 -85.5039,-26.39453 -171.00781,-52.78906 -256.51172,-79.18359 0,39.92187 0,79.84375 0,119.76562 z"
         style="display:inline;fill:none;fill-opacity:1;stroke:#ff0000;stroke-width:2;stroke-miterlimit:4;stroke-dasharray:4, 4;stroke-dashoffset:0;stroke-opacity:1" />
    </g>
  </g>
  <g
     inkscape:groupmode="layer"
     id="layer7"
     inkscape:label="Nozzle_Text"
     transform="translate(-73.617378,-100.59461)">
    <g
       transform="matrix(0.7500209,0,0,0.7500209,-536.8221,-30.192392)"
       id="g5545">
      <g
         style="font-style:normal;font-variant:normal;font-weight:normal;font-stretch:normal;letter-spacing:normal;word-spacing:normal;text-anchor:start;fill:none;fill-opacity:1;fill-rule:evenodd;stroke:#000000;stroke-linecap:butt;stroke-linejoin:miter;stroke-miterlimit:10.43299961;stroke-dasharray:none;stroke-dashoffset:0;stroke-opacity:1"
         id="content"
         transform="matrix(1.0629921,0,0,-1.0629921,-186.02362,789.27165)"
         xml:space="preserve"
         stroke-miterlimit="10.433"
         font-style="normal"
         font-variant="normal"
         font-weight="normal"
         font-stretch="normal"
         font-size-adjust="none"
         letter-spacing="normal"
         word-spacing="normal"><path
           style="fill:#000000;stroke-width:0"
           inkscape:connector-curvature="0"
           d="m 1197.7,374.79 0.1,0.37 0,0.18 0.1,0.18 0,0.17 0.1,0.17 0.1,0.17 0.1,0.16 0,0.16 0.1,0.15 0.1,0.15 0.1,0.14 0.1,0.15 0.2,0.13 0.1,0.13 0.1,0.13 0.2,0.12 0.2,0.11 0.1,0.11 0.2,0.1 0.2,0.1 0.2,0.09 0.2,0.08 0.3,0.08 0.2,0.07 0.3,0.06 0.3,0.06 0.3,0.05 0.3,0.04 0.3,0.03 0.4,0.03 0.2,0.01 0.1,0.01 c 0.3,0 0.9,0.05 0.9,0.99 0,0.05 0,0.55 -0.7,0.55 l -10.1,0 c -0.3,0 -0.9,0 -0.9,-0.99 0,-0.55 0.5,-0.55 0.9,-0.55 2.9,-0.05 3.4,-1.1 3.4,-2.19 0,-0.15 -0.1,-0.9 -0.1,-1.05 l -5.6,-22.17 -11,26 c -0.4,0.9 -0.5,0.95 -1.6,0.95 l -6.7,0 c -1,0 -1.4,0 -1.4,-0.99 0,-0.55 0.4,-0.55 1.4,-0.55 0.2,0 3.3,0 3.3,-0.45 l -6.6,-26.75 c -0.5,-1.99 -1.4,-3.58 -5.4,-3.74 -0.3,0 -0.9,-0.04 -0.9,-0.99 0,-0.35 0.3,-0.55 0.7,-0.55 l 10.1,0 c 0.2,0 0.9,0 0.9,1 0,0.5 -0.4,0.54 -1,0.54 -2.9,0.1 -3.3,1.2 -3.3,2.19 0,0.36 0.1,0.6 0.2,1.15 l 6.6,26.3 c 0.2,-0.3 0.2,-0.39 0.4,-0.89 l 12.4,-29.34 c 0.4,-0.85 0.5,-0.95 1,-0.95 0.5,0 0.5,0.15 0.8,1.05 z"
           id="path5548" /><path
           style="fill:#000000;stroke-width:0"
           inkscape:connector-curvature="0"
           d="m 1229.4,359.6 -0.1,0.48 0,0.47 0,0.45 -0.1,0.45 -0.1,0.43 -0.1,0.42 -0.1,0.41 -0.2,0.39 -0.1,0.38 -0.2,0.37 -0.2,0.35 -0.2,0.34 -0.2,0.32 -0.2,0.31 -0.3,0.3 -0.2,0.28 -0.3,0.27 -0.3,0.25 -0.3,0.23 -0.3,0.22 -0.3,0.2 -0.4,0.19 -0.3,0.17 -0.4,0.15 -0.3,0.14 -0.4,0.11 -0.4,0.1 -0.4,0.09 -0.4,0.06 -0.4,0.05 -0.4,0.03 -0.4,0.01 -0.1,-1.1 c 2.9,0 4.4,-2.39 4.4,-5.38 0,-1.94 -1,-7.17 -2.9,-10.41 -1.7,-2.89 -4.4,-4.58 -6.7,-4.58 l 0,0 c -2.2,0 -4.4,1.54 -4.4,5.43 0,2.44 1.3,7.82 2.9,10.36 2.5,3.84 5.3,4.58 6.7,4.58 l 0.1,1.1 c -6.7,0 -13.4,-7.07 -13.4,-14.15 0,-4.93 3.4,-8.42 8,-8.42 6.6,0 13.4,6.88 13.4,14.15 z"
           id="path5550" /><path
           style="fill:#000000;stroke-width:0"
           inkscape:connector-curvature="0"
           d="m 1236.6,350.13 0.3,0.27 0.2,0.26 0.3,0.24 0.2,0.24 0.2,0.23 0.2,0.23 0.2,0.21 0.2,0.21 0.2,0.2 0.2,0.2 0.2,0.19 0.2,0.18 0.2,0.18 0.2,0.18 0.3,0.33 0.4,0.32 0.3,0.3 0.3,0.29 0.3,0.29 0.7,0.56 0.3,0.29 0.4,0.28 c 0,0.05 3,2.69 4.8,4.49 4.8,4.63 5.9,7.02 5.9,7.22 0,0.5 -0.5,0.5 -0.6,0.5 -0.3,0 -0.5,-0.1 -0.7,-0.55 -1.5,-2.39 -2.6,-3.19 -3.8,-3.19 -1.2,0 -1.8,0.75 -2.5,1.6 -0.9,1.14 -1.8,2.14 -3.5,2.14 -3.7,0 -6,-4.64 -6,-5.68 0,-0.25 0.2,-0.55 0.6,-0.55 0.5,0 0.6,0.25 0.7,0.55 0.9,2.29 3.8,2.34 4.2,2.34 1.1,0 2,-0.35 3.1,-0.75 2,-0.75 2.6,-0.75 3.9,-0.75 -1.8,-2.14 -6,-5.72 -6.9,-6.52 l -4.5,-4.18 c -3.4,-3.34 -5.2,-6.18 -5.2,-6.53 0,-0.5 0.5,-0.5 0.6,-0.5 0.4,0 0.5,0.1 0.8,0.65 1.2,1.74 2.7,3.09 4.3,3.09 1.1,0 1.6,-0.45 2.9,-1.89 0.8,-1.05 1.7,-1.85 3.1,-1.85 5,0 7.9,6.33 7.9,7.67 0,0.25 -0.2,0.5 -0.6,0.5 -0.5,0 -0.6,-0.3 -0.7,-0.65 -1.2,-3.24 -4.4,-4.18 -6,-4.18 -1,0 -1.9,0.3 -2.9,0.65 -1.7,0.65 -2.5,0.85 -3.5,0.85 -0.1,0 -0.9,0 -1.4,-0.16 z"
           id="path5552" /><path
           style="fill:#000000;stroke-width:0"
           inkscape:connector-curvature="0"
           d="m 1261.6,350.13 0.3,0.27 0.2,0.26 0.3,0.24 0.2,0.24 0.2,0.23 0.2,0.23 0.2,0.21 0.2,0.21 0.2,0.2 0.2,0.2 0.2,0.19 0.2,0.18 0.2,0.18 0.2,0.18 0.3,0.33 0.4,0.32 0.3,0.3 0.3,0.29 0.3,0.29 0.7,0.56 0.3,0.29 0.4,0.28 c 0,0.05 3,2.69 4.8,4.49 4.8,4.63 5.9,7.02 5.9,7.22 0,0.5 -0.5,0.5 -0.6,0.5 -0.3,0 -0.5,-0.1 -0.7,-0.55 -1.5,-2.39 -2.6,-3.19 -3.8,-3.19 -1.2,0 -1.8,0.75 -2.5,1.6 -0.9,1.14 -1.8,2.14 -3.5,2.14 -3.7,0 -6,-4.64 -6,-5.68 0,-0.25 0.2,-0.55 0.6,-0.55 0.5,0 0.6,0.25 0.7,0.55 0.9,2.29 3.8,2.34 4.2,2.34 1.1,0 2,-0.35 3.1,-0.75 2,-0.75 2.6,-0.75 3.9,-0.75 -1.8,-2.14 -6,-5.72 -6.9,-6.52 l -4.5,-4.18 c -3.4,-3.34 -5.2,-6.18 -5.2,-6.53 0,-0.5 0.5,-0.5 0.6,-0.5 0.4,0 0.5,0.1 0.8,0.65 1.2,1.74 2.7,3.09 4.3,3.09 1.1,0 1.6,-0.45 2.9,-1.89 0.8,-1.05 1.7,-1.85 3.1,-1.85 5,0 7.9,6.33 7.9,7.67 0,0.25 -0.2,0.5 -0.6,0.5 -0.5,0 -0.6,-0.3 -0.7,-0.65 -1.2,-3.24 -4.4,-4.18 -6,-4.18 -1,0 -1.9,0.3 -2.9,0.65 -1.7,0.65 -2.5,0.85 -3.5,0.85 -0.1,0 -0.9,0 -1.4,-0.16 z"
           id="path5554" /><path
           style="fill:#000000;stroke-width:0"
           inkscape:connector-curvature="0"
           d="m 1293.8,380.02 0,0.01 0,0 0,0.01 0,0.01 0,0.01 0,0.01 0,0.02 0,0.02 0,0.02 0,0.02 0,0.02 0,0.02 0,0.03 0,0.02 0,0.03 0,0.02 0,0.02 0,0.03 -0.1,0.02 0,0.03 0,0.02 0,0.01 0,0.01 0,0.01 -0.1,0.01 0,0.01 0,0.01 0,0.01 0,0.01 0,0.01 -0.1,0.01 0,0.01 0,0 0,0.01 0,0.01 -0.1,0 0,0.01 0,0 0,0.01 -0.1,0 0,0 0,0.01 0,0 -0.1,0 0,0 c -1.1,0 -4.8,-0.4 -6.1,-0.5 -0.4,-0.05 -0.9,-0.1 -0.9,-1.04 0,-0.55 0.5,-0.55 1.2,-0.55 2.4,0 2.5,-0.45 2.5,-0.85 l -0.2,-0.99 -6.3,-24.91 c -0.1,-0.55 -0.2,-0.9 -0.2,-1.69 0,-2.84 2.2,-4.59 4.5,-4.59 1.7,0 2.9,1 3.8,2.79 0.9,1.89 1.5,4.78 1.5,4.88 0,0.5 -0.5,0.5 -0.6,0.5 -0.5,0 -0.6,-0.2 -0.7,-0.89 -0.9,-3.24 -1.8,-6.18 -3.8,-6.18 -1.5,0 -1.5,1.59 -1.5,2.29 0,1.2 0,1.45 0.3,2.39 z"
           id="path5556" /><path
           style="fill:#000000;stroke-width:0"
           inkscape:connector-curvature="0"
           d="m 1305.3,357.51 0.2,0 0.1,0 0.2,0 0.2,0 0.1,0.01 0.2,0 0.3,0.01 0.2,0.01 0.2,0.01 0.2,0.01 0.3,0.02 0.2,0.01 0.3,0.02 0.2,0.03 0.5,0.05 0.6,0.06 0.5,0.08 0.6,0.09 0.5,0.11 0.5,0.13 0.3,0.07 0.3,0.07 0.2,0.08 0.3,0.09 0.2,0.09 0.2,0.09 c 3.5,1.5 3.8,4.44 3.8,5.14 0,2.19 -1.9,4.23 -5.4,4.23 l 0,-1.1 c 2.4,0 3.7,-1.44 3.7,-3.13 0,-5.19 -7.9,-5.19 -10,-5.19 l -2,0 c 1.9,7.58 7.1,8.32 8.3,8.32 l 0,1.1 c -5.5,0 -13,-4.84 -13,-13.55 0,-5.08 2.9,-9.02 7.8,-9.02 7.1,0 11.3,5.28 11.3,5.88 0,0.3 -0.3,0.65 -0.6,0.65 -0.2,0 -0.3,-0.1 -0.6,-0.5 -4,-4.93 -9.4,-4.93 -10,-4.93 -3.9,0 -4.3,4.18 -4.3,5.78 0,0.6 0,2.14 0.8,5.18 z"
           id="path5558" /></g>    </g>
    <g
       id="g5624"
       transform="matrix(0.58108836,0,0,0.58108836,-341.74925,322.14054)">
      <g
         word-spacing="normal"
         letter-spacing="normal"
         font-size-adjust="none"
         font-stretch="normal"
         font-weight="normal"
         font-variant="normal"
         font-style="normal"
         stroke-miterlimit="10.433"
         xml:space="preserve"
         transform="matrix(1.0629921,0,0,-1.0629921,-186.02362,789.27165)"
         id="g5626"
         style="font-style:normal;font-variant:normal;font-weight:normal;font-stretch:normal;letter-spacing:normal;word-spacing:normal;text-anchor:start;fill:none;fill-opacity:1;fill-rule:evenodd;stroke:#000000;stroke-linecap:butt;stroke-linejoin:miter;stroke-miterlimit:10.43299961;stroke-dasharray:none;stroke-dashoffset:0;stroke-opacity:1"><path
           id="path5628"
           d="m 1138.9,349.89 0,-0.18 -0.1,-0.17 0,-0.16 -0.1,-0.15 0,-0.15 0,-0.13 -0.1,-0.13 0,-0.12 -0.1,-0.11 -0.1,-0.11 0,-0.1 -0.1,-0.09 -0.1,-0.09 -0.1,-0.07 -0.1,-0.08 -0.1,-0.06 -0.1,-0.07 -0.1,-0.05 -0.1,-0.05 -0.2,-0.05 -0.1,-0.04 -0.1,-0.02 -0.1,-0.02 -0.1,-0.01 -0.1,-0.02 -0.1,-0.01 -0.1,-0.01 -0.1,-0.02 -0.1,-0.01 -0.2,-0.01 -0.1,-0.01 -0.1,-0.01 -0.1,0 -0.2,-0.01 -0.1,-0.01 -0.2,0 -0.1,-0.01 -0.2,0 -0.1,0 -0.2,0 -0.2,-0.01 -0.1,0 -0.2,0 c -0.9,0 -1.4,0 -1.4,-0.94 0,-0.6 0.4,-0.6 1.4,-0.6 l 16.5,0 -0.9,1.54 -5.7,0 c -0.6,0 -0.7,0 -1.1,0.05 -0.4,0.05 -0.6,0.11 -0.6,0.5 0,0.15 0,0.25 0.3,1.15 l 6.8,27.35 c 0.4,1.74 0.5,1.89 2.7,1.89 l 5.3,0 c 4.9,0 9,-2.64 9,-9.22 0,-2.44 -1,-10.61 -5.2,-16.09 -1.5,-1.84 -5.4,-5.63 -11.5,-5.63 l 0.9,-1.54 c 10.3,0 20.2,10.51 20.2,21.42 0,7.02 -4.3,12.6 -11.8,12.6 l -16.7,0 c -0.9,0 -1.5,0 -1.5,-0.95 0,-0.59 0.5,-0.59 1.5,-0.59 0.6,0 1.5,-0.05 2.1,-0.1 0.8,-0.1 1.1,-0.25 1.1,-0.8 0,-0.2 0,-0.35 -0.2,-0.94 z"
           inkscape:connector-curvature="0"
           style="fill:#000000;stroke-width:0" /><path
           id="path5630"
           d="m 1188.2,377.13 -0.1,0.1 0,0.09 0,0.09 0,0.09 0,0.08 0,0.09 0,0.08 -0.1,0.08 0,0.08 0,0.08 -0.1,0.08 0,0.07 -0.1,0.07 0,0.07 -0.1,0.06 0,0.06 -0.1,0.06 -0.1,0.06 0,0.05 -0.1,0.05 -0.1,0.05 -0.1,0.04 0,0.04 -0.1,0.04 -0.1,0.03 -0.1,0.03 -0.1,0.02 -0.1,0.02 -0.1,0.02 -0.1,0.01 -0.1,0 -0.1,0.01 c -1.3,0 -2.7,-1.3 -2.7,-2.64 0,-0.95 0.7,-1.8 1.9,-1.8 1.2,0 2.7,1.15 2.7,2.64 z"
           inkscape:connector-curvature="0"
           style="fill:#000000;stroke-width:0" /><path
           id="path5632"
           d="m 1184.4,358.4 0,0.13 0.1,0.13 0,0.12 0.1,0.11 0,0.1 0,0.1 0.1,0.09 0,0.09 0,0.09 0.1,0.08 0,0.08 0,0.08 0.1,0.07 0,0.07 0,0.15 0.1,0.14 0.1,0.14 0,0.07 0,0.08 0,0.08 0.1,0.08 0,0.08 0,0.09 0.1,0.09 0,0.1 0,0.11 0.1,0.1 0,0.12 0.1,0.12 c 0.4,1 0.6,1.69 0.6,2.64 0,2.25 -1.6,4.09 -4.1,4.09 -4.7,0 -6.6,-7.23 -6.6,-7.67 0,-0.5 0.5,-0.5 0.6,-0.5 0.5,0 0.6,0.1 0.8,0.9 1.4,4.68 3.4,6.17 5.1,6.17 0.4,0 1.2,0 1.2,-1.59 0,-1.05 -0.3,-2.1 -0.5,-2.59 -0.4,-1.3 -2.7,-7.08 -3.5,-9.22 -0.5,-1.29 -1.1,-2.94 -1.1,-3.98 0,-2.34 1.7,-4.09 4.1,-4.09 4.7,0 6.5,7.23 6.5,7.67 0,0.5 -0.4,0.5 -0.6,0.5 -0.5,0 -0.5,-0.15 -0.8,-0.89 -0.8,-3.14 -2.5,-6.18 -5,-6.18 -0.9,0 -1.2,0.5 -1.2,1.64 0,1.25 0.3,1.94 1.4,4.98 z"
           inkscape:connector-curvature="0"
           style="fill:#000000;stroke-width:0" /><path
           id="path5634"
           d="m 1209.3,365.93 4.3,0 c 1,0 1.5,0 1.5,0.99 0,0.55 -0.5,0.55 -1.4,0.55 l -4.1,0 1,5.68 c 0.2,1.05 0.9,4.58 1.2,5.18 0.5,0.94 1.3,1.69 2.4,1.69 0.2,0 1.5,0 2.4,-0.9 -2.2,-0.19 -2.7,-1.94 -2.7,-2.68 0,-1.15 0.9,-1.75 1.9,-1.75 1.3,0 2.7,1.1 2.7,2.99 0,2.29 -2.3,3.44 -4.3,3.44 -1.7,0 -4.9,-0.9 -6.4,-5.83 -0.3,-1.05 -0.4,-1.54 -1.6,-7.82 l -3.4,0 c -1,0 -1.5,0 -1.5,-0.95 0,-0.59 0.4,-0.59 1.4,-0.59 l 3.2,0 -3.7,-19.68 c -0.9,-4.83 -1.7,-9.37 -4.3,-9.37 -0.2,0 -1.5,0 -2.4,0.9 2.3,0.15 2.7,1.94 2.7,2.69 0,1.15 -0.9,1.74 -1.8,1.74 -1.3,0 -2.8,-1.09 -2.8,-2.98 0,-2.25 2.2,-3.44 4.3,-3.44 2.7,0 4.7,2.94 5.6,4.83 1.6,3.14 2.7,9.17 2.8,9.51 z"
           inkscape:connector-curvature="0"
           style="fill:#000000;stroke-width:0" /><path
           id="path5636"
           d="m 1239.3,365.93 4.3,0 c 1,0 1.5,0 1.5,0.99 0,0.55 -0.5,0.55 -1.4,0.55 l -4.1,0 1,5.68 c 0.2,1.05 0.9,4.58 1.2,5.18 0.5,0.94 1.3,1.69 2.4,1.69 0.2,0 1.5,0 2.4,-0.9 -2.2,-0.19 -2.7,-1.94 -2.7,-2.68 0,-1.15 0.9,-1.75 1.9,-1.75 1.3,0 2.7,1.1 2.7,2.99 0,2.29 -2.3,3.44 -4.3,3.44 -1.7,0 -4.9,-0.9 -6.4,-5.83 -0.3,-1.05 -0.4,-1.54 -1.6,-7.82 l -3.4,0 c -1,0 -1.5,0 -1.5,-0.95 0,-0.59 0.4,-0.59 1.4,-0.59 l 3.2,0 -3.7,-19.68 c -0.9,-4.83 -1.7,-9.37 -4.3,-9.37 -0.2,0 -1.5,0 -2.4,0.9 2.3,0.15 2.7,1.94 2.7,2.69 0,1.15 -0.9,1.74 -1.8,1.74 -1.3,0 -2.8,-1.09 -2.8,-2.98 0,-2.25 2.2,-3.44 4.3,-3.44 2.7,0 4.7,2.94 5.6,4.83 1.6,3.14 2.7,9.17 2.8,9.51 z"
           inkscape:connector-curvature="0"
           style="fill:#000000;stroke-width:0" /><path
           id="path5638"
           d="m 1267.4,348.79 0.1,-0.19 0,-0.19 0.1,-0.18 0.1,-0.17 0.1,-0.17 0.1,-0.17 0.1,-0.16 0.1,-0.15 0.1,-0.15 0.1,-0.15 0.1,-0.14 0.1,-0.13 0.1,-0.13 0.2,-0.13 0.1,-0.11 0.2,-0.12 0.1,-0.1 0.2,-0.1 0.1,-0.09 0.2,-0.09 0.1,-0.08 0.2,-0.07 0.2,-0.07 0.2,-0.06 0.1,-0.06 0.2,-0.04 0.2,-0.04 0.2,-0.04 0.2,-0.02 0.2,-0.02 0.2,-0.01 0.2,-0.01 c 1.7,0 2.9,1.15 3.7,2.74 0.8,1.79 1.5,4.83 1.5,4.93 0,0.5 -0.5,0.5 -0.7,0.5 -0.5,0 -0.5,-0.2 -0.6,-0.89 -0.7,-2.8 -1.7,-6.18 -3.8,-6.18 -1,0 -1.5,0.65 -1.5,2.29 0,1.09 0.6,3.44 1,5.18 l 1.4,5.38 c 0.1,0.75 0.6,2.64 0.8,3.39 0.3,1.14 0.8,3.03 0.8,3.33 0,0.9 -0.7,1.35 -1.5,1.35 -0.2,0 -1.5,-0.05 -1.9,-1.74 -1,-3.64 -3.2,-12.36 -3.8,-15 0,-0.2 -2,-4.18 -5.6,-4.18 -2.6,0 -3.1,2.24 -3.1,4.08 0,2.79 1.4,6.73 2.7,10.16 0.6,1.5 0.8,2.19 0.8,3.14 0,2.25 -1.6,4.09 -4.1,4.09 -4.7,0 -6.6,-7.23 -6.6,-7.67 0,-0.5 0.5,-0.5 0.6,-0.5 0.5,0 0.6,0.1 0.8,0.9 1.3,4.33 3.2,6.17 5.1,6.17 0.4,0 1.2,-0.05 1.2,-1.64 0,-1.2 -0.5,-2.64 -0.8,-3.39 -1.9,-4.93 -2.9,-8.02 -2.9,-10.46 0,-4.73 3.4,-5.98 6.1,-5.98 3.3,0 5.1,2.25 5.9,3.34 z"
           inkscape:connector-curvature="0"
           style="fill:#000000;stroke-width:0" /><path
           id="path5640"
           d="m 1298.5,364.63 -0.2,-0.01 -0.1,-0.01 -0.1,-0.02 -0.1,-0.03 -0.1,-0.03 -0.2,-0.03 -0.1,-0.04 -0.1,-0.05 -0.1,-0.05 -0.1,-0.05 -0.1,-0.06 -0.1,-0.06 -0.1,-0.07 -0.1,-0.07 -0.1,-0.07 0,-0.08 -0.1,-0.08 -0.1,-0.08 -0.1,-0.09 0,-0.08 -0.1,-0.09 0,-0.1 -0.1,-0.09 0,-0.1 -0.1,-0.09 0,-0.1 0,-0.1 -0.1,-0.1 0,-0.11 0,-0.1 0,-0.1 0,-0.1 c 0,-0.7 0.4,-1.44 1.5,-1.44 1.1,0 2.3,0.84 2.3,2.78 0,2.25 -2.1,4.29 -5.9,4.29 -6.6,0 -8.4,-5.08 -8.4,-7.27 0,-3.89 3.7,-4.64 5.1,-4.94 2.6,-0.49 5.2,-1.04 5.2,-3.78 0,-1.3 -1.2,-5.48 -7.1,-5.48 -0.7,0 -4.6,0 -5.7,2.64 1.9,-0.25 3.1,1.24 3.1,2.64 0,1.14 -0.8,1.74 -1.8,1.74 -1.3,0 -2.8,-1.04 -2.8,-3.28 0,-2.84 2.8,-4.84 7.1,-4.84 8.1,0 10,6.03 10,8.27 0,1.8 -0.9,3.04 -1.5,3.64 -1.4,1.39 -2.8,1.64 -5,2.09 -1.8,0.4 -3.8,0.75 -3.8,2.99 0,1.44 1.2,4.48 5.6,4.48 1.2,0 3.7,-0.35 4.5,-2.29 z"
           inkscape:connector-curvature="0"
           style="fill:#000000;stroke-width:0" /><path
           id="path5642"
           d="m 1311.3,357.51 0.2,0 0.1,0 0.2,0 0.2,0 0.1,0.01 0.2,0 0.3,0.01 0.2,0.01 0.2,0.01 0.2,0.01 0.3,0.02 0.2,0.01 0.3,0.02 0.2,0.03 0.5,0.05 0.6,0.06 0.5,0.08 0.6,0.09 0.5,0.11 0.5,0.13 0.3,0.07 0.3,0.07 0.2,0.08 0.3,0.09 0.2,0.09 0.2,0.09 c 3.5,1.5 3.8,4.44 3.8,5.14 0,2.19 -1.9,4.23 -5.4,4.23 l 0,-1.1 c 2.4,0 3.7,-1.44 3.7,-3.13 0,-5.19 -7.9,-5.19 -10,-5.19 l -2,0 c 1.9,7.58 7.1,8.32 8.3,8.32 l 0,1.1 c -5.5,0 -13,-4.84 -13,-13.55 0,-5.08 2.9,-9.02 7.8,-9.02 7.1,0 11.3,5.28 11.3,5.88 0,0.3 -0.3,0.65 -0.6,0.65 -0.2,0 -0.3,-0.1 -0.6,-0.5 -4,-4.93 -9.4,-4.93 -10,-4.93 -3.9,0 -4.3,4.18 -4.3,5.78 0,0.6 0,2.14 0.8,5.18 z"
           inkscape:connector-curvature="0"
           style="fill:#000000;stroke-width:0" /><path
           id="path5644"
           d="m 1330.4,348.94 0,-0.07 0,-0.08 -0.1,-0.07 0,-0.08 0,-0.16 -0.1,-0.16 0,-0.16 0,-0.16 -0.1,-0.16 0,-0.16 0,-0.08 0,-0.07 -0.1,-0.07 0,-0.07 0,-0.07 0,-0.07 0,-0.06 0,-0.06 0,-0.05 0,-0.06 0,-0.05 -0.1,-0.04 0,-0.04 0,-0.04 0,-0.03 0,-0.02 c 0,-0.9 0.7,-1.35 1.5,-1.35 0.6,0 1.5,0.4 1.8,1.4 0.1,0.2 1.8,6.97 2,7.87 0.4,1.64 1.3,5.13 1.6,6.47 0.2,0.65 1.6,2.99 2.8,4.09 0.4,0.34 1.8,1.64 4,1.64 1.3,0 2,-0.6 2.1,-0.6 -1.5,-0.25 -2.6,-1.44 -2.6,-2.73 0,-0.8 0.5,-1.75 1.9,-1.75 1.3,0 2.7,1.14 2.7,2.94 0,1.74 -1.6,3.24 -4.1,3.24 -3.3,0 -5.4,-2.44 -6.4,-3.84 -0.4,2.24 -2.2,3.84 -4.5,3.84 -2.3,0 -3.3,-1.95 -3.7,-2.84 -0.9,-1.7 -1.6,-4.68 -1.6,-4.83 0,-0.5 0.5,-0.5 0.6,-0.5 0.5,0 0.6,0.05 0.9,1.14 0.8,3.54 1.8,5.93 3.6,5.93 0.9,0 1.6,-0.4 1.6,-2.29 0,-1.04 -0.2,-1.59 -0.8,-4.18 z"
           inkscape:connector-curvature="0"
           style="fill:#000000;stroke-width:0" /></g>    </g>
    <g
       id="g5732"
       transform="matrix(0.64214371,0,0,0.64214371,-590.1261,-15.064363)">
      <g
         id="g5734"
         transform="matrix(1.0629921,0,0,-1.0629921,-186.02362,789.27165)"
         xml:space="preserve"
         stroke-miterlimit="10.433"
         font-style="normal"
         font-variant="normal"
         font-weight="normal"
         font-stretch="normal"
         font-size-adjust="none"
         letter-spacing="normal"
         word-spacing="normal"
         style="font-style:normal;font-variant:normal;font-weight:normal;font-stretch:normal;letter-spacing:normal;word-spacing:normal;text-anchor:start;fill:none;fill-opacity:1;fill-rule:evenodd;stroke:#000000;stroke-linecap:butt;stroke-linejoin:miter;stroke-miterlimit:10.43299961;stroke-dasharray:none;stroke-dashoffset:0;stroke-opacity:1"><path
           d="m 1245.3,374.34 0.2,0.36 0.2,0.33 0.3,0.31 0.2,0.29 0.2,0.28 0.2,0.25 0.2,0.24 0.2,0.22 0.3,0.2 0.2,0.18 0.2,0.18 0.2,0.15 0.2,0.15 0.2,0.13 0.2,0.11 0.2,0.11 0.2,0.1 0.2,0.08 0.2,0.08 0.2,0.06 0.2,0.06 0.2,0.05 0.1,0.04 0.2,0.04 0.2,0.03 0.2,0.02 0.4,0.04 0.3,0.03 0.4,0.02 c 0.6,0.05 0.6,0.9 0.6,0.95 0,0.39 -0.2,0.59 -0.6,0.59 l -9.1,0 c -0.3,0 -0.9,0 -0.9,-0.95 0,-0.54 0.4,-0.59 0.8,-0.59 1.3,-0.1 2.3,-0.6 2.3,-1.64 0,-0.75 -0.8,-1.85 -0.8,-1.9 l -15.2,-24.31 -3.4,26.35 c 0,0.85 1.1,1.5 3.4,1.5 0.7,0 1.2,0 1.2,0.99 0,0.45 -0.4,0.55 -0.7,0.55 -2,0 -4.1,-0.15 -6.1,-0.15 -0.9,0 -1.9,0.05 -2.8,0.05 -0.9,0 -1.8,0.1 -2.7,0.1 -0.3,0 -0.9,0 -0.9,-0.95 0,-0.59 0.4,-0.59 1.2,-0.59 2.8,0 2.9,-0.45 3,-1.69 l 4,-30.74 c 0.1,-1 0.3,-1.15 1,-1.15 0.8,0 0.9,0.25 1.3,0.9 z"
           id="path5736"
           inkscape:connector-curvature="0"
           style="fill:#000000;stroke-width:0" /><path
           d="m 1254.7,361.18 0,0.04 0,0.04 0,0.04 0,0.04 0,0.04 0,0.04 0,0.03 0,0.04 0,0.03 0,0.03 0,0.04 0,0.03 0,0.02 0,0.03 0,0.03 0,0.03 -0.1,0.02 0,0.02 0,0.05 0,0.04 0,0.04 0,0.03 0,0.03 -0.1,0.03 0,0.03 0,0.02 0,0.02 -0.1,0.02 0,0.01 0,0.01 -0.1,0.02 0,0 -0.1,0.01 0,0 0,0.01 0,0 -0.1,0 0,0 0,0 -0.1,0.01 0,0 0,0 -0.1,0 0,0 0,0 -0.1,0 0,0 -0.1,0 0,0 -0.1,0 c -2.2,-2.19 -5.4,-2.23 -6.8,-2.23 l 0,-1.25 c 0.8,0 3.1,0 5.1,0.97 l 0,-17.78 c 0,-1.15 0,-1.61 -3.5,-1.61 l -1.4,0 0,-1.25 12.5,0 0,1.25 -1.3,0 c -3.5,0 -3.5,0.46 -3.5,1.61 z"
           id="path5738"
           inkscape:connector-curvature="0"
           style="fill:#000000;stroke-width:0" /></g>    </g>
    <g
       transform="matrix(0.64214371,0,0,0.64214371,-590.1261,258.93564)"
       id="g5892">
      <g
         style="font-style:normal;font-variant:normal;font-weight:normal;font-stretch:normal;letter-spacing:normal;word-spacing:normal;text-anchor:start;fill:none;fill-opacity:1;fill-rule:evenodd;stroke:#000000;stroke-linecap:butt;stroke-linejoin:miter;stroke-miterlimit:10.43299961;stroke-dasharray:none;stroke-dashoffset:0;stroke-opacity:1"
         word-spacing="normal"
         letter-spacing="normal"
         font-size-adjust="none"
         font-stretch="normal"
         font-weight="normal"
         font-variant="normal"
         font-style="normal"
         stroke-miterlimit="10.433"
         xml:space="preserve"
         transform="matrix(1.0629921,0,0,-1.0629921,-186.02362,789.27165)"
         id="g5894"><path
           style="fill:#000000;stroke-width:0"
           inkscape:connector-curvature="0"
           id="path5896"
           d="m 1245.3,374.34 0.2,0.36 0.2,0.33 0.3,0.31 0.2,0.29 0.2,0.28 0.2,0.25 0.2,0.24 0.2,0.22 0.3,0.2 0.2,0.18 0.2,0.18 0.2,0.15 0.2,0.15 0.2,0.13 0.2,0.11 0.2,0.11 0.2,0.1 0.2,0.08 0.2,0.08 0.2,0.06 0.2,0.06 0.2,0.05 0.1,0.04 0.2,0.04 0.2,0.03 0.2,0.02 0.4,0.04 0.3,0.03 0.4,0.02 c 0.6,0.05 0.6,0.9 0.6,0.95 0,0.39 -0.2,0.59 -0.6,0.59 l -9.1,0 c -0.3,0 -0.9,0 -0.9,-0.95 0,-0.54 0.4,-0.59 0.8,-0.59 1.3,-0.1 2.3,-0.6 2.3,-1.64 0,-0.75 -0.8,-1.85 -0.8,-1.9 l -15.2,-24.31 -3.4,26.35 c 0,0.85 1.1,1.5 3.4,1.5 0.7,0 1.2,0 1.2,0.99 0,0.45 -0.4,0.55 -0.7,0.55 -2,0 -4.1,-0.15 -6.1,-0.15 -0.9,0 -1.9,0.05 -2.8,0.05 -0.9,0 -1.8,0.1 -2.7,0.1 -0.3,0 -0.9,0 -0.9,-0.95 0,-0.59 0.4,-0.59 1.2,-0.59 2.8,0 2.9,-0.45 3,-1.69 l 4,-30.74 c 0.1,-1 0.3,-1.15 1,-1.15 0.8,0 0.9,0.25 1.3,0.9 z" /><path
           style="fill:#000000;stroke-width:0"
           inkscape:connector-curvature="0"
           id="path5898"
           d="m 1254.7,361.18 0,0.04 0,0.04 0,0.04 0,0.04 0,0.04 0,0.04 0,0.03 0,0.04 0,0.03 0,0.03 0,0.04 0,0.03 0,0.02 0,0.03 0,0.03 0,0.03 -0.1,0.02 0,0.02 0,0.05 0,0.04 0,0.04 0,0.03 0,0.03 -0.1,0.03 0,0.03 0,0.02 0,0.02 -0.1,0.02 0,0.01 0,0.01 -0.1,0.02 0,0 -0.1,0.01 0,0 0,0.01 0,0 -0.1,0 0,0 0,0 -0.1,0.01 0,0 0,0 -0.1,0 0,0 0,0 -0.1,0 0,0 -0.1,0 0,0 -0.1,0 c -2.2,-2.19 -5.4,-2.23 -6.8,-2.23 l 0,-1.25 c 0.8,0 3.1,0 5.1,0.97 l 0,-17.78 c 0,-1.15 0,-1.61 -3.5,-1.61 l -1.4,0 0,-1.25 12.5,0 0,1.25 -1.3,0 c -3.5,0 -3.5,0.46 -3.5,1.61 z" /></g>    </g>
    <path
       style="fill:none;fill-rule:evenodd;stroke:#ec0000;stroke-width:10;stroke-linecap:butt;stroke-linejoin:miter;stroke-miterlimit:4;stroke-dasharray:none;stroke-opacity:1;marker-end:url(#Arrow1Send)"
       d="m 110.08943,283.21584 50,0"
       id="path5908"
       inkscape:connector-curvature="0" />
    <path
       style="fill:none;fill-rule:evenodd;stroke:#ec0000;stroke-width:10;stroke-linecap:butt;stroke-linejoin:miter;stroke-miterlimit:4;stroke-dasharray:none;stroke-opacity:1;marker-end:url(#Arrow1Send-3)"
       d="m 109.39265,556.97473 50,0"
       id="path5908-7"
       inkscape:connector-curvature="0" />
    <path
       style="fill:none;fill-rule:evenodd;stroke:#ec0000;stroke-width:10;stroke-linecap:butt;stroke-linejoin:miter;stroke-miterlimit:4;stroke-dasharray:none;stroke-opacity:1;marker-end:url(#Arrow1Send-5)"
       d="m 459.90942,283.64927 50,0"
       id="path5908-5"
       inkscape:connector-curvature="0" />
    <path
       style="fill:none;fill-rule:evenodd;stroke:#ec0000;stroke-width:10;stroke-linecap:butt;stroke-linejoin:miter;stroke-miterlimit:4;stroke-dasharray:none;stroke-opacity:1;marker-end:url(#Arrow1Send-5-6)"
       d="m 462.13048,554.90765 50,0"
       id="path5908-5-9"
       inkscape:connector-curvature="0" />
    <g
       id="g19219"
       transform="matrix(0.64214371,0,0,0.64214371,-191.76103,-10.585982)">
      <g
         id="g19221"
         transform="matrix(1.0629921,0,0,-1.0629921,-186.02362,789.27165)"
         xml:space="preserve"
         stroke-miterlimit="10.433"
         font-style="normal"
         font-variant="normal"
         font-weight="normal"
         font-stretch="normal"
         font-size-adjust="none"
         letter-spacing="normal"
         word-spacing="normal"
         style="font-style:normal;font-variant:normal;font-weight:normal;font-stretch:normal;letter-spacing:normal;word-spacing:normal;text-anchor:start;fill:none;fill-opacity:1;fill-rule:evenodd;stroke:#000000;stroke-linecap:butt;stroke-linejoin:miter;stroke-miterlimit:10.43299961;stroke-dasharray:none;stroke-dashoffset:0;stroke-opacity:1"><path
           d="m 1167.3,374.34 0.2,0.36 0.2,0.33 0.3,0.31 0.2,0.29 0.2,0.28 0.2,0.25 0.2,0.24 0.2,0.22 0.3,0.2 0.2,0.18 0.2,0.18 0.2,0.15 0.2,0.15 0.2,0.13 0.2,0.11 0.2,0.11 0.2,0.1 0.2,0.08 0.2,0.08 0.2,0.06 0.2,0.06 0.2,0.05 0.1,0.04 0.2,0.04 0.2,0.03 0.2,0.02 0.4,0.04 0.3,0.03 0.4,0.02 c 0.6,0.05 0.6,0.9 0.6,0.95 0,0.39 -0.2,0.59 -0.6,0.59 l -9.1,0 c -0.3,0 -0.9,0 -0.9,-0.95 0,-0.54 0.4,-0.59 0.8,-0.59 1.3,-0.1 2.3,-0.6 2.3,-1.64 0,-0.75 -0.8,-1.85 -0.8,-1.9 l -15.2,-24.31 -3.4,26.35 c 0,0.85 1.1,1.5 3.4,1.5 0.7,0 1.2,0 1.2,0.99 0,0.45 -0.4,0.55 -0.7,0.55 -2,0 -4.1,-0.15 -6.1,-0.15 -0.9,0 -1.9,0.05 -2.8,0.05 -0.9,0 -1.8,0.1 -2.7,0.1 -0.3,0 -0.9,0 -0.9,-0.95 0,-0.59 0.4,-0.59 1.2,-0.59 2.8,0 2.9,-0.45 3,-1.69 l 4,-30.74 c 0.1,-1 0.3,-1.15 1,-1.15 0.8,0 0.9,0.25 1.3,0.9 z"
           id="path19223"
           inkscape:connector-curvature="0"
           style="fill:#000000;stroke-width:0" /><path
           d="m 1182.6,345.35 -1.2,0 c -0.1,-0.77 -0.4,-2.83 -0.9,-3.18 -0.3,-0.21 -2.9,-0.21 -3.4,-0.21 l -6.4,0 c 3.6,3.25 4.8,4.22 6.9,5.86 2.6,2.06 5,4.22 5,7.54 0,4.21 -3.7,6.79 -8.2,6.79 -4.3,0 -7.2,-3.03 -7.2,-6.24 0,-1.78 1.5,-1.95 1.8,-1.95 0.9,0 1.9,0.59 1.9,1.85 0,0.62 -0.2,1.85 -2.1,1.85 1.1,2.47 3.5,3.24 5.1,3.24 3.5,0 5.3,-2.72 5.3,-5.54 0,-3.04 -2.1,-5.45 -3.3,-6.7 l -8.3,-8.3 c -0.4,-0.31 -0.4,-0.38 -0.4,-1.36 l 14.4,0 z"
           id="path19225"
           inkscape:connector-curvature="0"
           style="fill:#000000;stroke-width:0" /><path
           d="m 1234.6,357.36 0.1,0.04 0.1,0.05 0.1,0.02 0,0.03 0.1,0.02 0,0.03 0,0.02 0.1,0.03 0,0.03 0.1,0.02 0,0.03 0,0.03 0.1,0.03 0,0.03 0,0.04 0.1,0.03 0,0.03 0,0.04 0,0.04 0.1,0.03 0,0.04 0,0.04 0,0.05 0,0.04 0,0.05 0.1,0.04 0,0.05 0,0.05 0,0.06 0,0.05 c 0,0.6 -0.4,0.85 -1,1.1 l -27.6,13 c -0.6,0.35 -0.7,0.35 -0.9,0.35 -0.5,0 -1,-0.45 -1,-1 0,-0.45 0.3,-0.74 1,-1.09 l 26.1,-12.36 -26.1,-12.35 c -0.7,-0.35 -1,-0.65 -1,-1.1 0,-0.54 0.5,-0.99 1,-0.99 0.2,0 0.3,0 0.9,0.35 z"
           id="path19227"
           inkscape:connector-curvature="0"
           style="fill:#000000;stroke-width:0" /><path
           d="m 1273.6,357.36 0.1,0.04 0.1,0.05 0.1,0.02 0,0.03 0.1,0.02 0,0.03 0,0.02 0.1,0.03 0,0.03 0.1,0.02 0,0.03 0,0.03 0.1,0.03 0,0.03 0,0.04 0.1,0.03 0,0.03 0,0.04 0,0.04 0.1,0.03 0,0.04 0,0.04 0,0.05 0,0.04 0,0.05 0.1,0.04 0,0.05 0,0.05 0,0.06 0,0.05 c 0,0.6 -0.4,0.85 -1,1.1 l -27.6,13 c -0.6,0.35 -0.7,0.35 -0.9,0.35 -0.5,0 -1,-0.45 -1,-1 0,-0.45 0.3,-0.74 1,-1.09 l 26.1,-12.36 -26.1,-12.35 c -0.7,-0.35 -1,-0.65 -1,-1.1 0,-0.54 0.5,-0.99 1,-0.99 0.2,0 0.3,0 0.9,0.35 z"
           id="path19229"
           inkscape:connector-curvature="0"
           style="fill:#000000;stroke-width:0" /><path
           d="m 1324.3,374.34 0.2,0.36 0.2,0.33 0.3,0.31 0.2,0.29 0.2,0.28 0.2,0.25 0.2,0.24 0.2,0.22 0.3,0.2 0.2,0.18 0.2,0.18 0.2,0.15 0.2,0.15 0.2,0.13 0.2,0.11 0.2,0.11 0.2,0.1 0.2,0.08 0.2,0.08 0.2,0.06 0.2,0.06 0.2,0.05 0.1,0.04 0.2,0.04 0.2,0.03 0.2,0.02 0.4,0.04 0.3,0.03 0.4,0.02 c 0.6,0.05 0.6,0.9 0.6,0.95 0,0.39 -0.2,0.59 -0.6,0.59 l -9.1,0 c -0.3,0 -0.9,0 -0.9,-0.95 0,-0.54 0.4,-0.59 0.8,-0.59 1.3,-0.1 2.3,-0.6 2.3,-1.64 0,-0.75 -0.8,-1.85 -0.8,-1.9 l -15.2,-24.31 -3.4,26.35 c 0,0.85 1.1,1.5 3.4,1.5 0.7,0 1.2,0 1.2,0.99 0,0.45 -0.4,0.55 -0.7,0.55 -2,0 -4.1,-0.15 -6.1,-0.15 -0.9,0 -1.9,0.05 -2.8,0.05 -0.9,0 -1.8,0.1 -2.7,0.1 -0.3,0 -0.9,0 -0.9,-0.95 0,-0.59 0.4,-0.59 1.2,-0.59 2.8,0 2.9,-0.45 3,-1.69 l 4,-30.74 c 0.1,-1 0.3,-1.15 1,-1.15 0.8,0 0.9,0.25 1.3,0.9 z"
           id="path19231"
           inkscape:connector-curvature="0"
           style="fill:#000000;stroke-width:0" /><path
           d="m 1333.7,361.18 0,0.04 0,0.04 0,0.04 0,0.04 0,0.04 0,0.04 0,0.03 0,0.04 0,0.03 0,0.03 0,0.04 0,0.03 0,0.02 0,0.03 0,0.03 0,0.03 -0.1,0.02 0,0.02 0,0.05 0,0.04 0,0.04 0,0.03 0,0.03 -0.1,0.03 0,0.03 0,0.02 0,0.02 -0.1,0.02 0,0.01 0,0.01 -0.1,0.02 0,0 -0.1,0.01 0,0 0,0.01 0,0 -0.1,0 0,0 0,0 -0.1,0.01 0,0 0,0 -0.1,0 0,0 0,0 -0.1,0 0,0 -0.1,0 0,0 -0.1,0 c -2.2,-2.19 -5.4,-2.23 -6.8,-2.23 l 0,-1.25 c 0.8,0 3.1,0 5.1,0.97 l 0,-17.78 c 0,-1.15 0,-1.61 -3.5,-1.61 l -1.4,0 0,-1.25 12.5,0 0,1.25 -1.3,0 c -3.5,0 -3.5,0.46 -3.5,1.61 z"
           id="path19233"
           inkscape:connector-curvature="0"
           style="fill:#000000;stroke-width:0" /></g>    </g>
    <g
       id="g19397"
       transform="matrix(0.64214371,0,0,0.64214371,-197.45766,260.68207)">
      <g
         word-spacing="normal"
         letter-spacing="normal"
         font-size-adjust="none"
         font-stretch="normal"
         font-weight="normal"
         font-variant="normal"
         font-style="normal"
         stroke-miterlimit="10.433"
         xml:space="preserve"
         transform="matrix(1.0629921,0,0,-1.0629921,-186.02362,789.27165)"
         id="g19399"
         style="font-style:normal;font-variant:normal;font-weight:normal;font-stretch:normal;letter-spacing:normal;word-spacing:normal;text-anchor:start;fill:none;fill-opacity:1;fill-rule:evenodd;stroke:#000000;stroke-linecap:butt;stroke-linejoin:miter;stroke-miterlimit:10.43299961;stroke-dasharray:none;stroke-dashoffset:0;stroke-opacity:1"><path
           id="path19401"
           d="m 1167.3,374.34 0.2,0.36 0.2,0.33 0.3,0.31 0.2,0.29 0.2,0.28 0.2,0.25 0.2,0.24 0.2,0.22 0.3,0.2 0.2,0.18 0.2,0.18 0.2,0.15 0.2,0.15 0.2,0.13 0.2,0.11 0.2,0.11 0.2,0.1 0.2,0.08 0.2,0.08 0.2,0.06 0.2,0.06 0.2,0.05 0.1,0.04 0.2,0.04 0.2,0.03 0.2,0.02 0.4,0.04 0.3,0.03 0.4,0.02 c 0.6,0.05 0.6,0.9 0.6,0.95 0,0.39 -0.2,0.59 -0.6,0.59 l -9.1,0 c -0.3,0 -0.9,0 -0.9,-0.95 0,-0.54 0.4,-0.59 0.8,-0.59 1.3,-0.1 2.3,-0.6 2.3,-1.64 0,-0.75 -0.8,-1.85 -0.8,-1.9 l -15.2,-24.31 -3.4,26.35 c 0,0.85 1.1,1.5 3.4,1.5 0.7,0 1.2,0 1.2,0.99 0,0.45 -0.4,0.55 -0.7,0.55 -2,0 -4.1,-0.15 -6.1,-0.15 -0.9,0 -1.9,0.05 -2.8,0.05 -0.9,0 -1.8,0.1 -2.7,0.1 -0.3,0 -0.9,0 -0.9,-0.95 0,-0.59 0.4,-0.59 1.2,-0.59 2.8,0 2.9,-0.45 3,-1.69 l 4,-30.74 c 0.1,-1 0.3,-1.15 1,-1.15 0.8,0 0.9,0.25 1.3,0.9 z"
           inkscape:connector-curvature="0"
           style="fill:#000000;stroke-width:0" /><path
           id="path19403"
           d="m 1182.6,345.35 -1.2,0 c -0.1,-0.77 -0.4,-2.83 -0.9,-3.18 -0.3,-0.21 -2.9,-0.21 -3.4,-0.21 l -6.4,0 c 3.6,3.25 4.8,4.22 6.9,5.86 2.6,2.06 5,4.22 5,7.54 0,4.21 -3.7,6.79 -8.2,6.79 -4.3,0 -7.2,-3.03 -7.2,-6.24 0,-1.78 1.5,-1.95 1.8,-1.95 0.9,0 1.9,0.59 1.9,1.85 0,0.62 -0.2,1.85 -2.1,1.85 1.1,2.47 3.5,3.24 5.1,3.24 3.5,0 5.3,-2.72 5.3,-5.54 0,-3.04 -2.1,-5.45 -3.3,-6.7 l -8.3,-8.3 c -0.4,-0.31 -0.4,-0.38 -0.4,-1.36 l 14.4,0 z"
           inkscape:connector-curvature="0"
           style="fill:#000000;stroke-width:0" /><path
           id="path19405"
           d="m 1234.6,370.81 0.1,0.03 0,0.02 0.1,0.03 0,0.03 0.1,0.03 0,0.02 0.1,0.03 0,0.03 0.1,0.03 0,0.02 0,0.03 0.1,0.03 0,0.03 0.1,0.03 0,0.03 0,0.03 0.1,0.03 0,0.04 0,0.03 0,0.03 0.1,0.04 0,0.04 0,0.03 0,0.04 0,0.04 0,0.04 0,0.05 0.1,0.04 0,0.05 0,0.04 0,0.05 0,0.05 c 0,0.55 -0.5,1 -1,1 -0.2,0 -0.3,0 -0.9,-0.35 l -27.6,-13 c -0.6,-0.25 -1,-0.5 -1,-1.1 0,-0.59 0.4,-0.84 1,-1.09 l 27.6,-13 c 0.6,-0.35 0.7,-0.35 0.9,-0.35 0.5,0 1,0.45 1,0.99 0,0.55 -0.4,0.8 -1,1.1 l -26.1,12.35 z"
           inkscape:connector-curvature="0"
           style="fill:#000000;stroke-width:0" /><path
           id="path19407"
           d="m 1273.6,370.81 0.1,0.03 0,0.02 0.1,0.03 0,0.03 0.1,0.03 0,0.02 0.1,0.03 0,0.03 0.1,0.03 0,0.02 0,0.03 0.1,0.03 0,0.03 0.1,0.03 0,0.03 0,0.03 0.1,0.03 0,0.04 0,0.03 0,0.03 0.1,0.04 0,0.04 0,0.03 0,0.04 0,0.04 0,0.04 0,0.05 0.1,0.04 0,0.05 0,0.04 0,0.05 0,0.05 c 0,0.55 -0.5,1 -1,1 -0.2,0 -0.3,0 -0.9,-0.35 l -27.6,-13 c -0.6,-0.25 -1,-0.5 -1,-1.1 0,-0.59 0.4,-0.84 1,-1.09 l 27.6,-13 c 0.6,-0.35 0.7,-0.35 0.9,-0.35 0.5,0 1,0.45 1,0.99 0,0.55 -0.4,0.8 -1,1.1 l -26.1,12.35 z"
           inkscape:connector-curvature="0"
           style="fill:#000000;stroke-width:0" /><path
           id="path19409"
           d="m 1324.3,374.34 0.2,0.36 0.2,0.33 0.3,0.31 0.2,0.29 0.2,0.28 0.2,0.25 0.2,0.24 0.2,0.22 0.3,0.2 0.2,0.18 0.2,0.18 0.2,0.15 0.2,0.15 0.2,0.13 0.2,0.11 0.2,0.11 0.2,0.1 0.2,0.08 0.2,0.08 0.2,0.06 0.2,0.06 0.2,0.05 0.1,0.04 0.2,0.04 0.2,0.03 0.2,0.02 0.4,0.04 0.3,0.03 0.4,0.02 c 0.6,0.05 0.6,0.9 0.6,0.95 0,0.39 -0.2,0.59 -0.6,0.59 l -9.1,0 c -0.3,0 -0.9,0 -0.9,-0.95 0,-0.54 0.4,-0.59 0.8,-0.59 1.3,-0.1 2.3,-0.6 2.3,-1.64 0,-0.75 -0.8,-1.85 -0.8,-1.9 l -15.2,-24.31 -3.4,26.35 c 0,0.85 1.1,1.5 3.4,1.5 0.7,0 1.2,0 1.2,0.99 0,0.45 -0.4,0.55 -0.7,0.55 -2,0 -4.1,-0.15 -6.1,-0.15 -0.9,0 -1.9,0.05 -2.8,0.05 -0.9,0 -1.8,0.1 -2.7,0.1 -0.3,0 -0.9,0 -0.9,-0.95 0,-0.59 0.4,-0.59 1.2,-0.59 2.8,0 2.9,-0.45 3,-1.69 l 4,-30.74 c 0.1,-1 0.3,-1.15 1,-1.15 0.8,0 0.9,0.25 1.3,0.9 z"
           inkscape:connector-curvature="0"
           style="fill:#000000;stroke-width:0" /><path
           id="path19411"
           d="m 1333.7,361.18 0,0.04 0,0.04 0,0.04 0,0.04 0,0.04 0,0.04 0,0.03 0,0.04 0,0.03 0,0.03 0,0.04 0,0.03 0,0.02 0,0.03 0,0.03 0,0.03 -0.1,0.02 0,0.02 0,0.05 0,0.04 0,0.04 0,0.03 0,0.03 -0.1,0.03 0,0.03 0,0.02 0,0.02 -0.1,0.02 0,0.01 0,0.01 -0.1,0.02 0,0 -0.1,0.01 0,0 0,0.01 0,0 -0.1,0 0,0 0,0 -0.1,0.01 0,0 0,0 -0.1,0 0,0 0,0 -0.1,0 0,0 -0.1,0 0,0 -0.1,0 c -2.2,-2.19 -5.4,-2.23 -6.8,-2.23 l 0,-1.25 c 0.8,0 3.1,0 5.1,0.97 l 0,-17.78 c 0,-1.15 0,-1.61 -3.5,-1.61 l -1.4,0 0,-1.25 12.5,0 0,1.25 -1.3,0 c -3.5,0 -3.5,0.46 -3.5,1.61 z"
           inkscape:connector-curvature="0"
           style="fill:#000000;stroke-width:0" /></g>    </g>
  </g>
  <g
     inkscape:groupmode="layer"
     id="layer8"
     inkscape:label="Boundary"
     transform="translate(-73.617378,-100.59461)">
    <rect
       style="fill:none;fill-opacity:1;stroke:none;stroke-width:10;stroke-miterlimit:4;stroke-dasharray:none;stroke-dashoffset:0;stroke-opacity:1"
       id="rect19502"
       width="557.38873"
       height="638.01727"
       x="73.617378"
       y="100.59461" />
  </g>
</svg>
