<?xml version="1.0" encoding="UTF-8" standalone="no"?>
<!-- Created with Inkscape (http://www.inkscape.org/) -->

<svg
   xmlns:dc="http://purl.org/dc/elements/1.1/"
   xmlns:cc="http://creativecommons.org/ns#"
   xmlns:rdf="http://www.w3.org/1999/02/22-rdf-syntax-ns#"
   xmlns:svg="http://www.w3.org/2000/svg"
   xmlns="http://www.w3.org/2000/svg"
   xmlns:sodipodi="http://sodipodi.sourceforge.net/DTD/sodipodi-0.dtd"
   xmlns:inkscape="http://www.inkscape.org/namespaces/inkscape"
   width="84.369453mm"
   height="84.369453mm"
   viewBox="0 0 298.94688 298.94688"
   id="svg325332"
   version="1.1"
   inkscape:version="0.91 r13725"
   sodipodi:docname="polytropic.svg"
   inkscape:export-filename="/home/sandeep/Desktop/figures/polytropic.png"
   inkscape:export-xdpi="90"
   inkscape:export-ydpi="90">
  <sodipodi:namedview
     id="base"
     pagecolor="#ffffff"
     bordercolor="#666666"
     borderopacity="1.0"
     inkscape:pageopacity="0.0"
     inkscape:pageshadow="2"
     inkscape:zoom="0.98994949"
     inkscape:cx="120.52227"
     inkscape:cy="163.172"
     inkscape:document-units="px"
     inkscape:current-layer="layer4"
     showgrid="true"
     inkscape:window-width="1317"
     inkscape:window-height="744"
     inkscape:window-x="49"
     inkscape:window-y="24"
     inkscape:window-maximized="1"
     showguides="false"
     inkscape:object-paths="true"
     inkscape:object-nodes="true"
     inkscape:snap-others="false"
     inkscape:snap-global="true"
     inkscape:snap-smooth-nodes="true"
     inkscape:snap-grids="false"
     inkscape:snap-to-guides="false"
     inkscape:snap-nodes="false"
     fit-margin-top="0"
     fit-margin-left="0"
     fit-margin-right="0"
     fit-margin-bottom="0">
    <inkscape:grid
       id="grid325995"
       type="xygrid"
       originx="-331.31227"
       originy="-539.88374" />
  </sodipodi:namedview>
  <defs
     id="defs325334">
    <marker
       inkscape:stockid="Arrow1Mend"
       orient="auto"
       refY="0"
       refX="0"
       id="marker327035"
       style="overflow:visible"
       inkscape:isstock="true">
      <path
         id="path327037"
         d="M 0,0 5,-5 -12.5,0 5,5 0,0 Z"
         style="fill:#000000;fill-opacity:1;fill-rule:evenodd;stroke:#000000;stroke-width:1pt;stroke-opacity:1"
         transform="matrix(-0.4,0,0,-0.4,-4,0)"
         inkscape:connector-curvature="0" />
    </marker>
    <marker
       inkscape:stockid="Arrow1Mend"
       orient="auto"
       refY="0"
       refX="0"
       id="marker326887"
       style="overflow:visible"
       inkscape:isstock="true">
      <path
         id="path326889"
         d="M 0,0 5,-5 -12.5,0 5,5 0,0 Z"
         style="fill:#000000;fill-opacity:1;fill-rule:evenodd;stroke:#000000;stroke-width:1pt;stroke-opacity:1"
         transform="matrix(-0.4,0,0,-0.4,-4,0)"
         inkscape:connector-curvature="0" />
    </marker>
    <marker
       inkscape:stockid="Arrow1Mend"
       orient="auto"
       refY="0"
       refX="0"
       id="marker326751"
       style="overflow:visible"
       inkscape:isstock="true">
      <path
         id="path326753"
         d="M 0,0 5,-5 -12.5,0 5,5 0,0 Z"
         style="fill:#000000;fill-opacity:1;fill-rule:evenodd;stroke:#000000;stroke-width:1pt;stroke-opacity:1"
         transform="matrix(-0.4,0,0,-0.4,-4,0)"
         inkscape:connector-curvature="0" />
    </marker>
    <marker
       inkscape:stockid="Arrow1Mend"
       orient="auto"
       refY="0"
       refX="0"
       id="marker326627"
       style="overflow:visible"
       inkscape:isstock="true">
      <path
         id="path326629"
         d="M 0,0 5,-5 -12.5,0 5,5 0,0 Z"
         style="fill:#000000;fill-opacity:1;fill-rule:evenodd;stroke:#000000;stroke-width:1pt;stroke-opacity:1"
         transform="matrix(-0.4,0,0,-0.4,-4,0)"
         inkscape:connector-curvature="0" />
    </marker>
    <marker
       inkscape:stockid="Arrow1Mend"
       orient="auto"
       refY="0"
       refX="0"
       id="marker326515"
       style="overflow:visible"
       inkscape:isstock="true">
      <path
         id="path326517"
         d="M 0,0 5,-5 -12.5,0 5,5 0,0 Z"
         style="fill:#000000;fill-opacity:1;fill-rule:evenodd;stroke:#000000;stroke-width:1pt;stroke-opacity:1"
         transform="matrix(-0.4,0,0,-0.4,-4,0)"
         inkscape:connector-curvature="0" />
    </marker>
    <marker
       inkscape:stockid="Arrow1Mend"
       orient="auto"
       refY="0"
       refX="0"
       id="marker326415"
       style="overflow:visible"
       inkscape:isstock="true">
      <path
         id="path326417"
         d="M 0,0 5,-5 -12.5,0 5,5 0,0 Z"
         style="fill:#000000;fill-opacity:1;fill-rule:evenodd;stroke:#000000;stroke-width:1pt;stroke-opacity:1"
         transform="matrix(-0.4,0,0,-0.4,-4,0)"
         inkscape:connector-curvature="0" />
    </marker>
    <marker
       inkscape:stockid="Arrow1Mend"
       orient="auto"
       refY="0"
       refX="0"
       id="marker326327"
       style="overflow:visible"
       inkscape:isstock="true">
      <path
         id="path326329"
         d="M 0,0 5,-5 -12.5,0 5,5 0,0 Z"
         style="fill:#000000;fill-opacity:1;fill-rule:evenodd;stroke:#000000;stroke-width:1pt;stroke-opacity:1"
         transform="matrix(-0.4,0,0,-0.4,-4,0)"
         inkscape:connector-curvature="0" />
    </marker>
    <marker
       inkscape:stockid="Arrow1Mend"
       orient="auto"
       refY="0"
       refX="0"
       id="marker326251"
       style="overflow:visible"
       inkscape:isstock="true">
      <path
         id="path326253"
         d="M 0,0 5,-5 -12.5,0 5,5 0,0 Z"
         style="fill:#000000;fill-opacity:1;fill-rule:evenodd;stroke:#000000;stroke-width:1pt;stroke-opacity:1"
         transform="matrix(-0.4,0,0,-0.4,-4,0)"
         inkscape:connector-curvature="0" />
    </marker>
    <marker
       inkscape:stockid="Arrow1Mend"
       orient="auto"
       refY="0"
       refX="0"
       id="marker326187"
       style="overflow:visible"
       inkscape:isstock="true">
      <path
         id="path326189"
         d="M 0,0 5,-5 -12.5,0 5,5 0,0 Z"
         style="fill:#000000;fill-opacity:1;fill-rule:evenodd;stroke:#000000;stroke-width:1pt;stroke-opacity:1"
         transform="matrix(-0.4,0,0,-0.4,-4,0)"
         inkscape:connector-curvature="0" />
    </marker>
    <marker
       inkscape:stockid="Arrow1Mend"
       orient="auto"
       refY="0"
       refX="0"
       id="marker326135"
       style="overflow:visible"
       inkscape:isstock="true">
      <path
         id="path326137"
         d="M 0,0 5,-5 -12.5,0 5,5 0,0 Z"
         style="fill:#000000;fill-opacity:1;fill-rule:evenodd;stroke:#000000;stroke-width:1pt;stroke-opacity:1"
         transform="matrix(-0.4,0,0,-0.4,-4,0)"
         inkscape:connector-curvature="0" />
    </marker>
    <marker
       inkscape:collect="always"
       inkscape:isstock="true"
       style="overflow:visible"
       id="Arrow1Mend"
       refX="0"
       refY="0"
       orient="auto"
       inkscape:stockid="Arrow1Mend">
      <path
         transform="matrix(-0.4,0,0,-0.4,-4,0)"
         style="fill:#000000;fill-opacity:1;fill-rule:evenodd;stroke:#000000;stroke-width:1pt;stroke-opacity:1"
         d="M 0,0 5,-5 -12.5,0 5,5 0,0 Z"
         id="path10601"
         inkscape:connector-curvature="0" />
    </marker>
    <marker
       inkscape:isstock="true"
       style="overflow:visible"
       id="Arrow2Mstart"
       refX="0"
       refY="0"
       orient="auto"
       inkscape:stockid="Arrow2Mstart">
      <path
         transform="scale(0.6,0.6)"
         d="M 8.7185878,4.0337352 -2.2072895,0.01601326 8.7185884,-4.0017078 c -1.7454984,2.3720609 -1.7354408,5.6174519 -6e-7,8.035443 z"
         style="fill:#000000;fill-opacity:1;fill-rule:evenodd;stroke:#000000;stroke-width:0.625;stroke-linejoin:round;stroke-opacity:1"
         id="path10616"
         inkscape:connector-curvature="0" />
    </marker>
  </defs>
  <metadata
     id="metadata325337">
    <rdf:RDF>
      <cc:Work
         rdf:about="">
        <dc:format>image/svg+xml</dc:format>
        <dc:type
           rdf:resource="http://purl.org/dc/dcmitype/StillImage" />
        <dc:title />
      </cc:Work>
    </rdf:RDF>
  </metadata>
  <g
     inkscape:label="vector"
     id="layer4"
     inkscape:groupmode="layer"
     transform="translate(-331.31226,-213.53162)">
    <path
       inkscape:connector-curvature="0"
       id="path325997"
       d="m 380,452.3622 0,-185"
       style="fill:none;fill-rule:evenodd;stroke:#000000;stroke-width:1px;stroke-linecap:butt;stroke-linejoin:miter;stroke-opacity:1;marker-end:url(#Arrow1Mend)" />
    <path
       inkscape:connector-curvature="0"
       id="path325999"
       d="m 380,452.3622 220,0"
       style="fill:none;fill-rule:evenodd;stroke:#000000;stroke-width:1px;stroke-linecap:butt;stroke-linejoin:miter;stroke-opacity:1;marker-end:url(#Arrow1Mend)" />
    <path
       inkscape:connector-curvature="0"
       id="path326003"
       d="m 380,322.3622 35,0"
       style="fill:none;fill-rule:evenodd;stroke:#000000;stroke-width:1;stroke-linecap:butt;stroke-linejoin:miter;stroke-miterlimit:4;stroke-dasharray:4, 1;stroke-dashoffset:0;stroke-opacity:1" />
    <path
       inkscape:connector-curvature="0"
       id="path326005"
       d="m 525,407.3622 0,45"
       style="fill:none;fill-rule:evenodd;stroke:#000000;stroke-width:1;stroke-linecap:butt;stroke-linejoin:miter;stroke-miterlimit:4;stroke-dasharray:4, 1;stroke-dashoffset:0;stroke-opacity:1" />
    <path
       inkscape:connector-curvature="0"
       id="path326007"
       d="m 380,407.3622 145,0"
       style="fill:none;fill-rule:evenodd;stroke:#000000;stroke-width:1;stroke-linecap:butt;stroke-linejoin:miter;stroke-miterlimit:4;stroke-dasharray:4, 1;stroke-dashoffset:0;stroke-opacity:1" />
    <path
       inkscape:connector-curvature="0"
       id="path326009"
       d="m 415,322.3622 0,130"
       style="fill:none;fill-rule:evenodd;stroke:#000000;stroke-width:1;stroke-linecap:butt;stroke-linejoin:miter;stroke-miterlimit:4;stroke-dasharray:4, 1;stroke-dashoffset:0;stroke-opacity:1" />
    <ellipse
       ry="5"
       rx="10"
       cy="297.36221"
       cx="430"
       id="path327195"
       style="fill:none;fill-opacity:1;stroke:none;stroke-width:1;stroke-miterlimit:4;stroke-dasharray:4, 1;stroke-dashoffset:0;stroke-opacity:1" />
    <path
       sodipodi:nodetypes="cc"
       inkscape:connector-curvature="0"
       id="path327236"
       d="m 415,322.3622 c 34.14727,50.16807 71.87389,69.31517 110,85"
       style="fill:none;fill-rule:evenodd;stroke:#009600;stroke-width:1px;stroke-linecap:butt;stroke-linejoin:miter;stroke-opacity:1" />
    <circle
       r="2.4016078"
       cy="322.08383"
       cx="414.28461"
       id="path327203"
       style="fill:#f20000;fill-opacity:1;stroke:#ef0000;stroke-width:0.48032153;stroke-miterlimit:4;stroke-dasharray:none;stroke-dashoffset:0;stroke-opacity:1" />
    <circle
       r="2.4016078"
       cy="407.08383"
       cx="524.64172"
       id="path327203-3"
       style="fill:#ea0000;fill-opacity:1;stroke:#ea0000;stroke-width:0.48032153;stroke-miterlimit:4;stroke-dasharray:none;stroke-dashoffset:0;stroke-opacity:1" />
    <path
       sodipodi:nodetypes="cc"
       inkscape:connector-curvature="0"
       id="path327238"
       d="m 466.3728,376.26712 -6.08709,-0.92278"
       style="color:#000000;clip-rule:nonzero;display:inline;overflow:visible;visibility:visible;opacity:1;isolation:auto;mix-blend-mode:normal;color-interpolation:sRGB;color-interpolation-filters:linearRGB;solid-color:#000000;solid-opacity:1;fill:none;fill-opacity:1;fill-rule:evenodd;stroke:#009600;stroke-width:0.9065876px;stroke-linecap:round;stroke-linejoin:miter;stroke-miterlimit:4;stroke-dasharray:none;stroke-dashoffset:0;stroke-opacity:1;color-rendering:auto;image-rendering:auto;shape-rendering:auto;text-rendering:auto;enable-background:accumulate" />
    <path
       inkscape:connector-curvature="0"
       id="path327263"
       d="m 460.28571,375.34434 3.95861,-3.55476"
       style="color:#000000;clip-rule:nonzero;display:inline;overflow:visible;visibility:visible;opacity:1;isolation:auto;mix-blend-mode:normal;color-interpolation:sRGB;color-interpolation-filters:linearRGB;solid-color:#000000;solid-opacity:1;fill:none;fill-opacity:1;fill-rule:evenodd;stroke:#009600;stroke-width:1px;stroke-linecap:round;stroke-linejoin:miter;stroke-miterlimit:4;stroke-dasharray:none;stroke-dashoffset:0;stroke-opacity:1;color-rendering:auto;image-rendering:auto;shape-rendering:auto;text-rendering:auto;enable-background:accumulate" />
    <path
       inkscape:connector-curvature="0"
       id="path327279"
       d="m 464.24432,371.78958 2.12848,4.47754"
       style="color:#000000;clip-rule:nonzero;display:inline;overflow:visible;visibility:visible;opacity:1;isolation:auto;mix-blend-mode:normal;color-interpolation:sRGB;color-interpolation-filters:linearRGB;solid-color:#000000;solid-opacity:1;fill:none;fill-opacity:1;fill-rule:evenodd;stroke:#009600;stroke-width:1px;stroke-linecap:butt;stroke-linejoin:miter;stroke-miterlimit:4;stroke-dasharray:none;stroke-dashoffset:0;stroke-opacity:1;color-rendering:auto;image-rendering:auto;shape-rendering:auto;text-rendering:auto;enable-background:accumulate" />
    <path
       inkscape:connector-curvature="0"
       id="path327323"
       d="m 462.89894,375.27136 c -0.80299,-0.12316 -1.45999,-0.23332 -1.45999,-0.2448 0,-0.0115 0.20243,-0.20263 0.44984,-0.42477 0.2474,-0.22213 0.48781,-0.43861 0.53423,-0.48104 l 0.0844,-0.0772 0.94154,0.70339 c 0.51785,0.38686 0.95504,0.7152 0.97153,0.72964 0.0409,0.0358 0.11691,0.046 -1.52154,-0.20526 z"
       style="color:#000000;clip-rule:nonzero;display:inline;overflow:visible;visibility:visible;opacity:1;isolation:auto;mix-blend-mode:normal;color-interpolation:sRGB;color-interpolation-filters:linearRGB;solid-color:#000000;solid-opacity:1;fill:#009600;fill-opacity:1;fill-rule:evenodd;stroke:#009600;stroke-width:0.03156727px;stroke-linecap:butt;stroke-linejoin:miter;stroke-miterlimit:4;stroke-dasharray:none;stroke-dashoffset:0;stroke-opacity:1;color-rendering:auto;image-rendering:auto;shape-rendering:auto;text-rendering:auto;enable-background:accumulate" />
    <path
       inkscape:connector-curvature="0"
       id="path327325"
       d="m 464.14105,373.97821 -0.84861,-0.63614 0.186,-0.16965 c 0.1023,-0.0933 0.27914,-0.25249 0.39297,-0.35374 l 0.20696,-0.18409 0.46455,0.98097 c 0.2555,0.53953 0.46054,0.98498 0.45564,0.98987 -0.005,0.005 -0.39078,-0.27735 -0.85751,-0.62722 z"
       style="color:#000000;clip-rule:nonzero;display:inline;overflow:visible;visibility:visible;opacity:1;isolation:auto;mix-blend-mode:normal;color-interpolation:sRGB;color-interpolation-filters:linearRGB;solid-color:#000000;solid-opacity:1;fill:#009600;fill-opacity:1;fill-rule:evenodd;stroke:#009600;stroke-width:0.03156727px;stroke-linecap:butt;stroke-linejoin:miter;stroke-miterlimit:4;stroke-dasharray:none;stroke-dashoffset:0;stroke-opacity:1;color-rendering:auto;image-rendering:auto;shape-rendering:auto;text-rendering:auto;enable-background:accumulate" />
    <g
       id="g327375"
       transform="matrix(0.33183086,0,0,0.33183086,-8.565894,143.68852)">
      <g
         word-spacing="normal"
         letter-spacing="normal"
         font-size-adjust="none"
         font-stretch="normal"
         font-weight="normal"
         font-variant="normal"
         font-style="normal"
         stroke-miterlimit="10.433"
         xml:space="preserve"
         transform="matrix(1.0629921,0,0,-1.0629921,-186.02362,789.27165)"
         id="content"
         style="font-style:normal;font-variant:normal;font-weight:normal;font-stretch:normal;letter-spacing:normal;word-spacing:normal;text-anchor:start;fill:none;fill-opacity:1;fill-rule:evenodd;stroke:#000000;stroke-linecap:butt;stroke-linejoin:miter;stroke-miterlimit:10.43299961;stroke-dasharray:none;stroke-dashoffset:0;stroke-opacity:1"><path
           id="path327378"
           d="m 1236.1,361.74 0.2,1.3 3.4,13.55 c 0.4,1.74 0.5,1.89 2.7,1.89 l 4.8,0 c 4.1,0 6.7,-1.35 6.7,-4.78 0,-1.95 -1,-6.23 -2.9,-8.02 -2.5,-2.25 -5.5,-2.64 -7.7,-2.64 l -7,0 -0.2,-1.3 8.5,0 c 7,0 14,5.18 14,10.76 0,3.84 -3.3,7.52 -9.8,7.52 l -16.2,0 c -0.9,0 -1.5,0 -1.5,-0.95 0,-0.59 0.5,-0.59 1.5,-0.59 0.6,0 1.5,-0.05 2.1,-0.1 0.8,-0.1 1.1,-0.25 1.1,-0.8 0,-0.2 0,-0.35 -0.2,-0.94 l -6.7,-26.75 c -0.5,-1.95 -0.6,-2.35 -4.5,-2.35 -0.9,0 -1.4,0 -1.4,-0.94 0,-0.6 0.6,-0.6 0.7,-0.6 l 12.8,0 c 0.3,0 1,0 1,1 0,0.54 -0.5,0.54 -1.4,0.54 -1.9,0 -3.2,0 -3.2,0.9 0,0.3 0.1,0.55 0.1,0.85 z"
           inkscape:connector-curvature="0"
           style="fill:#000000;stroke-width:0" /></g>    </g>
    <g
       transform="matrix(0.32189581,0,0,0.32189581,232.25206,337.64478)"
       id="g327480">
      <g
         style="font-style:normal;font-variant:normal;font-weight:normal;font-stretch:normal;letter-spacing:normal;word-spacing:normal;text-anchor:start;fill:none;fill-opacity:1;fill-rule:evenodd;stroke:#000000;stroke-linecap:butt;stroke-linejoin:miter;stroke-miterlimit:10.43299961;stroke-dasharray:none;stroke-dashoffset:0;stroke-opacity:1"
         id="g327482"
         transform="matrix(1.0629921,0,0,-1.0629921,-186.02362,789.27165)"
         xml:space="preserve"
         stroke-miterlimit="10.433"
         font-style="normal"
         font-variant="normal"
         font-weight="normal"
         font-stretch="normal"
         font-size-adjust="none"
         letter-spacing="normal"
         word-spacing="normal"><path
           style="fill:#000000;stroke-width:0"
           inkscape:connector-curvature="0"
           d="m 1253.7,375.84 0.1,0.06 0,0.06 0,0.08 0,0.07 0.1,0.08 0,0.09 0.1,0.09 0,0.09 0.1,0.1 0,0.09 0.1,0.1 0.1,0.1 0,0.11 0.1,0.1 0.1,0.1 0.1,0.1 0.1,0.1 0.1,0.1 0.1,0.09 0.1,0.1 0.1,0.09 0.1,0.08 0.2,0.08 0.1,0.08 0.1,0.08 0.2,0.06 0.1,0.06 0.2,0.06 0.2,0.04 0.1,0.04 0.2,0.04 0.2,0.02 c 0.3,0 1.1,0.1 1.1,0.85 0,0.89 -0.8,0.89 -1.7,0.89 l -8,0 c -0.9,0 -1.6,0 -1.6,-0.89 0,-0.75 0.7,-0.8 1,-0.85 0.7,-0.1 1.8,-0.3 1.8,-2.89 l 1.7,0 c 0,0.65 0,1.99 -0.6,2.89 l 2.7,0 c -0.6,-0.65 -0.8,-1.25 -1.2,-2.04 -0.2,-0.55 -0.7,-1.85 -1,-2.39 0.1,0.44 0.1,1.09 0.1,1.54 l -1.7,0 c 0,-2.94 -1.6,-7.67 -2.4,-10.06 -0.4,-1 -0.4,-1.1 -4,-10.22 -0.9,1.85 -8.6,18.39 -8.6,21.63 l -1.7,0.04 c 0,-3.38 6.3,-17.33 9.5,-24.26 l -1.9,-4.53 -12.6,27.85 c -0.5,0.94 -1.4,2.34 -1.5,2.44 l 7.1,0 c -0.2,-0.2 -0.6,-0.45 -0.6,-1.5 l 1.7,-0.04 c 0,0.34 1.2,1.39 3,1.54 0.8,0.05 1,0.6 1,0.85 0,0.89 -0.8,0.89 -1.6,0.89 l -13.1,0 c -0.9,0 -1.6,0 -1.6,-0.89 0,-0.7 0.6,-0.8 1,-0.85 1.6,-0.25 2.7,-2.59 2.8,-2.74 l 13.4,-29.54 c 0.3,-0.75 0.6,-1.05 1,-1.05 0.6,0 0.7,0.25 1,1.05 z"
           id="path327484" /></g>    </g>
    <g
       transform="matrix(0.23333788,0,0,0.23333788,222.28519,224.05229)"
       id="g327730">
      <g
         style="font-style:normal;font-variant:normal;font-weight:normal;font-stretch:normal;letter-spacing:normal;word-spacing:normal;text-anchor:start;fill:none;fill-opacity:1;fill-rule:evenodd;stroke:#000000;stroke-linecap:butt;stroke-linejoin:miter;stroke-miterlimit:10.43299961;stroke-dasharray:none;stroke-dashoffset:0;stroke-opacity:1"
         id="g327732"
         transform="matrix(1.0629921,0,0,-1.0629921,-186.02362,789.27165)"
         xml:space="preserve"
         stroke-miterlimit="10.433"
         font-style="normal"
         font-variant="normal"
         font-weight="normal"
         font-stretch="normal"
         font-size-adjust="none"
         letter-spacing="normal"
         word-spacing="normal"><path
           style="fill:#000000;stroke-width:0"
           inkscape:connector-curvature="0"
           d="m 1104.1,361.74 0.2,1.3 3.4,13.55 c 0.4,1.74 0.5,1.89 2.7,1.89 l 4.8,0 c 4.1,0 6.7,-1.35 6.7,-4.78 0,-1.95 -1,-6.23 -2.9,-8.02 -2.5,-2.25 -5.5,-2.64 -7.7,-2.64 l -7,0 -0.2,-1.3 8.5,0 c 7,0 14,5.18 14,10.76 0,3.84 -3.3,7.52 -9.8,7.52 l -16.2,0 c -0.9,0 -1.5,0 -1.5,-0.95 0,-0.59 0.5,-0.59 1.5,-0.59 0.6,0 1.5,-0.05 2.1,-0.1 0.8,-0.1 1.1,-0.25 1.1,-0.8 0,-0.2 0,-0.35 -0.2,-0.94 l -6.7,-26.75 c -0.5,-1.95 -0.6,-2.35 -4.5,-2.35 -0.9,0 -1.4,0 -1.4,-0.94 0,-0.6 0.6,-0.6 0.7,-0.6 l 12.8,0 c 0.3,0 1,0 1,1 0,0.54 -0.5,0.54 -1.4,0.54 -1.9,0 -3.2,0 -3.2,0.9 0,0.3 0.1,0.55 0.1,0.85 z"
           id="path327734" /><path
           style="fill:#000000;stroke-width:0"
           inkscape:connector-curvature="0"
           d="m 1133.7,361.18 0,0.04 0,0.04 0,0.04 0,0.04 0,0.04 0,0.04 0,0.03 0,0.04 0,0.03 0,0.03 0,0.04 0,0.03 0,0.02 0,0.03 0,0.03 0,0.03 -0.1,0.02 0,0.02 0,0.05 0,0.04 0,0.04 0,0.03 0,0.03 -0.1,0.03 0,0.03 0,0.02 0,0.02 -0.1,0.02 0,0.01 0,0.01 -0.1,0.02 0,0 -0.1,0.01 0,0 0,0.01 0,0 -0.1,0 0,0 0,0 -0.1,0.01 0,0 0,0 -0.1,0 0,0 0,0 -0.1,0 0,0 -0.1,0 0,0 -0.1,0 c -2.2,-2.19 -5.4,-2.23 -6.8,-2.23 l 0,-1.25 c 0.8,0 3.1,0 5.1,0.97 l 0,-17.78 c 0,-1.15 0,-1.61 -3.5,-1.61 l -1.4,0 0,-1.25 12.5,0 0,1.25 -1.3,0 c -3.5,0 -3.5,0.46 -3.5,1.61 z"
           id="path327736" /><path
           style="fill:#000000;stroke-width:0"
           inkscape:connector-curvature="0"
           d="m 1175.7,375.84 0.1,0.06 0,0.06 0,0.08 0,0.07 0.1,0.08 0,0.09 0.1,0.09 0,0.09 0.1,0.1 0,0.09 0.1,0.1 0.1,0.1 0,0.11 0.1,0.1 0.1,0.1 0.1,0.1 0.1,0.1 0.1,0.1 0.1,0.09 0.1,0.1 0.1,0.09 0.1,0.08 0.2,0.08 0.1,0.08 0.1,0.08 0.2,0.06 0.1,0.06 0.2,0.06 0.2,0.04 0.1,0.04 0.2,0.04 0.2,0.02 c 0.3,0 1.1,0.1 1.1,0.85 0,0.89 -0.8,0.89 -1.7,0.89 l -8,0 c -0.9,0 -1.6,0 -1.6,-0.89 0,-0.75 0.7,-0.8 1,-0.85 0.7,-0.1 1.8,-0.3 1.8,-2.89 l 1.7,0 c 0,0.65 0,1.99 -0.6,2.89 l 2.7,0 c -0.6,-0.65 -0.8,-1.25 -1.2,-2.04 -0.2,-0.55 -0.7,-1.85 -1,-2.39 0.1,0.44 0.1,1.09 0.1,1.54 l -1.7,0 c 0,-2.94 -1.6,-7.67 -2.4,-10.06 -0.4,-1 -0.4,-1.1 -4,-10.22 -0.9,1.85 -8.6,18.39 -8.6,21.63 l -1.7,0.04 c 0,-3.38 6.3,-17.33 9.5,-24.26 l -1.9,-4.53 -12.6,27.85 c -0.5,0.94 -1.4,2.34 -1.5,2.44 l 7.1,0 c -0.2,-0.2 -0.6,-0.45 -0.6,-1.5 l 1.7,-0.04 c 0,0.34 1.2,1.39 3,1.54 0.8,0.05 1,0.6 1,0.85 0,0.89 -0.8,0.89 -1.6,0.89 l -13.1,0 c -0.9,0 -1.6,0 -1.6,-0.89 0,-0.7 0.6,-0.8 1,-0.85 1.6,-0.25 2.7,-2.59 2.8,-2.74 l 13.4,-29.54 c 0.3,-0.75 0.6,-1.05 1,-1.05 0.6,0 0.7,0.25 1,1.05 z"
           id="path327738" /><path
           style="fill:#000000;stroke-width:0"
           inkscape:connector-curvature="0"
           d="m 1184.2,369.2 0,-0.05 0,-0.04 0,-0.05 0,-0.05 0,-0.05 0,-0.06 0,-0.05 -0.1,-0.05 0,-0.12 0,-0.11 0,-0.11 -0.1,-0.11 0,-0.05 0,-0.06 0,-0.05 0,-0.05 0,-0.04 0,-0.05 0,-0.04 -0.1,-0.04 0,-0.04 0,-0.03 0,-0.03 0,-0.03 0,-0.03 0,-0.02 0,0 0,-0.01 0,-0.01 0,0 c 0,-0.77 0.6,-1.12 1.2,-1.12 0.6,0 1.2,0.46 1.3,0.77 0.2,0.31 0.5,1.43 0.7,2.16 0.1,0.66 0.5,2.27 0.7,3.14 0.3,0.76 0.5,1.53 0.6,2.33 0.4,1.43 0.5,1.71 1.5,3.14 1,1.4 2.6,3.21 5.2,3.21 2.1,0 2.1,-1.78 2.1,-2.44 0,-2.09 -1.5,-5.96 -2.1,-7.43 -0.3,-0.97 -0.5,-1.29 -0.5,-1.88 0,-1.85 1.5,-3 3.3,-3 3.5,0 5,4.81 5,5.33 0,0.46 -0.4,0.46 -0.5,0.46 -0.5,0 -0.5,-0.21 -0.7,-0.59 -0.8,-2.79 -2.3,-4.22 -3.7,-4.22 -0.7,0 -0.8,0.49 -0.8,1.22 0,0.8 0.1,1.25 0.8,2.82 0.4,1.08 1.8,4.78 1.8,6.73 0,3.39 -2.7,3.98 -4.5,3.98 -2.9,0 -4.9,-1.78 -5.9,-3.18 -0.3,2.41 -2.3,3.18 -3.7,3.18 -1.5,0 -2.4,-1.08 -2.8,-1.88 -0.8,-1.3 -1.3,-3.29 -1.3,-3.46 0,-0.45 0.5,-0.45 0.6,-0.45 0.5,0 0.6,0.11 0.8,1.05 0.5,2.05 1.2,3.76 2.5,3.76 0.9,0 1.2,-0.77 1.2,-1.71 0,-0.66 -0.3,-1.95 -0.6,-2.89 -0.2,-0.94 -0.6,-2.37 -0.7,-3.14 z"
           id="path327740" /><path
           style="fill:#000000;stroke-width:0"
           inkscape:connector-curvature="0"
           d="m 1191.7,356.18 0,0.04 0,0.04 0,0.04 0,0.04 0,0.04 0,0.04 0,0.03 0,0.04 0,0.03 0,0.03 0,0.04 0,0.03 0,0.02 0,0.03 0,0.03 0,0.03 -0.1,0.02 0,0.02 0,0.05 0,0.04 0,0.04 0,0.03 0,0.03 -0.1,0.03 0,0.03 0,0.02 0,0.02 -0.1,0.02 0,0.01 0,0.01 -0.1,0.02 0,0 -0.1,0.01 0,0 0,0.01 0,0 -0.1,0 0,0 0,0 -0.1,0.01 0,0 0,0 -0.1,0 0,0 0,0 -0.1,0 0,0 -0.1,0 0,0 -0.1,0 c -2.2,-2.19 -5.4,-2.23 -6.8,-2.23 l 0,-1.25 c 0.8,0 3.1,0 5.1,0.97 l 0,-17.78 c 0,-1.15 0,-1.61 -3.5,-1.61 l -1.4,0 0,-1.25 12.5,0 0,1.25 -1.3,0 c -3.5,0 -3.5,0.46 -3.5,1.61 z"
           id="path327742" /><path
           style="fill:#000000;stroke-width:0"
           inkscape:connector-curvature="0"
           d="m 1255.2,362.29 0.2,0 0.1,0 0.2,0.01 0,0 0.1,0 0.1,0.01 0,0.01 0.1,0.01 0.1,0.01 0.1,0.02 0,0.01 0.1,0.02 0,0.02 0.1,0.03 0.1,0.03 0,0.03 0.1,0.03 0,0.04 0.1,0.04 0,0.05 0.1,0.05 0,0.03 0,0.02 0,0.03 0,0.03 0,0.03 0,0.04 0.1,0.03 0,0.04 0,0.03 0,0.04 0,0.04 0,0.04 0,0.04 0,0.04 0,0.05 0,0.05 c 0,0.99 -0.9,0.99 -1.6,0.99 l -29.9,0 c -0.7,0 -1.6,0 -1.6,-0.99 0,-1 0.9,-1 1.7,-1 z"
           id="path327744" /><path
           style="fill:#000000;stroke-width:0"
           inkscape:connector-curvature="0"
           d="m 1255.3,352.62 0.1,0.01 0.1,0 0.2,0 0.1,0.01 0,0 0.1,0.01 0.1,0.01 0,0.01 0.1,0.01 0.1,0.01 0,0.02 0.1,0.02 0.1,0.02 0,0.02 0.1,0.03 0,0.03 0.1,0.04 0,0.04 0.1,0.04 0,0.04 0,0.03 0.1,0.03 0,0.02 0,0.03 0,0.03 0,0.03 0,0.03 0,0.03 0.1,0.04 0,0.03 0,0.04 0,0.04 0,0.04 0,0.04 0,0.04 0,0.04 0,0.05 0,0.04 c 0,1 -0.9,1 -1.7,1 l -29.7,0 c -0.8,0 -1.7,0 -1.7,-1 0,-1 0.9,-1 1.6,-1 z"
           id="path327746" /><path
           style="fill:#000000;stroke-width:0"
           inkscape:connector-curvature="0"
           d="m 1288.1,361.74 0.2,1.3 3.4,13.55 c 0.4,1.74 0.5,1.89 2.7,1.89 l 4.8,0 c 4.1,0 6.7,-1.35 6.7,-4.78 0,-1.95 -1,-6.23 -2.9,-8.02 -2.5,-2.25 -5.5,-2.64 -7.7,-2.64 l -7,0 -0.2,-1.3 8.5,0 c 7,0 14,5.18 14,10.76 0,3.84 -3.3,7.52 -9.8,7.52 l -16.2,0 c -0.9,0 -1.5,0 -1.5,-0.95 0,-0.59 0.5,-0.59 1.5,-0.59 0.6,0 1.5,-0.05 2.1,-0.1 0.8,-0.1 1.1,-0.25 1.1,-0.8 0,-0.2 0,-0.35 -0.2,-0.94 l -6.7,-26.75 c -0.5,-1.95 -0.6,-2.35 -4.5,-2.35 -0.9,0 -1.4,0 -1.4,-0.94 0,-0.6 0.6,-0.6 0.7,-0.6 l 12.8,0 c 0.3,0 1,0 1,1 0,0.54 -0.5,0.54 -1.4,0.54 -1.9,0 -3.2,0 -3.2,0.9 0,0.3 0.1,0.55 0.1,0.85 z"
           id="path327748" /><path
           style="fill:#000000;stroke-width:0"
           inkscape:connector-curvature="0"
           d="m 1322.6,345.35 -1.2,0 c -0.1,-0.77 -0.4,-2.83 -0.9,-3.18 -0.3,-0.21 -2.9,-0.21 -3.4,-0.21 l -6.4,0 c 3.6,3.25 4.8,4.22 6.9,5.86 2.6,2.06 5,4.22 5,7.54 0,4.21 -3.7,6.79 -8.2,6.79 -4.3,0 -7.2,-3.03 -7.2,-6.24 0,-1.78 1.5,-1.95 1.8,-1.95 0.9,0 1.9,0.59 1.9,1.85 0,0.62 -0.2,1.85 -2.1,1.85 1.1,2.47 3.5,3.24 5.1,3.24 3.5,0 5.3,-2.72 5.3,-5.54 0,-3.04 -2.1,-5.45 -3.3,-6.7 l -8.3,-8.3 c -0.4,-0.31 -0.4,-0.38 -0.4,-1.36 l 14.4,0 z"
           id="path327750" /><path
           style="fill:#000000;stroke-width:0"
           inkscape:connector-curvature="0"
           d="m 1359.7,375.84 0.1,0.06 0,0.06 0,0.08 0,0.07 0.1,0.08 0,0.09 0.1,0.09 0,0.09 0.1,0.1 0,0.09 0.1,0.1 0.1,0.1 0,0.11 0.1,0.1 0.1,0.1 0.1,0.1 0.1,0.1 0.1,0.1 0.1,0.09 0.1,0.1 0.1,0.09 0.1,0.08 0.2,0.08 0.1,0.08 0.1,0.08 0.2,0.06 0.1,0.06 0.2,0.06 0.2,0.04 0.1,0.04 0.2,0.04 0.2,0.02 c 0.3,0 1.1,0.1 1.1,0.85 0,0.89 -0.8,0.89 -1.7,0.89 l -8,0 c -0.9,0 -1.6,0 -1.6,-0.89 0,-0.75 0.7,-0.8 1,-0.85 0.7,-0.1 1.8,-0.3 1.8,-2.89 l 1.7,0 c 0,0.65 0,1.99 -0.6,2.89 l 2.7,0 c -0.6,-0.65 -0.8,-1.25 -1.2,-2.04 -0.2,-0.55 -0.7,-1.85 -1,-2.39 0.1,0.44 0.1,1.09 0.1,1.54 l -1.7,0 c 0,-2.94 -1.6,-7.67 -2.4,-10.06 -0.4,-1 -0.4,-1.1 -4,-10.22 -0.9,1.85 -8.6,18.39 -8.6,21.63 l -1.7,0.04 c 0,-3.38 6.3,-17.33 9.5,-24.26 l -1.9,-4.53 -12.6,27.85 c -0.5,0.94 -1.4,2.34 -1.5,2.44 l 7.1,0 c -0.2,-0.2 -0.6,-0.45 -0.6,-1.5 l 1.7,-0.04 c 0,0.34 1.2,1.39 3,1.54 0.8,0.05 1,0.6 1,0.85 0,0.89 -0.8,0.89 -1.6,0.89 l -13.1,0 c -0.9,0 -1.6,0 -1.6,-0.89 0,-0.7 0.6,-0.8 1,-0.85 1.6,-0.25 2.7,-2.59 2.8,-2.74 l 13.4,-29.54 c 0.3,-0.75 0.6,-1.05 1,-1.05 0.6,0 0.7,0.25 1,1.05 z"
           id="path327752" /><path
           style="fill:#000000;stroke-width:0"
           inkscape:connector-curvature="0"
           d="m 1368.2,369.2 0,-0.05 0,-0.04 0,-0.05 0,-0.05 0,-0.05 0,-0.06 0,-0.05 -0.1,-0.05 0,-0.12 0,-0.11 0,-0.11 -0.1,-0.11 0,-0.05 0,-0.06 0,-0.05 0,-0.05 0,-0.04 0,-0.05 0,-0.04 -0.1,-0.04 0,-0.04 0,-0.03 0,-0.03 0,-0.03 0,-0.03 0,-0.02 0,0 0,-0.01 0,-0.01 0,0 c 0,-0.77 0.6,-1.12 1.2,-1.12 0.6,0 1.2,0.46 1.3,0.77 0.2,0.31 0.5,1.43 0.7,2.16 0.1,0.66 0.5,2.27 0.7,3.14 0.3,0.76 0.5,1.53 0.6,2.33 0.4,1.43 0.5,1.71 1.5,3.14 1,1.4 2.6,3.21 5.2,3.21 2.1,0 2.1,-1.78 2.1,-2.44 0,-2.09 -1.5,-5.96 -2.1,-7.43 -0.3,-0.97 -0.5,-1.29 -0.5,-1.88 0,-1.85 1.5,-3 3.3,-3 3.5,0 5,4.81 5,5.33 0,0.46 -0.4,0.46 -0.5,0.46 -0.5,0 -0.5,-0.21 -0.7,-0.59 -0.8,-2.79 -2.3,-4.22 -3.7,-4.22 -0.7,0 -0.8,0.49 -0.8,1.22 0,0.8 0.1,1.25 0.8,2.82 0.4,1.08 1.8,4.78 1.8,6.73 0,3.39 -2.7,3.98 -4.5,3.98 -2.9,0 -4.9,-1.78 -5.9,-3.18 -0.3,2.41 -2.3,3.18 -3.7,3.18 -1.5,0 -2.4,-1.08 -2.8,-1.88 -0.8,-1.3 -1.3,-3.29 -1.3,-3.46 0,-0.45 0.5,-0.45 0.6,-0.45 0.5,0 0.6,0.11 0.8,1.05 0.5,2.05 1.2,3.76 2.5,3.76 0.9,0 1.2,-0.77 1.2,-1.71 0,-0.66 -0.3,-1.95 -0.6,-2.89 -0.2,-0.94 -0.6,-2.37 -0.7,-3.14 z"
           id="path327754" /><path
           style="fill:#000000;stroke-width:0"
           inkscape:connector-curvature="0"
           d="m 1381.6,340.35 -1.2,0 c -0.1,-0.77 -0.4,-2.83 -0.9,-3.18 -0.3,-0.21 -2.9,-0.21 -3.4,-0.21 l -6.4,0 c 3.6,3.25 4.8,4.22 6.9,5.86 2.6,2.06 5,4.22 5,7.54 0,4.21 -3.7,6.79 -8.2,6.79 -4.3,0 -7.2,-3.03 -7.2,-6.24 0,-1.78 1.5,-1.95 1.8,-1.95 0.9,0 1.9,0.59 1.9,1.85 0,0.62 -0.2,1.85 -2.1,1.85 1.1,2.47 3.5,3.24 5.1,3.24 3.5,0 5.3,-2.72 5.3,-5.54 0,-3.04 -2.1,-5.45 -3.3,-6.7 l -8.3,-8.3 c -0.4,-0.31 -0.4,-0.38 -0.4,-1.36 l 14.4,0 z"
           id="path327756" /></g>    </g>
    <g
       transform="matrix(0.27520445,0,0,0.27520445,56.857138,210.33344)"
       id="g327908">
      <g
         style="font-style:normal;font-variant:normal;font-weight:normal;font-stretch:normal;letter-spacing:normal;word-spacing:normal;text-anchor:start;fill:none;fill-opacity:1;fill-rule:evenodd;stroke:#000000;stroke-linecap:butt;stroke-linejoin:miter;stroke-miterlimit:10.43299961;stroke-dasharray:none;stroke-dashoffset:0;stroke-opacity:1"
         word-spacing="normal"
         letter-spacing="normal"
         font-size-adjust="none"
         font-stretch="normal"
         font-weight="normal"
         font-variant="normal"
         font-style="normal"
         stroke-miterlimit="10.433"
         xml:space="preserve"
         transform="matrix(1.0629921,0,0,-1.0629921,-186.02362,789.27165)"
         id="g327910"><path
           style="fill:#000000;stroke-width:0"
           inkscape:connector-curvature="0"
           id="path327912"
           d="m 1228.1,361.74 0.2,1.3 3.4,13.55 c 0.4,1.74 0.5,1.89 2.7,1.89 l 4.8,0 c 4.1,0 6.7,-1.35 6.7,-4.78 0,-1.95 -1,-6.23 -2.9,-8.02 -2.5,-2.25 -5.5,-2.64 -7.7,-2.64 l -7,0 -0.2,-1.3 8.5,0 c 7,0 14,5.18 14,10.76 0,3.84 -3.3,7.52 -9.8,7.52 l -16.2,0 c -0.9,0 -1.5,0 -1.5,-0.95 0,-0.59 0.5,-0.59 1.5,-0.59 0.6,0 1.5,-0.05 2.1,-0.1 0.8,-0.1 1.1,-0.25 1.1,-0.8 0,-0.2 0,-0.35 -0.2,-0.94 l -6.7,-26.75 c -0.5,-1.95 -0.6,-2.35 -4.5,-2.35 -0.9,0 -1.4,0 -1.4,-0.94 0,-0.6 0.6,-0.6 0.7,-0.6 l 12.8,0 c 0.3,0 1,0 1,1 0,0.54 -0.5,0.54 -1.4,0.54 -1.9,0 -3.2,0 -3.2,0.9 0,0.3 0.1,0.55 0.1,0.85 z" /><path
           style="fill:#000000;stroke-width:0"
           inkscape:connector-curvature="0"
           id="path327914"
           d="m 1256.7,361.18 0,0.04 0,0.04 0,0.04 0,0.04 0,0.04 0,0.04 0,0.03 0,0.04 0,0.03 0,0.03 0,0.04 0,0.03 0,0.02 0,0.03 0,0.03 0,0.03 -0.1,0.02 0,0.02 0,0.05 0,0.04 0,0.04 0,0.03 0,0.03 -0.1,0.03 0,0.03 0,0.02 0,0.02 -0.1,0.02 0,0.01 0,0.01 -0.1,0.02 0,0 -0.1,0.01 0,0 0,0.01 0,0 -0.1,0 0,0 0,0 -0.1,0.01 0,0 0,0 -0.1,0 0,0 0,0 -0.1,0 0,0 -0.1,0 0,0 -0.1,0 c -2.2,-2.19 -5.4,-2.23 -6.8,-2.23 l 0,-1.25 c 0.8,0 3.1,0 5.1,0.97 l 0,-17.78 c 0,-1.15 0,-1.61 -3.5,-1.61 l -1.4,0 0,-1.25 12.5,0 0,1.25 -1.3,0 c -3.5,0 -3.5,0.46 -3.5,1.61 z" /></g>    </g>
    <g
       transform="matrix(0.27520445,0,0,0.27520445,56.857138,296.30399)"
       id="g328074">
      <g
         style="font-style:normal;font-variant:normal;font-weight:normal;font-stretch:normal;letter-spacing:normal;word-spacing:normal;text-anchor:start;fill:none;fill-opacity:1;fill-rule:evenodd;stroke:#000000;stroke-linecap:butt;stroke-linejoin:miter;stroke-miterlimit:10.43299961;stroke-dasharray:none;stroke-dashoffset:0;stroke-opacity:1"
         id="g328076"
         transform="matrix(1.0629921,0,0,-1.0629921,-186.02362,789.27165)"
         xml:space="preserve"
         stroke-miterlimit="10.433"
         font-style="normal"
         font-variant="normal"
         font-weight="normal"
         font-stretch="normal"
         font-size-adjust="none"
         letter-spacing="normal"
         word-spacing="normal"><path
           style="fill:#000000;stroke-width:0"
           inkscape:connector-curvature="0"
           d="m 1228.1,361.74 0.2,1.3 3.4,13.55 c 0.4,1.74 0.5,1.89 2.7,1.89 l 4.8,0 c 4.1,0 6.7,-1.35 6.7,-4.78 0,-1.95 -1,-6.23 -2.9,-8.02 -2.5,-2.25 -5.5,-2.64 -7.7,-2.64 l -7,0 -0.2,-1.3 8.5,0 c 7,0 14,5.18 14,10.76 0,3.84 -3.3,7.52 -9.8,7.52 l -16.2,0 c -0.9,0 -1.5,0 -1.5,-0.95 0,-0.59 0.5,-0.59 1.5,-0.59 0.6,0 1.5,-0.05 2.1,-0.1 0.8,-0.1 1.1,-0.25 1.1,-0.8 0,-0.2 0,-0.35 -0.2,-0.94 l -6.7,-26.75 c -0.5,-1.95 -0.6,-2.35 -4.5,-2.35 -0.9,0 -1.4,0 -1.4,-0.94 0,-0.6 0.6,-0.6 0.7,-0.6 l 12.8,0 c 0.3,0 1,0 1,1 0,0.54 -0.5,0.54 -1.4,0.54 -1.9,0 -3.2,0 -3.2,0.9 0,0.3 0.1,0.55 0.1,0.85 z"
           id="path328078" /><path
           style="fill:#000000;stroke-width:0"
           inkscape:connector-curvature="0"
           d="m 1262.6,345.35 -1.2,0 c -0.1,-0.77 -0.4,-2.83 -0.9,-3.18 -0.3,-0.21 -2.9,-0.21 -3.4,-0.21 l -6.4,0 c 3.6,3.25 4.8,4.22 6.9,5.86 2.6,2.06 5,4.22 5,7.54 0,4.21 -3.7,6.79 -8.2,6.79 -4.3,0 -7.2,-3.03 -7.2,-6.24 0,-1.78 1.5,-1.95 1.8,-1.95 0.9,0 1.9,0.59 1.9,1.85 0,0.62 -0.2,1.85 -2.1,1.85 1.1,2.47 3.5,3.24 5.1,3.24 3.5,0 5.3,-2.72 5.3,-5.54 0,-3.04 -2.1,-5.45 -3.3,-6.7 l -8.3,-8.3 c -0.4,-0.31 -0.4,-0.38 -0.4,-1.36 l 14.4,0 z"
           id="path328080" /></g>    </g>
    <g
       transform="matrix(0.27453518,0,0,0.27453518,108.30146,355.88843)"
       id="g328248">
      <g
         style="font-style:normal;font-variant:normal;font-weight:normal;font-stretch:normal;letter-spacing:normal;word-spacing:normal;text-anchor:start;fill:none;fill-opacity:1;fill-rule:evenodd;stroke:#000000;stroke-linecap:butt;stroke-linejoin:miter;stroke-miterlimit:10.43299961;stroke-dasharray:none;stroke-dashoffset:0;stroke-opacity:1"
         word-spacing="normal"
         letter-spacing="normal"
         font-size-adjust="none"
         font-stretch="normal"
         font-weight="normal"
         font-variant="normal"
         font-style="normal"
         stroke-miterlimit="10.433"
         xml:space="preserve"
         transform="matrix(1.0629921,0,0,-1.0629921,-186.02362,789.27165)"
         id="g328250"><path
           style="fill:#000000;stroke-width:0"
           inkscape:connector-curvature="0"
           id="path328252"
           d="m 1242.7,375.84 0.1,0.06 0,0.06 0,0.08 0,0.07 0.1,0.08 0,0.09 0.1,0.09 0,0.09 0.1,0.1 0,0.09 0.1,0.1 0.1,0.1 0,0.11 0.1,0.1 0.1,0.1 0.1,0.1 0.1,0.1 0.1,0.1 0.1,0.09 0.1,0.1 0.1,0.09 0.1,0.08 0.2,0.08 0.1,0.08 0.1,0.08 0.2,0.06 0.1,0.06 0.2,0.06 0.2,0.04 0.1,0.04 0.2,0.04 0.2,0.02 c 0.3,0 1.1,0.1 1.1,0.85 0,0.89 -0.8,0.89 -1.7,0.89 l -8,0 c -0.9,0 -1.6,0 -1.6,-0.89 0,-0.75 0.7,-0.8 1,-0.85 0.7,-0.1 1.8,-0.3 1.8,-2.89 l 1.7,0 c 0,0.65 0,1.99 -0.6,2.89 l 2.7,0 c -0.6,-0.65 -0.8,-1.25 -1.2,-2.04 -0.2,-0.55 -0.7,-1.85 -1,-2.39 0.1,0.44 0.1,1.09 0.1,1.54 l -1.7,0 c 0,-2.94 -1.6,-7.67 -2.4,-10.06 -0.4,-1 -0.4,-1.1 -4,-10.22 -0.9,1.85 -8.6,18.39 -8.6,21.63 l -1.7,0.04 c 0,-3.38 6.3,-17.33 9.5,-24.26 l -1.9,-4.53 -12.6,27.85 c -0.5,0.94 -1.4,2.34 -1.5,2.44 l 7.1,0 c -0.2,-0.2 -0.6,-0.45 -0.6,-1.5 l 1.7,-0.04 c 0,0.34 1.2,1.39 3,1.54 0.8,0.05 1,0.6 1,0.85 0,0.89 -0.8,0.89 -1.6,0.89 l -13.1,0 c -0.9,0 -1.6,0 -1.6,-0.89 0,-0.7 0.6,-0.8 1,-0.85 1.6,-0.25 2.7,-2.59 2.8,-2.74 l 13.4,-29.54 c 0.3,-0.75 0.6,-1.05 1,-1.05 0.6,0 0.7,0.25 1,1.05 z" /><path
           style="fill:#000000;stroke-width:0"
           inkscape:connector-curvature="0"
           id="path328254"
           d="m 1258.7,361.18 0,0.04 0,0.04 0,0.04 0,0.04 0,0.04 0,0.04 0,0.03 0,0.04 0,0.03 0,0.03 0,0.04 0,0.03 0,0.02 0,0.03 0,0.03 0,0.03 -0.1,0.02 0,0.02 0,0.05 0,0.04 0,0.04 0,0.03 0,0.03 -0.1,0.03 0,0.03 0,0.02 0,0.02 -0.1,0.02 0,0.01 0,0.01 -0.1,0.02 0,0 -0.1,0.01 0,0 0,0.01 0,0 -0.1,0 0,0 0,0 -0.1,0.01 0,0 0,0 -0.1,0 0,0 0,0 -0.1,0 0,0 -0.1,0 0,0 -0.1,0 c -2.2,-2.19 -5.4,-2.23 -6.8,-2.23 l 0,-1.25 c 0.8,0 3.1,0 5.1,0.97 l 0,-17.78 c 0,-1.15 0,-1.61 -3.5,-1.61 l -1.4,0 0,-1.25 12.5,0 0,1.25 -1.3,0 c -3.5,0 -3.5,0.46 -3.5,1.61 z" /></g>    </g>
    <g
       transform="matrix(0.27453518,0,0,0.27453518,219.36897,355.88843)"
       id="g328430">
      <g
         style="font-style:normal;font-variant:normal;font-weight:normal;font-stretch:normal;letter-spacing:normal;word-spacing:normal;text-anchor:start;fill:none;fill-opacity:1;fill-rule:evenodd;stroke:#000000;stroke-linecap:butt;stroke-linejoin:miter;stroke-miterlimit:10.43299961;stroke-dasharray:none;stroke-dashoffset:0;stroke-opacity:1"
         id="g328432"
         transform="matrix(1.0629921,0,0,-1.0629921,-186.02362,789.27165)"
         xml:space="preserve"
         stroke-miterlimit="10.433"
         font-style="normal"
         font-variant="normal"
         font-weight="normal"
         font-stretch="normal"
         font-size-adjust="none"
         letter-spacing="normal"
         word-spacing="normal"><path
           style="fill:#000000;stroke-width:0"
           inkscape:connector-curvature="0"
           d="m 1242.7,375.84 0.1,0.06 0,0.06 0,0.08 0,0.07 0.1,0.08 0,0.09 0.1,0.09 0,0.09 0.1,0.1 0,0.09 0.1,0.1 0.1,0.1 0,0.11 0.1,0.1 0.1,0.1 0.1,0.1 0.1,0.1 0.1,0.1 0.1,0.09 0.1,0.1 0.1,0.09 0.1,0.08 0.2,0.08 0.1,0.08 0.1,0.08 0.2,0.06 0.1,0.06 0.2,0.06 0.2,0.04 0.1,0.04 0.2,0.04 0.2,0.02 c 0.3,0 1.1,0.1 1.1,0.85 0,0.89 -0.8,0.89 -1.7,0.89 l -8,0 c -0.9,0 -1.6,0 -1.6,-0.89 0,-0.75 0.7,-0.8 1,-0.85 0.7,-0.1 1.8,-0.3 1.8,-2.89 l 1.7,0 c 0,0.65 0,1.99 -0.6,2.89 l 2.7,0 c -0.6,-0.65 -0.8,-1.25 -1.2,-2.04 -0.2,-0.55 -0.7,-1.85 -1,-2.39 0.1,0.44 0.1,1.09 0.1,1.54 l -1.7,0 c 0,-2.94 -1.6,-7.67 -2.4,-10.06 -0.4,-1 -0.4,-1.1 -4,-10.22 -0.9,1.85 -8.6,18.39 -8.6,21.63 l -1.7,0.04 c 0,-3.38 6.3,-17.33 9.5,-24.26 l -1.9,-4.53 -12.6,27.85 c -0.5,0.94 -1.4,2.34 -1.5,2.44 l 7.1,0 c -0.2,-0.2 -0.6,-0.45 -0.6,-1.5 l 1.7,-0.04 c 0,0.34 1.2,1.39 3,1.54 0.8,0.05 1,0.6 1,0.85 0,0.89 -0.8,0.89 -1.6,0.89 l -13.1,0 c -0.9,0 -1.6,0 -1.6,-0.89 0,-0.7 0.6,-0.8 1,-0.85 1.6,-0.25 2.7,-2.59 2.8,-2.74 l 13.4,-29.54 c 0.3,-0.75 0.6,-1.05 1,-1.05 0.6,0 0.7,0.25 1,1.05 z"
           id="path328434" /><path
           style="fill:#000000;stroke-width:0"
           inkscape:connector-curvature="0"
           d="m 1264.6,345.35 -1.2,0 c -0.1,-0.77 -0.4,-2.83 -0.9,-3.18 -0.3,-0.21 -2.9,-0.21 -3.4,-0.21 l -6.4,0 c 3.6,3.25 4.8,4.22 6.9,5.86 2.6,2.06 5,4.22 5,7.54 0,4.21 -3.7,6.79 -8.2,6.79 -4.3,0 -7.2,-3.03 -7.2,-6.24 0,-1.78 1.5,-1.95 1.8,-1.95 0.9,0 1.9,0.59 1.9,1.85 0,0.62 -0.2,1.85 -2.1,1.85 1.1,2.47 3.5,3.24 5.1,3.24 3.5,0 5.3,-2.72 5.3,-5.54 0,-3.04 -2.1,-5.45 -3.3,-6.7 l -8.3,-8.3 c -0.4,-0.31 -0.4,-0.38 -0.4,-1.36 l 14.4,0 z"
           id="path328436" /></g>    </g>
    <g
       transform="matrix(0.68998332,0,0,0.68998332,187.09683,296.56619)"
       id="g334110">
      <g
         style="font-style:normal;font-variant:normal;font-weight:normal;font-stretch:normal;letter-spacing:normal;word-spacing:normal;text-anchor:start;fill:none;fill-opacity:1;fill-rule:evenodd;stroke:#000000;stroke-linecap:butt;stroke-linejoin:miter;stroke-miterlimit:10.43299961;stroke-dasharray:none;stroke-dashoffset:0;stroke-opacity:1"
         id="g334112"
         transform="matrix(0.42706697,0,0,-0.42706697,-74.73672,224.21016)"
         xml:space="preserve"
         stroke-miterlimit="10.433"
         font-style="normal"
         font-variant="normal"
         font-weight="normal"
         font-stretch="normal"
         font-size-adjust="none"
         letter-spacing="normal"
         word-spacing="normal"><path
           style="fill:#000000;stroke-width:0"
           inkscape:connector-curvature="0"
           d="m 1075.1,361.74 0.2,1.3 3.4,13.55 c 0.4,1.74 0.5,1.89 2.7,1.89 l 4.8,0 c 4.1,0 6.7,-1.35 6.7,-4.78 0,-1.95 -1,-6.23 -2.9,-8.02 -2.5,-2.25 -5.5,-2.64 -7.7,-2.64 l -7,0 -0.2,-1.3 8.5,0 c 7,0 14,5.18 14,10.76 0,3.84 -3.3,7.52 -9.8,7.52 l -16.2,0 c -0.9,0 -1.5,0 -1.5,-0.95 0,-0.59 0.5,-0.59 1.5,-0.59 0.6,0 1.5,-0.05 2.1,-0.1 0.8,-0.1 1.1,-0.25 1.1,-0.8 0,-0.2 0,-0.35 -0.2,-0.94 l -6.7,-26.75 c -0.5,-1.95 -0.6,-2.35 -4.5,-2.35 -0.9,0 -1.4,0 -1.4,-0.94 0,-0.6 0.6,-0.6 0.7,-0.6 l 12.8,0 c 0.3,0 1,0 1,1 0,0.54 -0.5,0.54 -1.4,0.54 -1.9,0 -3.2,0 -3.2,0.9 0,0.3 0.1,0.55 0.1,0.85 z"
           id="path334114" /><path
           style="fill:#000000;stroke-width:0"
           inkscape:connector-curvature="0"
           d="m 1130.7,375.84 0.1,0.06 0,0.06 0,0.08 0,0.07 0.1,0.08 0,0.09 0.1,0.09 0,0.09 0.1,0.1 0,0.09 0.1,0.1 0.1,0.1 0,0.11 0.1,0.1 0.1,0.1 0.1,0.1 0.1,0.1 0.1,0.1 0.1,0.09 0.1,0.1 0.1,0.09 0.1,0.08 0.2,0.08 0.1,0.08 0.1,0.08 0.2,0.06 0.1,0.06 0.2,0.06 0.2,0.04 0.1,0.04 0.2,0.04 0.2,0.02 c 0.3,0 1.1,0.1 1.1,0.85 0,0.89 -0.8,0.89 -1.7,0.89 l -8,0 c -0.9,0 -1.6,0 -1.6,-0.89 0,-0.75 0.7,-0.8 1,-0.85 0.7,-0.1 1.8,-0.3 1.8,-2.89 l 1.7,0 c 0,0.65 0,1.99 -0.6,2.89 l 2.7,0 c -0.6,-0.65 -0.8,-1.25 -1.2,-2.04 -0.2,-0.55 -0.7,-1.85 -1,-2.39 0.1,0.44 0.1,1.09 0.1,1.54 l -1.7,0 c 0,-2.94 -1.6,-7.67 -2.4,-10.06 -0.4,-1 -0.4,-1.1 -4,-10.22 -0.9,1.85 -8.6,18.39 -8.6,21.63 l -1.7,0.04 c 0,-3.38 6.3,-17.33 9.5,-24.26 l -1.9,-4.53 -12.6,27.85 c -0.5,0.94 -1.4,2.34 -1.5,2.44 l 7.1,0 c -0.2,-0.2 -0.6,-0.45 -0.6,-1.5 l 1.7,-0.04 c 0,0.34 1.2,1.39 3,1.54 0.8,0.05 1,0.6 1,0.85 0,0.89 -0.8,0.89 -1.6,0.89 l -13.1,0 c -0.9,0 -1.6,0 -1.6,-0.89 0,-0.7 0.6,-0.8 1,-0.85 1.6,-0.25 2.7,-2.59 2.8,-2.74 l 13.4,-29.54 c 0.3,-0.75 0.6,-1.05 1,-1.05 0.6,0 0.7,0.25 1,1.05 z"
           id="path334116" /><path
           style="fill:#000000;stroke-width:0"
           inkscape:connector-curvature="0"
           d="m 1139.2,369.2 0,-0.05 0,-0.04 0,-0.05 0,-0.05 0,-0.05 0,-0.06 0,-0.05 -0.1,-0.05 0,-0.12 0,-0.11 0,-0.11 -0.1,-0.11 0,-0.05 0,-0.06 0,-0.05 0,-0.05 0,-0.04 0,-0.05 0,-0.04 -0.1,-0.04 0,-0.04 0,-0.03 0,-0.03 0,-0.03 0,-0.03 0,-0.02 0,0 0,-0.01 0,-0.01 0,0 c 0,-0.77 0.6,-1.12 1.2,-1.12 0.6,0 1.2,0.46 1.3,0.77 0.2,0.31 0.5,1.43 0.7,2.16 0.1,0.66 0.5,2.27 0.7,3.14 0.3,0.76 0.5,1.53 0.6,2.33 0.4,1.43 0.5,1.71 1.5,3.14 1,1.4 2.6,3.21 5.2,3.21 2.1,0 2.1,-1.78 2.1,-2.44 0,-2.09 -1.5,-5.96 -2.1,-7.43 -0.3,-0.97 -0.5,-1.29 -0.5,-1.88 0,-1.85 1.5,-3 3.3,-3 3.5,0 5,4.81 5,5.33 0,0.46 -0.4,0.46 -0.5,0.46 -0.5,0 -0.5,-0.21 -0.7,-0.59 -0.8,-2.79 -2.3,-4.22 -3.7,-4.22 -0.7,0 -0.8,0.49 -0.8,1.22 0,0.8 0.1,1.25 0.8,2.82 0.4,1.08 1.8,4.78 1.8,6.73 0,3.39 -2.7,3.98 -4.5,3.98 -2.9,0 -4.9,-1.78 -5.9,-3.18 -0.3,2.41 -2.3,3.18 -3.7,3.18 -1.5,0 -2.4,-1.08 -2.8,-1.88 -0.8,-1.3 -1.3,-3.29 -1.3,-3.46 0,-0.45 0.5,-0.45 0.6,-0.45 0.5,0 0.6,0.11 0.8,1.05 0.5,2.05 1.2,3.76 2.5,3.76 0.9,0 1.2,-0.77 1.2,-1.71 0,-0.66 -0.3,-1.95 -0.6,-2.89 -0.2,-0.94 -0.6,-2.37 -0.7,-3.14 z"
           id="path334118" /><path
           style="fill:#000000;stroke-width:0"
           inkscape:connector-curvature="0"
           d="m 1210.2,362.29 0.2,0 0.1,0 0.2,0.01 0,0 0.1,0 0.1,0.01 0,0.01 0.1,0.01 0.1,0.01 0.1,0.02 0,0.01 0.1,0.02 0,0.02 0.1,0.03 0.1,0.03 0,0.03 0.1,0.03 0,0.04 0.1,0.04 0,0.05 0.1,0.05 0,0.03 0,0.02 0,0.03 0,0.03 0,0.03 0,0.04 0.1,0.03 0,0.04 0,0.03 0,0.04 0,0.04 0,0.04 0,0.04 0,0.04 0,0.05 0,0.05 c 0,0.99 -0.9,0.99 -1.6,0.99 l -29.9,0 c -0.7,0 -1.6,0 -1.6,-0.99 0,-1 0.9,-1 1.7,-1 z"
           id="path334120" /><path
           style="fill:#000000;stroke-width:0"
           inkscape:connector-curvature="0"
           d="m 1210.3,352.62 0.1,0.01 0.1,0 0.2,0 0.1,0.01 0,0 0.1,0.01 0.1,0.01 0,0.01 0.1,0.01 0.1,0.01 0,0.02 0.1,0.02 0.1,0.02 0,0.02 0.1,0.03 0,0.03 0.1,0.04 0,0.04 0.1,0.04 0,0.04 0,0.03 0.1,0.03 0,0.02 0,0.03 0,0.03 0,0.03 0,0.03 0,0.03 0.1,0.04 0,0.03 0,0.04 0,0.04 0,0.04 0,0.04 0,0.04 0,0.04 0,0.05 0,0.04 c 0,1 -0.9,1 -1.7,1 l -29.7,0 c -0.8,0 -1.7,0 -1.7,-1 0,-1 0.9,-1 1.6,-1 z"
           id="path334122" /><path
           style="fill:#000000;stroke-width:0"
           inkscape:connector-curvature="0"
           d="m 1248.7,364.93 -0.1,0 -0.2,0 -0.1,0 -0.2,-0.01 -0.1,-0.01 -0.1,-0.02 -0.1,-0.01 -0.1,-0.01 0,-0.01 -0.1,-0.02 -0.1,-0.01 0,-0.02 -0.1,-0.03 -0.1,-0.02 0,-0.03 -0.1,-0.03 -0.1,-0.03 0,-0.04 -0.1,-0.03 -0.1,-0.05 0,-0.04 -0.1,-0.05 -0.1,-0.05 0,-0.06 -0.1,-0.06 -0.1,-0.06 c -0.8,-0.75 -0.9,-1.59 -0.9,-1.94 0,-1.2 0.9,-1.74 1.9,-1.74 1.4,0 2.8,1.19 2.8,3.18 0,2.45 -2.4,4.29 -5.9,4.29 -6.7,0 -13.4,-7.13 -13.4,-14.15 0,-4.48 2.9,-8.42 8.1,-8.42 7.1,0 11.3,5.28 11.3,5.88 0,0.3 -0.3,0.65 -0.6,0.65 -0.2,0 -0.3,-0.1 -0.6,-0.5 -4,-4.93 -9.4,-4.93 -10,-4.93 -3.1,0 -4.5,2.44 -4.5,5.43 0,2.04 1,6.87 2.7,9.96 1.6,2.84 4.3,4.98 7,4.98 1.7,0 3.6,-0.65 4.3,-1.99 z"
           id="path334124" /><path
           style="fill:#000000;stroke-width:0"
           inkscape:connector-curvature="0"
           d="m 1273.4,359.6 -0.1,0.48 0,0.47 0,0.45 -0.1,0.45 -0.1,0.43 -0.1,0.42 -0.1,0.41 -0.2,0.39 -0.1,0.38 -0.2,0.37 -0.2,0.35 -0.2,0.34 -0.2,0.32 -0.2,0.31 -0.3,0.3 -0.2,0.28 -0.3,0.27 -0.3,0.25 -0.3,0.23 -0.3,0.22 -0.3,0.2 -0.4,0.19 -0.3,0.17 -0.4,0.15 -0.3,0.14 -0.4,0.11 -0.4,0.1 -0.4,0.09 -0.4,0.06 -0.4,0.05 -0.4,0.03 -0.4,0.01 -0.1,-1.1 c 2.9,0 4.4,-2.39 4.4,-5.38 0,-1.94 -1,-7.17 -2.9,-10.41 -1.7,-2.89 -4.4,-4.58 -6.7,-4.58 l 0,0 c -2.2,0 -4.4,1.54 -4.4,5.43 0,2.44 1.3,7.82 2.9,10.36 2.5,3.84 5.3,4.58 6.7,4.58 l 0.1,1.1 c -6.7,0 -13.4,-7.07 -13.4,-14.15 0,-4.93 3.4,-8.42 8,-8.42 6.6,0 13.4,6.88 13.4,14.15 z"
           id="path334126" /><path
           style="fill:#000000;stroke-width:0"
           inkscape:connector-curvature="0"
           d="m 1279.4,348.94 0,-0.07 0,-0.08 -0.1,-0.07 0,-0.08 0,-0.16 -0.1,-0.16 0,-0.16 0,-0.16 -0.1,-0.16 0,-0.16 0,-0.08 0,-0.07 -0.1,-0.07 0,-0.07 0,-0.07 0,-0.07 0,-0.06 0,-0.06 0,-0.05 0,-0.06 0,-0.05 -0.1,-0.04 0,-0.04 0,-0.04 0,-0.03 0,-0.02 c 0,-0.9 0.7,-1.35 1.5,-1.35 0.6,0 1.5,0.4 1.8,1.4 0.1,0.1 0.7,2.44 1,3.68 l 1.1,4.49 c 0.3,1.09 0.6,2.19 0.8,3.34 0.2,0.84 0.6,2.28 0.7,2.48 0.7,1.55 3.4,6.08 8.1,6.08 2.2,0 2.7,-1.84 2.7,-3.49 0,-3.08 -2.5,-9.46 -3.3,-11.6 -0.4,-1.15 -0.5,-1.74 -0.5,-2.29 0,-2.34 1.8,-4.09 4.1,-4.09 4.7,0 6.5,7.28 6.5,7.67 0,0.5 -0.4,0.5 -0.6,0.5 -0.5,0 -0.5,-0.15 -0.7,-0.89 -1,-3.39 -2.6,-6.18 -5.1,-6.18 -0.8,0 -1.2,0.5 -1.2,1.64 0,1.25 0.5,2.44 0.9,3.54 1,2.64 3.1,8.12 3.1,10.96 0,3.33 -2.2,5.33 -5.8,5.33 -4.4,0 -6.9,-3.19 -7.7,-4.34 -0.3,2.79 -2.3,4.34 -4.6,4.34 -2.3,0 -3.3,-1.95 -3.8,-2.84 -0.8,-1.7 -1.5,-4.63 -1.5,-4.83 0,-0.5 0.5,-0.5 0.6,-0.5 0.5,0 0.6,0.05 0.9,1.14 0.8,3.54 1.8,5.93 3.6,5.93 1,0 1.6,-0.65 1.6,-2.29 0,-1.04 -0.2,-1.59 -0.8,-4.18 z"
           id="path334128" /><path
           style="fill:#000000;stroke-width:0"
           inkscape:connector-curvature="0"
           d="m 1323.5,364.63 -0.2,-0.01 -0.1,-0.01 -0.1,-0.02 -0.1,-0.03 -0.1,-0.03 -0.2,-0.03 -0.1,-0.04 -0.1,-0.05 -0.1,-0.05 -0.1,-0.05 -0.1,-0.06 -0.1,-0.06 -0.1,-0.07 -0.1,-0.07 -0.1,-0.07 0,-0.08 -0.1,-0.08 -0.1,-0.08 -0.1,-0.09 0,-0.08 -0.1,-0.09 0,-0.1 -0.1,-0.09 0,-0.1 -0.1,-0.09 0,-0.1 0,-0.1 -0.1,-0.1 0,-0.11 0,-0.1 0,-0.1 0,-0.1 c 0,-0.7 0.4,-1.44 1.5,-1.44 1.1,0 2.3,0.84 2.3,2.78 0,2.25 -2.1,4.29 -5.9,4.29 -6.6,0 -8.4,-5.08 -8.4,-7.27 0,-3.89 3.7,-4.64 5.1,-4.94 2.6,-0.49 5.2,-1.04 5.2,-3.78 0,-1.3 -1.2,-5.48 -7.1,-5.48 -0.7,0 -4.6,0 -5.7,2.64 1.9,-0.25 3.1,1.24 3.1,2.64 0,1.14 -0.8,1.74 -1.8,1.74 -1.3,0 -2.8,-1.04 -2.8,-3.28 0,-2.84 2.8,-4.84 7.1,-4.84 8.1,0 10,6.03 10,8.27 0,1.8 -0.9,3.04 -1.5,3.64 -1.4,1.39 -2.8,1.64 -5,2.09 -1.8,0.4 -3.8,0.75 -3.8,2.99 0,1.44 1.2,4.48 5.6,4.48 1.2,0 3.7,-0.35 4.5,-2.29 z"
           id="path334130" /><path
           style="fill:#000000;stroke-width:0"
           inkscape:connector-curvature="0"
           d="m 1338.3,365.93 4.6,0 c 1,0 1.5,0 1.5,0.99 0,0.55 -0.5,0.55 -1.4,0.55 l -4.3,0 c 1.7,7.07 2,8.07 2,8.37 0,0.84 -0.6,1.34 -1.4,1.34 -0.2,0 -1.6,-0.05 -2,-1.79 l -2,-7.92 -4.7,0 c -1,0 -1.5,0 -1.5,-0.95 0,-0.59 0.4,-0.59 1.4,-0.59 l 4.4,0 c -3.6,-14.15 -3.8,-15 -3.8,-15.89 0,-2.7 1.9,-4.59 4.6,-4.59 5.1,0 7.9,7.28 7.9,7.67 0,0.5 -0.4,0.5 -0.6,0.5 -0.4,0 -0.4,-0.15 -0.7,-0.69 -2.1,-5.19 -4.8,-6.38 -6.5,-6.38 -1,0 -1.5,0.65 -1.5,2.29 0,1.2 0.1,1.54 0.3,2.39 z"
           id="path334132" /><path
           style="fill:#000000;stroke-width:0"
           inkscape:connector-curvature="0"
           d="m 1364.6,364.83 -0.1,0.17 -0.1,0.17 -0.1,0.16 -0.1,0.16 -0.1,0.16 -0.1,0.16 -0.1,0.15 -0.1,0.14 -0.1,0.15 -0.1,0.13 -0.2,0.14 -0.1,0.13 -0.1,0.12 -0.1,0.12 -0.2,0.11 -0.1,0.11 -0.2,0.11 -0.1,0.09 -0.1,0.1 -0.2,0.08 -0.2,0.08 -0.1,0.08 -0.2,0.07 -0.2,0.06 -0.1,0.05 -0.2,0.05 -0.2,0.04 -0.2,0.03 -0.2,0.03 -0.2,0.02 -0.2,0.01 -0.2,0.01 0.1,-1.1 c 3.2,0 3.9,-4.08 3.9,-4.38 0,-0.3 -0.1,-0.6 -0.2,-0.85 l -2.5,-9.76 c -0.2,-0.9 -0.2,-1 -1,-1.84 -2.1,-2.75 -4.2,-3.54 -5.6,-3.54 -2.5,0 -3.2,2.74 -3.2,4.68 0,2.49 1.6,8.62 2.8,10.91 1.5,2.94 3.8,4.78 5.8,4.78 l -0.1,1.1 c -5.8,0 -12,-7.32 -12,-14.6 0,-4.68 2.7,-7.97 6.6,-7.97 1,0 3.5,0.2 6.5,3.74 0.4,-2.09 2.1,-3.74 4.5,-3.74 1.8,0 2.9,1.15 3.7,2.74 0.9,1.79 1.5,4.83 1.5,4.93 0,0.5 -0.4,0.5 -0.6,0.5 -0.5,0 -0.5,-0.2 -0.7,-0.89 -0.8,-3.24 -1.7,-6.18 -3.8,-6.18 -1.3,0 -1.5,1.29 -1.5,2.29 0,1.09 0.1,1.49 0.7,3.69 0.5,2.09 0.6,2.59 1.1,4.48 l 1.8,6.97 c 0.3,1.4 0.3,1.5 0.3,1.7 0,0.84 -0.6,1.34 -1.4,1.34 -1.2,0 -2,-1.09 -2.1,-2.19 z"
           id="path334134" /><path
           style="fill:#000000;stroke-width:0"
           inkscape:connector-curvature="0"
           d="m 1376.4,348.94 0,-0.07 0,-0.08 -0.1,-0.07 0,-0.08 0,-0.16 -0.1,-0.16 0,-0.16 0,-0.16 -0.1,-0.16 0,-0.16 0,-0.08 0,-0.07 -0.1,-0.07 0,-0.07 0,-0.07 0,-0.07 0,-0.06 0,-0.06 0,-0.05 0,-0.06 0,-0.05 -0.1,-0.04 0,-0.04 0,-0.04 0,-0.03 0,-0.02 c 0,-0.9 0.7,-1.35 1.5,-1.35 0.6,0 1.5,0.4 1.8,1.4 0.1,0.1 0.7,2.44 1,3.68 l 1.1,4.49 c 0.3,1.09 0.6,2.19 0.8,3.34 0.2,0.84 0.6,2.28 0.7,2.48 0.7,1.55 3.4,6.08 8.1,6.08 2.2,0 2.7,-1.84 2.7,-3.49 0,-3.08 -2.5,-9.46 -3.3,-11.6 -0.4,-1.15 -0.5,-1.74 -0.5,-2.29 0,-2.34 1.8,-4.09 4.1,-4.09 4.7,0 6.5,7.28 6.5,7.67 0,0.5 -0.4,0.5 -0.6,0.5 -0.5,0 -0.5,-0.15 -0.7,-0.89 -1,-3.39 -2.6,-6.18 -5.1,-6.18 -0.8,0 -1.2,0.5 -1.2,1.64 0,1.25 0.5,2.44 0.9,3.54 1,2.64 3.1,8.12 3.1,10.96 0,3.33 -2.2,5.33 -5.8,5.33 -4.4,0 -6.9,-3.19 -7.7,-4.34 -0.3,2.79 -2.3,4.34 -4.6,4.34 -2.3,0 -3.3,-1.95 -3.8,-2.84 -0.8,-1.7 -1.5,-4.63 -1.5,-4.83 0,-0.5 0.5,-0.5 0.6,-0.5 0.5,0 0.6,0.05 0.9,1.14 0.8,3.54 1.8,5.93 3.6,5.93 1,0 1.6,-0.65 1.6,-2.29 0,-1.04 -0.2,-1.59 -0.8,-4.18 z"
           id="path334136" /><path
           style="fill:#000000;stroke-width:0"
           inkscape:connector-curvature="0"
           d="m 1412.3,365.93 4.6,0 c 1,0 1.5,0 1.5,0.99 0,0.55 -0.5,0.55 -1.4,0.55 l -4.3,0 c 1.7,7.07 2,8.07 2,8.37 0,0.84 -0.6,1.34 -1.4,1.34 -0.2,0 -1.6,-0.05 -2,-1.79 l -2,-7.92 -4.7,0 c -1,0 -1.5,0 -1.5,-0.95 0,-0.59 0.4,-0.59 1.4,-0.59 l 4.4,0 c -3.6,-14.15 -3.8,-15 -3.8,-15.89 0,-2.7 1.9,-4.59 4.6,-4.59 5.1,0 7.9,7.28 7.9,7.67 0,0.5 -0.4,0.5 -0.6,0.5 -0.4,0 -0.4,-0.15 -0.7,-0.69 -2.1,-5.19 -4.8,-6.38 -6.5,-6.38 -1,0 -1.5,0.65 -1.5,2.29 0,1.2 0.1,1.54 0.3,2.39 z"
           id="path334138" /></g>    </g>
    <g
       id="g4450"
       transform="matrix(0.62748171,0,0,0.62748171,334.89496,461.99271)">
      <g
         word-spacing="normal"
         letter-spacing="normal"
         font-size-adjust="none"
         font-stretch="normal"
         font-weight="normal"
         font-variant="normal"
         font-style="normal"
         stroke-miterlimit="10.433"
         xml:space="preserve"
         transform="matrix(0.42706697,0,0,-0.42706697,-74.73672,224.21016)"
         id="g4452"
         style="font-style:normal;font-variant:normal;font-weight:normal;font-stretch:normal;letter-spacing:normal;word-spacing:normal;text-anchor:start;fill:none;fill-opacity:1;fill-rule:evenodd;stroke:#000000;stroke-linecap:butt;stroke-linejoin:miter;stroke-miterlimit:10.43299961;stroke-dasharray:none;stroke-dashoffset:0;stroke-opacity:1"><path
           id="path4454"
           d="m 467.31,421.74 -0.15,1.3 0,13.44 c 0,1.65 0.1,2 2.44,2 l 4.43,0 c 7.92,0 7.92,-5.28 7.92,-7.72 0,-2.35 0,-7.72 -7.92,-7.72 l -6.87,0 0.15,-1.3 8.42,0 c 5.97,0 11.35,4.04 11.35,9.02 0,4.88 -4.93,9.26 -11.75,9.26 l -17.59,0 0,-1.54 1.2,0 c 3.83,0 3.94,-0.55 3.94,-2.34 l 0,-26.25 c 0,-1.8 -0.11,-2.35 -3.94,-2.35 l -1.2,0 0,-1.54 14.7,0 0,1.54 -1.2,0 c -3.83,0 -3.93,0.55 -3.93,2.35 z"
           inkscape:connector-curvature="0"
           style="fill:#000000;stroke-width:0" /><path
           id="path4456"
           d="m 511.46,416.66 -0.01,0.59 -0.05,0.59 -0.07,0.58 -0.09,0.57 -0.13,0.56 -0.15,0.55 -0.17,0.54 -0.2,0.53 -0.22,0.52 -0.25,0.5 -0.26,0.49 -0.29,0.47 -0.31,0.46 -0.33,0.44 -0.35,0.42 -0.36,0.41 -0.39,0.39 -0.4,0.36 -0.41,0.35 -0.44,0.33 -0.44,0.3 -0.46,0.29 -0.48,0.26 -0.48,0.23 -0.5,0.21 -0.51,0.19 -0.52,0.16 -0.53,0.13 -0.54,0.1 -0.55,0.08 -0.56,0.04 -0.56,0.02 -0.05,-1.1 c 2.19,0 4.34,-1.1 5.63,-3.24 1.3,-2.14 1.3,-5.03 1.3,-6.92 0,-1.79 0,-4.49 -1.1,-6.68 -1.09,-2.24 -3.28,-3.68 -5.78,-3.68 l 0,0 c -2.14,0 -4.33,1.04 -5.68,3.34 -1.24,2.19 -1.24,5.23 -1.24,7.02 0,1.94 0,4.63 1.2,6.82 1.34,2.3 3.68,3.34 5.67,3.34 l 0.05,1.1 c -6.22,0 -11.06,-5.43 -11.06,-11.66 0,-6.43 5.18,-11.21 11.01,-11.21 6.03,0 11.06,4.88 11.06,11.21 z"
           inkscape:connector-curvature="0"
           style="fill:#000000;stroke-width:0" /><path
           id="path4458"
           d="m 521.82,440.57 -7.17,-0.55 0,-1.54 c 3.48,0 3.88,-0.35 3.88,-2.79 l 0,-25.9 c 0,-2.25 -0.55,-2.25 -3.88,-2.25 l 0,-1.54 11.05,0 0,1.54 c -3.34,0 -3.88,0 -3.88,2.25 z"
           inkscape:connector-curvature="0"
           style="fill:#000000;stroke-width:0" /><path
           id="path4460"
           d="m 547.67,422.74 0.06,0.14 0.07,0.14 0.06,0.14 0.07,0.13 0.07,0.13 0.07,0.12 0.07,0.12 0.07,0.12 0.15,0.21 0.15,0.21 0.16,0.19 0.16,0.17 0.16,0.16 0.17,0.15 0.17,0.13 0.17,0.13 0.17,0.11 0.17,0.1 0.17,0.09 0.17,0.08 0.16,0.07 0.17,0.06 0.16,0.06 0.16,0.04 0.16,0.04 0.15,0.04 0.15,0.03 0.14,0.02 0.13,0.02 0.13,0.01 0.13,0.01 0.11,0.01 0.11,0 0.1,0 0.09,0.01 0.07,0 0,1.54 -8.07,0 0,-1.54 c 1.55,-0.05 2.35,-0.9 2.35,-2.14 0,-0.5 -0.05,-0.61 -0.3,-1.2 l -5.03,-12.26 -5.53,13.4 c -0.2,0.5 -0.3,0.7 -0.3,0.9 0,1.3 1.84,1.3 2.79,1.3 l 0,1.54 -10.26,0 0,-1.54 c 2.39,0 3.33,0 4.03,-1.75 L 539.45,406 c -0.25,-0.65 -0.94,-2.29 -1.24,-2.94 -1.1,-2.74 -2.49,-6.18 -5.68,-6.18 -0.25,0 -1.4,0 -2.34,0.9 1.54,0.2 1.94,1.29 1.94,2.09 0,1.3 -0.95,2.09 -2.09,2.09 -1,0 -2.09,-0.64 -2.09,-2.14 0,-2.24 2.09,-4.03 4.58,-4.03 3.14,0 5.18,2.84 6.38,5.68 z"
           inkscape:connector-curvature="0"
           style="fill:#000000;stroke-width:0" /><path
           id="path4462"
           d="m 561.62,425.93 7.12,0 0,1.54 -7.12,0 0,9.17 -1.25,0 c -0.05,-4.09 -1.54,-9.42 -6.42,-9.62 l 0,-1.09 4.23,0 0,-13.75 c 0,-6.13 4.63,-6.73 6.42,-6.73 3.55,0 4.94,3.54 4.94,6.73 l 0,2.84 -1.25,0 0,-2.74 c 0,-3.69 -1.49,-5.58 -3.33,-5.58 -3.34,0 -3.34,4.53 -3.34,5.38 z"
           inkscape:connector-curvature="0"
           style="fill:#000000;stroke-width:0" /><path
           id="path4464"
           d="m 580.32,422.54 0,5.48 -6.92,-0.55 0,-1.54 c 3.48,0 3.88,-0.35 3.88,-2.79 l 0,-13.35 c 0,-2.25 -0.55,-2.25 -3.88,-2.25 l 0,-1.54 12,0 0,1.54 -1.05,0 c -3.68,0 -3.78,0.55 -3.78,2.35 l 0,7.66 c 0,4.94 2.09,9.37 5.88,9.37 0.34,0 0.45,0 0.54,-0.05 -0.15,-0.05 -1.14,-0.65 -1.14,-1.94 0,-1.39 1.05,-2.14 2.14,-2.14 0.9,0 2.14,0.59 2.14,2.19 0,1.59 -1.54,3.04 -3.68,3.04 -3.64,0 -5.43,-3.34 -6.13,-5.48 z"
           inkscape:connector-curvature="0"
           style="fill:#000000;stroke-width:0" /><path
           id="path4466"
           d="m 615.46,416.66 -0.01,0.59 -0.05,0.59 -0.07,0.58 -0.09,0.57 -0.13,0.56 -0.15,0.55 -0.17,0.54 -0.2,0.53 -0.22,0.52 -0.25,0.5 -0.26,0.49 -0.29,0.47 -0.31,0.46 -0.33,0.44 -0.35,0.42 -0.36,0.41 -0.39,0.39 -0.4,0.36 -0.41,0.35 -0.44,0.33 -0.44,0.3 -0.46,0.29 -0.48,0.26 -0.48,0.23 -0.5,0.21 -0.51,0.19 -0.52,0.16 -0.53,0.13 -0.54,0.1 -0.55,0.08 -0.56,0.04 -0.56,0.02 -0.05,-1.1 c 2.19,0 4.34,-1.1 5.63,-3.24 1.3,-2.14 1.3,-5.03 1.3,-6.92 0,-1.79 0,-4.49 -1.1,-6.68 -1.09,-2.24 -3.28,-3.68 -5.78,-3.68 l 0,0 c -2.14,0 -4.33,1.04 -5.68,3.34 -1.24,2.19 -1.24,5.23 -1.24,7.02 0,1.94 0,4.63 1.2,6.82 1.34,2.3 3.68,3.34 5.67,3.34 l 0.05,1.1 c -6.22,0 -11.05,-5.43 -11.05,-11.66 0,-6.43 5.17,-11.21 11,-11.21 6.03,0 11.06,4.88 11.06,11.21 z"
           inkscape:connector-curvature="0"
           style="fill:#000000;stroke-width:0" /><path
           id="path4468"
           d="m 625.57,424.73 0,3.29 -7.17,-0.55 0,-1.54 c 3.53,0 3.88,-0.31 3.88,-2.5 l 0,-23.31 c 0,-2.24 -0.55,-2.24 -3.88,-2.24 l 0,-1.54 11.2,0 0,1.54 c -3.33,0 -3.88,0 -3.88,2.24 l 0,8.37 0,0.45 0.69,0.65 c -0.69,1.04 -0.69,1.09 -0.69,2.09 l 0,0 0,11.11 c 1.44,2.54 3.88,3.98 6.43,3.98 3.63,0 6.67,-4.38 6.67,-10.01 0,-6.03 -3.49,-10.21 -7.17,-10.21 -2,0 -3.89,0.99 -5.24,3.04 l -0.69,-0.65 c 0.25,-0.8 2.34,-3.49 6.12,-3.49 5.93,0 11.11,4.88 11.11,11.31 0,6.33 -4.83,11.26 -10.41,11.26 -3.88,0 -5.98,-2.2 -6.97,-3.29 z"
           inkscape:connector-curvature="0"
           style="fill:#000000;stroke-width:0" /><path
           id="path4470"
           d="m 653.82,428.02 -6.98,-0.55 0,-1.54 c 3.24,0 3.69,-0.31 3.69,-2.75 l 0,-13.39 c 0,-2.25 -0.55,-2.25 -3.88,-2.25 l 0,-1.54 10.65,0 0,1.54 c -3.28,0 -3.48,0.25 -3.48,2.19 z"
           inkscape:connector-curvature="0"
           style="fill:#000000;stroke-width:0" /><path
           id="path4472"
           d="m 654.02,436.68 -0.01,0.15 -0.01,0.15 -0.02,0.14 -0.02,0.13 -0.03,0.14 -0.04,0.13 -0.04,0.13 -0.05,0.12 -0.06,0.12 -0.06,0.11 -0.06,0.11 -0.07,0.11 -0.08,0.1 -0.08,0.1 -0.08,0.09 -0.09,0.09 -0.09,0.09 -0.1,0.07 -0.1,0.08 -0.11,0.07 -0.1,0.06 -0.11,0.06 -0.12,0.06 -0.11,0.05 -0.12,0.04 -0.12,0.04 -0.13,0.03 -0.12,0.03 -0.13,0.02 -0.13,0.01 -0.12,0.01 -0.13,0 c -1.55,0 -2.65,-1.34 -2.65,-2.64 0,-1.34 1.1,-2.64 2.65,-2.64 1.39,0 2.64,1.05 2.64,2.64 z"
           inkscape:connector-curvature="0"
           style="fill:#000000;stroke-width:0" /><path
           id="path4474"
           d="m 663.83,416.86 0,0.38 0.01,0.36 0.01,0.36 0.02,0.35 0.03,0.34 0.03,0.34 0.04,0.32 0.04,0.32 0.05,0.31 0.05,0.3 0.05,0.29 0.06,0.29 0.14,0.54 0.15,0.52 0.16,0.49 0.19,0.46 0.19,0.43 0.21,0.4 0.22,0.37 0.23,0.35 0.24,0.33 0.25,0.3 0.26,0.28 0.26,0.25 0.27,0.23 0.28,0.21 0.27,0.19 0.28,0.17 0.29,0.15 0.28,0.13 0.28,0.11 0.28,0.09 0.28,0.08 0.28,0.06 0.27,0.05 0.26,0.03 0.26,0.02 0.25,0.01 c 0.45,0 3.59,-0.05 5.33,-1.84 -2.04,-0.15 -2.34,-1.64 -2.34,-2.29 0,-1.3 0.9,-2.3 2.29,-2.3 1.3,0 2.29,0.85 2.29,2.34 0,3.4 -3.78,5.34 -7.62,5.34 -6.22,0 -10.8,-5.38 -10.8,-11.56 0,-6.38 4.92,-11.31 10.7,-11.31 6.68,0 8.27,5.98 8.27,6.48 0,0.5 -0.49,0.5 -0.65,0.5 -0.44,0 -0.54,-0.2 -0.64,-0.5 -1.45,-4.63 -4.68,-5.23 -6.53,-5.23 -2.64,0 -7.02,2.14 -7.02,10.16 z"
           inkscape:connector-curvature="0"
           style="fill:#000000;stroke-width:0" /><path
           id="path4476"
           d="m 708.31,421.74 -0.15,1.3 0,13.44 c 0,1.65 0.1,2 2.44,2 l 4.43,0 c 7.92,0 7.92,-5.28 7.92,-7.72 0,-2.35 0,-7.72 -7.92,-7.72 l -6.87,0 0.15,-1.3 8.42,0 c 5.97,0 11.35,4.04 11.35,9.02 0,4.88 -4.93,9.26 -11.75,9.26 l -17.59,0 0,-1.54 1.2,0 c 3.83,0 3.94,-0.55 3.94,-2.34 l 0,-26.25 c 0,-1.8 -0.11,-2.35 -3.94,-2.35 l -1.2,0 0,-1.54 14.7,0 0,1.54 -1.2,0 c -3.83,0 -3.93,0.55 -3.93,2.35 z"
           inkscape:connector-curvature="0"
           style="fill:#000000;stroke-width:0" /><path
           id="path4478"
           d="m 739.32,422.54 0,5.48 -6.92,-0.55 0,-1.54 c 3.48,0 3.88,-0.35 3.88,-2.79 l 0,-13.35 c 0,-2.25 -0.55,-2.25 -3.88,-2.25 l 0,-1.54 12,0 0,1.54 -1.05,0 c -3.68,0 -3.78,0.55 -3.78,2.35 l 0,7.66 c 0,4.94 2.09,9.37 5.88,9.37 0.34,0 0.45,0 0.54,-0.05 -0.15,-0.05 -1.14,-0.65 -1.14,-1.94 0,-1.39 1.05,-2.14 2.14,-2.14 0.9,0 2.14,0.59 2.14,2.19 0,1.59 -1.54,3.04 -3.68,3.04 -3.64,0 -5.43,-3.34 -6.13,-5.48 z"
           inkscape:connector-curvature="0"
           style="fill:#000000;stroke-width:0" /><path
           id="path4480"
           d="m 774.46,416.66 -0.01,0.59 -0.05,0.59 -0.07,0.58 -0.09,0.57 -0.13,0.56 -0.15,0.55 -0.17,0.54 -0.2,0.53 -0.22,0.52 -0.25,0.5 -0.26,0.49 -0.29,0.47 -0.31,0.46 -0.33,0.44 -0.35,0.42 -0.36,0.41 -0.39,0.39 -0.4,0.36 -0.41,0.35 -0.44,0.33 -0.44,0.3 -0.46,0.29 -0.48,0.26 -0.48,0.23 -0.5,0.21 -0.51,0.19 -0.52,0.16 -0.53,0.13 -0.54,0.1 -0.55,0.08 -0.56,0.04 -0.56,0.02 -0.05,-1.1 c 2.19,0 4.34,-1.1 5.63,-3.24 1.3,-2.14 1.3,-5.03 1.3,-6.92 0,-1.79 0,-4.49 -1.1,-6.68 -1.09,-2.24 -3.28,-3.68 -5.78,-3.68 l 0,0 c -2.14,0 -4.33,1.04 -5.68,3.34 -1.24,2.19 -1.24,5.23 -1.24,7.02 0,1.94 0,4.63 1.2,6.82 1.34,2.3 3.68,3.34 5.67,3.34 l 0.05,1.1 c -6.22,0 -11.05,-5.43 -11.05,-11.66 0,-6.43 5.17,-11.21 11,-11.21 6.03,0 11.06,4.88 11.06,11.21 z"
           inkscape:connector-curvature="0"
           style="fill:#000000;stroke-width:0" /><path
           id="path4482"
           d="m 782.83,416.86 0,0.38 0.01,0.36 0.01,0.36 0.02,0.35 0.03,0.34 0.03,0.34 0.04,0.32 0.04,0.32 0.05,0.31 0.05,0.3 0.05,0.29 0.06,0.29 0.14,0.54 0.15,0.52 0.16,0.49 0.19,0.46 0.19,0.43 0.21,0.4 0.22,0.37 0.23,0.35 0.24,0.33 0.25,0.3 0.26,0.28 0.26,0.25 0.27,0.23 0.28,0.21 0.27,0.19 0.28,0.17 0.29,0.15 0.28,0.13 0.28,0.11 0.28,0.09 0.28,0.08 0.28,0.06 0.27,0.05 0.26,0.03 0.26,0.02 0.25,0.01 c 0.45,0 3.59,-0.05 5.33,-1.84 -2.04,-0.15 -2.34,-1.64 -2.34,-2.29 0,-1.3 0.9,-2.3 2.29,-2.3 1.3,0 2.29,0.85 2.29,2.34 0,3.4 -3.78,5.34 -7.62,5.34 -6.22,0 -10.8,-5.38 -10.8,-11.56 0,-6.38 4.92,-11.31 10.7,-11.31 6.68,0 8.27,5.98 8.27,6.48 0,0.5 -0.49,0.5 -0.65,0.5 -0.44,0 -0.54,-0.2 -0.64,-0.5 -1.45,-4.63 -4.68,-5.23 -6.53,-5.23 -2.64,0 -7.02,2.14 -7.02,10.16 z"
           inkscape:connector-curvature="0"
           style="fill:#000000;stroke-width:0" /><path
           id="path4484"
           d="m 804.53,417.51 0.05,1.04 c 0.3,7.43 4.48,8.67 6.18,8.67 5.13,0 5.63,-6.72 5.63,-8.67 l -11.81,0 -0.05,-1.04 13.9,0 c 1.09,0 1.24,0 1.24,1.04 0,4.93 -2.69,9.77 -8.91,9.77 -5.78,0 -10.36,-5.14 -10.36,-11.36 0,-6.67 5.22,-11.51 10.95,-11.51 6.08,0 8.32,5.53 8.32,6.48 0,0.5 -0.4,0.6 -0.65,0.6 -0.44,0 -0.54,-0.3 -0.64,-0.7 -1.75,-5.13 -6.23,-5.13 -6.73,-5.13 -2.49,0 -4.48,1.49 -5.63,3.34 -1.49,2.39 -1.49,5.67 -1.49,7.47 z"
           inkscape:connector-curvature="0"
           style="fill:#000000;stroke-width:0" /><path
           id="path4486"
           d="m 831.36,415.66 0.11,-0.02 0.13,-0.02 0.14,-0.03 0.16,-0.03 0.17,-0.04 0.18,-0.05 0.18,-0.05 0.2,-0.05 0.21,-0.06 0.21,-0.07 0.21,-0.08 0.22,-0.09 0.22,-0.09 0.22,-0.1 0.22,-0.12 0.22,-0.12 0.22,-0.13 0.21,-0.14 0.2,-0.15 0.2,-0.16 0.19,-0.18 0.18,-0.19 0.17,-0.2 0.16,-0.21 0.14,-0.22 0.07,-0.12 0.06,-0.12 0.06,-0.13 0.05,-0.12 0.05,-0.13 0.05,-0.14 0.04,-0.14 0.03,-0.14 0.03,-0.15 0.03,-0.15 0.02,-0.15 0.01,-0.16 0.01,-0.16 0,-0.17 c 0,-2.54 -1.74,-4.53 -5.63,-4.53 -4.18,0 -5.98,2.84 -6.92,7.07 -0.15,0.65 -0.2,0.85 -0.7,0.85 -0.64,0 -0.64,-0.35 -0.64,-1.25 l 0,-6.57 c 0,-0.85 0,-1.2 0.54,-1.2 0.25,0 0.3,0.05 1.25,1 0.09,0.1 0.09,0.2 0.99,1.14 2.19,-2.09 4.44,-2.14 5.48,-2.14 5.73,0 8.02,3.34 8.02,6.93 0,2.64 -1.49,4.13 -2.09,4.73 -1.64,1.59 -3.59,1.99 -5.68,2.39 -2.79,0.55 -6.13,1.2 -6.13,4.09 0,1.74 1.3,3.78 5.58,3.78 5.48,0 5.73,-4.48 5.83,-6.03 0.05,-0.45 0.5,-0.45 0.6,-0.45 0.65,0 0.65,0.25 0.65,1.2 l 0,5.03 c 0,0.85 0,1.2 -0.55,1.2 -0.25,0 -0.35,0 -0.99,-0.6 -0.16,-0.2 -0.65,-0.65 -0.85,-0.8 -1.9,1.4 -3.94,1.4 -4.69,1.4 -6.08,0 -7.96,-3.34 -7.96,-6.13 0,-1.74 0.79,-3.14 2.13,-4.23 1.6,-1.3 2.99,-1.6 6.58,-2.3 z"
           inkscape:connector-curvature="0"
           style="fill:#000000;stroke-width:0" /><path
           id="path4488"
           d="m 851.36,415.66 0.11,-0.02 0.13,-0.02 0.14,-0.03 0.16,-0.03 0.17,-0.04 0.18,-0.05 0.18,-0.05 0.2,-0.05 0.21,-0.06 0.21,-0.07 0.21,-0.08 0.22,-0.09 0.22,-0.09 0.22,-0.1 0.22,-0.12 0.22,-0.12 0.22,-0.13 0.21,-0.14 0.2,-0.15 0.2,-0.16 0.19,-0.18 0.18,-0.19 0.17,-0.2 0.16,-0.21 0.14,-0.22 0.07,-0.12 0.06,-0.12 0.06,-0.13 0.05,-0.12 0.05,-0.13 0.05,-0.14 0.04,-0.14 0.03,-0.14 0.03,-0.15 0.03,-0.15 0.02,-0.15 0.01,-0.16 0.01,-0.16 0,-0.17 c 0,-2.54 -1.74,-4.53 -5.63,-4.53 -4.18,0 -5.98,2.84 -6.92,7.07 -0.15,0.65 -0.2,0.85 -0.7,0.85 -0.64,0 -0.64,-0.35 -0.64,-1.25 l 0,-6.57 c 0,-0.85 0,-1.2 0.54,-1.2 0.25,0 0.3,0.05 1.25,1 0.09,0.1 0.09,0.2 0.99,1.14 2.19,-2.09 4.44,-2.14 5.48,-2.14 5.73,0 8.02,3.34 8.02,6.93 0,2.64 -1.49,4.13 -2.09,4.73 -1.64,1.59 -3.59,1.99 -5.68,2.39 -2.79,0.55 -6.13,1.2 -6.13,4.09 0,1.74 1.3,3.78 5.58,3.78 5.48,0 5.73,-4.48 5.83,-6.03 0.05,-0.45 0.5,-0.45 0.6,-0.45 0.65,0 0.65,0.25 0.65,1.2 l 0,5.03 c 0,0.85 0,1.2 -0.55,1.2 -0.25,0 -0.35,0 -0.99,-0.6 -0.16,-0.2 -0.65,-0.65 -0.85,-0.8 -1.9,1.4 -3.94,1.4 -4.69,1.4 -6.08,0 -7.96,-3.34 -7.96,-6.13 0,-1.74 0.79,-3.14 2.13,-4.23 1.6,-1.3 2.99,-1.6 6.58,-2.3 z"
           inkscape:connector-curvature="0"
           style="fill:#000000;stroke-width:0" /></g>    </g>
  </g>
  <g
     inkscape:groupmode="layer"
     id="layer5"
     inkscape:label="boundary"
     transform="translate(-331.31226,-213.53162)">
    <rect
       style="color:#000000;clip-rule:nonzero;display:inline;overflow:visible;visibility:visible;opacity:1;isolation:auto;mix-blend-mode:normal;color-interpolation:sRGB;color-interpolation-filters:linearRGB;solid-color:#000000;solid-opacity:1;fill:none;fill-opacity:1;fill-rule:evenodd;stroke:none;stroke-width:1;stroke-linecap:butt;stroke-linejoin:miter;stroke-miterlimit:4;stroke-dasharray:none;stroke-dashoffset:0;stroke-opacity:1;color-rendering:auto;image-rendering:auto;shape-rendering:auto;text-rendering:auto;enable-background:accumulate"
       id="rect328786"
       width="298.94687"
       height="298.94687"
       x="331.31226"
       y="213.53162" />
    <g
       transform="matrix(0.705712,0,0,0.705712,108.60904,274.81826)"
       id="g333063">
      <g
         style="font-style:normal;font-variant:normal;font-weight:normal;font-stretch:normal;letter-spacing:normal;word-spacing:normal;text-anchor:start;fill:none;fill-opacity:1;fill-rule:evenodd;stroke:#000000;stroke-linecap:butt;stroke-linejoin:miter;stroke-miterlimit:10.43299961;stroke-dasharray:none;stroke-dashoffset:0;stroke-opacity:1"
         id="g333065"
         transform="matrix(0.42706697,0,0,-0.42706697,-74.73672,224.21016)"
         xml:space="preserve"
         stroke-miterlimit="10.433"
         font-style="normal"
         font-variant="normal"
         font-weight="normal"
         font-stretch="normal"
         font-size-adjust="none"
         letter-spacing="normal"
         word-spacing="normal"><path
           style="fill:#000000;stroke-width:0"
           inkscape:connector-curvature="0"
           d="m 1242.6,377.88 0,0.05 0,0.06 0,0.05 0,0.05 0,0.05 0,0.05 0,0.04 0,0.05 0,0.04 0,0.04 0,0.04 0,0.04 0,0.04 0,0.04 0,0.03 0,0.04 0,0.03 0,0.03 0,0.06 0,0.05 0,0.05 0,0.05 -0.1,0.04 0,0.04 0,0.04 0,0.03 -0.1,0.02 0,0.03 0,0.02 -0.1,0.02 0,0.01 0,0.01 -0.1,0 0,0.01 0,0.01 0,0 -0.1,0.01 0,0 0,0.01 -0.1,0 0,0 0,0 -0.1,0.01 0,0 -0.1,0 0,0 -0.1,0 0,0 0,0.01 -0.1,0 0,0 -0.1,0 c -3.1,-3.19 -7.5,-3.19 -9.1,-3.19 l 0,-1.55 c 1,0 4,0 6.6,1.3 l 0,-25.81 c 0,-1.79 -0.2,-2.39 -4.7,-2.39 l -1.6,0 0,-1.54 16.2,0 0,1.54 -1.6,0 c -4.5,0 -4.7,0.55 -4.7,2.39 z"
           id="path333067" /></g>    </g>
    <g
       transform="matrix(0.705712,0,0,0.705712,208.90596,348.03255)"
       id="g333305">
      <g
         style="font-style:normal;font-variant:normal;font-weight:normal;font-stretch:normal;letter-spacing:normal;word-spacing:normal;text-anchor:start;fill:none;fill-opacity:1;fill-rule:evenodd;stroke:#000000;stroke-linecap:butt;stroke-linejoin:miter;stroke-miterlimit:10.43299961;stroke-dasharray:none;stroke-dashoffset:0;stroke-opacity:1"
         word-spacing="normal"
         letter-spacing="normal"
         font-size-adjust="none"
         font-stretch="normal"
         font-weight="normal"
         font-variant="normal"
         font-style="normal"
         stroke-miterlimit="10.433"
         xml:space="preserve"
         transform="matrix(0.42706697,0,0,-0.42706697,-74.73672,224.21016)"
         id="g333307"><path
           style="fill:#000000;stroke-width:0"
           inkscape:connector-curvature="0"
           id="path333309"
           d="m 1234.3,349.84 5.3,5.12 c 7.8,6.88 10.8,9.57 10.8,14.55 0,5.68 -4.5,9.67 -10.6,9.67 -5.6,0 -9.3,-4.59 -9.3,-9.02 0,-2.79 2.5,-2.79 2.6,-2.79 0.9,0 2.6,0.6 2.6,2.64 0,1.29 -0.9,2.59 -2.6,2.59 -0.4,0 -0.5,0 -0.7,-0.05 1.2,3.24 3.9,5.08 6.8,5.08 4.5,0 6.6,-4.03 6.6,-8.12 0,-3.98 -2.5,-7.92 -5.2,-11.01 l -9.6,-10.66 c -0.5,-0.54 -0.5,-0.64 -0.5,-1.84 l 18.5,0 1.4,8.67 -1.3,0 c -0.2,-1.5 -0.6,-3.69 -1.1,-4.44 -0.3,-0.39 -3.6,-0.39 -4.7,-0.39 z" /></g>    </g>
  </g>
</svg>
